<?xml version="1.0" encoding="utf-8"?>
<!-- Generator: Adobe Illustrator 23.0.1, SVG Export Plug-In . SVG Version: 6.00 Build 0)  -->
<svg version="1.1" id="图层_1" xmlns="http://www.w3.org/2000/svg" xmlns:xlink="http://www.w3.org/1999/xlink" x="0px" y="0px"
	 viewBox="0 0 244.377 145.275" style="enable-background:new 0 0 244.377 145.275;" xml:space="preserve">
<style type="text/css">
	.st0{fill:#79A4FD;}
	.st1{fill:#5F49DC;}
	.st2{fill:#D4D4FC;}
	.st3{fill:#FFFFFF;}
	.st4{fill:#E1E1FF;}
	.st5{fill:#08C5DB;}
	.st6{fill:#EEEEFF;}
	.st7{fill:#6D68FC;}
	.st8{fill:#1EB9FF;}
	.st9{fill:#E34898;}
	.st10{fill:#FFCB8A;}
	.st11{fill:#FCC8BD;}
	.st12{fill:#030A29;}
	.st13{fill:#EEB8AC;}
	.st14{fill:#0A1438;}
	.st15{fill:#FEFFFD;}
	.st16{fill:#9C62DD;}
</style>
<g>
	<g>
		<path class="st0" d="M124.344,21.633c0.001-0.011,0.006-0.02,0.006-0.031V3.998c0-0.005-0.002-0.008-0.003-0.013
			c-0.001-0.017-0.006-0.033-0.01-0.05c-0.004-0.016-0.008-0.033-0.015-0.047c-0.002-0.004-0.002-0.009-0.004-0.013
			c-0.006-0.01-0.015-0.016-0.021-0.025c-0.011-0.014-0.021-0.028-0.035-0.04c-0.012-0.01-0.025-0.018-0.038-0.026
			c-0.015-0.009-0.029-0.017-0.045-0.022c-0.016-0.005-0.032-0.007-0.049-0.01c-0.012-0.002-0.022-0.007-0.034-0.007
			c-0.005,0-0.009,0.003-0.014,0.003c-0.016,0.001-0.032,0.006-0.048,0.01c-0.017,0.004-0.033,0.008-0.049,0.015
			c-0.004,0.002-0.009,0.002-0.013,0.004l-3.864,2.164c-0.122,0.068-0.166,0.223-0.098,0.345c0.046,0.083,0.133,0.13,0.221,0.13
			c0.042,0,0.085-0.01,0.124-0.032l3.487-1.953v17.022l-3.735,2.091c-0.122,0.068-0.166,0.223-0.098,0.345
			c0.046,0.083,0.133,0.13,0.221,0.13c0.042,0,0.085-0.01,0.124-0.032l3.864-2.163c0.01-0.006,0.016-0.015,0.025-0.022
			c0.014-0.01,0.028-0.021,0.039-0.034c0.011-0.012,0.019-0.026,0.027-0.04c0.008-0.014,0.016-0.027,0.021-0.042
			C124.339,21.668,124.342,21.651,124.344,21.633z"/>
		<path class="st0" d="M117.706,18.041c-0.528-0.339-1.192-0.361-1.74-0.054L73.089,41.993c-0.99,0.554-1.603,1.603-1.6,2.737
			l0.016,6.204c0.001,0.607,0.321,1.15,0.84,1.452l-0.001,0.002l1.596,0.893l0.248-0.443l-1.516-0.848
			c-0.406-0.201-0.658-0.605-0.659-1.057l-0.016-6.204c-0.002-0.951,0.511-1.829,1.341-2.293l42.877-24.006
			c0.393-0.22,0.853-0.203,1.229,0.044l1.891,1.056l0.248-0.443l-1.874-1.049L117.706,18.041z"/>
	</g>
	<path class="st0" d="M244.368,99.032c0-0.14-0.113-0.253-0.254-0.253c-0.14,0-0.253,0.113-0.253,0.253v3.685
		c0,0.001-0.001,0.002-0.001,0.003c-0.012,0.157-0.098,0.292-0.237,0.369l-30.053,16.83c-0.085,0.047-0.174,0.083-0.266,0.108v-3.17
		c0-0.14-0.113-0.253-0.253-0.253c-0.14,0-0.253,0.113-0.253,0.253v3.204c-0.147-0.021-0.292-0.067-0.424-0.142l-46.441-26.007
		c-0.108-0.06-0.173-0.171-0.173-0.295v-3.659c0-0.14-0.113-0.254-0.254-0.254c-0.14,0-0.253,0.113-0.253,0.254v3.659
		c0,0.31,0.161,0.586,0.432,0.737l23.121,12.948l-4.276,2.394l-34.846-19.509c-0.122-0.068-0.276-0.026-0.345,0.098
		c-0.068,0.122-0.025,0.277,0.098,0.345l34.916,19.548c0.047,0.043,0.107,0.067,0.17,0.067c0.042,0,0.085-0.01,0.124-0.032
		l0.005-0.003c0.004-0.002,0.008-0.004,0.012-0.007l4.605-2.578c0.018-0.01,0.031-0.025,0.045-0.039l22.813,12.776
		c0.261,0.146,0.553,0.219,0.846,0.219c0.293,0,0.585-0.073,0.846-0.219l30.053-16.83c0.285-0.159,0.469-0.449,0.494-0.773
		c0-0.001,0-0.002,0-0.002c0-0.006,0.003-0.01,0.003-0.016V99.032z"/>
	<g>
		<polygon class="st0" points="200.291,130.762 88.008,67.912 62.092,82.426 158.119,136.205 158.148,136.188 174.374,145.275 		"/>
	</g>
	<g>
		<path class="st1" d="M187.069,67.547C187.069,67.546,187.069,67.546,187.069,67.547l-0.001-4.687l-2.181,1.385l-45.032-25.218
			c-2.244-1.256-4.979-1.256-7.223,0L91.944,61.81l-0.006-0.003L22.6,100.637l-2.382-1.648v5.22l0.01,0.001
			c0.051,1.155,0.648,2.288,1.804,2.936l45.399,25.424c2.244,1.256,4.979,1.256,7.223,0l73.177-40.98l0.009,0.005l37.414-20.952
			c1.199-0.671,1.801-1.864,1.812-3.062l0.002,0V67.547z"/>
	</g>
	<g>
		<path class="st0" d="M42.545,85.668c-0.042,0-0.085-0.01-0.124-0.032l-7.66-4.289c-0.122-0.068-0.166-0.223-0.098-0.345
			c0.069-0.123,0.223-0.166,0.345-0.098l7.66,4.289c0.122,0.068,0.166,0.223,0.098,0.345C42.72,85.622,42.634,85.668,42.545,85.668z
			"/>
	</g>
	<g>
		<path class="st2" d="M147.831,86.823l0.009,0.005l37.414-20.952c2.419-1.355,2.419-4.836,0-6.191L139.853,34.26
			c-2.244-1.256-4.979-1.256-7.223,0L91.945,57.044l-0.006-0.003L22.033,96.188c-2.419,1.355-2.419,4.836,0,6.191l45.399,25.424
			c2.244,1.256,4.979,1.256,7.223,0L147.831,86.823z"/>
	</g>
	<g>
		<path class="st3" d="M140.576,86.919l0.006,0.004l36.542-20.464c0.403-0.226,0.403-0.806,0-1.032l-46.442-26.008
			c-0.449-0.251-0.996-0.251-1.445,0L94.215,59.032l-0.005-0.003L34.26,92.601c-0.403,0.226-0.403,0.806,0,1.032l46.441,26.007
			c0.449,0.251,0.996,0.251,1.445,0L140.576,86.919z"/>
	</g>
	<g>
		<ellipse class="st3" cx="49.362" cy="109.787" rx="5.707" ry="2.772"/>
	</g>
	<g>
		<ellipse class="st2" cx="49.362" cy="109.787" rx="4.879" ry="2.37"/>
	</g>
	<g>
		<path class="st4" d="M242.38,100.53c-0.042,0-0.085-0.01-0.124-0.032l-45.474-25.466l-28.54,15.983
			c-0.121,0.068-0.277,0.025-0.345-0.098c-0.068-0.122-0.025-0.277,0.098-0.345l28.664-16.052c0.077-0.043,0.17-0.043,0.248,0
			l45.597,25.535c0.122,0.068,0.166,0.223,0.098,0.345C242.555,100.484,242.468,100.53,242.38,100.53z"/>
	</g>
	<g>
		<path class="st2" d="M197.439,72.386c-0.439-0.246-0.974-0.246-1.414,0L165.554,89.45c-0.406,0.227-0.406,0.811,0,1.039
			l46.748,26.179c0.452,0.253,1.002,0.253,1.454,0l30.251-16.941c0.493-0.276,0.493-0.986,0-1.262L197.439,72.386z"/>
	</g>
	<g>
		<path class="st2" d="M97.966,70.468c-0.089,0-0.175-0.047-0.221-0.13c-0.068-0.122-0.025-0.277,0.098-0.345l43.935-24.599
			c0.122-0.068,0.276-0.025,0.345,0.098c0.068,0.122,0.025,0.277-0.098,0.345L98.09,70.436
			C98.051,70.458,98.008,70.468,97.966,70.468z"/>
	</g>
	<g>
		<path class="st2" d="M101.753,72.679c-0.089,0-0.175-0.047-0.221-0.13c-0.068-0.122-0.025-0.277,0.098-0.345l27.332-15.303
			c0.122-0.067,0.277-0.025,0.345,0.098c0.068,0.122,0.025,0.277-0.098,0.345l-27.332,15.303
			C101.838,72.669,101.795,72.679,101.753,72.679z"/>
	</g>
	<g>
		<path class="st2" d="M162.006,75.825c-0.042,0-0.085-0.01-0.124-0.032l-32.909-18.425c-0.122-0.068-0.166-0.223-0.098-0.345
			c0.068-0.123,0.223-0.165,0.345-0.098L162.13,75.35c0.122,0.068,0.166,0.223,0.098,0.345
			C162.181,75.778,162.095,75.825,162.006,75.825z"/>
	</g>
	<g>
		<path class="st5" d="M120.232,61.505c0-1.888-1.531-3.419-3.419-3.419c-1.888,0-3.419,1.531-3.419,3.419
			c0,0-0.258,2.838,3.416,5.919l-0.001,0.002c0.001-0.001,0.001-0.001,0.002-0.002c0.001,0.001,0.001,0.001,0.002,0.002l0.004-0.007
			c3.386-2.842,3.427-5.476,3.414-5.865C120.231,61.538,120.232,61.522,120.232,61.505z"/>
	</g>
	<g>
		<circle class="st3" cx="116.812" cy="61.651" r="1.928"/>
	</g>
	<g>
		
			<rect x="42.581" y="91.79" transform="matrix(0.8728 -0.4881 0.4881 0.8728 -37.4253 40.4991)" class="st2" width="32.794" height="0.507"/>
	</g>
	<g>
		<path class="st2" d="M137.838,88.782c-0.042,0-0.085-0.01-0.124-0.032l-32.423-18.153c-0.122-0.068-0.166-0.223-0.098-0.345
			c0.069-0.123,0.223-0.166,0.345-0.098l32.423,18.153c0.122,0.068,0.166,0.223,0.098,0.345
			C138.013,88.736,137.927,88.782,137.838,88.782z"/>
	</g>
	<g>
		
			<rect x="65.403" y="80.947" transform="matrix(0.4885 -0.8726 0.8726 0.4885 -54.4044 108.8654)" class="st2" width="0.507" height="39.782"/>
	</g>
	<g>
		<path class="st2" d="M83.013,110.809c-0.089,0-0.175-0.047-0.221-0.13c-0.068-0.122-0.025-0.277,0.098-0.345l47.084-26.361
			c0.121-0.068,0.276-0.025,0.345,0.098c0.068,0.122,0.025,0.277-0.098,0.345l-47.084,26.361
			C83.098,110.798,83.055,110.809,83.013,110.809z"/>
	</g>
	<g>
		<path class="st2" d="M38.588,96.812c-0.089,0-0.175-0.047-0.221-0.13c-0.068-0.122-0.025-0.277,0.098-0.345l9.713-5.438
			c0.121-0.068,0.276-0.025,0.345,0.098c0.068,0.122,0.025,0.277-0.098,0.345l-9.713,5.438
			C38.673,96.802,38.63,96.812,38.588,96.812z"/>
	</g>
	<g>
		<polygon class="st6" points="200.291,126.976 88.008,64.127 62.092,78.64 158.119,132.419 158.148,132.403 174.374,141.49 		"/>
	</g>
	<g>
		<path class="st7" d="M161.648,51.427l-7.84-4.391c-0.218-0.122-0.484-0.122-0.702,0l-0.252,0.141c-0.196,0.11-0.196,0.392,0,0.502
			l7.84,4.391c0.218,0.122,0.484,0.122,0.702,0l0.252-0.141C161.844,51.819,161.844,51.537,161.648,51.427z"/>
	</g>
	<g>
		
			<ellipse transform="matrix(0.129 -0.9916 0.9916 0.129 85.5809 188.8446)" class="st7" cx="150.294" cy="45.704" rx="0.424" ry="0.715"/>
	</g>
	<g>
		<polygon class="st3" points="201.019,80.86 196.53,78.345 174.872,90.474 179.361,92.989 		"/>
	</g>
	<g>
		<polygon class="st8" points="197.983,84.773 181.325,94.102 185.814,96.617 202.473,87.288 		"/>
	</g>
	<g>
		<polygon class="st3" points="195.219,93.586 187.81,97.735 192.299,100.25 199.708,96.101 		"/>
	</g>
	<g>
		<polygon class="st8" points="224.904,98.717 207.227,108.616 211.716,111.131 229.393,101.232 		"/>
	</g>
	<g>
		<polygon class="st8" points="209.092,93.088 194.289,101.378 198.778,103.893 213.582,95.603 		"/>
	</g>
	<g>
		<polygon class="st3" points="211.737,98.857 200.761,105.004 205.25,107.519 216.227,101.372 		"/>
	</g>
	<g>
		<path class="st0" d="M21.96,79.78c-7.861,0-14.36-3.109-14.571-7.015c-0.061-1.136,0.389-2.227,1.338-3.241
			c2.334-2.494,7.257-4.086,12.849-4.156c0.124-0.001,0.249-0.002,0.372-0.002c7.86,0,14.36,3.109,14.57,7.015
			c0.061,1.136-0.389,2.227-1.338,3.241c-2.333,2.494-7.256,4.086-12.848,4.156l0,0C22.208,79.779,22.084,79.78,21.96,79.78z
			 M22.329,79.524h0.005H22.329z M21.956,65.872c-0.125,0-0.248,0.001-0.373,0.002c-5.375,0.067-10.276,1.635-12.484,3.995
			c-0.852,0.91-1.256,1.875-1.202,2.867c0.2,3.7,6.685,6.613,14.43,6.533l0,0c5.375-0.067,10.276-1.636,12.484-3.996
			c0.852-0.909,1.256-1.874,1.202-2.867C35.816,68.768,29.546,65.872,21.956,65.872z"/>
	</g>
	<g>
		<path class="st6" d="M202.733,49.019l-44.441-24.888c-0.872-0.489-1.936-0.489-2.808,0L137.95,33.95
			c-0.98,0.549-0.98,1.959,0,2.508l44.441,24.888c0.872,0.489,1.936,0.489,2.809,0l17.533-9.819
			C203.712,50.978,203.712,49.568,202.733,49.019z"/>
	</g>
	<g>
		<path class="st5" d="M160.071,41.747l9.402-5.265c0.854-0.478,0.855-1.708,0.001-2.187l-10.124-5.677
			c-0.952-0.534-2.112-0.534-3.064-0.001l-9.409,5.269c-0.855,0.479-0.855,1.709,0,2.187l10.131,5.674
			C157.96,42.279,159.12,42.279,160.071,41.747z"/>
	</g>
	<g>
		<path class="st0" d="M184.484,45.988l-10.258-5.745c-0.285-0.16-0.633-0.16-0.919,0l-0.33,0.185c-0.256,0.144-0.256,0.513,0,0.656
			l10.259,5.745c0.285,0.16,0.633,0.16,0.919,0l0.33-0.185C184.741,46.5,184.741,46.131,184.484,45.988z"/>
	</g>
	<g>
		<path class="st0" d="M189.171,52.38l-18.296-10.245c-0.285-0.16-0.633-0.16-0.919,0l-0.33,0.185c-0.256,0.144-0.256,0.513,0,0.656
			l18.296,10.245c0.285,0.16,0.634,0.16,0.919,0l0.33-0.185C189.428,52.893,189.428,52.524,189.171,52.38z"/>
	</g>
	<g>
		<path class="st0" d="M185.76,54.249l-18.296-10.245c-0.285-0.16-0.633-0.16-0.919,0l-0.33,0.185c-0.256,0.144-0.256,0.513,0,0.656
			l18.296,10.245c0.285,0.16,0.634,0.16,0.919,0l0.33-0.185C186.017,54.762,186.017,54.393,185.76,54.249z"/>
	</g>
	<g>
		
			<rect x="202.968" y="77.374" transform="matrix(0.9764 -0.2161 0.2161 0.9764 -12.6265 45.8005)" class="st3" width="0.38" height="6.548"/>
	</g>
	<g>
		
			<rect x="197.73" y="88.1" transform="matrix(0.3123 -0.95 0.95 0.3123 55.3177 252.9984)" class="st3" width="9.357" height="0.38"/>
	</g>
	<g>
		
			<rect x="200.949" y="92.388" transform="matrix(0.9997 -0.0234 0.0234 0.9997 -2.1122 4.893)" class="st3" width="13.581" height="0.38"/>
	</g>
	<g>
		
			<rect x="215.569" y="92.173" transform="matrix(0.9226 -0.3857 0.3857 0.9226 -20.088 90.5944)" class="st3" width="0.38" height="6.386"/>
	</g>
	<g>
		
			<rect x="216.99" y="98.023" transform="matrix(0.9999 -0.0156 0.0156 0.9999 -1.5071 3.5053)" class="st3" width="13.22" height="0.38"/>
	</g>
	<g>
		<path class="st9" d="M157.135,60.998c0-1.888-1.531-3.419-3.419-3.419c-1.888,0-3.419,1.531-3.419,3.419
			c0,0-0.258,2.838,3.416,5.919l-0.001,0.002c0.001-0.001,0.001-0.001,0.002-0.002c0.001,0.001,0.001,0.001,0.002,0.002l0.004-0.007
			c3.386-2.842,3.427-5.476,3.414-5.865C157.134,61.031,157.135,61.015,157.135,60.998z"/>
	</g>
	<g>
		<circle class="st3" cx="153.715" cy="61.144" r="1.928"/>
	</g>
	<g>
		<path class="st9" d="M84.541,99.587c0-1.888-1.531-3.419-3.419-3.419c-1.888,0-3.419,1.531-3.419,3.419
			c0,0-0.258,2.838,3.416,5.919l-0.001,0.002c0.001-0.001,0.001-0.001,0.002-0.002c0.001,0.001,0.001,0.001,0.002,0.002l0.004-0.007
			c3.386-2.842,3.427-5.476,3.414-5.865C84.54,99.62,84.541,99.603,84.541,99.587z"/>
	</g>
	<g>
		<circle class="st3" cx="81.121" cy="99.733" r="1.928"/>
	</g>
	<g>
		<g>
			<path class="st10" d="M52.978,53.102c0.101,0,0.201-0.04,0.276-0.119l1.232-1.305l1.232,1.305
				c0.075,0.079,0.175,0.119,0.276,0.119c0.094,0,0.188-0.034,0.261-0.104c0.153-0.144,0.16-0.385,0.015-0.537l-1.508-1.598
				c-0.003-0.003-0.006-0.004-0.009-0.006c-0.003-0.003-0.004-0.006-0.006-0.009c-0.017-0.016-0.038-0.023-0.056-0.035
				c-0.021-0.013-0.04-0.03-0.062-0.039c-0.024-0.01-0.049-0.012-0.074-0.017c-0.023-0.004-0.046-0.011-0.069-0.011
				c-0.024,0-0.046,0.007-0.069,0.011c-0.025,0.005-0.05,0.007-0.074,0.017c-0.023,0.009-0.041,0.025-0.062,0.039
				c-0.019,0.012-0.039,0.019-0.056,0.035c-0.003,0.003-0.004,0.006-0.006,0.009c-0.003,0.003-0.006,0.004-0.009,0.006l-1.508,1.598
				c-0.145,0.152-0.138,0.393,0.015,0.537C52.791,53.068,52.885,53.102,52.978,53.102z"/>
		</g>
		<g>
			<path class="st10" d="M54.763,54.932c-0.003-0.003-0.006-0.004-0.009-0.006c-0.003-0.003-0.004-0.006-0.006-0.009
				c-0.017-0.017-0.039-0.024-0.059-0.037c-0.02-0.013-0.037-0.028-0.059-0.037c-0.027-0.011-0.054-0.014-0.083-0.019
				c-0.02-0.003-0.039-0.01-0.059-0.01c-0.027,0-0.053,0.007-0.079,0.013c-0.022,0.005-0.043,0.006-0.064,0.014
				c-0.024,0.01-0.044,0.026-0.066,0.041c-0.018,0.012-0.038,0.018-0.054,0.033c-0.003,0.003-0.004,0.006-0.006,0.009
				c-0.003,0.003-0.006,0.004-0.009,0.006l-1.508,1.597c-0.145,0.152-0.138,0.393,0.015,0.537c0.073,0.07,0.167,0.104,0.261,0.104
				c0.101,0,0.201-0.04,0.276-0.119l1.232-1.305l1.232,1.305c0.075,0.079,0.175,0.119,0.276,0.119c0.094,0,0.188-0.035,0.261-0.104
				c0.153-0.144,0.16-0.385,0.015-0.537L54.763,54.932z"/>
		</g>
		<g>
			<path class="st10" d="M54.763,58.999c-0.003-0.003-0.006-0.004-0.009-0.006c-0.003-0.003-0.004-0.006-0.006-0.009
				c-0.017-0.016-0.038-0.023-0.056-0.035c-0.021-0.014-0.04-0.03-0.062-0.039c-0.025-0.01-0.051-0.013-0.077-0.017
				c-0.022-0.004-0.042-0.011-0.064-0.011c-0.027,0-0.052,0.007-0.078,0.013c-0.022,0.004-0.043,0.006-0.064,0.014
				c-0.024,0.01-0.045,0.027-0.067,0.042c-0.018,0.012-0.037,0.018-0.053,0.033c-0.003,0.003-0.004,0.006-0.006,0.009
				c-0.002,0.003-0.006,0.004-0.009,0.006l-1.508,1.597c-0.145,0.152-0.138,0.393,0.015,0.537c0.073,0.07,0.167,0.104,0.261,0.104
				c0.101,0,0.201-0.04,0.276-0.119l1.232-1.305l1.232,1.305c0.075,0.079,0.175,0.119,0.276,0.119c0.094,0,0.188-0.035,0.261-0.104
				c0.153-0.144,0.16-0.385,0.015-0.537L54.763,58.999z"/>
		</g>
		<g>
			<path class="st10" d="M54.763,63.067c-0.003-0.003-0.006-0.004-0.009-0.006c-0.003-0.003-0.004-0.006-0.006-0.009
				c-0.017-0.016-0.038-0.024-0.057-0.036c-0.02-0.013-0.039-0.029-0.06-0.038c-0.025-0.01-0.052-0.013-0.079-0.018
				c-0.021-0.004-0.042-0.01-0.063-0.01c-0.026,0-0.051,0.007-0.077,0.013c-0.022,0.005-0.045,0.006-0.066,0.015
				c-0.024,0.009-0.044,0.026-0.065,0.041c-0.018,0.012-0.038,0.018-0.054,0.034c-0.003,0.003-0.004,0.006-0.006,0.009
				c-0.003,0.003-0.006,0.004-0.009,0.006l-1.508,1.597c-0.145,0.152-0.138,0.393,0.015,0.537c0.073,0.07,0.167,0.104,0.261,0.104
				c0.101,0,0.201-0.04,0.276-0.119l1.232-1.305l1.232,1.305c0.075,0.079,0.175,0.119,0.276,0.119c0.094,0,0.188-0.035,0.261-0.104
				c0.153-0.144,0.16-0.385,0.015-0.537L54.763,63.067z"/>
		</g>
	</g>
	<g>
		<g>
			<path class="st10" d="M237.361,73.751c0.101,0,0.201-0.04,0.276-0.119l1.232-1.305l1.232,1.305
				c0.075,0.079,0.175,0.119,0.276,0.119c0.094,0,0.188-0.035,0.261-0.104c0.153-0.144,0.16-0.385,0.015-0.537l-1.508-1.597
				c-0.003-0.003-0.006-0.004-0.009-0.006c-0.003-0.003-0.004-0.006-0.006-0.009c-0.017-0.016-0.038-0.024-0.057-0.036
				c-0.02-0.013-0.039-0.029-0.06-0.038c-0.025-0.01-0.052-0.013-0.079-0.018c-0.021-0.004-0.042-0.01-0.063-0.01
				c-0.026,0-0.051,0.007-0.077,0.013c-0.022,0.005-0.045,0.006-0.066,0.015c-0.024,0.009-0.044,0.026-0.065,0.041
				c-0.018,0.012-0.038,0.018-0.054,0.034c-0.003,0.003-0.004,0.006-0.006,0.009c-0.003,0.003-0.006,0.004-0.009,0.006l-1.508,1.597
				c-0.145,0.152-0.138,0.393,0.015,0.537C237.173,73.717,237.267,73.751,237.361,73.751z"/>
		</g>
		<g>
			<path class="st10" d="M239.145,75.58c-0.003-0.003-0.006-0.004-0.009-0.006c-0.003-0.003-0.004-0.006-0.006-0.009
				c-0.017-0.016-0.038-0.023-0.057-0.036c-0.02-0.013-0.039-0.029-0.061-0.038c-0.025-0.01-0.05-0.012-0.075-0.017
				c-0.023-0.004-0.045-0.011-0.068-0.011c-0.023,0-0.045,0.007-0.068,0.011c-0.025,0.005-0.05,0.007-0.075,0.017
				c-0.022,0.009-0.041,0.025-0.061,0.038c-0.019,0.012-0.04,0.02-0.057,0.036c-0.003,0.003-0.004,0.006-0.006,0.009
				c-0.003,0.003-0.006,0.004-0.009,0.006l-1.508,1.598c-0.145,0.152-0.138,0.393,0.015,0.537c0.073,0.07,0.167,0.104,0.261,0.104
				c0.101,0,0.201-0.04,0.276-0.119l1.232-1.305l1.232,1.305c0.075,0.079,0.175,0.119,0.276,0.119c0.094,0,0.188-0.034,0.261-0.104
				c0.153-0.144,0.16-0.385,0.015-0.537L239.145,75.58z"/>
		</g>
		<g>
			<path class="st10" d="M239.145,79.648c-0.003-0.003-0.006-0.004-0.009-0.006c-0.003-0.003-0.004-0.006-0.006-0.009
				c-0.016-0.016-0.037-0.023-0.055-0.035c-0.021-0.014-0.04-0.03-0.063-0.04c-0.024-0.01-0.048-0.012-0.072-0.016
				c-0.024-0.004-0.046-0.012-0.07-0.012c-0.024,0-0.047,0.007-0.07,0.012c-0.025,0.005-0.049,0.007-0.072,0.016
				c-0.023,0.009-0.042,0.026-0.063,0.04c-0.018,0.012-0.039,0.019-0.055,0.035c-0.003,0.003-0.004,0.006-0.006,0.009
				c-0.002,0.003-0.006,0.004-0.009,0.006l-1.508,1.598c-0.145,0.152-0.138,0.393,0.015,0.537c0.073,0.07,0.167,0.104,0.261,0.104
				c0.101,0,0.201-0.04,0.276-0.119l1.232-1.305l1.232,1.305c0.075,0.079,0.175,0.119,0.276,0.119c0.094,0,0.188-0.034,0.261-0.104
				c0.153-0.144,0.16-0.385,0.015-0.537L239.145,79.648z"/>
		</g>
		<g>
			<path class="st10" d="M239.145,83.716c-0.003-0.003-0.006-0.004-0.009-0.006c-0.003-0.003-0.004-0.006-0.006-0.009
				c-0.017-0.016-0.038-0.023-0.056-0.035c-0.021-0.013-0.04-0.03-0.062-0.039c-0.024-0.01-0.049-0.012-0.074-0.017
				c-0.023-0.004-0.046-0.011-0.069-0.011s-0.046,0.007-0.069,0.011c-0.025,0.005-0.05,0.007-0.074,0.017
				c-0.023,0.009-0.041,0.025-0.062,0.039c-0.019,0.012-0.039,0.019-0.056,0.035c-0.003,0.003-0.004,0.006-0.006,0.009
				c-0.003,0.003-0.006,0.004-0.009,0.006l-1.508,1.598c-0.145,0.152-0.138,0.393,0.015,0.537c0.073,0.07,0.167,0.104,0.261,0.104
				c0.101,0,0.201-0.04,0.276-0.119l1.232-1.305l1.232,1.305c0.075,0.079,0.175,0.119,0.276,0.119c0.094,0,0.188-0.034,0.261-0.104
				c0.153-0.144,0.16-0.385,0.015-0.537L239.145,83.716z"/>
		</g>
	</g>
	<g>
		<g>
			<ellipse class="st0" cx="122.914" cy="135.413" rx="4.879" ry="2.37"/>
		</g>
		<g>
			<g>
				<path class="st11" d="M121.298,131.083l-0.275,3.834c0,0-0.465,0.366-0.549-0.183s-0.405-3.047-0.083-3.806
					C120.714,130.17,121.298,131.083,121.298,131.083z"/>
			</g>
			<g>
				<path d="M121.023,134.917c0,0,0.503,0.336,0.668,0.274c0.479-0.18,0.911-0.016,0.851,0.12s-0.533,0.439-1.059,0.469
					c-0.526,0.03-0.648,0.457-1.025,0.256c-0.33-0.176,0.009-1.182,0.032-1.158C120.764,135.165,121.023,134.917,121.023,134.917z"
					/>
			</g>
			<g>
				<path d="M123.909,135.266c0.429,0.104,0.785-0.137,1.26,0.002c0.256,0.075-0.25,0.629-0.957,0.61
					c-0.455-0.012-0.53,0.314-0.918,0.26c-0.1-0.014-0.216-0.212-0.199-0.311l0.085-0.501c0.016-0.097,0.104-0.166,0.202-0.158
					L123.909,135.266z"/>
			</g>
			<g>
				<path class="st11" d="M122.511,131.315c0,0-0.223,1.246,0.68,4.052c0,0,0.196,0.151,0.445-0.147c0,0-0.102-3.383-0.06-3.992
					S122.511,131.315,122.511,131.315z"/>
			</g>
			<g>
				<path class="st12" d="M120.524,122.264c0,0-0.55,0.955-0.593,1.862c-0.089,1.908,0.654,3.658-0.15,5.649
					c-1.021,2.528,4.129,3.144,4.59,0.851c0.497-2.467-1.409-8.323-1.409-8.323L120.524,122.264z"/>
			</g>
			<g>
				<path class="st13" d="M122.863,115.14c0,0,0.259,1.159,0.017,1.688c-0.126,0.276-1.035,0.084-1.163,0.011
					c-0.369-0.21-0.618,0.206-0.672-0.697C120.979,115.045,122.338,114.833,122.863,115.14z"/>
			</g>
			<g>
				<path class="st13" d="M122.359,116.84c0,0-0.024,0.472,0.047,0.775c0.017,0.07-0.303,0.416-0.819,0.219
					c-0.32-0.122,0.036-0.333-0.018-1.525C121.566,116.24,122.359,116.84,122.359,116.84z"/>
			</g>
			<g>
				<path class="st11" d="M120.125,119.126c0,0-0.503,2.346,0.271,2.457c1.028,0.147,1.302-2.155,1.302-2.155L120.125,119.126z"/>
			</g>
			<g>
				<path class="st13" d="M122.205,115.789c-0.127,0.156,0.131,0.551,0.201,0.515c0.07-0.036,0.115-0.407,0.115-0.407
					S122.323,115.644,122.205,115.789z"/>
			</g>
			<g>
				<path class="st10" d="M124.291,119.226c-0.36-1.347-1.885-1.61-1.885-1.61c-0.567,0.489-1.54,0.223-1.54,0.223
					s-0.261-0.084-0.745,1.132c-0.182,0.457,0.297,0.485,0.333,0.608c0.188,0.661,0.396,1.965,0.037,2.719
					c-0.544,1.144,2.868,1.132,2.676,0.586c-0.204-0.58-0.063-1.464-0.009-1.533c0.161-0.203,0.509-0.408,0.591-0.789
					c0.162-0.749-0.287-0.803-0.396-0.974C123.752,119.424,124.048,119.33,124.291,119.226z"/>
			</g>
			<g>
				<path class="st14" d="M122.305,114.235c0.419,0.172,0.739,0.693,0.558,0.905c-1.109,1.298-0.221,3.185-1.339,3.495
					c-0.689,0.191-0.973-0.279-1.18-0.259c-1.555,0.152,0.311-1.589,0.144-2.663C120.303,114.522,121.045,113.719,122.305,114.235z"
					/>
			</g>
			<g>
				<path class="st11" d="M123.241,119.611c0,0,0.007,1.796,0.183,2.02c0.175,0.225,1.549,0.284,2.823-1.671
					c0.493-0.756,0.934-1.123,1.008-1.517c0.096-0.508-0.328-0.756-0.465-0.376c-0.244,0.675-0.075,0.806-0.768,1.368
					c-0.693,0.562-1.708,1.301-1.726,1.171c-0.043-0.307-0.061-1.025-0.06-1.358C124.236,119.224,123.241,119.611,123.241,119.611z"
					/>
			</g>
			<g>
				<path class="st15" d="M120.407,134.242l0.083,0.637c0,0,0.214,0.328,0.533,0.039l0.048-0.675
					C121.072,134.242,120.799,134.364,120.407,134.242z"/>
			</g>
			<g>
				<path class="st15" d="M122.999,134.737l0.192,0.63c0,0,0.28,0.172,0.445-0.147l-0.017-0.607
					C123.619,134.613,123.407,134.828,122.999,134.737z"/>
			</g>
		</g>
	</g>
	<g>
		<path class="st4" d="M73.899,52.436c-0.089,0-0.175-0.047-0.221-0.13c-0.068-0.122-0.025-0.276,0.097-0.345l42.863-24.045
			c0.825-0.463,1.338-1.339,1.338-2.285v-6.169c0-0.14,0.113-0.253,0.253-0.253c0.14,0,0.253,0.113,0.253,0.253v6.169
			c0,1.129-0.612,2.174-1.597,2.727L74.023,52.404C73.984,52.426,73.941,52.436,73.899,52.436z"/>
	</g>
	<g>
		<path class="st7" d="M118.245,19.114L74.857,43.412c-0.91,0.51-1.473,1.472-1.47,2.515l0.016,6.204
			c0.003,1.097,1.184,1.786,2.14,1.25l42.862-24.045c0.018-0.01,0.033-0.023,0.051-0.034l0.46-0.258
			c0.907-0.509,1.468-1.467,1.468-2.506v-6.169C120.384,19.271,119.203,18.578,118.245,19.114z"/>
	</g>
	<g>
		<path class="st4" d="M73.899,34.665c-0.089,0-0.175-0.047-0.221-0.129c-0.068-0.122-0.025-0.277,0.097-0.346l42.862-24.045
			c0.826-0.463,1.339-1.339,1.339-2.285V1.69c0-0.14,0.113-0.253,0.253-0.253c0.14,0,0.253,0.113,0.253,0.253v6.169
			c0,1.13-0.612,2.175-1.598,2.728L74.024,34.633C73.984,34.654,73.941,34.665,73.899,34.665z"/>
	</g>
	<path class="st0" d="M117.705,0.27c-0.528-0.339-1.192-0.362-1.739-0.055L73.089,24.221c-0.99,0.554-1.602,1.604-1.6,2.737
		l0.016,6.204c0.001,0.606,0.322,1.149,0.839,1.452l-0.001,0.001l1.596,0.894l0.247-0.443l-1.594-0.893
		c-0.358-0.213-0.58-0.591-0.58-1.012l-0.016-6.204c-0.002-0.951,0.511-1.829,1.34-2.294l42.878-24.006
		c0.393-0.22,0.852-0.203,1.229,0.044l1.891,1.056l0.247-0.443L117.705,0.27z"/>
	<g>
		<path class="st7" d="M118.246,1.343L74.857,25.64c-0.91,0.51-1.473,1.472-1.47,2.515l0.016,6.204
			c0.003,1.097,1.184,1.786,2.14,1.25l42.862-24.045c0.018-0.01,0.033-0.023,0.051-0.034l0.46-0.258
			c0.907-0.509,1.468-1.467,1.468-2.506V2.596C120.385,1.499,119.203,0.806,118.246,1.343z"/>
	</g>
	<g>
		<g>
			<path class="st3" d="M81.063,43.159l1.448-0.81c0.91-0.509,1.655-0.601,1.645,0.437c-0.01,0.998-0.776,1.862-1.647,2.35
				l-0.483,0.27l-0.015,1.393l-0.993,0.555L81.063,43.159z M82.468,44.369c0.483-0.27,0.718-0.632,0.723-1.044
				c0.004-0.423-0.26-0.42-0.738-0.153l-0.405,0.227l-0.013,1.212L82.468,44.369z"/>
		</g>
		<g>
			<path class="st3" d="M86.529,43.314l-1.221,0.683l-0.249,1.098l-1.01,0.565l1.326-4.912l1.188-0.664l1.237,3.478l-1.044,0.584
				L86.529,43.314z M86.348,42.641l-0.085-0.306c-0.106-0.355-0.206-0.798-0.313-1.164l-0.023,0.012
				c-0.104,0.496-0.221,1.049-0.33,1.525l-0.092,0.405L86.348,42.641z"/>
		</g>
		<g>
			<path class="st3" d="M88.334,39.092l0.993-0.555l-0.045,4.195l-0.993,0.555L88.334,39.092z"/>
		</g>
		<g>
			<path class="st3" d="M91.037,39.604l-1.05-1.437l1.104-0.618l0.325,0.563c0.087,0.148,0.179,0.315,0.292,0.52l0.022-0.012
				c0.098-0.323,0.189-0.594,0.274-0.837l0.308-0.917l1.049-0.587l-1.087,2.676l1.114,1.479l-1.104,0.618l-0.374-0.604
				c-0.098-0.164-0.19-0.331-0.298-0.528l-0.022,0.012c-0.103,0.315-0.194,0.585-0.291,0.857l-0.364,1.017l-1.06,0.593
				L91.037,39.604z"/>
		</g>
		<g>
			<path class="st3" d="M94.034,35.904l0.993-0.556l-0.045,4.195l-0.993,0.556L94.034,35.904z"/>
		</g>
		<g>
			<path class="st3" d="M96.032,34.786l1.009-0.565l1.005,1.433l0.396,0.704l0.027-0.015c-0.05-0.414-0.121-0.974-0.116-1.476
				l0.014-1.387l0.943-0.528l-0.045,4.195l-1.01,0.564l-1-1.453l-0.396-0.693l-0.027,0.016c0.039,0.444,0.116,0.972,0.111,1.479
				l-0.015,1.393l-0.943,0.528L96.032,34.786z"/>
		</g>
		<g>
			<path class="st3" d="M101.654,31.64l0.993-0.555l-0.045,4.195l-0.993,0.555L101.654,31.64z"/>
		</g>
		<g>
			<path class="st3" d="M103.652,30.522l1.009-0.564l1.005,1.433l0.396,0.704l0.028-0.016c-0.05-0.415-0.122-0.974-0.116-1.476
				l0.014-1.387l0.943-0.528l-0.045,4.195l-1.01,0.565l-1-1.453l-0.395-0.692l-0.028,0.015c0.039,0.444,0.116,0.972,0.111,1.479
				l-0.015,1.393l-0.943,0.528L103.652,30.522z"/>
		</g>
		<g>
			<path class="st3" d="M107.736,30.345c0.015-1.398,0.945-2.715,1.993-3.301c0.538-0.301,0.969-0.29,1.248-0.155l-0.528,0.936
				c-0.203-0.077-0.418-0.092-0.712,0.072c-0.533,0.298-0.977,1.029-0.986,1.847c-0.009,0.835,0.364,1.108,0.946,0.783
				c0.328-0.183,0.596-0.501,0.792-0.825l0.515,0.34c-0.354,0.607-0.817,1.074-1.355,1.375
				C108.601,32.003,107.721,31.766,107.736,30.345z"/>
		</g>
		<g>
			<path class="st3" d="M111.577,29.716c0.003-0.345,0.25-0.757,0.595-0.95c0.339-0.189,0.585-0.052,0.582,0.292
				c-0.004,0.35-0.256,0.765-0.595,0.954C111.814,30.205,111.573,30.065,111.577,29.716z"/>
		</g>
	</g>
	<g>
		<g>
			<path class="st3" d="M80.988,25.061l1.448-0.81c0.91-0.509,1.655-0.601,1.645,0.437c-0.01,0.998-0.776,1.862-1.647,2.35
				l-0.483,0.27l-0.015,1.393l-0.993,0.555L80.988,25.061z M82.393,26.271c0.483-0.27,0.718-0.632,0.723-1.044
				c0.004-0.423-0.26-0.42-0.738-0.153l-0.405,0.227l-0.013,1.212L82.393,26.271z"/>
		</g>
		<g>
			<path class="st3" d="M86.454,25.216l-1.221,0.683l-0.249,1.098l-1.01,0.565l1.326-4.912l1.188-0.664l1.237,3.478l-1.044,0.584
				L86.454,25.216z M86.273,24.543l-0.085-0.306c-0.106-0.355-0.206-0.798-0.313-1.164l-0.023,0.012
				c-0.104,0.496-0.221,1.049-0.33,1.525l-0.092,0.405L86.273,24.543z"/>
		</g>
		<g>
			<path class="st3" d="M88.259,20.994l0.993-0.555l-0.045,4.195l-0.993,0.555L88.259,20.994z"/>
		</g>
		<g>
			<path class="st3" d="M90.962,21.506l-1.05-1.437l1.104-0.618l0.325,0.563c0.087,0.148,0.179,0.315,0.292,0.52l0.022-0.012
				c0.098-0.323,0.189-0.594,0.274-0.837l0.308-0.917l1.049-0.587l-1.087,2.676l1.114,1.479l-1.104,0.618l-0.374-0.604
				c-0.098-0.164-0.19-0.331-0.298-0.528l-0.022,0.012c-0.103,0.315-0.194,0.585-0.291,0.857l-0.364,1.017l-1.06,0.593
				L90.962,21.506z"/>
		</g>
		<g>
			<path class="st3" d="M93.959,17.806l0.993-0.556l-0.045,4.195l-0.993,0.556L93.959,17.806z"/>
		</g>
		<g>
			<path class="st3" d="M95.957,16.688l1.009-0.565l1.005,1.433l0.396,0.704l0.027-0.015c-0.05-0.414-0.121-0.974-0.116-1.476
				l0.014-1.387l0.943-0.528l-0.045,4.195l-1.01,0.564l-1-1.453l-0.396-0.693l-0.027,0.016c0.039,0.444,0.116,0.972,0.111,1.479
				l-0.015,1.393l-0.943,0.528L95.957,16.688z"/>
		</g>
		<g>
			<path class="st3" d="M100.939,16.596l-1.214-2.016l1.054-0.59l0.334,0.737c0.108,0.254,0.21,0.489,0.323,0.75l0.022-0.012
				c0.12-0.392,0.235-0.749,0.354-1.129l0.354-1.122l1.038-0.58l-1.277,3.41l-0.016,1.483l-0.988,0.553L100.939,16.596z"/>
		</g>
		<g>
			<path class="st3" d="M103.57,14.637l0.023-2.222l0.988-0.552l-0.025,2.329c-0.008,0.795,0.222,0.947,0.677,0.692
				c0.45-0.251,0.702-0.673,0.71-1.468l0.025-2.329l0.954-0.534l-0.023,2.222c-0.015,1.415-0.577,2.362-1.676,2.977
				C104.119,16.37,103.554,16.052,103.57,14.637z"/>
		</g>
		<g>
			<path class="st3" d="M107.906,10.003l1.009-0.564l1.005,1.433l0.395,0.704l0.028-0.016c-0.05-0.415-0.122-0.974-0.116-1.476
				l0.014-1.387l0.943-0.528l-0.045,4.195l-1.009,0.565l-1-1.453l-0.396-0.692l-0.028,0.015c0.039,0.444,0.117,0.972,0.111,1.479
				l-0.015,1.393l-0.943,0.528L107.906,10.003z"/>
		</g>
	</g>
	<path class="st0" d="M43.907,72.53c0-0.003,0.002-3.592,0.002-3.592c0-0.14-0.113-0.253-0.253-0.253
		c-0.14,0-0.253,0.113-0.253,0.253c0,0-0.008,3.361-0.007,3.377c0.083,1.542-0.542,3.037-1.857,4.443
		c-3.371,3.602-10.835,5.995-19.018,6.097c-11.826,0.15-21.692-4.346-22.005-10.02V69.26c0-0.14-0.113-0.253-0.253-0.253
		c-0.14,0-0.253,0.113-0.253,0.253v3.276C0.006,72.548,0,72.559,0,72.572c0,0.089,0.003,0.178,0.007,0.267v0.004c0,0,0,0,0,0.001
		c0,0.004,0,0.009,0,0.013c0.315,5.851,10.108,10.51,21.952,10.509c0.188,0,0.377-0.001,0.565-0.003
		c8.442-0.105,15.868-2.503,19.382-6.258C43.253,75.667,43.924,74.129,43.907,72.53z"/>
	<path class="st0" d="M207.577,19.004l-12.443-6.966c-0.517-0.29-1.132-0.288-1.65,0.001c-0.004,0.002-0.009,0.002-0.014,0.004
		l-2.107,1.075c-0.125,0.063-0.174,0.216-0.11,0.341c0.045,0.088,0.134,0.138,0.226,0.138c0.039,0,0.078-0.009,0.115-0.028
		l2.107-1.075c0,0,0,0,0,0c0.004-0.002,0.009-0.002,0.013-0.004c0.366-0.212,0.803-0.216,1.172-0.009l12.443,6.966
		c0.827,0.463,1.341,1.34,1.34,2.288l-0.004,9.457c0,0.479-0.239,0.821-0.771,1.108c-0.004,0.002-0.009,0.002-0.014,0.004
		l-2.107,1.075c-0.017,0.009-0.03,0.023-0.044,0.035v-1.705c0-0.14-0.113-0.253-0.253-0.253c-0.14,0-0.254,0.113-0.254,0.253v3.606
		c0,0.008,0.002,0.015,0.003,0.023c0,0.005-0.003,0.01-0.003,0.015c0,0.037-0.021,0.08-0.045,0.089
		c-0.003,0.001-0.005,0.004-0.009,0.006c-0.003,0.001-0.006,0.001-0.009,0.002l-2.293,1.17c-0.125,0.063-0.174,0.216-0.11,0.341
		c0.045,0.088,0.134,0.138,0.226,0.138c0.039,0,0.078-0.009,0.115-0.028l2.293-1.17c0.001-0.001,0.002-0.002,0.003-0.002
		c0.202-0.095,0.336-0.31,0.336-0.547c0-0.007-0.003-0.012-0.004-0.019c0.001-0.007,0.004-0.013,0.004-0.02v-1.516
		c0.045,0.037,0.101,0.059,0.159,0.059c0.039,0,0.078-0.009,0.115-0.028l2.079-1.061c0.011-0.004,0.022-0.007,0.032-0.012
		c0.71-0.377,1.055-0.889,1.056-1.565l0.003-9.457C209.177,20.603,208.564,19.557,207.577,19.004z"/>
	<g>
		<path class="st10" d="M205.381,20.282l-12.694-7.107c-0.977-0.547-2.182,0.159-2.182,1.279v9.586c0,1.057,0.569,2.033,1.49,2.553
			l6.22,3.514l4.425,6.804c0.215,0.33,0.727,0.178,0.727-0.215v-3.678l1.325,0.748c0.977,0.552,2.187-0.154,2.187-1.276l0.004-9.648
			C206.881,21.78,206.307,20.801,205.381,20.282z"/>
	</g>
	<g>
		
			<ellipse transform="matrix(0.8165 -0.5774 0.5774 0.8165 23.6432 116.2974)" class="st3" cx="194.758" cy="20.958" rx="0.673" ry="1.346"/>
	</g>
	<g>
		
			<ellipse transform="matrix(0.8165 -0.5774 0.5774 0.8165 23.1255 118.797)" class="st3" cx="198.431" cy="23.022" rx="0.673" ry="1.346"/>
	</g>
	<g>
		
			<ellipse transform="matrix(0.8165 -0.5774 0.5774 0.8165 22.6299 121.2896)" class="st3" cx="202.104" cy="25.048" rx="0.673" ry="1.346"/>
	</g>
	<g>
		<polygon class="st3" points="88.562,68.099 88.573,68.093 88.25,67.912 68.823,78.791 75.521,82.543 75.515,82.546 
			102.101,97.435 121.523,86.558 		"/>
	</g>
	<g id="_x221E__8_">
		<path class="st16" d="M97.987,80.702c1.105-0.069,1.628-0.065,2.37,0.006c1.343,0.136,2.654,0.542,3.73,1.141
			c1.209,0.673,1.851,1.409,1.954,2.277c0.13,0.937-0.416,1.767-1.548,2.397c-2.28,1.269-5.933,1.179-8.407-0.199
			c-1.058-0.589-1.773-1.347-2.057-2.136c-0.124-0.393-0.149-0.695-0.039-1.282c-1.084,0.099-1.642,0.094-2.491-0.001
			c-1.346-0.155-2.419-0.483-3.514-1.093c-0.535-0.298-1.129-0.766-1.78-1.405l-2.124,1.182l-2.513-1.399
			c3.573-1.989,5.493-3.058,5.762-3.207c2.312-1.287,5.898-1.18,8.466,0.25C97.648,78.262,98.25,79.21,97.987,80.702z
			 M94.356,80.893c0.163-1.205-0.096-1.818-0.965-2.302c-1.02-0.568-2.527-0.633-3.416-0.138c-0.873,0.486-0.772,1.334,0.21,1.881
			c0.472,0.263,1.106,0.436,1.831,0.516c0.477,0.05,0.933,0.07,1.421,0.071C93.992,80.907,94.356,80.893,94.356,80.893z
			 M97.528,82.66c-0.128,1.207,0.153,1.849,1.003,2.323c1.001,0.557,2.505,0.603,3.378,0.117c0.889-0.495,0.791-1.324-0.21-1.881
			c-0.472-0.263-1.125-0.446-1.885-0.528c-0.426-0.057-0.863-0.066-1.332-0.058C97.908,82.638,97.544,82.651,97.528,82.66z"/>
	</g>
	<g>
		<polygon class="st3" points="123.941,87.936 123.951,87.931 123.628,87.75 104.201,98.629 110.899,102.38 110.894,102.384 
			137.479,117.272 156.902,106.396 		"/>
	</g>
	<g id="_x221E__7_">
		<path class="st16" d="M133.365,100.539c1.105-0.069,1.628-0.065,2.37,0.006c1.343,0.136,2.654,0.542,3.73,1.141
			c1.209,0.673,1.851,1.409,1.954,2.277c0.13,0.937-0.416,1.767-1.548,2.397c-2.28,1.269-5.933,1.179-8.407-0.199
			c-1.057-0.589-1.773-1.347-2.057-2.136c-0.124-0.393-0.149-0.695-0.039-1.282c-1.084,0.099-1.642,0.094-2.491-0.001
			c-1.346-0.155-2.419-0.483-3.514-1.093c-0.535-0.298-1.129-0.766-1.78-1.405l-2.124,1.182l-2.513-1.399
			c3.573-1.989,5.493-3.058,5.762-3.207c2.312-1.287,5.898-1.18,8.466,0.25C133.026,98.099,133.628,99.047,133.365,100.539z
			 M129.734,100.731c0.163-1.205-0.096-1.818-0.965-2.302c-1.02-0.568-2.527-0.633-3.416-0.138c-0.873,0.486-0.772,1.334,0.21,1.881
			c0.472,0.263,1.106,0.436,1.831,0.516c0.477,0.05,0.933,0.07,1.421,0.071C129.37,100.744,129.734,100.731,129.734,100.731z
			 M132.906,102.498c-0.128,1.207,0.153,1.849,1.003,2.323c1.001,0.557,2.505,0.603,3.378,0.117c0.889-0.495,0.791-1.324-0.21-1.881
			c-0.472-0.263-1.125-0.446-1.885-0.528c-0.426-0.057-0.863-0.066-1.332-0.058C133.286,102.475,132.923,102.489,132.906,102.498z"
			/>
	</g>
	<g>
		<polygon class="st3" points="159.319,107.774 159.329,107.768 159.006,107.587 139.579,118.466 146.278,122.218 146.272,122.221 
			172.858,137.11 192.28,126.233 		"/>
	</g>
	<g id="_x221E__6_">
		<path class="st16" d="M168.744,120.376c1.105-0.069,1.628-0.065,2.37,0.006c1.343,0.136,2.654,0.542,3.73,1.141
			c1.209,0.673,1.851,1.409,1.954,2.277c0.13,0.937-0.416,1.767-1.548,2.397c-2.28,1.269-5.933,1.179-8.407-0.199
			c-1.057-0.589-1.773-1.347-2.057-2.136c-0.124-0.393-0.149-0.695-0.039-1.282c-1.084,0.099-1.642,0.094-2.491-0.001
			c-1.346-0.155-2.419-0.483-3.514-1.093c-0.535-0.298-1.129-0.766-1.78-1.405l-2.124,1.182l-2.513-1.399
			c3.573-1.989,5.493-3.058,5.762-3.207c2.312-1.287,5.898-1.18,8.466,0.25C168.404,117.937,169.006,118.884,168.744,120.376z
			 M165.112,120.568c0.163-1.205-0.096-1.818-0.965-2.302c-1.02-0.568-2.527-0.633-3.416-0.138c-0.873,0.486-0.772,1.334,0.21,1.881
			c0.472,0.263,1.106,0.436,1.831,0.516c0.477,0.05,0.933,0.07,1.421,0.071C164.748,120.582,165.112,120.568,165.112,120.568z
			 M168.285,122.335c-0.128,1.207,0.153,1.849,1.003,2.323c1.001,0.557,2.505,0.603,3.378,0.117c0.889-0.495,0.791-1.324-0.21-1.881
			c-0.472-0.263-1.125-0.446-1.885-0.528c-0.426-0.057-0.863-0.066-1.332-0.058C168.665,122.313,168.301,122.326,168.285,122.335z"
			/>
	</g>
	<g>
		<g>
			<ellipse class="st0" cx="122.739" cy="48.834" rx="4.879" ry="2.37"/>
		</g>
		<g>
			<g>
				<path class="st11" d="M125.335,47.63l0.03,0.764c0,0,0.474,0.319,0.494,0.107c0.089-0.933,0.144-1.022,0.144-1.022
					L125.335,47.63z"/>
			</g>
			<g>
				<path d="M125.357,48.2c0,0-0.508,0.328-0.672,0.263c-0.476-0.188-0.911-0.03-0.852,0.106c0.058,0.136,0.526,0.448,1.051,0.487
					c0.526,0.039,0.64,0.467,1.021,0.273c0.333-0.17,0.01-1.182-0.013-1.159C125.613,48.452,125.357,48.2,125.357,48.2z"/>
			</g>
			<g>
				<path d="M120.613,48.435c-0.431,0.097-0.783-0.15-1.26-0.018c-0.257,0.071,0.239,0.633,0.947,0.626
					c0.456-0.004,0.525,0.323,0.913,0.275c0.1-0.012,0.219-0.208,0.204-0.308l-0.076-0.502c-0.015-0.097-0.101-0.167-0.199-0.162
					L120.613,48.435z"/>
			</g>
			<g>
				<path class="st11" d="M120.872,47.601l0.015,0.793c0,0,0.305,0.323,0.414,0.058c0.1-0.242,0.179-0.933,0.179-0.933
					L120.872,47.601z"/>
			</g>
			<g>
				<path class="st13" d="M123.064,28.468c0,0-0.259,1.159-0.017,1.688c0.126,0.276,0.924,0.415,1.051,0.343
					c0.369-0.21,0.729-0.125,0.783-1.028C124.948,28.374,123.589,28.161,123.064,28.468z"/>
			</g>
			<g>
				<path class="st13" d="M123.708,30.178c0,0-0.14,0.694-0.14,0.766c0,0.072,0.255,0.416,0.771,0.219
					c0.32-0.122-0.036-0.333,0.018-1.525C124.36,29.569,123.708,30.178,123.708,30.178z"/>
			</g>
			<g>
				<path class="st14" d="M123.161,27.887c-0.279,0.107-0.448,0.344-0.418,0.586c0.068,0.547,0.77,0.724,1.065,0.776
					c0.704,0.124,0.09,0.815,0.216,0.981c0.423,0.553,1.092-0.068,1.258-1.142C125.466,27.897,124.397,27.411,123.161,27.887z"/>
			</g>
			<g>
				<path class="st12" d="M121.577,38.095c0,0-0.932,9.678-0.888,9.709c0.095,0.065,0.442,0.379,0.964,0.146
					c0.249-0.111,2.099-8.032,2.099-8.032l1.254,7.786c0.008,0.048,0.037,0.091,0.082,0.112c0.116,0.054,0.383,0.129,0.837-0.005
					c0.578-0.17,0.018-7.262-0.169-10.056c-0.055-0.832-3.437,0.035-4.069,0.205C121.626,37.977,121.583,38.031,121.577,38.095z"/>
			</g>
			<g>
				<path class="st11" d="M126.227,32.68c0,0,0.421,2.737-0.353,2.848c-1.028,0.147-1.175-2.199-1.175-2.199L126.227,32.68z"/>
			</g>
			<g>
				<polygon class="st7" points="119.452,34.121 120.198,33.029 122.028,33.749 121.176,35.186 				"/>
			</g>
			<g>
				<path class="st8" d="M123.568,30.944c0,0-1.787,0.046-2.192,2.132c0.555,0.33,0.454,0.489,1.007,0.489
					c0,0,0.004,1.194-0.16,1.599s-0.42,0.234-0.445,0.816c-0.025,0.582-0.198,1.373-0.201,2.116
					c-0.001,0.376,4.242,0.295,4.202-0.483c-0.069-1.316-0.091-2.844-0.223-4.182c-0.013-0.127,0.477-0.258,0.73-0.379
					c0.169-0.08-0.076-0.571-0.341-0.96c-0.68-0.997-1.47-1.148-1.47-1.148S124.135,31.432,123.568,30.944z"/>
			</g>
			<g>
				<path class="st11" d="M121.375,33.076c0,0-0.087,0.673-0.075,1.552c0.003,0.238-1.645-0.475-1.645-0.475
					s-0.072-0.197,0.08-0.437c0.093-0.147-0.637-0.326-0.649,0.226c-0.02,0.88,1.207,1.63,2.565,1.762
					c0.793,0.077,0.782-1.281,0.853-1.99c0.005-0.052-0.025-0.099-0.073-0.122L121.375,33.076z"/>
			</g>
		</g>
	</g>
	<g>
		<polygon class="st9" points="202.453,76.958 201.57,77.453 202.448,77.945 203.331,77.45 		"/>
	</g>
	<g>
		<polygon class="st9" points="203.868,83.352 202.984,83.847 203.862,84.339 204.746,83.844 		"/>
	</g>
	<g>
		<polygon class="st9" points="200.954,92.243 200.07,92.738 200.948,93.23 201.832,92.735 		"/>
	</g>
	<g>
		<polygon class="st9" points="214.531,91.927 213.647,92.422 214.525,92.913 215.409,92.418 		"/>
	</g>
	<g>
		<polygon class="st9" points="216.994,97.818 216.11,98.313 216.988,98.805 217.872,98.31 		"/>
	</g>
	<g>
		<polygon class="st9" points="230.211,97.62 229.327,98.115 230.205,98.607 231.089,98.112 		"/>
	</g>
	<g>
		<path class="st8" d="M43.874,68.826c-0.317-5.88-10.388-10.524-22.494-10.373C9.274,58.604-0.283,63.493,0.034,69.373
			c0.317,5.88,10.388,10.524,22.494,10.373C34.634,79.595,44.191,74.706,43.874,68.826z M22.333,76.123
			c-7.986,0.1-14.63-2.964-14.84-6.843c-0.209-3.879,6.096-7.105,14.082-7.204s14.63,2.964,14.84,6.843
			C36.624,72.798,30.319,76.024,22.333,76.123z"/>
	</g>
	<g>
		<path class="st16" d="M34.423,53.976l-1.561,0.875l1.935-5.266l-1.677-0.951l-0.658,0.369l-2.972,8.047v-4.141l1.677-0.94
			l-1.677-0.951l-4.166,2.336v1.749l-1.555-0.882l-6.834,3.831l-0.002,1.062l-0.922-0.524l-7.2,4.035v7.617l1.861,1.057
			l-0.019-2.073l2.528-1.395v0.518l0.417-0.234v2.08l-4.812,2.697v1.564l1.861,1.057v-1.564l4.812-2.697v-0.535l0.551-0.309V60.69
			l0.92-0.515l-0.009,4.42l-0.011,0.017v5.311l1.894,1.074v-2.136l2.339-1.311v0.572l2.266-1.27V66.28l0.457-0.256v-5.269
			l-0.606-0.469l0.003-0.44l0.506-1.075v-2.413l1.555-0.872v3.983l1.677,0.951v-1.891l1.766-0.99v0.45l0.469-0.263l-2.572,7.085
			l1.677,0.951l0.646-0.361l1.272-3.461v0.507l1.677,0.951l4.166-2.336v-6.135L34.423,53.976z M13.597,66.015l-2.278,1.277v-3.973
			l2.278-1.277V66.015z M19.37,58.822l2.006-1.125l-0.002,0.304l0.002-0.001v1.273l0.117-0.076v1.181l-0.117,0.072l-0.417,0.234
			v-0.009l-1.589,0.89V58.822z M21.514,63.325v0.733v1.717l-0.372,0.208v0.003l-1.894,1.062v-2.063l0.505-0.798l-0.505-0.279v-0.709
			l2.016-1.166v0.608l0.25-0.14V63.325z M27.711,56.689l-0.621,0.348v-2.782l0.621-0.348V56.689z M29.387,57.307V57.19l0.053-0.03
			L29.387,57.307z"/>
	</g>
	<g>
		<path class="st6" d="M25.662,59.845v-4.55l-6.834,3.831v4.55l0.926,0.511l-0.951,1.5v5.311l6.956-3.899v-5.269l-0.755-0.585
			L25.662,59.845z M21.264,59.326l2.01-1.127l-0.025,3.328l-1.986,1.113V59.326z M23.408,66.852l-2.266,1.27v-3.85l2.266-1.311
			V66.852z"/>
	</g>
	<g>
		<path class="st6" d="M31.982,57.235l2.814-7.65l-0.658,0.369l-2.972,8.047V51.97l-4.166,2.336v6.114l4.117-2.308l-2.777,7.65
			l0.646-0.361l2.948-7.972v5.97l4.166-2.336v-6.135L31.982,57.235z M29.387,57.64l-0.621,0.348v-3.15l0.621-0.348V57.64z
			 M34.345,60.563l-0.634,0.355v-3.212l0.634-0.355V60.563z"/>
	</g>
	<g>
		<path class="st6" d="M10.67,71.299l4.788-2.643v2.594l-4.812,2.697v1.564l7.224-4.049V59.647l-7.2,4.035V71.299z M13.18,63.8
			l2.278-1.278v4.549l-2.278,1.277V63.8z"/>
	</g>
</g>
</svg>
