<?xml version="1.0" encoding="UTF-8"?>
<svg width="118px" height="118px" viewBox="0 0 118 118" version="1.1" xmlns="http://www.w3.org/2000/svg" xmlns:xlink="http://www.w3.org/1999/xlink">
    <!-- Generator: Sketch 50.2 (55047) - http://www.bohemiancoding.com/sketch -->
    <title>Group 2</title>
    <desc>Created with Sketch.</desc>
    <defs></defs>
    <g id="Page-1" stroke="none" stroke-width="1" fill="none" fill-rule="evenodd">
        <g id="04文章-02撰写文章" transform="translate(-270.000000, -187.000000)">
            <g id="Group-2" transform="translate(270.000000, 187.000000)">
                <rect id="Rectangle-3" stroke="#E0E0E0" fill="#FFFFFF" x="0.5" y="0.5" width="117" height="117" rx="6"></rect>
                <g id="Group" opacity="0.08" transform="translate(13.000000, 34.000000)" fill="#2F3E5A">
                    <path d="M26,10.5 C26,16.3014488 21.2987654,21 15.4982716,21 C9.70123457,21 5,16.3014488 5,10.5 C5,4.6985512 9.70123457,0 15.4982716,0 C21.2987654,0 26,4.6985512 26,10.5" id="Fill-1"></path>
                    <path d="M55.1429744,18.9488621 L40.9687045,38.6765663 C38.3149316,42.3715744 32.9484128,42.6410021 29.9477414,39.2189207 L27.2627476,36.1607417 C24.0608751,32.5147204 18.2572644,33.1060617 15.8428513,37.3224298 L0,65 L30.0830318,65 L41.5029281,65 L93,65 L66.9964937,19.5681958 C64.4329143,15.0893981 58.1505838,14.7639854 55.1429744,18.9488621" id="Fill-3"></path>
                </g>
            </g>
        </g>
    </g>
</svg>