<?xml version="1.0" encoding="UTF-8"?>
<svg width="88px" height="88px" viewBox="0 0 88 88" version="1.1" xmlns="http://www.w3.org/2000/svg" xmlns:xlink="http://www.w3.org/1999/xlink">
    <!-- Generator: Sketch 50.2 (55047) - http://www.bohemiancoding.com/sketch -->
    <title>Group</title>
    <desc>Created with Sketch.</desc>
    <defs>
        <circle id="path-1" cx="44" cy="44.6054933" r="44"></circle>
        <path d="M6.96812,19 C3.44938667,19 0.598053333,16.4683562 0.598053333,13.3441408 L0.598053333,0.93074 L13.3381867,0.93074 L13.3381867,13.3441408 C13.3381867,16.4683562 10.4868533,19 6.96812,19" id="path-3"></path>
    </defs>
    <g id="Page-1" stroke="none" stroke-width="1" fill="none" fill-rule="evenodd">
        <g id="03团队管理-01团队成员-01添加成员" transform="translate(-266.000000, -187.000000)">
            <g id="Group" transform="translate(266.000000, 186.000000)">
                <g id="Group-5" transform="translate(0.000000, 0.394507)">
                    <g id="Fill-3">
                        <mask id="mask-2" fill="white">
                            <use xlink:href="#path-1"></use>
                        </mask>
                        <use id="Mask" fill="#FFFFFF" xlink:href="#path-1"></use>
                        <path d="M66.9081933,90.06604 L19.99906,90.06604 L19.99906,79.5443067 C19.99906,71.6263733 26.41926,65.2093067 34.33406,65.2093067 L52.5731933,65.2093067 C60.4911267,65.2093067 66.9081933,71.6263733 66.9081933,79.5443067 L66.9081933,90.06604 Z" fill="#6E68FC" mask="url(#mask-2)"></path>
                    </g>
                </g>
                <g id="Path" transform="translate(37.000000, 56.000000)">
                    <mask id="mask-4" fill="white">
                        <use xlink:href="#path-3"></use>
                    </mask>
                    <use id="Mask" fill="#FDB796" xlink:href="#path-3"></use>
                    <path d="M24.989,-10.5039333 C24.989,-0.289266667 16.7076,7.99213333 6.49606667,7.99213333 C-3.7186,7.99213333 -12,-0.289266667 -12,-10.5039333 C-12,-20.7186 -3.7186,-29 6.49606667,-29 C16.7076,-29 24.989,-20.7186 24.989,-10.5039333" fill="#EA9F7B" mask="url(#mask-4)"></path>
                </g>
                <path d="M61.989,44.4960667 C61.989,54.7107333 53.7076,62.9921333 43.4960667,62.9921333 C33.2814,62.9921333 25,54.7107333 25,44.4960667 C25,34.2814 33.2814,26 43.4960667,26 C53.7076,26 61.989,34.2814 61.989,44.4960667" id="Fill-1" fill="#FDB796"></path>
                <path d="M26.1717267,50.2630067 C26.1717267,50.2630067 22.70626,39.1898067 31.1599933,31.4974733 C31.1599933,31.4974733 33.10266,32.84794 35.1299267,32.9356733 C35.1299267,32.9356733 43.24526,41.4708733 59.0529267,34.79374 C59.0529267,34.79374 63.7873933,39.5282067 61.4185933,50.2630067 C61.4185933,50.2630067 64.63026,45.61314 63.5335933,38.0054067 C62.4337933,30.3976733 56.9379267,26.0016067 56.9379267,26.0016067 C56.9379267,26.0016067 57.53326,22.87454 55.07986,21.69014 C52.62646,20.5088733 51.5297933,20.5088733 51.5297933,20.5088733 C51.5297933,20.5088733 54.06466,19.0706733 52.62646,14.8438067 C52.62646,14.8438067 51.4765267,17.5510067 44.6145267,17.5510067 C44.6145267,17.5510067 46.8423267,16.4512067 46.0589933,14.00094 C46.0589933,14.00094 42.82226,17.5510067 36.9911267,19.7474733 C31.1599933,21.94394 31.3291933,25.0710067 31.3291933,25.0710067 C31.3291933,25.0710067 24.5079267,30.0624067 23.72146,39.1898067 C23.0227267,47.2612733 26.1717267,50.2630067 26.1717267,50.2630067" id="Fill-6" fill="#191919"></path>
                <path d="M27.8822133,46.4748067 C28.11408,48.4174733 27.3495467,50.1094733 26.1714133,50.2504733 C24.99328,50.3914733 23.84648,48.9344733 23.61148,46.99494 C23.37648,45.04914 24.1410133,43.3602733 25.3191467,43.21614 C26.5004133,43.07514 27.6472133,44.53214 27.8822133,46.4748067" id="Fill-10" fill="#FDB796"></path>
                <path d="M64.0133067,46.9752 C63.7939733,48.921 62.6565733,50.3874 61.47844,50.2526667 C60.2971733,50.1210667 59.5169733,48.4353333 59.73944,46.4926667 C59.9587733,44.55 61.0899067,43.0804667 62.2711733,43.2152 C63.45244,43.3468 64.2295067,45.0294 64.0133067,46.9752" id="Fill-12" fill="#FDB796"></path>
            </g>
        </g>
    </g>
</svg>