<?xml version="1.0" encoding="UTF-8"?>
<svg width="50px" height="50px" viewBox="0 0 50 50" version="1.1" xmlns="http://www.w3.org/2000/svg" xmlns:xlink="http://www.w3.org/1999/xlink">
    <!-- Generator: Sketch 44.1 (41455) - http://www.bohemiancoding.com/sketch -->
    <title>icon-wechat</title>
    <desc>Created with Sketch.</desc>
    <defs/>
    <g id="Asset" stroke="none" stroke-width="1" fill="none" fill-rule="evenodd">
        <g id="icon-wechat" fill-rule="nonzero" fill="#82B500">
            <path d="M14.7046154,5.30338198 C0.735767173,7.80972865 -3.92051558,23.6637259 7.19071476,30.9204123 C7.79997029,31.3138167 7.79997029,31.2702171 6.88602427,34.009683 L6.10278533,36.3556185 L8.91687605,34.8402175 L11.7309668,33.3248166 L13.2250665,33.6891126 C14.7915444,34.082517 16.7934199,34.3593619 18.1278362,34.3593619 L18.9257515,34.3593619 L18.6500374,33.2955821 C16.4597531,25.1937441 24.0316064,17.16474 33.8809239,17.16474 L35.2154657,17.16474 L34.939877,16.2030287 C32.7784436,8.61115473 23.6545378,3.70052981 14.7046154,5.30338198 Z M13.4861044,12.3997831 C14.9656533,13.405346 15.0527077,15.5765051 13.6311115,16.509108 C11.3247964,18.0245089 8.62673644,15.357877 10.1787889,13.0846496 C10.860548,12.0647215 12.4997803,11.7295339 13.4861044,12.3997831 Z M25.3806991,12.3997831 C27.8175958,14.0464869 25.9899546,17.8496065 23.2627929,16.800444 C21.2901447,16.0427435 21.0579577,13.3178948 22.9001498,12.3415663 C23.625436,11.9481619 24.7568927,11.9772703 25.3806991,12.3997831 Z M30.7622681,18.4034222 C23.8430721,19.6710867 19.0417823,24.9460077 19.317371,31.0078635 C19.6800141,39.1243188 29.1521376,44.7198102 38.2470671,42.2134635 L39.3204456,41.9220015 L41.5833589,43.1460664 C42.8308463,43.8309329 43.8752485,44.3264057 43.9042248,44.2680629 C43.9333266,44.1952289 43.6867142,43.3209688 43.3675983,42.3155319 C42.642312,40.0714129 42.6277611,40.2316981 43.5996598,39.5323404 C54.5367813,31.6490044 44.9342016,15.8242415 30.7622681,18.4034222 Z M30.4866794,24.9460077 C31.0958095,25.3540293 31.4149254,26.3740834 31.1538876,27.1172927 C30.6027102,28.7055277 28.238317,28.8220873 27.5999597,27.2920691 C26.8746734,25.5289317 28.8765489,23.8968451 30.4866794,24.9460077 Z M40.1763135,25.1209101 C41.1336613,26.0388958 40.9741033,27.5981483 39.8571976,28.1809464 C38.1455872,29.0552065 36.3469224,27.3066863 37.2317666,25.6308741 C37.8119204,24.5526032 39.3060202,24.2903756 40.1763135,25.1209101 Z" id="Shape"/>
        </g>
    </g>
</svg>