<?xml version="1.0" encoding="UTF-8"?>
<svg width="123px" height="32px" viewBox="0 0 123 32" version="1.1" xmlns="http://www.w3.org/2000/svg" xmlns:xlink="http://www.w3.org/1999/xlink">
    <!-- Generator: Sketch 52.2 (67145) - http://www.bohemiancoding.com/sketch -->
    <title>分组 20 copy 3</title>
    <desc>Created with Sketch.</desc>
    <g id="Page-1" stroke="none" stroke-width="1" fill="none" fill-rule="evenodd">
        <g id="分组-20-copy-4" fill="#000000">
            <g id="分组-19" transform="translate(3.000000, 3.000000)">
                <g id="分组-2" transform="translate(40.000000, 0.000000)">
                    <g id="拍信-copy" fill-rule="nonzero">
                        <path d="M24.59375,25.453125 L10.984375,25.453125 L10.984375,9.3046875 L9.4609375,10.21875 L9.4609375,5.6484375 C11.018237,4.42968141 12.1354133,2.90625914 12.8125,1.078125 L17.5859375,1.078125 L16.7734375,3.109375 L20.8359375,3.109375 C23.3411584,3.109375 24.59375,4.36196664 24.59375,6.8671875 L24.59375,25.453125 Z M6.921875,23.015625 C6.921875,23.625003 6.71875203,24.1666643 6.3125,24.640625 C5.77083063,25.250003 5.12760789,25.5546875 4.3828125,25.5546875 L0.828125,25.5546875 L0.828125,22.5078125 L1.7421875,22.5078125 C2.2161482,22.4401038 2.55468648,22.3385423 2.7578125,22.203125 C2.89322984,21.9322903 2.92708367,19.9349145 2.859375,16.2109375 L0.015625,17.0234375 L0.015625,13.0625 L2.859375,12.25 L2.859375,9.40625 C2.92708367,7.78124187 2.25000711,6.93489617 0.828125,6.8671875 L0.1171875,6.8671875 L0.1171875,3.515625 L2.859375,3.515625 L2.859375,0.9765625 L6.921875,0.9765625 L6.921875,3.515625 L8.6484375,3.515625 L8.6484375,6.8671875 L6.921875,6.8671875 L6.921875,10.9296875 L8.6484375,10.421875 L8.6484375,14.3828125 L6.921875,14.9921875 L6.921875,23.015625 Z M18.3984375,15.8046875 L14.9453125,15.8046875 L14.9453125,22.1015625 L20.53125,22.1015625 L20.53125,17.328125 C20.328124,16.3124949 19.6171936,15.8046875 18.3984375,15.8046875 Z M14.9453125,12.3515625 L20.328125,12.3515625 L20.328125,8.1875 C20.328125,7.03645258 19.6849023,6.4609375 18.3984375,6.4609375 L14.9453125,6.4609375 L14.9453125,12.3515625 Z M46.734375,15.90625 C49.2395959,15.90625 50.4921875,17.1249878 50.4921875,19.5625 L50.4921875,25.5546875 L33.4296875,25.5546875 L33.4296875,19.5625 C33.4296875,17.1249878 34.716133,15.90625 37.2890625,15.90625 L46.734375,15.90625 Z M33.0234375,1.1796875 C32.5494768,5.17449914 31.330739,8.28905133 29.3671875,10.5234375 L31.90625,10.5234375 L31.90625,23.21875 C31.90625,24.7760495 30.9583428,25.5546875 29.0625,25.5546875 L27.640625,25.5546875 L27.640625,12.046875 L26.015625,12.65625 L26.015625,7.578125 C27.5052158,6.15624289 28.5546845,4.02345172 29.1640625,1.1796875 L33.0234375,1.1796875 Z M43.9921875,0.9765625 L43.9921875,2.296875 L50.59375,2.296875 L50.59375,5.6484375 L33.53125,5.6484375 L33.53125,2.296875 L39.7265625,2.296875 L39.7265625,0.9765625 L43.9921875,0.9765625 Z M33.6328125,6.96875 L50.59375,6.96875 L50.59375,10.1171875 L33.6328125,10.1171875 L33.6328125,6.96875 Z M33.734375,11.4375 L50.59375,11.4375 L50.59375,14.5859375 L33.734375,14.5859375 L33.734375,11.4375 Z M45.0078125,19.2578125 L37.6953125,19.2578125 L37.6953125,22.203125 L46.2265625,22.203125 L46.2265625,20.578125 C46.2265625,19.6979123 45.8203166,19.2578125 45.0078125,19.2578125 Z"></path>
                    </g>
                    <path d="M70,21 L70,17 L75,17 L75,21 L75,25 L55,25 L55,21 L55.0836557,21 C55.0556955,20.9565128 55.0278102,20.9123162 55,20.8674104 C58.1597075,17.9855802 59.9124141,15.3631101 60.2581198,13 L53,13 L53,9 L77,9 L77,13 L64.8726907,13 C64.4161099,15.9029398 63.1508004,18.5685834 61.0767623,20.9969306 C61.0758881,20.9979542 61.075014,20.9989773 61.0741399,21 L70,21 Z M56,2 L74,2 L74,6 L56,6 L56,2 Z" id="合并形状"></path>
                </g>
                <path d="M16.6817181,7.55005056 C17.626652,6.16683519 18.1354626,5.58442872 18.9713656,4.89282103 C20.4977974,3.65520728 22.4603524,3 24.5319383,3 C26.8579295,3 28.7477974,3.76440849 30.3469163,5.40242669 C32.0914097,7.14964611 33,9.44287159 33,11.9908999 C33,17.1233569 29.3292952,21.0546006 24.5682819,21.0546006 C22.5330396,21.0546006 20.534141,20.3265925 18.8986784,19.0525784 C18.0991189,18.3973711 17.5539648,17.8149646 16.6453744,16.5045501 C15.7731278,17.9241658 15.2279736,18.5429727 14.246696,19.3073812 C12.6839207,20.5085945 11.0848018,21.0546006 8.97687225,21.0546006 C7.94693474,21.0546006 6.56654615,20.7757113 4.83570648,20.2179326 L4.83570648,25 L-9.20152843e-13,25 C-6.07514039e-13,16.9563635 -4.51194637e-13,12.6321303 -4.51194637e-13,12.0273003 C-4.51194637e-13,6.82204247 3.63436123,3 8.57709251,3 C12.1387665,3 14.3557269,4.23761375 16.6817181,7.55005056 Z M13.5198238,12.0273003 C11.5936123,9.40647118 10.2852423,8.46006067 8.61343612,8.46006067 C6.65088106,8.46006067 5.08810573,10.0252781 5.08810573,12.0273003 C5.08810573,13.9929221 6.65088106,15.5945399 8.5407489,15.5945399 C9.44933921,15.5945399 10.3579295,15.2305359 11.1938326,14.5753286 C11.7389868,14.1385238 12.2114537,13.6653185 12.6839207,13.1193124 C13.1927313,12.4641052 13.5198238,12.0273003 13.5198238,12.0273003 Z M19.6255507,12.0273003 C21.5881057,14.611729 22.969163,15.5945399 24.6046256,15.5945399 C26.530837,15.5945399 28.0572687,13.9929221 28.0572687,12.0273003 C28.0572687,10.0252781 26.530837,8.46006067 24.6046256,8.46006067 C23.6960352,8.46006067 22.7511013,8.82406471 21.8788546,9.5156724 C21.3700441,9.87967644 20.9339207,10.3528817 20.4977974,10.8988878 C19.9526432,11.554095 19.6255507,11.9908999 19.6255507,12.0273003 Z" id="∞"></path>
            </g>
        </g>
    </g>
</svg>