<?xml version="1.0" encoding="utf-8"?>
<!-- Generator: Adobe Illustrator 22.0.1, SVG Export Plug-In . SVG Version: 6.00 Build 0)  -->
<svg version="1.1" id="图层_1" xmlns="http://www.w3.org/2000/svg" xmlns:xlink="http://www.w3.org/1999/xlink" x="0px" y="0px"
	 viewBox="0 0 52.942 52.942" style="enable-background:new 0 0 52.942 52.942;" xml:space="preserve">
<style type="text/css">
	.st0{fill:#E1E1FF;}
	.st1{fill:#6E68FC;}
</style>
<g>
	<g>
		<g id="XMLID_38_">
			<g>
				<polygon class="st0" points="39.136,17.071 32.266,25.053 28.761,25.86 29.037,22.272 35.907,14.293 35.907,14.29 				"/>
			</g>
		</g>
	</g>
	<g>
		<path class="st1" d="M33.848,39.244H16.355c-1.486,0-2.694-1.209-2.694-2.694V19.056c0-1.486,1.209-2.694,2.694-2.694h11.759
			c0.327,0,0.593,0.266,0.593,0.593s-0.266,0.593-0.593,0.593H16.355c-0.832,0-1.508,0.677-1.508,1.508V36.55
			c0,0.832,0.677,1.508,1.508,1.508h17.493c0.832,0,1.508-0.677,1.508-1.508V25.772c0-0.327,0.266-0.593,0.593-0.593
			s0.593,0.266,0.593,0.593V36.55C36.543,38.035,35.334,39.244,33.848,39.244z"/>
	</g>
	<g>
		<path class="st1" d="M24.976,34.311h-7.138c-0.327,0-0.593-0.266-0.593-0.593s0.266-0.593,0.593-0.593h7.138
			c0.327,0,0.593,0.266,0.593,0.593S25.304,34.311,24.976,34.311z"/>
	</g>
	<g>
		<path class="st1" d="M24.976,31.025h-7.138c-0.327,0-0.593-0.266-0.593-0.593s0.266-0.593,0.593-0.593h7.138
			c0.327,0,0.593,0.266,0.593,0.593S25.304,31.025,24.976,31.025z"/>
	</g>
	<g>
		<path class="st1" d="M19.253,27.38c-0.162,0-0.324-0.066-0.441-0.197c-0.219-0.244-0.199-0.618,0.045-0.837l0.049-0.043
			c0.308-0.273,0.636-0.605,0.635-1.078c-0.001-0.358-0.139-0.517-0.427-0.814c-0.32-0.33-0.758-0.783-0.76-1.635
			c-0.003-1.112,0.745-1.798,1.105-2.127c0.037-0.034,0.071-0.065,0.1-0.094c0.236-0.227,0.611-0.22,0.839,0.016
			c0.227,0.236,0.22,0.611-0.016,0.839c-0.036,0.034-0.077,0.072-0.122,0.114c-0.305,0.279-0.722,0.661-0.72,1.249
			c0.001,0.358,0.139,0.517,0.427,0.814c0.32,0.33,0.758,0.783,0.76,1.635c0.003,1.048-0.724,1.693-1.034,1.969l-0.043,0.038
			C19.536,27.329,19.394,27.38,19.253,27.38z"/>
	</g>
	<g>
		<path class="st1" d="M22.886,27.38c-0.162,0-0.324-0.066-0.441-0.197c-0.219-0.244-0.199-0.618,0.045-0.837l0.049-0.043
			c0.308-0.273,0.636-0.605,0.635-1.078c-0.001-0.358-0.139-0.517-0.427-0.814c-0.32-0.33-0.758-0.783-0.76-1.635
			c-0.003-1.112,0.746-1.798,1.106-2.128c0.037-0.034,0.071-0.065,0.1-0.093c0.236-0.227,0.612-0.22,0.839,0.016
			c0.227,0.236,0.22,0.611-0.016,0.839c-0.036,0.034-0.077,0.072-0.122,0.113c-0.305,0.279-0.722,0.661-0.721,1.249
			c0.001,0.358,0.139,0.517,0.427,0.814c0.32,0.33,0.758,0.783,0.76,1.635c0.003,1.048-0.724,1.693-1.034,1.968l-0.043,0.038
			C23.169,27.329,23.027,27.38,22.886,27.38z"/>
	</g>
	<g>
		<g>
			<path class="st1" d="M38.687,17.664c-0.137,0-0.275-0.047-0.387-0.144l-3.229-2.779c-0.248-0.214-0.276-0.588-0.063-0.836
				c0.214-0.248,0.588-0.277,0.836-0.063l3.229,2.779c0.248,0.214,0.276,0.588,0.063,0.836
				C39.02,17.594,38.854,17.664,38.687,17.664z"/>
		</g>
		<g>
			<g>
				<path class="st1" d="M31.819,25.646c-0.137,0-0.275-0.047-0.387-0.144c-0.248-0.214-0.276-0.588-0.063-0.836l6.869-7.982
					c0.213-0.248,0.588-0.277,0.836-0.063c0.248,0.214,0.276,0.588,0.063,0.836l-6.869,7.982
					C32.152,25.576,31.986,25.646,31.819,25.646z"/>
			</g>
			<g>
				<path class="st1" d="M28.59,22.867c-0.137,0-0.275-0.047-0.387-0.144c-0.248-0.214-0.276-0.588-0.063-0.836l6.869-7.982
					c0.213-0.248,0.588-0.276,0.836-0.063c0.248,0.214,0.276,0.588,0.063,0.836L29.04,22.66
					C28.922,22.797,28.757,22.867,28.59,22.867z"/>
			</g>
			<g>
				<path class="st1" d="M28.312,26.455c-0.27,0-0.514-0.185-0.577-0.46c-0.074-0.319,0.126-0.637,0.445-0.711l3.506-0.809
					c0.317-0.072,0.637,0.125,0.711,0.445c0.074,0.319-0.126,0.637-0.445,0.711l-3.506,0.809
					C28.401,26.45,28.357,26.455,28.312,26.455z"/>
			</g>
			<g>
				<path class="st1" d="M28.314,26.455c-0.015,0-0.031-0.001-0.046-0.002c-0.326-0.025-0.571-0.31-0.546-0.637l0.277-3.588
					c0.025-0.327,0.308-0.571,0.637-0.546c0.326,0.025,0.571,0.31,0.546,0.637l-0.277,3.588
					C28.88,26.218,28.621,26.455,28.314,26.455z"/>
			</g>
		</g>
	</g>
</g>
</svg>
