<?xml version="1.0" encoding="utf-8"?>
<!-- Generator: Adobe Illustrator 22.0.1, SVG Export Plug-In . SVG Version: 6.00 Build 0)  -->
<svg version="1.1" id="图层_1" xmlns="http://www.w3.org/2000/svg" xmlns:xlink="http://www.w3.org/1999/xlink" x="0px" y="0px"
	 viewBox="0 0 52.942 52.942" style="enable-background:new 0 0 52.942 52.942;" xml:space="preserve">
<style type="text/css">
	.st0{fill:#E1E1FF;}
	.st1{fill:#FFFFFF;}
	.st2{fill:#6E68FC;}
</style>
<g>
	<g>
		<rect x="11.24" y="25.886" class="st0" width="4.261" height="12.695"/>
	</g>
	<g>
		<circle class="st0" cx="31.185" cy="21.391" r="6.607"/>
	</g>
	<g id="XMLID_37_">
		<g>
			<path class="st1" d="M31.388,18.309c0.878,0,1.595,0.718,1.595,1.595c0,0.439-0.181,0.836-0.468,1.124s-0.688,0.468-1.127,0.468
				h-1.996v-3.188H31.388z"/>
		</g>
	</g>
	<g>
		<path class="st2" d="M23.087,33.211c-0.481,0-0.966-0.14-1.391-0.433c-0.27-0.186-0.337-0.555-0.151-0.825
			c0.186-0.269,0.556-0.337,0.825-0.151c0.577,0.398,1.37,0.253,1.768-0.324c0.193-0.279,0.265-0.617,0.204-0.951
			c-0.061-0.334-0.249-0.624-0.528-0.817c-0.27-0.186-0.337-0.555-0.151-0.825c0.186-0.269,0.555-0.337,0.825-0.151
			c0.54,0.373,0.903,0.933,1.021,1.579s-0.022,1.298-0.394,1.839C24.637,32.84,23.869,33.211,23.087,33.211z"/>
	</g>
	<g>
		<path class="st2" d="M15.501,38.751H11.24c-0.327,0-0.593-0.266-0.593-0.593V25.463c0-0.327,0.266-0.593,0.593-0.593h4.261
			c0.327,0,0.593,0.266,0.593,0.593v12.695C16.094,38.486,15.828,38.751,15.501,38.751z M11.833,37.565h3.075V26.056h-3.075V37.565z
			"/>
	</g>
	<g>
		<path class="st2" d="M20.723,27.45h-4.689c-0.327,0-0.593-0.266-0.593-0.593s0.266-0.593,0.593-0.593h4.689
			c0.327,0,0.593,0.266,0.593,0.593S21.05,27.45,20.723,27.45z"/>
	</g>
	<g>
		<path class="st2" d="M19.793,38.751c-0.113,0-0.226-0.032-0.327-0.099l-3.997-2.652c-0.273-0.181-0.347-0.549-0.167-0.822
			c0.182-0.273,0.549-0.347,0.822-0.167l3.997,2.652c0.273,0.181,0.347,0.549,0.167,0.822
			C20.174,38.658,19.985,38.751,19.793,38.751z"/>
	</g>
	<g>
		<path class="st2" d="M28.297,38.751h-8.503c-0.327,0-0.593-0.266-0.593-0.593s0.266-0.593,0.593-0.593h8.503
			c0.327,0,0.593,0.266,0.593,0.593S28.624,38.751,28.297,38.751z"/>
	</g>
	<g>
		<path class="st2" d="M31.188,28.591c-3.97,0-7.2-3.23-7.2-7.2s3.23-7.2,7.2-7.2s7.2,3.23,7.2,7.2S35.158,28.591,31.188,28.591z
			 M31.188,15.376c-3.316,0-6.014,2.698-6.014,6.014c0,3.316,2.698,6.014,6.014,6.014s6.014-2.698,6.014-6.014
			C37.202,18.074,34.504,15.376,31.188,15.376z"/>
	</g>
	<g>
		<g>
			<path class="st2" d="M29.393,25.064c-0.327,0-0.593-0.266-0.593-0.593v-6.16c0-0.327,0.266-0.593,0.593-0.593
				s0.593,0.266,0.593,0.593v6.16C29.986,24.798,29.72,25.064,29.393,25.064z"/>
		</g>
		<g>
			<path class="st2" d="M31.389,22.091h-1.997c-0.327,0-0.593-0.266-0.593-0.593s0.266-0.593,0.593-0.593h1.997c0.552,0,1-0.449,1-1
				c0-0.552-0.449-1-1-1h-1.997c-0.327,0-0.593-0.266-0.593-0.593s0.266-0.593,0.593-0.593h1.997c1.206,0,2.187,0.981,2.187,2.187
				S32.595,22.091,31.389,22.091z"/>
		</g>
		<g>
			<path class="st2" d="M32.976,25.064c-0.133,0-0.268-0.045-0.378-0.137l-3.583-2.973c-0.252-0.209-0.287-0.583-0.078-0.835
				c0.209-0.252,0.583-0.286,0.835-0.078l3.583,2.973c0.252,0.209,0.287,0.583,0.078,0.835
				C33.315,24.991,33.146,25.064,32.976,25.064z"/>
		</g>
	</g>
	<g>
		<path class="st2" d="M40.598,33.262c-0.227,0-0.443-0.131-0.542-0.352c-0.133-0.299,0.001-0.65,0.3-0.783
			c0.31-0.138,0.548-0.389,0.669-0.706c0.121-0.317,0.112-0.662-0.026-0.972c-0.286-0.64-1.038-0.928-1.679-0.643
			c-0.299,0.133-0.65-0.001-0.783-0.3c-0.133-0.299,0.001-0.65,0.3-0.783c1.237-0.552,2.693,0.006,3.245,1.242
			c0.552,1.237-0.005,2.693-1.242,3.245C40.761,33.245,40.679,33.262,40.598,33.262z"/>
	</g>
	<g>
		<path class="st2" d="M28.297,38.752c-0.227,0-0.443-0.131-0.542-0.352c-0.133-0.299,0.001-0.65,0.3-0.783l12.301-5.49
			c0.299-0.133,0.65,0.001,0.783,0.3c0.133,0.299-0.001,0.65-0.3,0.783L28.538,38.7C28.46,38.735,28.378,38.752,28.297,38.752z"/>
	</g>
	<g>
		<path class="st2" d="M29.552,34.109c-0.227,0-0.443-0.131-0.542-0.352c-0.133-0.299,0.001-0.65,0.3-0.783l9.527-4.252
			c0.299-0.133,0.65,0.001,0.783,0.3c0.133,0.299-0.001,0.65-0.3,0.783l-9.527,4.252C29.715,34.093,29.633,34.109,29.552,34.109z"/>
	</g>
	<g>
		<path class="st2" d="M39.079,29.857c-0.227,0-0.444-0.131-0.542-0.352c-0.133-0.299,0.001-0.65,0.301-0.783l0.108-0.048
			c0.3-0.133,0.65,0.001,0.783,0.301c0.133,0.299-0.001,0.65-0.301,0.783l-0.108,0.048C39.242,29.841,39.16,29.857,39.079,29.857z"
			/>
	</g>
	<g>
		<path class="st2" d="M22.032,32.882c-0.116,0-0.233-0.034-0.336-0.105l-2.897-1.998c-0.27-0.186-0.337-0.555-0.151-0.825
			c0.186-0.27,0.556-0.337,0.825-0.151l2.897,1.998c0.27,0.186,0.337,0.555,0.151,0.825C22.406,32.793,22.221,32.882,22.032,32.882z
			"/>
	</g>
	<g>
		<path class="st2" d="M24.149,29.814c-0.116,0-0.233-0.034-0.336-0.105l-3.427-2.364c-0.27-0.186-0.337-0.555-0.151-0.825
			c0.186-0.269,0.556-0.337,0.825-0.151l3.427,2.364c0.27,0.186,0.337,0.555,0.151,0.825C24.522,29.725,24.337,29.814,24.149,29.814
			z"/>
	</g>
</g>
</svg>
