<?xml version="1.0" encoding="utf-8"?>
<!-- Generator: Adobe Illustrator 22.0.1, SVG Export Plug-In . SVG Version: 6.00 Build 0)  -->
<svg version="1.1" id="图层_1" xmlns="http://www.w3.org/2000/svg" xmlns:xlink="http://www.w3.org/1999/xlink" x="0px" y="0px"
	 viewBox="0 0 52.942 52.942" style="enable-background:new 0 0 52.942 52.942;" xml:space="preserve">
<style type="text/css">
	.st0{fill:#E1E1FF;}
	.st1{fill:#6E68FC;}
</style>
<g>
	<g>
		<circle class="st0" cx="26.471" cy="26.785" r="6.009"/>
	</g>
	<g>
		<path class="st1" d="M17.99,17.54c-1.828,0-3.123-0.403-3.154-0.413c-0.312-0.101-0.483-0.435-0.382-0.747
			c0.101-0.311,0.434-0.482,0.747-0.382c0.287,0.092,6.769,2.073,10.778-3.909c0.182-0.272,0.551-0.345,0.823-0.162
			c0.272,0.182,0.345,0.551,0.162,0.823C24.305,16.718,20.603,17.54,17.99,17.54z"/>
	</g>
	<g>
		<path class="st1" d="M15.018,30.685c-0.327,0-0.593-0.266-0.593-0.593V16.563c0-0.327,0.266-0.593,0.593-0.593
			s0.593,0.266,0.593,0.593v13.529C15.611,30.42,15.346,30.685,15.018,30.685z"/>
	</g>
	<g>
		<path class="st1" d="M34.198,17.534c-0.013,0-0.025,0-0.039-0.001c-2.372-0.152-5.716-1.105-8.181-4.782
			c-0.182-0.272-0.11-0.64,0.162-0.823c0.272-0.183,0.64-0.11,0.823,0.162c2.196,3.276,5.166,4.124,7.272,4.259
			c0.327,0.021,0.575,0.303,0.554,0.63C34.769,17.293,34.508,17.534,34.198,17.534z"/>
	</g>
	<g>
		<path class="st1" d="M37.924,30.685c-0.327,0-0.593-0.266-0.593-0.593V16.563c0-0.327,0.266-0.593,0.593-0.593
			s0.593,0.266,0.593,0.593v13.529C38.517,30.42,38.252,30.685,37.924,30.685z"/>
	</g>
	<g>
		<path class="st1" d="M26.47,41.115c-0.112,0-0.226-0.032-0.326-0.098c-0.008-0.006-0.863-0.566-3.353-1.913
			c-0.28-0.151-0.614-0.316-1-0.506c-2.755-1.357-7.366-3.629-7.366-8.505c0-0.327,0.266-0.593,0.593-0.593s0.593,0.266,0.593,0.593
			c0,4.137,4.197,6.205,6.704,7.441c0.381,0.188,0.741,0.365,1.04,0.527c2.552,1.38,3.408,1.944,3.443,1.968
			c0.273,0.181,0.347,0.548,0.167,0.822C26.851,41.022,26.663,41.115,26.47,41.115z"/>
	</g>
	<g>
		<path class="st1" d="M26.472,41.115c-0.193,0-0.381-0.093-0.495-0.266c-0.181-0.273-0.106-0.641,0.167-0.822
			c0.035-0.023,0.891-0.587,3.443-1.968c0.3-0.162,0.659-0.339,1.04-0.527c2.507-1.235,6.704-3.303,6.704-7.441
			c0-0.327,0.266-0.593,0.593-0.593s0.593,0.266,0.593,0.593c0,4.875-4.611,7.147-7.366,8.505c-0.387,0.19-0.72,0.355-1,0.506
			c-2.49,1.347-3.344,1.908-3.353,1.913C26.698,41.084,26.584,41.115,26.472,41.115z"/>
	</g>
	<g>
		<path class="st1" d="M26.471,33.387c-3.64,0-6.602-2.962-6.602-6.602c0-3.641,2.962-6.602,6.602-6.602
			c3.641,0,6.602,2.962,6.602,6.602C33.074,30.425,30.112,33.387,26.471,33.387z M26.471,21.369c-2.986,0-5.416,2.43-5.416,5.416
			c0,2.986,2.43,5.416,5.416,5.416c2.987,0,5.416-2.43,5.416-5.416C31.888,23.798,29.458,21.369,26.471,21.369z"/>
	</g>
	<g>
		<path class="st1" d="M26.826,29.798c-1.661,0-3.013-1.352-3.013-3.013c0-1.661,1.352-3.013,3.013-3.013
			c0.805,0,1.561,0.313,2.131,0.882c0.232,0.232,0.232,0.607,0,0.839c-0.232,0.232-0.607,0.231-0.839,0
			c-0.345-0.345-0.804-0.535-1.292-0.535c-1.007,0-1.827,0.819-1.827,1.827s0.819,1.827,1.827,1.827
			c0.475,0,0.926-0.182,1.268-0.511c0.236-0.227,0.611-0.22,0.839,0.016c0.227,0.236,0.22,0.611-0.016,0.839
			C28.352,29.499,27.609,29.798,26.826,29.798z"/>
	</g>
</g>
</svg>
