<?xml version="1.0" encoding="utf-8"?>
<!-- Generator: Adobe Illustrator 22.0.1, SVG Export Plug-In . SVG Version: 6.00 Build 0)  -->
<svg version="1.1" id="图层_1" xmlns="http://www.w3.org/2000/svg" xmlns:xlink="http://www.w3.org/1999/xlink" x="0px" y="0px"
	 viewBox="0 0 52.942 52.942" style="enable-background:new 0 0 52.942 52.942;" xml:space="preserve">
<style type="text/css">
	.st0{fill:#E1E1FF;}
	.st1{fill:#6E68FC;}
</style>
<g>
	<g>
		<rect x="22.118" y="32.137" class="st0" width="8.706" height="5.011"/>
	</g>
	<g id="XMLID_34_">
		<g>
			<path class="st0" d="M26.471,25.013c0,1.844-1.494,3.339-3.339,3.339s-3.342-1.494-3.342-3.339c0,1.844-1.494,3.339-3.339,3.339
				c-1.844,0-3.339-1.494-3.339-3.339v-9.05h26.716v9.041c0,1.844-1.494,3.339-3.339,3.339c-1.841,0-3.333-1.489-3.339-3.33
				c0,1.844-1.497,3.339-3.342,3.339S26.471,26.857,26.471,25.013z"/>
		</g>
	</g>
	<g>
		<path class="st1" d="M39.829,16.388H13.113c-0.327,0-0.593-0.266-0.593-0.593c0-0.327,0.266-0.593,0.593-0.593h26.717
			c0.327,0,0.593,0.266,0.593,0.593C40.423,16.122,40.157,16.388,39.829,16.388z"/>
	</g>
	<g>
		<path class="st1" d="M13.113,25.437c-0.327,0-0.593-0.266-0.593-0.593v-9.049c0-0.327,0.266-0.593,0.593-0.593
			s0.593,0.266,0.593,0.593v9.049C13.706,25.171,13.44,25.437,13.113,25.437z"/>
	</g>
	<g>
		<path class="st1" d="M39.829,25.725c-0.327,0-0.593-0.266-0.593-0.593v-9.337c0-0.327,0.266-0.593,0.593-0.593
			s0.593,0.266,0.593,0.593v9.337C40.423,25.459,40.157,25.725,39.829,25.725z"/>
	</g>
	<g>
		<path class="st1" d="M19.792,25.936c-0.327,0-0.593-0.266-0.593-0.593v-5.025c0-0.327,0.266-0.593,0.593-0.593
			s0.593,0.266,0.593,0.593v5.025C20.385,25.67,20.12,25.936,19.792,25.936z"/>
	</g>
	<g>
		<path class="st1" d="M26.471,25.936c-0.327,0-0.593-0.266-0.593-0.593v-5.025c0-0.327,0.266-0.593,0.593-0.593
			s0.593,0.266,0.593,0.593v5.025C27.064,25.67,26.799,25.936,26.471,25.936z"/>
	</g>
	<g>
		<path class="st1" d="M33.15,25.936c-0.327,0-0.593-0.266-0.593-0.593v-5.025c0-0.327,0.266-0.593,0.593-0.593
			s0.593,0.266,0.593,0.593v5.025C33.743,25.67,33.478,25.936,33.15,25.936z"/>
	</g>
	<g>
		<path class="st1" d="M15.784,37.741c-0.327,0-0.593-0.266-0.593-0.593v-8.964c0-0.327,0.266-0.593,0.593-0.593
			s0.593,0.266,0.593,0.593v8.964C16.378,37.475,16.112,37.741,15.784,37.741z"/>
	</g>
	<g>
		<path class="st1" d="M37.158,37.741c-0.327,0-0.593-0.266-0.593-0.593v-5.26c0-0.327,0.266-0.593,0.593-0.593
			s0.593,0.266,0.593,0.593v5.26C37.751,37.475,37.485,37.741,37.158,37.741z"/>
	</g>
	<g>
		<path class="st1" d="M37.158,37.741H15.784c-0.327,0-0.593-0.266-0.593-0.593s0.266-0.593,0.593-0.593h21.373
			c0.327,0,0.593,0.266,0.593,0.593S37.485,37.741,37.158,37.741z"/>
	</g>
	<g>
		<path class="st1" d="M16.452,28.776c-2.169,0-3.933-1.764-3.933-3.933c0-0.327,0.266-0.593,0.593-0.593s0.593,0.266,0.593,0.593
			c0,1.514,1.232,2.747,2.747,2.747c1.515,0,2.747-1.232,2.747-2.747c0-0.327,0.266-0.593,0.593-0.593s0.593,0.266,0.593,0.593
			C20.385,27.012,18.621,28.776,16.452,28.776z"/>
	</g>
	<g>
		<path class="st1" d="M23.132,28.776c-2.169,0-3.933-1.764-3.933-3.933c0-0.327,0.266-0.593,0.593-0.593s0.593,0.266,0.593,0.593
			c0,1.514,1.232,2.747,2.747,2.747c1.514,0,2.747-1.232,2.747-2.747c0-0.327,0.266-0.593,0.593-0.593s0.593,0.266,0.593,0.593
			C27.064,27.012,25.3,28.776,23.132,28.776z"/>
	</g>
	<g>
		<path class="st1" d="M29.811,28.776c-2.169,0-3.933-1.764-3.933-3.933c0-0.327,0.266-0.593,0.593-0.593s0.593,0.266,0.593,0.593
			c0,1.514,1.232,2.747,2.747,2.747c1.514,0,2.747-1.232,2.747-2.747c0-0.327,0.266-0.593,0.593-0.593s0.593,0.266,0.593,0.593
			C33.743,27.012,31.979,28.776,29.811,28.776z"/>
	</g>
	<g>
		<path class="st1" d="M36.49,28.768c-2.169,0-3.933-1.764-3.933-3.933c0-0.327,0.266-0.593,0.593-0.593s0.593,0.266,0.593,0.593
			c0,1.514,1.232,2.747,2.747,2.747s2.747-1.232,2.747-2.747c0-0.327,0.266-0.593,0.593-0.593s0.593,0.266,0.593,0.593
			C40.423,27.004,38.658,28.768,36.49,28.768z"/>
	</g>
	<g>
		<path class="st1" d="M22.118,37.214c-0.327,0-0.593-0.266-0.593-0.593V32.22c0-0.327,0.266-0.593,0.593-0.593
			s0.593,0.266,0.593,0.593v4.401C22.711,36.949,22.446,37.214,22.118,37.214z"/>
	</g>
	<g>
		<path class="st1" d="M30.824,32.813h-8.706c-0.327,0-0.593-0.266-0.593-0.593s0.266-0.593,0.593-0.593h8.706
			c0.327,0,0.593,0.266,0.593,0.593S31.151,32.813,30.824,32.813z"/>
	</g>
	<g>
		<path class="st1" d="M30.824,37.741c-0.327,0-0.593-0.266-0.593-0.593V32.22c0-0.327,0.266-0.593,0.593-0.593
			s0.593,0.266,0.593,0.593v4.928C31.417,37.475,31.151,37.741,30.824,37.741z"/>
	</g>
</g>
</svg>
