<?xml version="1.0" encoding="utf-8"?>
<!-- Generator: Adobe Illustrator 22.0.1, SVG Export Plug-In . SVG Version: 6.00 Build 0)  -->
<svg version="1.1" id="图层_1" xmlns="http://www.w3.org/2000/svg" xmlns:xlink="http://www.w3.org/1999/xlink" x="0px" y="0px"
	 viewBox="0 0 52.942 52.942" style="enable-background:new 0 0 52.942 52.942;" xml:space="preserve">
<style type="text/css">
	.st0{fill:#E1E1FF;}
	.st1{fill:#6E68FC;}
</style>
<g>
	<g>
		<circle class="st0" cx="32.957" cy="33.084" r="5.426"/>
	</g>
	<g id="XMLID_35_">
		<g>
			<path class="st0" d="M37.413,18.726v4.513H14.723v-4.513c0-1.213,0.993-2.206,2.206-2.206h18.277
				C36.419,16.52,37.413,17.514,37.413,18.726z"/>
		</g>
	</g>
	<g>
		<path class="st1" d="M24.997,37.93h-8.231c-1.544,0-2.8-1.256-2.8-2.8V18.825c0-1.544,1.256-2.8,2.8-2.8h18.275
			c1.543,0,2.799,1.256,2.799,2.8v6.939c0,0.327-0.266,0.593-0.593,0.593s-0.593-0.266-0.593-0.593v-6.939
			c0-0.89-0.724-1.613-1.613-1.613H16.767c-0.89,0-1.613,0.724-1.613,1.613V35.13c0,0.89,0.724,1.613,1.613,1.613h8.231
			c0.327,0,0.593,0.266,0.593,0.593S25.325,37.93,24.997,37.93z"/>
	</g>
	<g>
		<path class="st1" d="M20.438,19.896c-0.327,0-0.593-0.266-0.593-0.593v-4.938c0-0.327,0.266-0.593,0.593-0.593
			s0.593,0.266,0.593,0.593v4.938C21.031,19.631,20.765,19.896,20.438,19.896z"/>
	</g>
	<g>
		<path class="st1" d="M31.408,19.896c-0.327,0-0.593-0.266-0.593-0.593v-4.938c0-0.327,0.266-0.593,0.593-0.593
			s0.593,0.266,0.593,0.593v4.938C32.001,19.631,31.736,19.896,31.408,19.896z"/>
	</g>
	<g>
		<path class="st1" d="M37.248,23.932H14.559c-0.327,0-0.593-0.266-0.593-0.593s0.266-0.593,0.593-0.593h22.688
			c0.327,0,0.593,0.266,0.593,0.593S37.575,23.932,37.248,23.932z"/>
	</g>
	<g>
		<path class="st1" d="M22.601,28.458h-4.09c-0.327,0-0.593-0.266-0.593-0.593c0-0.327,0.266-0.593,0.593-0.593h4.09
			c0.327,0,0.593,0.266,0.593,0.593C23.194,28.193,22.929,28.458,22.601,28.458z"/>
	</g>
	<g>
		<path class="st1" d="M22.601,32.292h-4.09c-0.327,0-0.593-0.266-0.593-0.593c0-0.327,0.266-0.593,0.593-0.593h4.09
			c0.327,0,0.593,0.266,0.593,0.593C23.194,32.027,22.929,32.292,22.601,32.292z"/>
	</g>
	<g>
		<path class="st1" d="M32.957,39.17c-3.319,0-6.019-2.7-6.019-6.019s2.7-6.019,6.019-6.019s6.019,2.7,6.019,6.019
			S36.276,39.17,32.957,39.17z M32.957,28.319c-2.665,0-4.833,2.168-4.833,4.833c0,2.665,2.168,4.833,4.833,4.833
			c2.665,0,4.833-2.168,4.833-4.833C37.79,30.487,35.622,28.319,32.957,28.319z"/>
	</g>
	<g>
		<path class="st1" d="M32.957,33.745c-0.327,0-0.593-0.266-0.593-0.593v-2.514c0-0.327,0.266-0.593,0.593-0.593
			s0.593,0.266,0.593,0.593v2.514C33.55,33.479,33.285,33.745,32.957,33.745z"/>
	</g>
	<g>
		<path class="st1" d="M35.059,33.745h-2.102c-0.327,0-0.593-0.266-0.593-0.593s0.266-0.593,0.593-0.593h2.102
			c0.327,0,0.593,0.266,0.593,0.593S35.387,33.745,35.059,33.745z"/>
	</g>
</g>
</svg>
