<?xml version="1.0" encoding="utf-8"?>
<!-- Generator: Adobe Illustrator 22.0.1, SVG Export Plug-In . SVG Version: 6.00 Build 0)  -->
<svg version="1.1" id="图层_1" xmlns="http://www.w3.org/2000/svg" xmlns:xlink="http://www.w3.org/1999/xlink" x="0px" y="0px"
	 viewBox="0 0 52.942 52.942" style="enable-background:new 0 0 52.942 52.942;" xml:space="preserve">
<style type="text/css">
	.st0{fill:#E1E1FF;}
	.st1{fill:#6E68FC;}
</style>
<g>
	<g id="XMLID_36_">
		<g>
			<path class="st0" d="M39.372,18.59v3.881H13.569V18.59c0-1.156,0.946-2.102,2.102-2.102H37.27
				C38.426,16.488,39.372,17.434,39.372,18.59z"/>
		</g>
	</g>
	<g>
		<path class="st1" d="M39.372,23.065c-0.327,0-0.593-0.266-0.593-0.593v-3.804c0-0.327,0.266-0.593,0.593-0.593
			s0.593,0.266,0.593,0.593v3.804C39.965,22.799,39.7,23.065,39.372,23.065z"/>
	</g>
	<g>
		<path class="st1" d="M37.271,36.969h-21.6c-1.486,0-2.694-1.209-2.694-2.694V18.668c0-1.486,1.209-2.694,2.694-2.694h21.6
			c1.486,0,2.694,1.209,2.694,2.694c0,0.327-0.266,0.593-0.593,0.593s-0.593-0.266-0.593-0.593c0-0.832-0.677-1.508-1.508-1.508
			h-21.6c-0.832,0-1.508,0.677-1.508,1.508v15.607c0,0.832,0.677,1.508,1.508,1.508h21.6c0.832,0,1.508-0.676,1.508-1.508V26.27
			c0-0.327,0.266-0.593,0.593-0.593s0.593,0.266,0.593,0.593v8.005C39.965,35.76,38.757,36.969,37.271,36.969z"/>
	</g>
	<g>
		<path class="st1" d="M39.372,23.143H13.57c-0.327,0-0.593-0.266-0.593-0.593s0.266-0.593,0.593-0.593h25.803
			c0.327,0,0.593,0.266,0.593,0.593S39.7,23.143,39.372,23.143z"/>
	</g>
	<g>
		<path class="st1" d="M32.285,27.615h-4.047c-0.327,0-0.593-0.266-0.593-0.593s0.266-0.593,0.593-0.593h4.047
			c0.327,0,0.593,0.266,0.593,0.593S32.612,27.615,32.285,27.615z"/>
	</g>
	<g>
		<path class="st1" d="M35.167,30.474h-6.929c-0.327,0-0.593-0.266-0.593-0.593s0.266-0.593,0.593-0.593h6.929
			c0.327,0,0.593,0.266,0.593,0.593S35.494,30.474,35.167,30.474z"/>
	</g>
	<g>
		<path class="st1" d="M16.93,20.037c-0.08,0-0.157-0.015-0.228-0.045c-0.071-0.03-0.136-0.074-0.193-0.13
			c-0.027-0.027-0.051-0.056-0.074-0.089c-0.021-0.033-0.039-0.065-0.054-0.104c-0.015-0.032-0.027-0.071-0.036-0.11
			c-0.006-0.039-0.009-0.077-0.009-0.116c0-0.039,0.003-0.077,0.012-0.116c0.006-0.039,0.018-0.077,0.032-0.113
			c0.015-0.036,0.033-0.068,0.054-0.101c0.023-0.032,0.047-0.062,0.074-0.089c0.139-0.139,0.344-0.202,0.537-0.163
			c0.039,0.006,0.074,0.018,0.11,0.033c0.036,0.015,0.071,0.035,0.104,0.056c0.033,0.021,0.062,0.045,0.089,0.074
			c0.027,0.027,0.054,0.056,0.074,0.089c0.021,0.033,0.039,0.065,0.054,0.101c0.018,0.035,0.027,0.074,0.036,0.113
			c0.009,0.039,0.012,0.077,0.012,0.116c0,0.039-0.003,0.077-0.012,0.116c-0.009,0.039-0.018,0.077-0.033,0.11
			c-0.015,0.039-0.033,0.071-0.056,0.104c-0.021,0.032-0.044,0.062-0.074,0.089C17.239,19.975,17.087,20.037,16.93,20.037z"/>
	</g>
	<g>
		<path class="st1" d="M19.193,20.037c-0.08,0-0.157-0.015-0.228-0.045c-0.071-0.03-0.136-0.074-0.193-0.13
			c-0.113-0.11-0.172-0.258-0.172-0.418c0-0.039,0.003-0.077,0.012-0.116c0.006-0.039,0.018-0.074,0.032-0.113
			c0.015-0.036,0.033-0.068,0.054-0.101c0.024-0.032,0.047-0.062,0.074-0.089c0.027-0.03,0.059-0.053,0.092-0.074
			c0.03-0.024,0.065-0.041,0.101-0.056c0.036-0.015,0.074-0.027,0.113-0.033c0.074-0.015,0.154-0.015,0.231,0
			c0.039,0.006,0.074,0.018,0.11,0.033c0.036,0.015,0.071,0.032,0.104,0.056c0.033,0.021,0.062,0.045,0.089,0.074
			c0.109,0.11,0.175,0.261,0.175,0.418c0,0.039-0.006,0.08-0.012,0.116c-0.009,0.039-0.018,0.077-0.033,0.113
			c-0.015,0.036-0.036,0.068-0.056,0.101c-0.021,0.032-0.047,0.062-0.074,0.089C19.498,19.975,19.349,20.037,19.193,20.037z"/>
	</g>
	<g>
		<path class="st1" d="M21.455,20.037c-0.16,0-0.308-0.062-0.421-0.175c-0.113-0.11-0.172-0.258-0.172-0.418
			c0-0.039,0.003-0.077,0.009-0.116c0.009-0.039,0.021-0.077,0.035-0.113c0.015-0.036,0.033-0.068,0.054-0.101
			c0.021-0.032,0.047-0.062,0.074-0.089c0.027-0.03,0.059-0.053,0.092-0.074c0.03-0.024,0.065-0.041,0.101-0.056
			c0.036-0.015,0.074-0.027,0.11-0.033c0.077-0.015,0.157-0.015,0.234,0c0.036,0.006,0.074,0.018,0.11,0.033
			c0.036,0.015,0.071,0.032,0.101,0.056c0.033,0.021,0.065,0.045,0.092,0.074c0.027,0.027,0.053,0.056,0.074,0.089
			c0.021,0.033,0.039,0.065,0.053,0.101c0.015,0.035,0.027,0.074,0.036,0.113c0.006,0.039,0.012,0.077,0.012,0.116
			c0,0.157-0.062,0.308-0.175,0.418C21.76,19.975,21.612,20.037,21.455,20.037z"/>
	</g>
</g>
</svg>
