<?xml version="1.0" encoding="utf-8"?>
<!-- Generator: Adobe Illustrator 22.0.1, SVG Export Plug-In . SVG Version: 6.00 Build 0)  -->
<svg version="1.1" id="图层_1" xmlns="http://www.w3.org/2000/svg" xmlns:xlink="http://www.w3.org/1999/xlink" x="0px" y="0px"
	 viewBox="0 0 52.942 52.942" style="enable-background:new 0 0 52.942 52.942;" xml:space="preserve">
<style type="text/css">
	.st0{fill:#E1E1FF;}
	.st1{fill:#FFFFFF;}
	.st2{fill:#6E68FC;}
</style>
<g>
	<g>
		<rect x="14.546" y="18.117" class="st0" width="16.295" height="20.44"/>
	</g>
	<g>
		<polyline class="st1" points="20.035,37.926 20.035,31.305 25.352,31.305 25.352,37.926 		"/>
	</g>
	<g>
		<path class="st2" d="M37.621,39.149H14.546c-0.327,0-0.593-0.266-0.593-0.593s0.266-0.593,0.593-0.593h23.075
			c0.327,0,0.593,0.266,0.593,0.593S37.948,39.149,37.621,39.149z"/>
	</g>
	<g>
		<path class="st2" d="M33.441,18.71h-2.6c-0.327,0-0.593-0.266-0.593-0.593s0.266-0.593,0.593-0.593h2.007v-3.138
			c0-0.327,0.266-0.593,0.593-0.593s0.593,0.266,0.593,0.593v3.731C34.034,18.444,33.768,18.71,33.441,18.71z"/>
	</g>
	<g>
		<path class="st2" d="M14.546,18.71h-2.6c-0.327,0-0.593-0.266-0.593-0.593v-3.731c0-0.327,0.266-0.593,0.593-0.593h17.8
			c0.327,0,0.593,0.266,0.593,0.593s-0.266,0.593-0.593,0.593H12.539v2.545h2.007c0.327,0,0.593,0.266,0.593,0.593
			S14.874,18.71,14.546,18.71z"/>
	</g>
	<g>
		<path class="st2" d="M37.621,34.29c-2.188,0-3.968-1.78-3.968-3.968c0-2.188,1.78-3.969,3.968-3.969s3.968,1.78,3.968,3.969
			C41.589,32.509,39.809,34.29,37.621,34.29z M37.621,27.539c-1.534,0-2.782,1.248-2.782,2.782s1.248,2.782,2.782,2.782
			c1.534,0,2.782-1.248,2.782-2.782S39.155,27.539,37.621,27.539z"/>
	</g>
	<g>
		<path class="st2" d="M37.621,39.149c-0.327,0-0.593-0.266-0.593-0.593v-4.86c0-0.327,0.266-0.593,0.593-0.593
			s0.593,0.266,0.593,0.593v4.86C38.214,38.884,37.948,39.149,37.621,39.149z"/>
	</g>
	<g>
		<path class="st2" d="M20.479,27.881h-2.071c-0.327,0-0.593-0.266-0.593-0.593s0.266-0.593,0.593-0.593h2.071
			c0.327,0,0.593,0.266,0.593,0.593S20.806,27.881,20.479,27.881z"/>
	</g>
	<g>
		<path class="st2" d="M20.479,24.016h-2.071c-0.327,0-0.593-0.266-0.593-0.593s0.266-0.593,0.593-0.593h2.071
			c0.327,0,0.593,0.266,0.593,0.593S20.806,24.016,20.479,24.016z"/>
	</g>
	<g>
		<path class="st2" d="M26.979,27.881h-2.071c-0.327,0-0.593-0.266-0.593-0.593s0.266-0.593,0.593-0.593h2.071
			c0.327,0,0.593,0.266,0.593,0.593S27.306,27.881,26.979,27.881z"/>
	</g>
	<g>
		<path class="st2" d="M26.979,24.016h-2.071c-0.327,0-0.593-0.266-0.593-0.593s0.266-0.593,0.593-0.593h2.071
			c0.327,0,0.593,0.266,0.593,0.593S27.306,24.016,26.979,24.016z"/>
	</g>
	<g>
		<path class="st2" d="M25.352,39.007c-0.327,0-0.593-0.266-0.593-0.593v-6.028h-4.131v6.028c0,0.327-0.266,0.593-0.593,0.593
			s-0.593-0.266-0.593-0.593v-6.621c0-0.327,0.266-0.593,0.593-0.593h5.317c0.327,0,0.593,0.266,0.593,0.593v6.621
			C25.945,38.742,25.68,39.007,25.352,39.007z"/>
	</g>
	<g>
		<path class="st2" d="M30.841,39.149c-0.327,0-0.593-0.266-0.593-0.593v-20.44c0-0.327,0.266-0.593,0.593-0.593
			s0.593,0.266,0.593,0.593v20.44C31.434,38.884,31.168,39.149,30.841,39.149z"/>
	</g>
	<g>
		<path class="st2" d="M14.546,39.007c-0.327,0-0.593-0.266-0.593-0.593V18.117c0-0.327,0.266-0.593,0.593-0.593
			c0.327,0,0.593,0.266,0.593,0.593v20.297C15.139,38.742,14.874,39.007,14.546,39.007z"/>
	</g>
	<g>
		<path class="st2" d="M30.841,18.71H14.546c-0.327,0-0.593-0.266-0.593-0.593s0.266-0.593,0.593-0.593h16.295
			c0.327,0,0.593,0.266,0.593,0.593S31.168,18.71,30.841,18.71z"/>
	</g>
</g>
</svg>
