<?xml version="1.0" encoding="utf-8"?>
<!-- Generator: Adobe Illustrator 22.0.1, SVG Export Plug-In . SVG Version: 6.00 Build 0)  -->
<svg version="1.1" id="图层_1" xmlns="http://www.w3.org/2000/svg" xmlns:xlink="http://www.w3.org/1999/xlink" x="0px" y="0px"
	 viewBox="0 0 52.942 52.942" style="enable-background:new 0 0 52.942 52.942;" xml:space="preserve">
<style type="text/css">
	.st0{fill:#E1E1FF;}
	.st1{fill:#6E68FC;}
	.st2{fill:none;stroke:#6E68FC;stroke-width:4;stroke-linecap:round;stroke-linejoin:round;stroke-miterlimit:10;}
</style>
<g>
	<g id="XMLID_39_">
		<g>
			<polygon class="st0" points="38.127,24.838 38.127,37.531 33.866,37.531 33.866,24.838 35.998,21.938 			"/>
		</g>
	</g>
	<g>
		<path class="st1" d="M18.933,26.003c-0.327,0-0.593-0.266-0.593-0.593v-6.275c0-0.327,0.266-0.593,0.593-0.593
			s0.593,0.266,0.593,0.593v6.275C19.526,25.737,19.261,26.003,18.933,26.003z"/>
	</g>
	<g>
		<path class="st1" d="M21.591,23.361h-2.277c-0.327,0-0.593-0.266-0.593-0.593s0.266-0.593,0.593-0.593h2.277
			c0.675,0,1.224-0.549,1.224-1.224c0-0.675-0.549-1.224-1.224-1.224h-2.277c-0.327,0-0.593-0.266-0.593-0.593
			s0.266-0.593,0.593-0.593h2.277c1.329,0,2.41,1.081,2.41,2.41S22.92,23.361,21.591,23.361z"/>
	</g>
	<g>
		<path class="st1" d="M29.127,38.245H16.916c-1.486,0-2.694-1.209-2.694-2.694v-18.16c0-1.486,1.209-2.694,2.694-2.694H27.03
			c0.327,0,0.593,0.266,0.593,0.593c0,0.327-0.266,0.593-0.593,0.593H16.916c-0.832,0-1.508,0.677-1.508,1.508v18.16
			c0,0.832,0.677,1.508,1.508,1.508h12.211c0.832,0,1.508-0.677,1.508-1.508v-17.78c0-0.327,0.266-0.593,0.593-0.593
			s0.593,0.266,0.593,0.593v17.78C31.821,37.037,30.613,38.245,29.127,38.245z"/>
	</g>
	<g>
		<path class="st2" d="M29.127,15.29"/>
	</g>
	<g>
		<path class="st1" d="M28.44,15.883h-1.41c-0.327,0-0.593-0.266-0.593-0.593c0-0.327,0.266-0.593,0.593-0.593h1.41
			c0.327,0,0.593,0.266,0.593,0.593C29.033,15.617,28.768,15.883,28.44,15.883z"/>
	</g>
	<g>
		<path class="st1" d="M23.408,30.739h-4.475c-0.327,0-0.593-0.266-0.593-0.593s0.266-0.593,0.593-0.593h4.475
			c0.327,0,0.593,0.266,0.593,0.593S23.736,30.739,23.408,30.739z"/>
	</g>
	<g>
		<path class="st1" d="M23.408,33.427h-4.475c-0.327,0-0.593-0.266-0.593-0.593s0.266-0.593,0.593-0.593h4.475
			c0.327,0,0.593,0.266,0.593,0.593S23.736,33.427,23.408,33.427z"/>
	</g>
	<g>
		<path class="st1" d="M38.128,38.245h-4.261c-0.327,0-0.593-0.266-0.593-0.593V24.957c0-0.327,0.266-0.593,0.593-0.593
			s0.593,0.266,0.593,0.593v12.102h3.075V24.957c0-0.327,0.266-0.593,0.593-0.593s0.593,0.266,0.593,0.593v12.695
			C38.721,37.98,38.455,38.245,38.128,38.245z"/>
	</g>
	<g>
		<path class="st1" d="M33.867,25.55c-0.122,0-0.245-0.037-0.35-0.115c-0.264-0.194-0.321-0.565-0.127-0.829l2.13-2.9
			c0.194-0.264,0.565-0.321,0.829-0.127c0.264,0.194,0.321,0.565,0.127,0.829l-2.13,2.9C34.229,25.467,34.049,25.55,33.867,25.55z"
			/>
	</g>
	<g>
		<path class="st1" d="M38.128,25.55c-0.182,0-0.362-0.084-0.479-0.242l-2.13-2.9c-0.194-0.264-0.137-0.635,0.127-0.829
			c0.264-0.194,0.635-0.137,0.829,0.127l2.13,2.9c0.194,0.264,0.137,0.635-0.127,0.829C38.373,25.513,38.25,25.55,38.128,25.55z"/>
	</g>
</g>
</svg>
