<?xml version="1.0" encoding="utf-8"?>
<!-- Generator: Adobe Illustrator 22.0.1, SVG Export Plug-In . SVG Version: 6.00 Build 0)  -->
<svg version="1.1" id="图层_1" xmlns="http://www.w3.org/2000/svg" xmlns:xlink="http://www.w3.org/1999/xlink" x="0px" y="0px"
	 viewBox="0 0 52.942 52.942" style="enable-background:new 0 0 52.942 52.942;" xml:space="preserve">
<style type="text/css">
	.st0{fill:#E1E1FF;}
	.st1{fill:#6E68FC;}
	.st2{fill:#FFFFFF;}
</style>
<g>
	<g>
		<path class="st0" d="M35.459,35.4H13.906c-1.085,0-1.964-0.879-1.964-1.964V22.681c0-1.085,0.879-1.964,1.964-1.964h21.553
			c1.085,0,1.964,0.879,1.964,1.964v10.755C37.423,34.521,36.544,35.4,35.459,35.4z"/>
	</g>
	<g>
		<path class="st1" d="M35.478,35.993H14.199c-1.486,0-2.694-1.209-2.694-2.694v-10.48c0-1.486,1.209-2.694,2.694-2.694h21.279
			c1.485,0,2.694,1.209,2.694,2.694v10.48C38.172,34.785,36.964,35.993,35.478,35.993z M14.199,21.31
			c-0.832,0-1.508,0.677-1.508,1.508v10.48c0,0.832,0.677,1.508,1.508,1.508h21.279c0.832,0,1.508-0.677,1.508-1.508v-10.48
			c0-0.832-0.676-1.508-1.508-1.508H14.199z"/>
	</g>
	<g>
		<path class="st1" d="M40.844,30.896c-0.327,0-0.593-0.266-0.593-0.593V19.464c0-0.733-0.596-1.329-1.329-1.329H17.285
			c-0.327,0-0.593-0.266-0.593-0.593s0.266-0.593,0.593-0.593h21.637c1.387,0,2.515,1.128,2.515,2.515v10.839
			C41.437,30.63,41.172,30.896,40.844,30.896z"/>
	</g>
	<g>
		<path class="st1" d="M19.052,25.371h-2.752c-0.327,0-0.593-0.266-0.593-0.593s0.266-0.593,0.593-0.593h2.752
			c0.327,0,0.593,0.266,0.593,0.593S19.379,25.371,19.052,25.371z"/>
	</g>
	<g>
		<circle class="st2" cx="31.602" cy="30.194" r="2.135"/>
		<path class="st1" d="M31.602,32.922c-1.504,0-2.728-1.224-2.728-2.728s1.224-2.728,2.728-2.728s2.728,1.224,2.728,2.728
			S33.106,32.922,31.602,32.922z M31.602,28.652c-0.85,0-1.542,0.692-1.542,1.542s0.692,1.542,1.542,1.542
			c0.85,0,1.542-0.692,1.542-1.542S32.452,28.652,31.602,28.652z"/>
	</g>
</g>
</svg>
