<svg width="2507" height="1184" xmlns="http://www.w3.org/2000/svg"><g transform="translate(-4 -83)" fill="none" fill-rule="evenodd" opacity=".5"><rect stroke="#979797" fill="#FAFAFA" x=".5" y="61.5" width="2510" height="1521" rx="3"/><path fill="#F1F1F1" d="M761 393h315v264H761zM2167 381h315v264h-315zM1472 326h315v308h-315zM398 603h149v144H398zM1118 235h149v144h-149zM398 448h149v144H398zM762 25h149v144H762zM1470 0h149v144h-149zM2163 51h149v144h-149zM1118 80h149v144h-149zM559 603h149v144H559zM1279 235h149v144h-149zM559 448h149v144H559zM923 25h149v144H923zM1631 0h149v144h-149zM2324 51h149v144h-149zM1279 80h149v144h-149zM1823 114h315v308h-315zM1823 437h315v308h-315zM14 18h337v416H14zM16 451h337v62H16zM16 597h337v62H16zM16 524h337v62H16zM16 670h337v62H16zM14 749h337v144H14zM14 906h337v239H14zM14 1157h337v62H14zM1117 643h315v264h-315zM1116 549h315v4h-315zM766 837h315v4H766zM2172 825h315v4h-315zM1477 814h315v4h-315zM398 854h315v264H398zM1823 842h315v264h-315zM1117 1014h315v264h-315zM761 932h315v264H761zM393 25h315v337H393zM2167 920h315v264h-315zM1472 909h315v264h-315zM1823 1263h315v132h-315z"/><circle fill="#F1F1F1" cx="1138" cy="600" r="22"/><circle fill="#F1F1F1" cx="783" cy="902" r="22"/><circle fill="#F1F1F1" cx="422" cy="405" r="22"/><circle fill="#F1F1F1" cx="1141" cy="182" r="22"/><circle fill="#F1F1F1" cx="2189" cy="890" r="22"/><circle fill="#F1F1F1" cx="1494" cy="879" r="22"/><path d="M971.5 677c-11.319 0-20.5 9.177-20.5 20.503 0 3.47.866 6.738 2.389 9.607a7.32 7.32 0 0 1-.995 8.476c-.117.246-.282.663-.282.885 0 .792.59 1.43 1.357 1.529H971.5c11.325 0 20.5-9.177 20.5-20.503 0-11.32-9.175-20.497-20.5-20.497zM2377.5 665c-11.319 0-20.5 9.177-20.5 20.503 0 3.47.866 6.738 2.389 9.607a7.32 7.32 0 0 1-.995 8.476c-.117.246-.282.663-.282.885 0 .792.59 1.43 1.357 1.529h18.031c11.325 0 20.5-9.177 20.5-20.503 0-11.32-9.175-20.497-20.5-20.497zM1682.5 654c-11.319 0-20.5 9.177-20.5 20.503 0 3.47.866 6.738 2.389 9.607a7.32 7.32 0 0 1-.995 8.476c-.117.246-.282.663-.282.885 0 .792.59 1.43 1.357 1.529h18.031c11.325 0 20.5-9.177 20.5-20.503 0-11.32-9.175-20.497-20.5-20.497zM2034.5 53c-11.319 0-20.5 9.177-20.5 20.503 0 3.47.866 6.738 2.389 9.607a7.32 7.32 0 0 1-.995 8.476c-.117.246-.282.663-.282.885 0 .792.59 1.43 1.357 1.529h18.031c11.325 0 20.5-9.177 20.5-20.503 0-11.32-9.175-20.497-20.5-20.497zM971.5 1216c-11.319 0-20.5 9.177-20.5 20.503 0 3.47.866 6.738 2.389 9.607a7.32 7.32 0 0 1-.995 8.476c-.117.246-.282.663-.282.885 0 .792.59 1.43 1.357 1.529H971.5c11.325 0 20.5-9.177 20.5-20.503 0-11.32-9.175-20.497-20.5-20.497zM2377.5 1204c-11.319 0-20.5 9.177-20.5 20.503 0 3.47.866 6.738 2.389 9.607a7.32 7.32 0 0 1-.995 8.476c-.117.246-.282.663-.282.885 0 .792.59 1.43 1.357 1.529h18.031c11.325 0 20.5-9.177 20.5-20.503 0-11.32-9.175-20.497-20.5-20.497zM1682.5 1193c-11.319 0-20.5 9.177-20.5 20.503 0 3.47.866 6.738 2.389 9.607a7.32 7.32 0 0 1-.995 8.476c-.117.246-.282.663-.282.885 0 .792.59 1.43 1.357 1.529h18.031c11.325 0 20.5-9.177 20.5-20.503 0-11.32-9.175-20.497-20.5-20.497zM1068 691.333c0-7.365-5.908-13.333-13.199-13.333-3.384 0-6.466 1.299-8.801 3.413-2.335-2.114-5.417-3.413-8.801-3.413-7.291 0-13.199 5.968-13.199 13.333 0 2.709.807 5.22 2.178 7.329h-.025a55.599 55.599 0 0 0 18.604 19.056c.376.178.8.282 1.243.282.449 0 .867-.104 1.243-.282a55.599 55.599 0 0 0 18.604-19.056h-.025a13.378 13.378 0 0 0 2.178-7.329zM2474 679.333c0-7.365-5.908-13.333-13.199-13.333-3.384 0-6.466 1.299-8.801 3.413-2.335-2.114-5.417-3.413-8.801-3.413-7.291 0-13.199 5.968-13.199 13.333 0 2.709.807 5.22 2.178 7.329h-.025a55.599 55.599 0 0 0 18.604 19.056c.376.178.8.282 1.243.282.449 0 .867-.104 1.243-.282a55.599 55.599 0 0 0 18.604-19.056h-.025a13.378 13.378 0 0 0 2.178-7.329zM1779 668.333c0-7.365-5.908-13.333-13.199-13.333-3.384 0-6.466 1.299-8.801 3.413-2.335-2.114-5.417-3.413-8.801-3.413-7.291 0-13.199 5.968-13.199 13.333 0 2.709.807 5.22 2.178 7.329h-.025a55.599 55.599 0 0 0 18.604 19.056c.376.178.8.282 1.243.282.449 0 .867-.104 1.243-.282a55.599 55.599 0 0 0 18.604-19.056h-.025a13.378 13.378 0 0 0 2.178-7.329zM2131 67.333c0-7.365-5.908-13.333-13.199-13.333-3.384 0-6.466 1.299-8.801 3.413-2.335-2.114-5.417-3.413-8.801-3.413-7.291 0-13.199 5.968-13.199 13.333 0 2.709.807 5.22 2.178 7.329h-.025a55.599 55.599 0 0 0 18.604 19.056c.376.178.8.282 1.243.282.449 0 .867-.104 1.243-.282a55.599 55.599 0 0 0 18.604-19.056h-.025a13.378 13.378 0 0 0 2.178-7.329z" fill="#F1F1F1"/><path d="M1328 1133c0-16.572-13.427-30-29.997-30-7.693 0-14.696 2.923-20.003 7.68-5.307-4.757-12.31-7.68-20.003-7.68-16.57 0-29.997 13.428-29.997 30 0 6.094 1.833 11.746 4.949 16.489h-.055c10.38 17.51 24.952 32.22 42.28 42.877.855.4 1.82.634 2.826.634 1.02 0 1.971-.234 2.826-.634 17.328-10.657 31.9-25.368 42.28-42.877h-.055A29.884 29.884 0 0 0 1328 1133zM2041 576.667c0-19.15-15.307-34.667-34.197-34.667-8.77 0-16.753 3.377-22.803 8.874-6.05-5.497-14.034-8.874-22.803-8.874-18.89 0-34.197 15.517-34.197 34.667a34.91 34.91 0 0 0 5.642 19.054h-.063c11.834 20.232 28.445 37.231 48.2 49.546A7.534 7.534 0 0 0 1984 646a7.48 7.48 0 0 0 3.222-.733c19.754-12.315 36.365-29.314 48.199-49.546h-.063a34.87 34.87 0 0 0 5.642-19.054z" fill="#FAFAFA"/><path d="M1068 1230.333c0-7.365-5.908-13.333-13.199-13.333-3.384 0-6.466 1.299-8.801 3.413-2.335-2.114-5.417-3.413-8.801-3.413-7.291 0-13.199 5.968-13.199 13.333 0 2.709.807 5.22 2.178 7.329h-.025a55.599 55.599 0 0 0 18.604 19.056c.376.178.8.282 1.243.282.449 0 .867-.104 1.243-.282a55.599 55.599 0 0 0 18.604-19.056h-.025a13.378 13.378 0 0 0 2.178-7.329zM2474 1218.333c0-7.365-5.908-13.333-13.199-13.333-3.384 0-6.466 1.299-8.801 3.413-2.335-2.114-5.417-3.413-8.801-3.413-7.291 0-13.199 5.968-13.199 13.333 0 2.709.807 5.22 2.178 7.329h-.025a55.599 55.599 0 0 0 18.604 19.056c.376.178.8.282 1.243.282.449 0 .867-.104 1.243-.282a55.599 55.599 0 0 0 18.604-19.056h-.025a13.378 13.378 0 0 0 2.178-7.329zM1779 1207.333c0-7.365-5.908-13.333-13.199-13.333-3.384 0-6.466 1.299-8.801 3.413-2.335-2.114-5.417-3.413-8.801-3.413-7.291 0-13.199 5.968-13.199 13.333 0 2.709.807 5.22 2.178 7.329h-.025a55.599 55.599 0 0 0 18.604 19.056c.376.178.8.282 1.243.282.449 0 .867-.104 1.243-.282a55.599 55.599 0 0 0 18.604-19.056h-.025a13.378 13.378 0 0 0 2.178-7.329z" fill="#F1F1F1"/><path d="M786.506 672C772.416 672 761 683.416 761 697.506 761 711.584 772.416 723 786.506 723 800.584 723 812 711.584 812 697.506c0-14.09-11.416-25.506-25.494-25.506zm3.477 29.438a3.274 3.274 0 0 1-3.276 3.277h-8.748a3.274 3.274 0 0 1-3.276-3.277v-8.747a3.274 3.274 0 0 1 3.276-3.276h8.741a3.278 3.278 0 0 1 3.277 3.276v8.747h.006zm7.853 1.955c-.396 0-.768-.11-1.075-.282h-.006l-3.148-2.361c-.359-.103-.25-.672-.25-.992v-6.092c0-.205.096-.288.256-.39l3.097-2.336c.006.013.02.013.051 0 .295-.18.666-.281 1.075-.281.999 0 1.811.659 1.811 1.471v9.79c0 .813-.812 1.473-1.81 1.473zM2192.506 660c-14.09 0-25.506 11.416-25.506 25.506 0 14.078 11.416 25.494 25.506 25.494 14.078 0 25.494-11.416 25.494-25.494 0-14.09-11.416-25.506-25.494-25.506zm3.477 29.438a3.274 3.274 0 0 1-3.276 3.277h-8.748a3.274 3.274 0 0 1-3.276-3.277v-8.747a3.274 3.274 0 0 1 3.276-3.276h8.741a3.278 3.278 0 0 1 3.277 3.276v8.747h.006zm7.853 1.955c-.396 0-.768-.11-1.075-.282h-.006l-3.148-2.361c-.359-.103-.25-.672-.25-.992v-6.092c0-.205.096-.288.256-.39l3.097-2.336c.006.013.02.013.051 0 .295-.18.666-.281 1.075-.281.999 0 1.811.659 1.811 1.471v9.79c0 .813-.812 1.473-1.81 1.473zM1497.506 649c-14.09 0-25.506 11.416-25.506 25.506 0 14.078 11.416 25.494 25.506 25.494 14.078 0 25.494-11.416 25.494-25.494 0-14.09-11.416-25.506-25.494-25.506zm3.477 29.438a3.274 3.274 0 0 1-3.276 3.277h-8.748a3.274 3.274 0 0 1-3.276-3.277v-8.747a3.274 3.274 0 0 1 3.276-3.276h8.741a3.278 3.278 0 0 1 3.277 3.276v8.747h.006zm7.853 1.955c-.396 0-.768-.11-1.075-.282h-.006l-3.148-2.361c-.359-.103-.25-.672-.25-.992v-6.092c0-.205.096-.288.256-.39l3.097-2.336c.006.013.02.013.051 0 .295-.18.666-.281 1.075-.281.999 0 1.811.659 1.811 1.471v9.79c0 .813-.812 1.473-1.81 1.473zM1849.506 48C1835.416 48 1824 59.416 1824 73.506 1824 87.584 1835.416 99 1849.506 99 1863.584 99 1875 87.584 1875 73.506c0-14.09-11.416-25.506-25.494-25.506zm3.477 29.438a3.274 3.274 0 0 1-3.276 3.277h-8.748a3.274 3.274 0 0 1-3.276-3.277v-8.747a3.274 3.274 0 0 1 3.276-3.276h8.741a3.278 3.278 0 0 1 3.277 3.276v8.747h.006zm7.853 1.955c-.396 0-.768-.11-1.075-.282h-.006l-3.148-2.361c-.359-.103-.25-.672-.25-.992v-6.092c0-.205.096-.288.256-.39l3.097-2.336c.006.013.02.013.051 0 .295-.18.666-.281 1.075-.281.999 0 1.811.659 1.811 1.471v9.79c0 .813-.812 1.473-1.81 1.473z" fill="#F1F1F1" fill-rule="nonzero"/><path d="M1626.52 396c-42.825 0-77.52 34.695-77.52 77.52 0 42.785 34.695 77.48 77.52 77.48 42.785 0 77.48-34.695 77.48-77.48 0-42.825-34.695-77.52-77.48-77.52zm10.565 89.47a9.952 9.952 0 0 1-9.957 9.957h-26.585a9.952 9.952 0 0 1-9.958-9.958v-26.585a9.952 9.952 0 0 1 9.958-9.957h26.566c5.503 0 9.957 4.473 9.957 9.957v26.585h.02zm23.868 5.939a6.693 6.693 0 0 1-3.267-.856h-.02l-9.568-7.176c-1.089-.311-.758-2.042-.758-3.015v-18.514c0-.622.292-.875.778-1.186l9.413-7.099c.019.039.058.039.155 0 .895-.545 2.023-.856 3.267-.856 3.034 0 5.504 2.003 5.504 4.473v29.756c0 2.47-2.47 4.473-5.504 4.473zM2329.516 993c-35.64 0-64.516 28.875-64.516 64.516 0 35.609 28.875 64.484 64.516 64.484 35.609 0 64.484-28.875 64.484-64.484 0-35.64-28.875-64.516-64.484-64.516zm8.794 74.462a8.282 8.282 0 0 1-8.287 8.287h-22.126a8.282 8.282 0 0 1-8.287-8.287v-22.126a8.282 8.282 0 0 1 8.287-8.287h22.11c4.58 0 8.287 3.722 8.287 8.287v22.126h.016zm19.864 4.943a5.57 5.57 0 0 1-2.72-.713h-.015l-7.964-5.972c-.906-.259-.63-1.7-.63-2.509v-15.409c0-.518.242-.728.647-.987l7.833-5.908c.017.033.049.033.13 0 .744-.453 1.683-.712 2.72-.712 2.524 0 4.58 1.667 4.58 3.723v24.764c0 2.056-2.056 3.723-4.58 3.723z" fill="#FAFAFA" fill-rule="nonzero"/><path d="M786.506 1211c-14.09 0-25.506 11.416-25.506 25.506 0 14.078 11.416 25.494 25.506 25.494 14.078 0 25.494-11.416 25.494-25.494 0-14.09-11.416-25.506-25.494-25.506zm3.477 29.438a3.274 3.274 0 0 1-3.276 3.277h-8.748a3.274 3.274 0 0 1-3.276-3.277v-8.747a3.274 3.274 0 0 1 3.276-3.276h8.741a3.278 3.278 0 0 1 3.277 3.276v8.747h.006zm7.853 1.955c-.396 0-.768-.11-1.075-.282h-.006l-3.148-2.361c-.359-.103-.25-.672-.25-.992v-6.092c0-.205.096-.288.256-.39l3.097-2.336c.006.013.02.013.051 0 .295-.18.666-.281 1.075-.281.999 0 1.811.659 1.811 1.471v9.79c0 .813-.812 1.473-1.81 1.473zM2192.506 1199c-14.09 0-25.506 11.416-25.506 25.506 0 14.078 11.416 25.494 25.506 25.494 14.078 0 25.494-11.416 25.494-25.494 0-14.09-11.416-25.506-25.494-25.506zm3.477 29.438a3.274 3.274 0 0 1-3.276 3.277h-8.748a3.274 3.274 0 0 1-3.276-3.277v-8.747a3.274 3.274 0 0 1 3.276-3.276h8.741a3.278 3.278 0 0 1 3.277 3.276v8.747h.006zm7.853 1.955c-.396 0-.768-.11-1.075-.282h-.006l-3.148-2.361c-.359-.103-.25-.672-.25-.992v-6.092c0-.205.096-.288.256-.39l3.097-2.336c.006.013.02.013.051 0 .295-.18.666-.281 1.075-.281.999 0 1.811.659 1.811 1.471v9.79c0 .813-.812 1.473-1.81 1.473zM1497.506 1188c-14.09 0-25.506 11.416-25.506 25.506 0 14.078 11.416 25.494 25.506 25.494 14.078 0 25.494-11.416 25.494-25.494 0-14.09-11.416-25.506-25.494-25.506zm3.477 29.438a3.274 3.274 0 0 1-3.276 3.277h-8.748a3.274 3.274 0 0 1-3.276-3.277v-8.747a3.274 3.274 0 0 1 3.276-3.276h8.741a3.278 3.278 0 0 1 3.277 3.276v8.747h.006zm7.853 1.955c-.396 0-.768-.11-1.075-.282h-.006l-3.148-2.361c-.359-.103-.25-.672-.25-.992v-6.092c0-.205.096-.288.256-.39l3.097-2.336c.006.013.02.013.051 0 .295-.18.666-.281 1.075-.281.999 0 1.811.659 1.811 1.471v9.79c0 .813-.812 1.473-1.81 1.473z" fill="#F1F1F1" fill-rule="nonzero"/><text font-family="PingFangHK-Semibold, PingFang HK" font-size="18" font-weight="500" fill="#F0F0F0"><tspan x="766" y="752">Abduzeedo is a collective of </tspan> <tspan x="766" y="777">individual writers sharing articles </tspan> <tspan x="766" y="802">about architecture</tspan></text><text font-family="PingFangHK-Semibold, PingFang HK" font-size="18" font-weight="500" fill="#F0F0F0"><tspan x="2172" y="740">Abduzeedo is a collective of </tspan> <tspan x="2172" y="765">individual writers sharing articles </tspan> <tspan x="2172" y="790">about architecture</tspan></text><text font-family="PingFangHK-Semibold, PingFang HK" font-size="18" font-weight="500" fill="#F0F0F0"><tspan x="1477" y="729">Abduzeedo is a collective of </tspan> <tspan x="1477" y="754">individual writers sharing articles </tspan> <tspan x="1477" y="779">about architecture</tspan></text><text font-family="PingFangHK-Semibold, PingFang HK" font-size="18" font-weight="500" fill="#F0F0F0"><tspan x="1115" y="416">Abduzeedo is a collective of </tspan> <tspan x="1115" y="441">individual writers sharing articles </tspan> <tspan x="1115" y="466">about architecture</tspan></text><text font-family="PingFangHK-Semibold, PingFang HK" font-size="18" font-weight="500" fill="#F0F0F0"><tspan x="398" y="787">Abduzeedo is a collective of </tspan> <tspan x="398" y="812">individual writers sharing articles </tspan> <tspan x="398" y="837">about architecture</tspan></text><text font-family="PingFangHK-Semibold, PingFang HK" font-size="18" font-weight="500" fill="#F0F0F0"><tspan x="1823" y="775">Abduzeedo is a collective of </tspan> <tspan x="1823" y="800">individual writers sharing articles </tspan> <tspan x="1823" y="825">about architecture</tspan></text><text font-family="PingFangHK-Semibold, PingFang HK" font-size="18" font-weight="500" fill="#FFF"><tspan x="50" y="809">Abduzeedo is a collective of </tspan> <tspan x="50" y="834">individual writers sharing </tspan> <tspan x="50" y="859">articles about architecture</tspan></text><text font-family="PingFangHK-Semibold, PingFang HK" font-size="18" font-weight="500" fill="#F0F0F0"><tspan x="761" y="208">China took further steps in opening </tspan> <tspan x="761" y="233">up its market to domestic and </tspan> <tspan x="761" y="258">overseas investors Tuesday by </tspan> <tspan x="761" y="283">rolling out nationwide a shorter </tspan> <tspan x="761" y="308">negative list for market access.</tspan></text><text font-family="PingFangHK-Semibold, PingFang HK" font-size="18" font-weight="500" fill="#F0F0F0"><tspan x="1470" y="192">China took further steps in opening </tspan> <tspan x="1470" y="217">up its market to domestic and </tspan> <tspan x="1470" y="242">overseas investors Tuesday by </tspan> <tspan x="1470" y="267">rolling out nationwide a shorter </tspan> <tspan x="1470" y="292">negative list for market access.</tspan></text><text font-family="PingFangHK-Semibold, PingFang HK" font-size="18" font-weight="500" fill="#F0F0F0"><tspan x="2165" y="1284">China took further steps in opening </tspan> <tspan x="2165" y="1309">up its market to domestic and </tspan> <tspan x="2165" y="1334">overseas investors Tuesday by </tspan> <tspan x="2165" y="1359">rolling out nationwide a shorter </tspan> <tspan x="2165" y="1384">negative list for market access.</tspan></text><text font-family="PingFangHK-Semibold, PingFang HK" font-size="18" font-weight="500" fill="#F0F0F0"><tspan x="1117" y="947">Abduzeedo is a collective of </tspan> <tspan x="1117" y="972">individual writers sharing articles </tspan> <tspan x="1117" y="997">about architecture</tspan></text><text font-family="PingFangHK-Semibold, PingFang HK" font-size="18" font-weight="500" fill="#F0F0F0"><tspan x="398" y="1158">Abduzeedo is a collective of </tspan> <tspan x="398" y="1183">individual writers sharing articles </tspan> <tspan x="398" y="1208">about architectureAbduzeedo is a </tspan> <tspan x="398" y="1233">collective of individual writers </tspan> <tspan x="398" y="1258">sharing articles about architecture</tspan></text><text font-family="PingFangHK-Semibold, PingFang HK" font-size="18" font-weight="500" fill="#F0F0F0"><tspan x="22" y="1268">Abduzeedo is a collective of </tspan> <tspan x="22" y="1293">individual writers sharing articles </tspan> <tspan x="22" y="1318">about architectureAbduzeedo is a </tspan> <tspan x="22" y="1343">collective of individual writers </tspan> <tspan x="22" y="1368">sharing articles about architecture</tspan></text><text font-family="PingFangHK-Semibold, PingFang HK" font-size="18" font-weight="500" fill="#F0F0F0"><tspan x="1823" y="1146">Abduzeedo is a collective of </tspan> <tspan x="1823" y="1171">individual writers sharing articles </tspan> <tspan x="1823" y="1196">about architectureAbduzeedo is a </tspan> <tspan x="1823" y="1221">collective of individual writers </tspan> <tspan x="1823" y="1246">sharing articles about architecture</tspan></text><text font-family="PingFangHK-Semibold, PingFang HK" font-size="18" font-weight="500" fill="#FFF"><tspan x="50" y="966">Abduzeedo is a collective of </tspan> <tspan x="50" y="991">individual writers sharing </tspan> <tspan x="50" y="1016">articles about </tspan> <tspan x="50" y="1041">architectureAbduzeedo is a </tspan> <tspan x="50" y="1066">collective of individual writers </tspan> <tspan x="50" y="1091">sharing articles about </tspan> <tspan x="50" y="1116">architecture</tspan></text><text font-family="PingFangHK-Semibold, PingFang HK" font-size="18" font-weight="500" fill="#F0F0F0"><tspan x="1477" y="1282">Abduzeedo is a collective of </tspan> <tspan x="1477" y="1307">individual writers sharing articles </tspan> <tspan x="1477" y="1332">about architecture</tspan></text><path d="M182.5 75c-25.123 0-45.5 20.377-45.5 45.5s20.377 45.5 45.5 45.5 45.5-20.377 45.5-45.5S207.635 75 182.5 75zm-11.372 34.128c0-6.284 5.088-11.384 11.383-11.384a11.373 11.373 0 0 1 11.384 11.384v3.79c0 6.284-5.089 11.384-11.384 11.384a11.373 11.373 0 0 1-11.383-11.383v-3.791zm-22.744 8.947v-2.709c0-4.496 3.392-8.128 7.581-8.128 4.19 0 7.581 3.643 7.581 8.128v2.71c0 4.496-3.392 8.127-7.581 8.127-4.19-.011-7.581-3.654-7.581-8.128zm60.662 29.484c-6.83 6.705-16.21 10.86-26.535 10.86-10.347 0-19.705-4.155-26.535-10.86v-2.414c0-8.378 6.796-15.174 15.175-15.174h22.755c8.379 0 15.175 6.796 15.175 15.174v2.414h-.035zm0-21.367c-4.189 0-7.581-3.643-7.581-8.128v-2.71c0-4.496 3.392-8.127 7.581-8.127 4.19 0 7.582 3.643 7.582 8.128v2.709c0 4.485-3.392 8.128-7.582 8.128z" fill="#FAFAFA" fill-rule="nonzero"/><path d="M2319.5 226c-25.123 0-45.5 20.377-45.5 45.5s20.377 45.5 45.5 45.5 45.5-20.377 45.5-45.5-20.365-45.5-45.5-45.5zm-11.372 34.128c0-6.284 5.088-11.384 11.383-11.384a11.373 11.373 0 0 1 11.384 11.384v3.79c0 6.284-5.089 11.384-11.384 11.384a11.373 11.373 0 0 1-11.383-11.383v-3.791zm-22.744 8.947v-2.709c0-4.496 3.392-8.128 7.581-8.128 4.19 0 7.581 3.643 7.581 8.128v2.71c0 4.496-3.392 8.127-7.581 8.127-4.19-.011-7.581-3.654-7.581-8.128zm60.662 29.484c-6.83 6.705-16.21 10.86-26.535 10.86-10.347 0-19.705-4.155-26.535-10.86v-2.414c0-8.378 6.796-15.174 15.175-15.174h22.755c8.379 0 15.175 6.796 15.175 15.174v2.414h-.035zm0-21.367c-4.189 0-7.581-3.643-7.581-8.128v-2.71c0-4.496 3.392-8.127 7.581-8.127 4.19 0 7.582 3.643 7.582 8.128v2.709c0 4.485-3.392 8.128-7.582 8.128z" fill="#F1F1F1" fill-rule="nonzero"/><text font-family="PingFangHK-Semibold, PingFang HK" font-size="26" font-weight="500" fill="#F0F0F0"><tspan x="836.17" y="375">paixin Olson</tspan></text><text font-family="PingFangHK-Semibold, PingFang HK" font-size="26" font-weight="500" fill="#F0F0F0"><tspan x="2242.17" y="363">paixin Olson</tspan></text><text font-family="PingFangHK-Semibold, PingFang HK" font-size="26" font-weight="500" fill="#F0F0F0"><tspan x="817.219" y="908">Edward Olson</tspan></text><text font-family="PingFangHK-Semibold, PingFang HK" font-size="26" font-weight="500" fill="#F0F0F0"><tspan x="456.219" y="411">Edward Olson</tspan></text><text font-family="PingFangHK-Semibold, PingFang HK" font-size="26" font-weight="500" fill="#F0F0F0"><tspan x="1175.219" y="188">Edward Olson</tspan></text><text font-family="PingFangHK-Semibold, PingFang HK" font-size="26" font-weight="500" fill="#FAFAFA"><tspan x="103.219" y="224">Edward Olson</tspan></text><text font-family="PingFangHK-Semibold, PingFang HK" font-size="18" font-weight="500" fill="#FAFAFA"><tspan x="123.008" y="274">Jeremy Holland</tspan></text><text font-family="PingFangHK-Semibold, PingFang HK" font-size="18" font-weight="500" fill="#FAFAFA"><tspan x="136.35" y="358">Judy Bishop</tspan></text><text font-family="PingFangHK-Semibold, PingFang HK" font-size="18" font-weight="500" fill="#FAFAFA"><tspan x="131.35" y="488">Judy Bishop</tspan></text><text font-family="PingFangHK-Semibold, PingFang HK" font-size="18" font-weight="500" fill="#FAFAFA"><tspan x="131.35" y="634">Judy Bishop</tspan></text><text font-family="PingFangHK-Semibold, PingFang HK" font-size="18" font-weight="500" fill="#FAFAFA"><tspan x="131.35" y="561">Judy Bishop</tspan></text><text font-family="PingFangHK-Semibold, PingFang HK" font-size="18" font-weight="500" fill="#FAFAFA"><tspan x="131.35" y="707">Judy Bishop</tspan></text><text font-family="PingFangHK-Semibold, PingFang HK" font-size="18" font-weight="500" fill="#FAFAFA"><tspan x="117.45" y="316">Brenda Peterson</tspan></text><text font-family="PingFangHK-Semibold, PingFang HK" font-size="26" font-weight="500" fill="#F0F0F0"><tspan x="2237.219" y="896">Edward Olson</tspan></text><text font-family="PingFangHK-Semibold, PingFang HK" font-size="26" font-weight="500" fill="#F0F0F0"><tspan x="1542.219" y="885">Edward Olson</tspan></text><text font-family="PingFangHK-Semibold, PingFang HK" font-size="26" font-weight="500" fill="#F0F0F0"><tspan x="1170.219" y="606">Edward Olson</tspan></text><path d="M1420.987 520.71l-4.511-4.5a14.346 14.346 0 0 0 2.298-7.809c0-7.958-6.437-14.401-14.387-14.401S1390 500.451 1390 508.401c0 7.958 6.437 14.401 14.387 14.401 2.882 0 5.568-.85 7.818-2.308l4.503 4.492c1.28 1.278 3.278 1.359 4.46.18 1.176-1.178 1.096-3.177-.18-4.455zm-16.654-2.71c-5.333 0-9.666-4.325-9.666-9.667 0-5.333 4.325-9.666 9.666-9.666a9.663 9.663 0 0 1 9.667 9.666c-.008 5.342-4.333 9.667-9.667 9.667z" fill="#F1F1F1" fill-rule="nonzero"/><path d="M885.102 524c-4.498 0-8.69-.852-12.575-2.556-3.885-1.704-7.259-4.021-10.121-6.952-2.863-2.93-5.146-6.339-6.85-10.224-1.704-3.885-2.556-8.008-2.556-12.37s.852-8.486 2.556-12.37c1.704-3.886 3.987-7.26 6.85-10.122 2.862-2.863 6.236-5.146 10.121-6.85 3.885-1.704 8.077-2.556 12.575-2.556 4.362 0 8.486.852 12.37 2.556 3.886 1.704 7.26 3.987 10.122 6.85 2.863 2.862 5.146 6.236 6.85 10.121 1.704 3.885 2.556 8.009 2.556 12.37 0 4.363-.852 8.486-2.556 12.371-1.704 3.885-3.987 7.293-6.85 10.224-2.862 2.93-6.236 5.248-10.121 6.952-3.885 1.704-8.009 2.556-12.37 2.556zM1061 639H777V409h284v230zM785 418v201c3.213-4.507 6.783-9.014 10.71-13.521 3.926-4.507 8.031-8.581 12.315-12.222 4.284-3.64 8.701-6.63 13.253-8.97 4.551-2.34 9.147-3.51 13.788-3.51 5.533 0 10.308.39 14.324 1.17 4.016.78 7.585 1.776 10.709 2.99 3.123 1.213 6.024 2.557 8.701 4.03 2.678 1.473 5.578 2.817 8.701 4.03 3.124 1.214 6.65 2.21 10.576 2.99 3.927.78 8.657 1.17 14.19 1.17 5.533 0 10.307-1.603 14.323-4.81s7.72-7.237 11.111-12.09c3.392-4.855 6.783-10.055 10.174-15.602a111.129 111.129 0 0 1 11.513-15.602c4.283-4.854 9.37-8.884 15.26-12.091 5.89-3.207 13.03-4.81 21.419-4.81 7.14 0 14.011 2.123 20.615 6.37 6.604 4.247 12.718 9.751 18.34 16.512 5.622 6.76 10.799 14.301 15.528 22.622 4.73 8.32 8.88 16.468 12.45 24.442V418H785zM1237.102 771c-4.498 0-8.69-.852-12.575-2.556-3.885-1.704-7.259-4.021-10.121-6.952-2.863-2.93-5.146-6.339-6.85-10.224-1.704-3.885-2.556-8.008-2.556-12.37s.852-8.486 2.556-12.37c1.704-3.886 3.987-7.26 6.85-10.122 2.862-2.863 6.236-5.146 10.121-6.85 3.885-1.704 8.077-2.556 12.575-2.556 4.362 0 8.486.852 12.37 2.556 3.886 1.704 7.26 3.987 10.122 6.85 2.863 2.862 5.146 6.236 6.85 10.121 1.704 3.885 2.556 8.009 2.556 12.37 0 4.363-.852 8.486-2.556 12.371-1.704 3.885-3.987 7.293-6.85 10.224-2.862 2.93-6.236 5.248-10.121 6.952-3.885 1.704-8.009 2.556-12.37 2.556zM1413 886h-284V656h284v230zm-276-221v201c3.213-4.507 6.783-9.014 10.71-13.521 3.926-4.507 8.031-8.581 12.315-12.222 4.284-3.64 8.701-6.63 13.253-8.97 4.551-2.34 9.147-3.51 13.788-3.51 5.533 0 10.308.39 14.324 1.17 4.016.78 7.585 1.776 10.709 2.99 3.123 1.213 6.024 2.557 8.701 4.03 2.678 1.473 5.578 2.817 8.701 4.03 3.124 1.214 6.65 2.21 10.576 2.99 3.927.78 8.657 1.17 14.19 1.17 5.533 0 10.307-1.603 14.323-4.81s7.72-7.237 11.111-12.09c3.392-4.855 6.783-10.055 10.174-15.602a111.129 111.129 0 0 1 11.513-15.602c4.283-4.854 9.37-8.884 15.26-12.091 5.89-3.207 13.03-4.81 21.419-4.81 7.14 0 14.011 2.123 20.615 6.37 6.604 4.247 12.718 9.751 18.34 16.512 5.622 6.76 10.799 14.301 15.528 22.622 4.73 8.32 8.88 16.468 12.45 24.442V665h-268zM512.102 157c-4.498 0-8.69-.852-12.575-2.556-3.885-1.704-7.259-4.021-10.121-6.952-2.863-2.93-5.146-6.339-6.85-10.224-1.704-3.885-2.556-8.008-2.556-12.37s.852-8.486 2.556-12.37c1.704-3.886 3.987-7.26 6.85-10.122 2.862-2.863 6.236-5.146 10.121-6.85 3.885-1.704 8.077-2.556 12.575-2.556 4.362 0 8.486.852 12.37 2.556 3.886 1.704 7.26 3.987 10.122 6.85 2.863 2.862 5.146 6.236 6.85 10.121 1.704 3.885 2.556 8.009 2.556 12.37 0 4.363-.852 8.486-2.556 12.371-1.704 3.885-3.987 7.293-6.85 10.224-2.862 2.93-6.236 5.248-10.121 6.952-3.885 1.704-8.009 2.556-12.37 2.556zM688 272H404V42h284v230zM412 51v201c3.213-4.507 6.783-9.014 10.71-13.521 3.926-4.507 8.031-8.581 12.315-12.222 4.284-3.64 8.701-6.63 13.253-8.97 4.551-2.34 9.147-3.51 13.788-3.51 5.533 0 10.308.39 14.324 1.17 4.016.78 7.585 1.776 10.709 2.99 3.123 1.213 6.024 2.557 8.701 4.03 2.678 1.473 5.578 2.817 8.701 4.03 3.124 1.214 6.65 2.21 10.576 2.99 3.927.78 8.657 1.17 14.19 1.17 5.533 0 10.307-1.603 14.323-4.81s7.72-7.237 11.111-12.09c3.392-4.855 6.783-10.055 10.174-15.602a111.129 111.129 0 0 1 11.513-15.602c4.283-4.854 9.37-8.884 15.26-12.091 5.89-3.207 13.03-4.81 21.419-4.81 7.14 0 14.011 2.123 20.615 6.37 6.604 4.247 12.718 9.751 18.34 16.512 5.622 6.76 10.799 14.301 15.528 22.622 4.73 8.32 8.88 16.468 12.45 24.442V51H412zM1598.102 1041c-4.498 0-8.69-.852-12.575-2.556-3.885-1.704-7.259-4.021-10.121-6.952-2.863-2.93-5.146-6.339-6.85-10.224-1.704-3.885-2.556-8.008-2.556-12.37s.852-8.486 2.556-12.37c1.704-3.886 3.987-7.26 6.85-10.122 2.862-2.863 6.236-5.146 10.121-6.85 3.885-1.704 8.077-2.556 12.575-2.556 4.362 0 8.486.852 12.37 2.556 3.886 1.704 7.26 3.987 10.122 6.85 2.863 2.862 5.146 6.236 6.85 10.121 1.704 3.885 2.556 8.009 2.556 12.37 0 4.363-.852 8.486-2.556 12.371-1.704 3.885-3.987 7.293-6.85 10.224-2.862 2.93-6.236 5.248-10.121 6.952-3.885 1.704-8.009 2.556-12.37 2.556zM1774 1156h-284V926h284v230zm-276-221v201c3.213-4.507 6.783-9.014 10.71-13.521 3.926-4.507 8.031-8.581 12.315-12.222 4.284-3.64 8.701-6.63 13.253-8.97 4.551-2.34 9.147-3.51 13.788-3.51 5.533 0 10.308.39 14.324 1.17 4.016.78 7.585 1.776 10.709 2.99 3.123 1.213 6.024 2.557 8.701 4.03 2.678 1.473 5.578 2.817 8.701 4.03 3.124 1.214 6.65 2.21 10.576 2.99 3.927.78 8.657 1.17 14.19 1.17 5.533 0 10.307-1.603 14.323-4.81s7.72-7.237 11.111-12.09c3.392-4.855 6.783-10.055 10.174-15.602a111.129 111.129 0 0 1 11.513-15.602c4.283-4.854 9.37-8.884 15.26-12.091 5.89-3.207 13.03-4.81 21.419-4.81 7.14 0 14.011 2.123 20.615 6.37 6.604 4.247 12.718 9.751 18.34 16.512 5.622 6.76 10.799 14.301 15.528 22.622 4.73 8.32 8.88 16.468 12.45 24.442V935h-268zM527.102 986c-4.498 0-8.69-.852-12.575-2.556-3.885-1.704-7.259-4.021-10.121-6.952-2.863-2.93-5.146-6.339-6.85-10.224-1.704-3.885-2.556-8.008-2.556-12.37s.852-8.486 2.556-12.37c1.704-3.886 3.987-7.26 6.85-10.122 2.862-2.863 6.236-5.146 10.121-6.85 3.885-1.704 8.077-2.556 12.575-2.556 4.362 0 8.486.852 12.37 2.556 3.886 1.704 7.26 3.987 10.122 6.85 2.863 2.862 5.146 6.236 6.85 10.121 1.704 3.885 2.556 8.009 2.556 12.37 0 4.363-.852 8.486-2.556 12.371-1.704 3.885-3.987 7.293-6.85 10.224-2.862 2.93-6.236 5.248-10.121 6.952-3.885 1.704-8.009 2.556-12.37 2.556zM703 1101H419V871h284v230zM427 880v201c3.213-4.507 6.783-9.014 10.71-13.521 3.926-4.507 8.031-8.581 12.315-12.222 4.284-3.64 8.701-6.63 13.253-8.97 4.551-2.34 9.147-3.51 13.788-3.51 5.533 0 10.308.39 14.324 1.17 4.016.78 7.585 1.776 10.709 2.99 3.123 1.213 6.024 2.557 8.701 4.03 2.678 1.473 5.578 2.817 8.701 4.03 3.124 1.214 6.65 2.21 10.576 2.99 3.927.78 8.657 1.17 14.19 1.17 5.533 0 10.307-1.603 14.323-4.81s7.72-7.237 11.111-12.09c3.392-4.855 6.783-10.055 10.174-15.602a111.129 111.129 0 0 1 11.513-15.602c4.283-4.854 9.37-8.884 15.26-12.091 5.89-3.207 13.03-4.81 21.419-4.81 7.14 0 14.011 2.123 20.615 6.37 6.604 4.247 12.718 9.751 18.34 16.512 5.622 6.76 10.799 14.301 15.528 22.622 4.73 8.32 8.88 16.468 12.45 24.442V880H427zM2292.102 514c-4.498 0-8.69-.852-12.575-2.556-3.885-1.704-7.259-4.021-10.121-6.952-2.863-2.93-5.146-6.339-6.85-10.224-1.704-3.885-2.556-8.008-2.556-12.37s.852-8.486 2.556-12.37c1.704-3.886 3.987-7.26 6.85-10.122 2.862-2.863 6.236-5.146 10.121-6.85 3.885-1.704 8.077-2.556 12.575-2.556 4.362 0 8.486.852 12.37 2.556 3.886 1.704 7.26 3.987 10.122 6.85 2.863 2.862 5.146 6.236 6.85 10.121 1.704 3.885 2.556 8.009 2.556 12.37 0 4.363-.852 8.486-2.556 12.371-1.704 3.885-3.987 7.293-6.85 10.224-2.862 2.93-6.236 5.248-10.121 6.952-3.885 1.704-8.009 2.556-12.37 2.556zM2468 629h-284V399h284v230zm-276-221v201c3.213-4.507 6.783-9.014 10.71-13.521 3.926-4.507 8.031-8.581 12.315-12.222 4.284-3.64 8.701-6.63 13.253-8.97 4.551-2.34 9.147-3.51 13.788-3.51 5.533 0 10.308.39 14.324 1.17 4.016.78 7.585 1.776 10.709 2.99 3.123 1.213 6.024 2.557 8.701 4.03 2.678 1.473 5.578 2.817 8.701 4.03 3.124 1.214 6.65 2.21 10.576 2.99 3.927.78 8.657 1.17 14.19 1.17 5.533 0 10.307-1.603 14.323-4.81s7.72-7.237 11.111-12.09c3.392-4.855 6.783-10.055 10.174-15.602a111.129 111.129 0 0 1 11.513-15.602c4.283-4.854 9.37-8.884 15.26-12.091 5.89-3.207 13.03-4.81 21.419-4.81 7.14 0 14.011 2.123 20.615 6.37 6.604 4.247 12.718 9.751 18.34 16.512 5.622 6.76 10.799 14.301 15.528 22.622 4.73 8.32 8.88 16.468 12.45 24.442V408h-268z" fill="#FAFAFA" fill-rule="nonzero"/></g></svg>