<?xml version="1.0" encoding="UTF-8"?>
<svg width="24px" height="17px" viewBox="0 0 24 17" version="1.1" xmlns="http://www.w3.org/2000/svg" xmlns:xlink="http://www.w3.org/1999/xlink">
    <!-- Generator: Sketch 52.2 (67145) - http://www.bohemiancoding.com/sketch -->
    <title>icon_find copy</title>
    <desc>Created with Sketch.</desc>
    <g id="Page-1" stroke="none" stroke-width="1" fill="none" fill-rule="evenodd">
        <g id="拍信云首页" transform="translate(-290.000000, -22.000000)" fill="#000000" fill-rule="nonzero">
            <g id="分组-7" transform="translate(290.000000, 22.000000)">
                <g id="icon_find-copy">
                    <path d="M12,6.1773841 C10.758,6.1773841 9.75,7.21791602 9.75,8.5 C9.75,9.78208398 10.758,10.8226159 12,10.8226159 C13.242,10.8226159 14.25,9.78208398 14.25,8.5 C14.25,7.21791602 13.242,6.1773841 12,6.1773841 M12,13.9194371 C9.10275,13.9194371 6.75,11.4907551 6.75,8.5 C6.75,5.50924492 9.10275,3.08056289 12,3.08056289 C14.89725,3.08056289 17.25,5.50924492 17.25,8.5 C17.25,11.4907551 14.89725,13.9194371 12,13.9194371 M12,0 C6.68625,0 2.0985,3.47850442 0,8.5 C2.0985,13.5214956 6.68625,17 12,17 C17.31375,17 21.9015,13.5214956 24,8.5 C21.9015,3.47850442 17.31375,0 12,0" id="形状"></path>
                </g>
            </g>
        </g>
    </g>
</svg>