<?xml version="1.0" encoding="UTF-8"?>
<svg width="20px" height="19px" viewBox="0 0 20 19" version="1.1" xmlns="http://www.w3.org/2000/svg" xmlns:xlink="http://www.w3.org/1999/xlink">
    <!-- Generator: Sketch 52.2 (67145) - http://www.bohemiancoding.com/sketch -->
    <title>icon_home copy</title>
    <desc>Created with Sketch.</desc>
    <g id="Page-1" stroke="none" stroke-width="1" fill="none" fill-rule="evenodd">
        <g id="拍信云首页" transform="translate(-163.000000, -20.000000)" fill="#000000" fill-rule="nonzero">
            <g id="分组-6" transform="translate(163.000000, 20.000000)">
                <g id="icon_home-copy">
                    <path d="M12.8779545,17.6900504 L7.46446389,17.6900504 C7.46446389,17.6900504 7.46446389,13.8728574 7.46446389,11.7952773 C7.46446389,11.4474857 7.60724471,11.1147585 7.86100208,10.869143 C8.11475945,10.6235275 8.45919279,10.4853278 8.81783655,10.4853278 C9.64474724,10.4853278 10.6976712,10.4853278 11.5245819,10.4853278 C11.8832256,10.4853278 12.2276589,10.6235275 12.4814163,10.869143 C12.7351737,11.1147585 12.8779545,11.4474857 12.8779545,11.7952773 C12.8779545,13.8728574 12.8779545,17.6900504 12.8779545,17.6900504 Z M19.8620341,8.46931538 L11.1490209,0.377756868 C10.6076719,-0.125263768 9.73136309,-0.126573718 9.18798397,0.377756868 L0.474970821,8.46931538 C-0.33366934,9.22057146 -0.0866788303,9.83035299 1.0400039,9.83035299 L2.77638102,9.83035299 L3.3664515,17.6972551 C3.42464652,18.4137976 4.08035557,19 4.83080071,19 L15.5122944,19 C16.2600328,19 16.9177719,18.4170724 16.9766436,17.6972551 L17.5660374,9.83035299 L19.297001,9.83035299 C20.4182702,9.83035299 19.8620341,8.46931538 19.8620341,8.46931538 Z" id="形状"></path>
                </g>
            </g>
        </g>
    </g>
</svg>