<?xml version="1.0" encoding="UTF-8"?>
<svg width="21px" height="22px" viewBox="0 0 21 22" version="1.1" xmlns="http://www.w3.org/2000/svg" xmlns:xlink="http://www.w3.org/1999/xlink">
    <!-- Generator: Sketch 52.2 (67145) - http://www.bohemiancoding.com/sketch -->
    <title>vip copy</title>
    <desc>Created with Sketch.</desc>
    <g id="Page-1" stroke="none" stroke-width="1" fill="none" fill-rule="evenodd">
        <g id="拍信云首页" transform="translate(-650.000000, -19.000000)" fill="#000000">
            <g id="分组-10" transform="translate(650.000000, 19.000000)">
                <g id="vip-copy">
                    <path d="M20.7457013,12.2836004 L20.3437402,11.7171078 C20.0080364,11.2495265 20.0036193,10.6155943 20.3304887,10.1390211 L20.7236155,9.56803244 C21.1829996,8.90262837 20.9665591,7.98095382 20.2686486,7.5943001 L19.6679155,7.26159805 C19.168777,6.98734368 18.8949134,6.41635503 18.9920908,5.8453664 L19.1069368,5.15298649 C19.2394514,4.35270322 18.656387,3.61086759 17.8612991,3.57939578 L17.1810572,3.54792396 C16.6156614,3.5254441 16.1297743,3.12979843 15.9707568,2.57229771 L15.7808191,1.89790169 C15.5599613,1.11560229 14.7207019,0.710964687 13.9962885,1.03467478 L13.3690525,1.31342513 C12.8478282,1.54271978 12.242678,1.40784057 11.8672198,0.971731151 L11.4122528,0.450198222 C10.8821942,-0.156758196 9.95459166,-0.147766243 9.43778454,0.463686152 L8.99165189,0.994211012 C8.62061087,1.43032043 8.01987779,1.57868757 7.49423635,1.35838487 L6.86258319,1.09312243 C6.12933546,0.782900268 5.29891033,1.2010258 5.08688688,1.98782115 L4.90578353,2.66221717 C4.75118311,3.22870982 4.26971321,3.62885147 3.70873453,3.66032329 L3.02849267,3.70078706 C2.23782192,3.7457468 1.66359177,4.49657436 1.8093579,5.29236166 L1.93303824,5.98024561 C2.03463281,6.55123424 1.7696035,7.12671884 1.27488215,7.40546921 L0.678566224,7.74716319 C-0.0149271096,8.14280886 -0.213699091,9.0689794 0.254519335,9.72539151 L0.656480434,10.2918842 C0.992184206,10.7594654 0.996601364,11.3933977 0.669731908,11.8699709 L0.267770809,12.4454555 C-0.191613301,13.1108595 0.0248272908,14.0325341 0.722737782,14.4191878 L1.32347086,14.7518899 C1.82260937,15.0261442 2.09647297,15.5971329 1.99929558,16.1681215 L1.88886672,16.8515095 C1.75635207,17.6517928 2.33941654,18.3936284 3.13450442,18.4251002 L3.81474628,18.456572 C4.38014211,18.4790519 4.86602917,18.8746975 5.02504675,19.4321983 L5.21498442,20.1065943 C5.43584217,20.8888937 6.27510161,21.2935313 6.99951502,20.9698212 L7.62675103,20.6910708 C8.14797531,20.4617762 8.75312555,20.5966554 9.12858372,21.0282688 L9.58355069,21.5498018 C10.1136093,22.1567582 11.0412118,22.1477662 11.558019,21.5363138 L12.0041516,21.005789 C12.3751926,20.5696796 12.9759257,20.4213124 13.5015672,20.6416151 L14.1332203,20.9068776 C14.866468,21.2170997 15.6968932,20.7989742 15.9089166,20.0121788 L16.09002,19.3377828 C16.2402032,18.7802821 16.7216731,18.3801405 17.287069,18.3441727 L17.9673108,18.3037089 C18.7579816,18.2587492 19.3322117,17.5079216 19.1864456,16.7076383 L19.0627653,16.0197544 C18.9611707,15.4487658 19.2262,14.8732812 19.7209214,14.5945308 L20.3172373,14.2528368 C21.0151478,13.870679 21.2139197,12.9400125 20.7457013,12.2836004 Z M10.4979017,17.6922565 C6.85816603,17.6922565 3.90750649,14.6664663 3.90750649,10.9348084 C3.90750649,7.2031504 6.85816601,4.17286426 10.4979017,4.17286426 C14.1376375,4.17286426 17.088297,7.19865442 17.088297,10.9303124 C17.088297,14.6619704 14.1376375,17.6922565 10.4979017,17.6922565 Z" id="形状" fill-rule="nonzero"></path>
                    <path d="M14.5032614,9.0123457 L11.9579783,8.81830616 L10.9955146,6.34785139 C10.813057,5.88404954 10.1835784,5.88404954 10.0056823,6.34785139 L9.04321858,8.81830616 L6.49793544,9.0123457 C6.01898432,9.05020708 5.82284243,9.67491977 6.192319,9.99674148 L8.14005358,11.7147014 L7.52882072,14.303473 C7.41478475,14.7909382 7.9211045,15.1790173 8.33163403,14.9139876 L10.4983177,13.5083841 L12.6650014,14.9139876 C13.0709695,15.1790173 13.5818507,14.7909382 13.4678147,14.303473 L12.8565818,11.7147014 L14.8043164,9.99674148 C15.1783544,9.67491979 14.9822126,9.05020708 14.5032614,9.0123457 Z" id="路径"></path>
                </g>
            </g>
        </g>
    </g>
</svg>