<?xml version="1.0" encoding="UTF-8"?>
<svg width="30px" height="29px" viewBox="0 0 30 29" version="1.1" xmlns="http://www.w3.org/2000/svg" xmlns:xlink="http://www.w3.org/1999/xlink">
    <!-- Generator: Sketch 52.2 (67145) - http://www.bohemiancoding.com/sketch -->
    <title>拍信知产 copy 2</title>
    <desc>Created with Sketch.</desc>
    <g id="Page-1" stroke="none" stroke-width="1" fill="none" fill-rule="evenodd">
        <g id="拍信知产" transform="translate(-2403.000000, -19.000000)" fill="#CCCCCC" fill-rule="nonzero">
            <g id="分组-5" transform="translate(2403.000000, 19.000000)">
                <g id="tongzhi-copy" transform="translate(6.000000, 4.000000)">
                    <path d="M19,16.9047958 C18.9213669,15.167806 18.0097576,13.6265667 16.636718,12.6337209 L16.636718,7.92003591 C16.636718,5.19737849 14.5880694,2.90704235 11.8807896,2.36589902 L11.8807896,2.25812975 C11.8807896,1.01615121 10.8094419,0 9.49999998,0 C8.19055812,0 7.11921036,1.01615121 7.11921036,2.25812975 L7.11921036,2.36589902 C4.41195583,2.90704235 2.36330719,5.19737849 2.36330719,7.92003591 L2.36330719,12.6337209 C0.990267604,13.6265667 0.0786331104,15.167806 0,16.9047958 L2.36330719,16.9047958 L2.36330719,16.9199658 L16.6367432,16.9199658 L16.6367432,16.9047958 L19,16.9047958 Z M8.99768828,21 L9.58870032,21 C11.1377971,21 12.4257573,19.8890863 12.612993,18.4658747 L6.393667,18.4658747 C6.58090267,19.8890863 7.86886286,21 9.41797843,21 L8.99768828,21 Z" id="形状"></path>
                </g>
            </g>
        </g>
    </g>
</svg>