<?xml version="1.0" encoding="UTF-8"?>
<svg width="17px" height="18px" viewBox="0 0 17 18" version="1.1" xmlns="http://www.w3.org/2000/svg" xmlns:xlink="http://www.w3.org/1999/xlink">
    <!-- Generator: Sketch 52.2 (67145) - http://www.bohemiancoding.com/sketch -->
    <title>icon_tip_off copy</title>
    <desc>Created with Sketch.</desc>
    <g id="Page-1" stroke="none" stroke-width="1" fill="none" fill-rule="evenodd">
        <g id="拍信云首页" transform="translate(-412.000000, -21.000000)" fill="#000000" fill-rule="nonzero">
            <g id="分组-8" transform="translate(412.000000, 21.000000)">
                <g id="icon_tip_off-copy">
                    <path d="M1.17241379,1.80108065 L0.880482759,1.80108065 C0.393931034,1.80108065 0,1.40124074 0,0.900540324 C0,0.403442065 0.393344828,0 0.880482759,0 L3.22296552,0 C3.70951724,0 4.10344828,0.399839904 4.10344828,0.900540324 C4.10344828,1.39763858 3.71010345,1.80108065 3.22296552,1.80108065 L2.93103448,1.80108065 L2.93103448,17.0940564 C2.93103448,17.5947569 2.54062069,18 2.05172414,18 C1.56634483,18 1.17241379,17.5995597 1.17241379,17.0940564 L1.17241379,1.80108065 Z M4.10344828,3.59855914 C4.10344828,2.93756254 4.62517241,2.40144086 5.27058621,2.40144086 L17,2.40144086 L14.6551724,7.20432259 L17,12.0072043 L5.27058621,12.0072043 C4.62575862,12.0072043 4.10344828,11.4698819 4.10344828,10.8100861 L4.10344828,3.59855914 Z" id="形状"></path>
                </g>
            </g>
        </g>
    </g>
</svg>