<?xml version="1.0" encoding="UTF-8"?>
<svg width="20px" height="20px" viewBox="0 0 20 20" version="1.1" xmlns="http://www.w3.org/2000/svg" xmlns:xlink="http://www.w3.org/1999/xlink">
    <!-- Generator: Sketch 52.2 (67145) - http://www.bohemiancoding.com/sketch -->
    <title>icon_msg copy</title>
    <desc>Created with Sketch.</desc>
    <g id="Page-1" stroke="none" stroke-width="1" fill="none" fill-rule="evenodd">
        <g id="拍信云首页" transform="translate(-532.000000, -20.000000)" fill="#000000" fill-rule="nonzero">
            <g id="分组-9" transform="translate(532.000000, 20.000000)">
                <g id="icon_msg-copy">
                    <path d="M14.5457143,7.72714286 C14.5457143,6.97428571 13.935,6.36357143 13.1821429,6.36357143 C12.4292857,6.36357143 11.8185714,6.97428571 11.8185714,7.72714286 C11.8185714,8.48 12.4292857,9.09071429 13.1821429,9.09071429 C13.935,9.09071429 14.5457143,8.48 14.5457143,7.72714286 M14.0621429,11.8178571 L5.93857143,11.8178571 C5.60571429,11.8178571 5.37142857,12.1335714 5.48285714,12.4307143 C6.14285714,14.1928571 7.91571429,15.4542857 10,15.4542857 C12.085,15.4542857 13.8578571,14.1928571 14.5178571,12.4307143 C14.6292857,12.1335714 14.395,11.8178571 14.0621429,11.8178571 M5.455,7.72714286 C5.455,8.48 6.06571429,9.09071429 6.81857143,9.09071429 C7.57142857,9.09071429 8.18214286,8.48 8.18214286,7.72714286 C8.18214286,6.97428571 7.57142857,6.36357143 6.81857143,6.36357143 C6.06571429,6.36357143 5.455,6.97428571 5.455,7.72714286 M20,10 C20,15.5228571 15.5228571,20 10,20 C8.13928571,20 6.40285714,19.4828571 4.91142857,18.5971429 L0.786428571,19.775 C0.443571429,19.8728571 0.126428571,19.5564286 0.225,19.2135714 L1.40285714,15.0892857 C0.517857143,13.5971429 0,11.8607143 0,10 C0,4.47714286 4.47785714,0 10,0 C15.5228571,0 20,4.47714286 20,10" id="形状"></path>
                </g>
            </g>
        </g>
    </g>
</svg>