<?xml version="1.0" standalone="no"?><!DOCTYPE svg PUBLIC "-//W3C//DTD SVG 1.1//EN" "http://www.w3.org/Graphics/SVG/1.1/DTD/svg11.dtd"><svg t="1553135191975" class="icon" style="" viewBox="0 0 1024 1024" version="1.1" xmlns="http://www.w3.org/2000/svg" p-id="3841" xmlns:xlink="http://www.w3.org/1999/xlink" width="200" height="200"><defs><style type="text/css"></style></defs><path d="M823.04 85.12H200.96c-17.92 0-32 14.08-32 32v789.76c0 17.92 14.08 32 32 32h622.08c17.92 0 32-14.08 32-32V117.12c0-17.92-14.08-32-32-32z m-131.2 64v157.44l-40.32-35.84a32.064 32.064 0 0 0-42.88 0l-40.32 35.84V149.12h123.52z m99.2 725.76H232.96V149.12h271.36v229.12a32.32 32.32 0 0 0 53.76 24.32l72.32-64.64 72.32 64.64c5.76 5.12 13.44 8.32 21.12 8.32 4.48 0 8.96-0.64 12.8-2.56 11.52-5.12 19.2-16.64 19.2-29.44V149.12h35.84v725.76z" p-id="3842" fill="#8A94A7"></path><path d="M536.32 756.48H347.52c-17.92 0-32 14.08-32 32s14.08 32 32 32h188.8c17.92 0 32-14.08 32-32s-14.08-32-32-32z" p-id="3843" fill="#8A94A7"></path></svg>