<?xml version="1.0" standalone="no"?><!DOCTYPE svg PUBLIC "-//W3C//DTD SVG 1.1//EN" "http://www.w3.org/Graphics/SVG/1.1/DTD/svg11.dtd"><svg t="1553136538262" class="icon" style="" viewBox="0 0 1024 1024" version="1.1" xmlns="http://www.w3.org/2000/svg" p-id="1295" xmlns:xlink="http://www.w3.org/1999/xlink" width="200" height="200"><defs><style type="text/css"></style></defs><path d="M113.28 353.92l384 196.48a29.76 29.76 0 0 0 29.44 0l384.64-195.84c10.88-5.12 17.28-16.64 17.28-28.8s-7.04-23.04-17.28-28.8l-384-196.48a32.512 32.512 0 0 0-28.8 0L113.28 296.96c-10.88 5.76-17.28 16.64-17.28 28.8s6.4 23.04 17.28 28.16zM512 165.76l313.6 160.64L512 486.4 198.4 325.76 512 165.76z" p-id="1296" fill="#8A94A7"></path><path d="M881.92 473.6L512 661.76 142.08 472.96a31.36 31.36 0 0 0-42.88 14.08c-8.32 15.36-1.92 34.56 14.08 42.88l384 196.48c4.48 2.56 9.6 3.2 14.72 3.2s10.24-1.28 14.72-3.2l384.64-195.84a32 32 0 0 0 14.08-42.88c-8.96-16-28.16-22.4-43.52-14.08z" p-id="1297" fill="#8A94A7"></path><path d="M881.92 670.08L512 858.24l-369.92-188.8a32 32 0 0 0-42.88 14.08c-8.32 16-1.92 35.2 14.08 42.88l384 196.48c4.48 2.56 9.6 3.2 14.72 3.2s10.24-1.28 14.72-3.2l384.64-195.84a32 32 0 0 0 14.08-42.88c-8.96-16-28.16-22.4-43.52-14.08z" p-id="1298" fill="#8A94A7"></path></svg>