<?xml version="1.0" standalone="no"?><!DOCTYPE svg PUBLIC "-//W3C//DTD SVG 1.1//EN" "http://www.w3.org/Graphics/SVG/1.1/DTD/svg11.dtd"><svg t="1553134940955" class="icon" style="" viewBox="0 0 1024 1024" version="1.1" xmlns="http://www.w3.org/2000/svg" p-id="3480" xmlns:xlink="http://www.w3.org/1999/xlink" width="200" height="200"><defs><style type="text/css"></style></defs><path d="M915.2 81.92H297.6c-17.92 0-32 14.08-32 32v424.96H108.8c-17.92 0-32 14.08-32 32v244.48c0 69.76 56.32 126.08 126.08 126.08H915.2c17.92 0 32-14.08 32-32V113.92c0-17.28-14.72-32-32-32zM140.8 815.36V602.88h124.16V815.36a62.08 62.08 0 0 1-124.16 0z m742.4 62.72H312.32c10.24-18.56 17.28-39.68 17.28-62.08V145.92h553.6v732.16z" p-id="3481" fill="#8A94A7"></path><path d="M448.64 734.08h315.52c17.92 0 32-14.08 32-32s-14.08-32-32-32H448.64c-17.92 0-32 14.08-32 32s14.08 32 32 32zM458.88 602.24h294.4c17.92 0 32-14.08 32-32V276.48c0-17.92-14.08-32-32-32h-294.4c-17.92 0-32 14.08-32 32v293.76c0 17.92 14.72 32 32 32z m32-293.76h230.4v229.76h-230.4V308.48z" p-id="3482" fill="#8A94A7"></path></svg>