<?xml version="1.0" standalone="no"?><!DOCTYPE svg PUBLIC "-//W3C//DTD SVG 1.1//EN" "http://www.w3.org/Graphics/SVG/1.1/DTD/svg11.dtd"><svg t="1553136361971" class="icon" style="" viewBox="0 0 1024 1024" version="1.1" xmlns="http://www.w3.org/2000/svg" p-id="4564" xmlns:xlink="http://www.w3.org/1999/xlink" width="200" height="200"><defs><style type="text/css"></style></defs><path d="M512 96.64C282.88 96.64 96.64 282.88 96.64 512S282.88 927.36 512 927.36s415.36-186.24 415.36-415.36S741.12 96.64 512 96.64z m0 766.72c-193.28 0-351.36-157.44-351.36-351.36 0-193.28 157.44-351.36 351.36-351.36 193.92 0 351.36 157.44 351.36 351.36 0 193.92-157.44 351.36-351.36 351.36z" p-id="4565" fill="#8A94A7"></path><path d="M512 421.12c-17.92 0-32 14.08-32 32v264.32c0 17.92 14.08 32 32 32s32-14.08 32-32V453.12c0-17.92-14.08-32-32-32zM512 274.56c-17.92 0-32 14.08-32 32v40.32c0 17.92 14.08 32 32 32s32-14.08 32-32v-40.32c0-17.92-14.08-32-32-32z" p-id="4566" fill="#8A94A7"></path></svg>