<?xml version="1.0" encoding="utf-8"?>
<!-- Generator: Adobe Illustrator 21.0.0, SVG Export Plug-In . SVG Version: 6.00 Build 0)  -->
<svg version="1.1" id="图层_1" xmlns="http://www.w3.org/2000/svg" xmlns:xlink="http://www.w3.org/1999/xlink" x="0px" y="0px"
	 viewBox="0 0 14 14" style="enable-background:new 0 0 14 14;" xml:space="preserve">
<style type="text/css">
	.st0{fill:#8A94A7;}
</style>
<title>Group</title>
<desc>Created with Sketch.</desc>
<g id="Page-1">
	<g id="_x30_7小程序设置-05打卡策略-01打卡设置" transform="translate(-26.000000, -893.000000)">
		<g id="Group" transform="translate(26.000000, 893.000000)">
			<g id="Stroke-1">
				<path class="st0" d="M7,11.8c-0.1,0-0.2,0-0.2-0.1c-0.2-0.1-4.9-2.5-4.9-6.9c0-2.6,2.3-4.7,5.1-4.7s5.1,2.1,5.1,4.7
					c0,4.5-4.7,6.8-4.9,6.9C7.2,11.8,7.1,11.8,7,11.8z M7,1.3c-2.3,0-4.1,1.6-4.1,3.7c0,3.3,3.3,5.3,4.1,5.8
					c0.9-0.5,4.1-2.5,4.1-5.8C11.2,2.9,9.3,1.3,7,1.3z"/>
			</g>
			<g id="Stroke-3">
				<path class="st0" d="M10.9,13.8H3.2c-0.3,0-0.5-0.2-0.5-0.5s0.2-0.5,0.5-0.5h7.7c0.3,0,0.5,0.2,0.5,0.5S11.2,13.8,10.9,13.8z"/>
			</g>
			<g id="Stroke-6">
				<path class="st0" d="M7,6.1c-0.3,0-0.5-0.2-0.5-0.5V3.2c0-0.3,0.2-0.5,0.5-0.5s0.5,0.2,0.5,0.5v2.4C7.5,5.9,7.3,6.1,7,6.1z"/>
			</g>
			<g id="Stroke-8">
				<path class="st0" d="M9,6.1H7c-0.3,0-0.5-0.2-0.5-0.5S6.8,5.1,7,5.1H9c0.3,0,0.5,0.2,0.5,0.5S9.3,6.1,9,6.1z"/>
			</g>
		</g>
	</g>
</g>
</svg>
