<?xml version="1.0" standalone="no"?><!DOCTYPE svg PUBLIC "-//W3C//DTD SVG 1.1//EN" "http://www.w3.org/Graphics/SVG/1.1/DTD/svg11.dtd"><svg t="1553136377204" class="icon" style="" viewBox="0 0 1024 1024" version="1.1" xmlns="http://www.w3.org/2000/svg" p-id="4745" xmlns:xlink="http://www.w3.org/1999/xlink" width="200" height="200"><defs><style type="text/css"></style></defs><path d="M990.08 374.4l-173.44-210.56c-18.56-23.04-46.72-35.84-75.52-35.84h-51.84a59.52 59.52 0 0 0-53.12 34.56c-21.76 41.6-69.12 68.48-125.44 68.48-53.12 0-101.12-26.88-122.24-68.48C377.6 141.44 357.12 128 335.36 128h-52.48c-28.8 0-56.32 12.8-75.52 35.84L33.92 374.4c-10.88 13.44-16 30.72-14.08 47.36 1.92 17.28 10.88 32.64 24.32 43.52L134.4 534.4c26.88 19.84 63.36 16 85.76-8.32l0.64-0.64v256c0 63.36 51.2 114.56 114.56 114.56h353.92c63.36 0 114.56-51.2 114.56-114.56v-256l0.64 0.64c22.4 24.32 58.88 27.52 85.12 7.68l90.24-69.12c14.08-10.24 22.4-25.6 24.32-42.88 1.92-16.64-3.2-33.92-14.08-47.36z m-140.8 110.72l-53.76-59.52a30.592 30.592 0 0 0-33.92-8.32c-12.16 4.48-19.84 16-19.84 28.8v335.36c0 29.44-23.68 53.12-53.12 53.12H335.36c-29.44 0-53.12-23.68-53.12-53.12V446.08c0-12.8-7.68-24.32-19.84-28.8a31.104 31.104 0 0 0-33.92 8.32l-56.32 59.52-90.88-71.68 173.44-210.56a37.12 37.12 0 0 1 28.16-13.44l50.56 0.64c31.36 62.08 100.48 102.4 179.84 102.4 76.16 0 145.28-40.32 175.36-103.04h51.84c10.88 0 21.12 5.12 28.16 13.44l173.44 213.76-92.8 68.48z" p-id="4746" fill="#8A94A7"></path></svg>