<?xml version="1.0" standalone="no"?><!DOCTYPE svg PUBLIC "-//W3C//DTD SVG 1.1//EN" "http://www.w3.org/Graphics/SVG/1.1/DTD/svg11.dtd"><svg t="1553134610817" class="icon" style="" viewBox="0 0 1024 1024" version="1.1" xmlns="http://www.w3.org/2000/svg" p-id="2939" xmlns:xlink="http://www.w3.org/1999/xlink" width="200" height="200"><defs><style type="text/css"></style></defs><path d="M639.36 533.76c58.24-40.32 97.28-108.16 97.28-184.32 0-124.16-100.48-224.64-224.64-224.64S287.36 225.92 287.36 349.44c0 76.16 38.4 144 97.28 184.32-133.76 51.2-229.76 181.12-229.76 333.44 0 17.92 14.08 32 32 32h650.24c17.92 0 32-14.08 32-32 0-151.68-95.36-281.6-229.76-333.44z m-288-184.32c0-88.32 72.32-160.64 160.64-160.64s160.64 72.32 160.64 160.64S600.32 510.08 512 510.08 351.36 437.76 351.36 349.44z m-130.56 485.76C236.8 688.64 360.96 574.08 512 574.08s275.2 114.56 291.2 261.12h-582.4z" p-id="2940" fill="#8A94A7"></path></svg>