<?xml version="1.0" standalone="no"?><!DOCTYPE svg PUBLIC "-//W3C//DTD SVG 1.1//EN" "http://www.w3.org/Graphics/SVG/1.1/DTD/svg11.dtd"><svg t="1553135334870" class="icon" style="" viewBox="0 0 1024 1024" version="1.1" xmlns="http://www.w3.org/2000/svg" p-id="4022" xmlns:xlink="http://www.w3.org/1999/xlink" width="200" height="200"><defs><style type="text/css"></style></defs><path d="M900.48 343.04H123.52c-17.92 0-32 14.08-32 32v494.72c0 17.92 14.08 32 32 32h777.6c17.92 0 32-14.08 32-32V375.04a32.64 32.64 0 0 0-32.64-32z m-32 494.72H155.52V407.04h713.6v430.72zM279.04 307.2c17.92 0 32-14.08 32-32v-15.36c0-40.96 33.28-73.6 73.6-73.6h254.72c40.96 0 73.6 33.28 73.6 73.6v15.36c0 17.92 14.08 32 32 32s32-14.08 32-32v-15.36c0-76.16-62.08-137.6-137.6-137.6H384.64c-76.16 0-137.6 62.08-137.6 137.6v15.36c0 17.92 14.08 32 32 32z" p-id="4023" fill="#8A94A7"></path><path d="M343.04 574.08h338.56c17.92 0 32-14.08 32-32s-14.08-32-32-32H343.04c-17.92 0-32 14.08-32 32s14.08 32 32 32z" p-id="4024" fill="#8A94A7"></path></svg>