<?xml version="1.0" standalone="no"?><!DOCTYPE svg PUBLIC "-//W3C//DTD SVG 1.1//EN" "http://www.w3.org/Graphics/SVG/1.1/DTD/svg11.dtd"><svg t="1553135340166" class="icon" style="" viewBox="0 0 1024 1024" version="1.1" xmlns="http://www.w3.org/2000/svg" p-id="4203" xmlns:xlink="http://www.w3.org/1999/xlink" width="200" height="200"><defs><style type="text/css"></style></defs><path d="M512 60.16c-68.48 0-124.8 55.68-124.8 124.8v746.88c0 17.92 14.08 32 32 32h184.96c17.92 0 32-14.08 32-32V184.96C636.8 115.84 580.48 60.16 512 60.16z m60.8 839.68h-121.6V184.96c0-33.28 26.88-60.8 60.8-60.8s60.8 26.88 60.8 60.8v714.88zM819.84 316.8c-68.48 0-124.8 55.68-124.8 124.8v490.24c0 17.92 14.08 32 32 32h184.96c17.92 0 32-14.08 32-32V441.6c0.64-69.12-55.04-124.8-124.16-124.8z m60.8 583.04h-120.96V441.6c0-33.28 26.88-60.8 60.8-60.8s60.8 26.88 60.8 60.8v458.24zM204.16 405.76c-68.48 0-124.8 55.68-124.8 124.8v401.28c0 17.92 14.08 32 32 32h184.96c17.92 0 32-14.08 32-32V530.56c0-69.12-55.68-124.8-124.16-124.8z m60.16 494.08H143.36V530.56c0-33.28 26.88-60.8 60.8-60.8s60.8 26.88 60.8 60.8v369.28z" p-id="4204" fill="#8A94A7"></path></svg>