<?xml version="1.0" standalone="no"?><!DOCTYPE svg PUBLIC "-//W3C//DTD SVG 1.1//EN" "http://www.w3.org/Graphics/SVG/1.1/DTD/svg11.dtd"><svg t="1553074629700" class="icon" style="" viewBox="0 0 1024 1024" version="1.1" xmlns="http://www.w3.org/2000/svg" p-id="2220" xmlns:xlink="http://www.w3.org/1999/xlink" width="200" height="200"><defs><style type="text/css"></style></defs><path d="M896 452.48c-17.92 0-32 14.08-32 32v215.04l-320 163.2V520.96l366.72-186.88c10.88-5.76 17.28-16.64 17.28-28.8s-7.04-23.04-17.28-28.8l-384-196.48a32.512 32.512 0 0 0-28.8 0L113.28 276.48a32.128 32.128 0 0 0 0 56.96L480 520.96v341.76l-320-163.84V483.84c0-17.92-14.08-32-32-32s-32 14.08-32 32v234.24c0 1.28 0.64 3.2 0.64 4.48 0.64 2.56 0.64 4.48 1.28 6.4s1.92 3.2 2.56 5.12c1.28 1.92 1.92 3.84 3.2 5.12 1.28 1.92 3.2 2.56 5.12 3.84 1.28 0.64 1.92 1.92 3.84 3.2l384 196.48h1.28c4.48 3.2 8.96 4.48 14.08 4.48 5.12 0 9.6-1.28 13.44-3.2h0.64l384.64-195.84c1.28-0.64 2.56-1.92 3.84-2.56 1.92-1.28 3.84-2.56 5.12-3.84 1.28-1.28 2.56-3.2 3.84-5.12a23.04 23.04 0 0 0 3.84-12.16c0-1.28 0.64-2.56 0.64-4.48V485.76c0-18.56-14.08-33.28-32-33.28zM512 144.64l313.6 160.64L512 465.28 198.4 304.64 512 144.64z" p-id="2221" fill="#8A94A7"></path></svg>