<?xml version="1.0" standalone="no"?><!DOCTYPE svg PUBLIC "-//W3C//DTD SVG 1.1//EN" "http://www.w3.org/Graphics/SVG/1.1/DTD/svg11.dtd"><svg t="1553075915912" class="icon" style="" viewBox="0 0 1024 1024" version="1.1" xmlns="http://www.w3.org/2000/svg" p-id="2579" xmlns:xlink="http://www.w3.org/1999/xlink" width="200" height="200"><defs><style type="text/css"></style></defs><path d="M439.68 125.44H131.2c-17.92 0-32 14.08-32 32v308.48c0 17.92 14.08 32 32 32h308.48c17.92 0 32-14.08 32-32V157.44c0-17.92-14.72-32-32-32z m-32 308.48H163.2V189.44h244.48v244.48zM439.68 546.56H131.2c-17.92 0-32 14.08-32 32v308.48c0 17.92 14.08 32 32 32h308.48c17.92 0 32-14.08 32-32V578.56c0-17.28-14.72-32-32-32z m-32 308.48H163.2V610.56h244.48v244.48zM872.32 546.56H563.84c-17.92 0-32 14.08-32 32v308.48c0 17.92 14.08 32 32 32h308.48c17.92 0 32-14.08 32-32V578.56c0-17.28-14.08-32-32-32z m-32 308.48H595.84V610.56h244.48v244.48zM915.84 289.28l-174.72-174.72c-12.8-12.8-32.64-12.8-45.44 0L520.32 289.28c-5.76 5.76-9.6 14.08-9.6 22.4s3.2 16.64 9.6 22.4l174.72 174.72a31.04 31.04 0 0 0 44.8 0l174.72-174.72c13.44-12.16 13.44-32.64 1.28-44.8zM718.08 441.6L588.16 311.68l129.92-129.92 129.92 129.92-129.92 129.92z" p-id="2580" fill="#8A94A7"></path></svg>