<?xml version="1.0" standalone="no"?><!DOCTYPE svg PUBLIC "-//W3C//DTD SVG 1.1//EN" "http://www.w3.org/Graphics/SVG/1.1/DTD/svg11.dtd"><svg t="1553075949836" class="icon" style="" viewBox="0 0 1024 1024" version="1.1" xmlns="http://www.w3.org/2000/svg" p-id="2759" xmlns:xlink="http://www.w3.org/1999/xlink" width="200" height="200"><defs><style type="text/css"></style></defs><path d="M449.92 115.2H141.44c-17.92 0-32 14.08-32 32v308.48c0 17.92 14.08 32 32 32h308.48c17.92 0 32-14.08 32-32V147.2c0-17.92-14.08-32-32-32z m-32 308.48H173.44V179.2h244.48v244.48zM449.92 536.32H141.44c-17.92 0-32 14.08-32 32v308.48c0 17.92 14.08 32 32 32h308.48c17.92 0 32-14.08 32-32V568.32c0-17.92-14.08-32-32-32z m-32 308.48H173.44V600.32h244.48v244.48zM882.56 115.2H574.08c-17.92 0-32 14.08-32 32v729.6c0 17.92 14.08 32 32 32h308.48c17.92 0 32-14.08 32-32V147.2c0-17.92-14.08-32-32-32z m-32 729.6H606.08V179.2h244.48v665.6z" p-id="2760" fill="#8A94A7"></path></svg>