<?xml version="1.0" standalone="no"?><!DOCTYPE svg PUBLIC "-//W3C//DTD SVG 1.1//EN" "http://www.w3.org/Graphics/SVG/1.1/DTD/svg11.dtd"><svg t="1553134616635" class="icon" style="" viewBox="0 0 1024 1024" version="1.1" xmlns="http://www.w3.org/2000/svg" p-id="3119" xmlns:xlink="http://www.w3.org/1999/xlink" width="200" height="200"><defs><style type="text/css"></style></defs><path d="M505.6 835.2H214.4A293.76 293.76 0 0 1 505.6 574.08c124.16 0 224.64-100.48 224.64-224.64 0-124.16-100.48-224.64-224.64-224.64-124.16 0-224.64 100.48-224.64 224.64 0 76.16 38.4 144 97.28 184.32-133.76 51.2-229.76 181.12-229.76 333.44 0 17.92 14.08 32 32 32H505.6c17.92 0 32-14.08 32-32s-14.08-32-32-32zM344.96 349.44c0-88.32 72.32-160.64 160.64-160.64s160.64 72.32 160.64 160.64S593.92 510.08 505.6 510.08 344.96 437.76 344.96 349.44z" p-id="3120" fill="#8A94A7"></path><path d="M843.52 708.48H748.8V613.76c0-17.92-14.08-32-32-32s-32 14.08-32 32v94.72H590.08c-17.92 0-32 14.08-32 32s14.08 32 32 32h94.72v94.72c0 17.92 14.08 32 32 32s32-14.08 32-32v-94.72h94.72c17.92 0 32-14.08 32-32s-14.08-32-32-32z" p-id="3121" fill="#8A94A7"></path></svg>