<?xml version="1.0" standalone="no"?><!DOCTYPE svg PUBLIC "-//W3C//DTD SVG 1.1//EN" "http://www.w3.org/Graphics/SVG/1.1/DTD/svg11.dtd"><svg t="1553074895899" class="icon" style="" viewBox="0 0 1024 1024" version="1.1" xmlns="http://www.w3.org/2000/svg" p-id="2398" xmlns:xlink="http://www.w3.org/1999/xlink" width="200" height="200"><defs><style type="text/css"></style></defs><path d="M821.12 81.92H202.88c-17.92 0-32 14.08-32 32v795.52c0 17.92 14.08 32 32 32h617.6c17.92 0 32-14.08 32-32V113.92c0.64-17.28-14.08-32-31.36-32z m-32 796.16H234.88V145.92h553.6v732.16z" p-id="2399" fill="#8A94A7"></path><path d="M353.92 647.04h315.52c17.92 0 32-14.08 32-32s-14.08-32-32-32H353.92c-17.92 0-32 14.08-32 32s14.72 32 32 32zM353.92 776.32h315.52c17.92 0 32-14.08 32-32s-14.08-32-32-32H353.92c-17.92 0-32 14.08-32 32s14.72 32 32 32zM512 517.76c82.56 0 150.4-67.2 150.4-150.4S595.2 216.96 512 216.96 361.6 284.16 361.6 367.36 428.8 517.76 512 517.76z m0-236.8a86.4 86.4 0 1 1-0.064 172.864A86.4 86.4 0 0 1 512 280.96z" p-id="2400" fill="#8A94A7"></path></svg>