<?xml version="1.0" standalone="no"?><!DOCTYPE svg PUBLIC "-//W3C//DTD SVG 1.1//EN" "http://www.w3.org/Graphics/SVG/1.1/DTD/svg11.dtd"><svg t="1553134623403" class="icon" style="" viewBox="0 0 1024 1024" version="1.1" xmlns="http://www.w3.org/2000/svg" p-id="3300" xmlns:xlink="http://www.w3.org/1999/xlink" width="200" height="200"><defs><style type="text/css"></style></defs><path d="M901.76 666.24h-169.6L627.84 449.92c56.96-37.76 94.08-101.76 94.08-175.36 0-115.84-94.08-209.92-209.92-209.92S302.08 159.36 302.08 275.2c0 72.96 37.76 137.6 94.08 175.36l-104.32 216.32H122.24c-17.92 0-32 14.08-32 32v228.48c0 17.92 14.08 32 32 32h778.88c17.92 0 32-14.08 32-32v-228.48a31.68 31.68 0 0 0-31.36-32.64zM512 128.64c80.64 0 145.92 65.28 145.92 145.92S592.64 421.12 512 421.12 366.08 355.84 366.08 275.2 431.36 128.64 512 128.64z m-57.6 347.52c18.56 5.12 37.76 8.96 57.6 8.96 19.84 0 39.04-3.84 57.6-8.96l91.52 190.08H362.88L454.4 476.16z m415.36 419.2H154.24v-164.48h714.88v164.48z" p-id="3301" fill="#8A94A7"></path></svg>