<?xml version="1.0" standalone="no"?><!DOCTYPE svg PUBLIC "-//W3C//DTD SVG 1.1//EN" "http://www.w3.org/Graphics/SVG/1.1/DTD/svg11.dtd"><svg t="1553135344759" class="icon" style="" viewBox="0 0 1024 1024" version="1.1" xmlns="http://www.w3.org/2000/svg" p-id="4383" xmlns:xlink="http://www.w3.org/1999/xlink" width="200" height="200"><defs><style type="text/css"></style></defs><path d="M877.44 158.08H146.56c-17.92 0-32 14.08-32 32v496.64c0 17.92 14.08 32 32 32H480v82.56H309.76c-17.92 0-32 14.08-32 32s14.08 32 32 32h404.48c17.92 0 32-14.08 32-32s-14.08-32-32-32H544v-82.56h333.44c17.92 0 32-14.08 32-32V190.08c0-17.28-14.08-32-32-32z m-32 497.28H178.56V222.08h666.88v433.28z" p-id="4384" fill="#8A94A7"></path><path d="M298.24 559.36c7.04 0 14.72-2.56 20.48-7.68l106.88-89.6 113.92 71.04c12.16 7.68 28.16 5.76 38.4-3.84l169.6-156.16c12.8-12.16 14.08-32 1.92-45.44-12.16-12.8-32-13.44-45.44-1.92L552.32 465.92l-113.28-70.4a32.832 32.832 0 0 0-37.76 2.56L277.76 503.04c-14.08 11.52-15.36 31.36-3.84 44.8 5.76 7.68 15.36 11.52 24.32 11.52z" p-id="4385" fill="#8A94A7"></path></svg>