<?xml version="1.0" encoding="UTF-8"?>
<svg width="216px" height="252px" viewBox="0 0 216 252" version="1.1" xmlns="http://www.w3.org/2000/svg" xmlns:xlink="http://www.w3.org/1999/xlink">
    <!-- Generator: Sketch 52.2 (67145) - http://www.bohemiancoding.com/sketch -->
    <title>矩形 copy 46</title>
    <desc>Created with Sketch.</desc>
    <defs>
        <linearGradient x1="97.8616898%" y1="100%" x2="4.04803241%" y2="0%" id="linearGradient-1">
            <stop stop-color="#7E65FD" offset="0%"></stop>
            <stop stop-color="#3574FA" offset="100%"></stop>
        </linearGradient>
    </defs>
    <g id="Page-1" stroke="none" stroke-width="1" fill="none" fill-rule="evenodd">
        <g id="拍信云首页" transform="translate(-1245.000000, -1275.000000)">
            <rect id="矩形-copy-46" fill="url(#linearGradient-1)" x="1245" y="1275" width="216" height="252" rx="8"></rect>
            <g id="undraw_love_xfcv-copy" transform="translate(1285.000000, 1318.000000)">
                <path d="M125.992702,48.2365279 C125.740181,62.0804919 117.713053,74.5902161 105.26402,80.5407484 C100.46548,82.8254519 95.2201668,84.0071798 89.9096759,83.9999617 C89.1460743,83.9999617 88.3879601,83.976222 87.6353334,83.9287426 C71.2278725,82.8960667 54.7721275,82.8960667 38.3646666,83.9287426 C37.612462,83.9757981 36.8543478,83.9995378 36.0903241,83.9999617 C29.9274159,84.0090062 23.8670274,82.4164345 18.4983609,79.3770792 C7.27779568,73.018663 0.244010862,61.1731607 0.00729793003,48.2365292 C-0.39286478,27.8017355 15.7136843,11.0944984 35.9219012,11.0003875 C46.6845052,10.9507884 56.3567925,15.6665101 63,23.1801248 C69.6432075,15.6665101 79.3154948,10.9507884 90.0780988,11.0003875 C110.286316,11.0944984 126.392865,27.8017355 125.992702,48.2365279 Z" id="路径" fill="#F2F2F2"></path>
                <path d="M105,80.3951539 C100.1885,82.776017 94.9290195,84.007482 89.6041858,83.9999601 C88.8385218,83.9999601 88.0783601,83.9752212 87.3237007,83.9257435 C70.8719258,82.8496039 54.3717364,82.8496039 37.9199615,83.9257435 C37.1657253,83.9747794 36.4055636,83.9995183 35.6394763,83.9999601 C29.4599231,84.0093853 23.3831665,82.3497847 18,79.1825077 C26.1429572,75.5008343 42.0479443,73 60.3362669,73 C80.5685964,73.0000013 97.8842832,76.0601067 105,80.3951539 Z" id="路径" fill="#2F2E41"></path>
                <path d="M80,30.6916612 C79.1809482,29.9856765 78.0336636,29.8037444 77.0367561,30.221761 C75.562531,30.8654038 74.9204859,32.6734659 75.0235702,34.28022 C75.1266546,35.8869741 75.7954447,37.3941819 76.2285769,38.9447625 C76.8103449,41.0274492 76.9614235,43.2847334 76.2795624,45.3367645 C75.5977013,47.3887955 73.9933128,49.1971571 71.9122328,49.777262 C69.9806352,50.3156999 67.9316212,49.7758467 66,49.2375082" id="路径" stroke="#3F3D56"></path>
                <path d="M83.4572043,26.7310162 C83.4912431,26.1473427 83.2109556,25.5898898 82.7219969,25.2687906 C82.2330382,24.9476915 81.6097544,24.9117694 81.0870937,25.174565 C80.5644331,25.4373607 80.2218663,25.9589162 80.1885245,26.5426299 L80,29.8088908 L83.2686786,29.9972771 C83.8525717,30.0309291 84.4100777,29.7507519 84.7311893,29.2622856 C85.0523009,28.7738192 85.0882337,28.1512734 84.8254522,27.6291551 C84.5626706,27.1070368 84.0410975,26.7646682 83.4572043,26.7310162 Z" id="路径" fill="#576DFB"></path>
                <path d="M80.4578856,35.7304142 C80.5099555,34.8282897 79.8203037,34.0547938 78.9175051,34.0027628 C78.0147066,33.9507318 77.2406328,34.6398688 77.1885629,35.5419933 L77,38.8088753 L80.269324,38.9972974 C81.1717528,39.048736 81.9451886,38.3597292 81.9972352,37.4580068 C82.0492819,36.5562844 81.3602487,35.7829912 80.4578856,35.7304142 Z" id="路径" fill="#576DFB"></path>
                <path d="M74.8907137,26.5642169 C74.4088963,26.2024932 73.7479287,26.0983724 73.1570054,26.2911094 C72.566082,26.4838465 72.1350704,26.94413 72.0264682,27.4984264 C71.917866,28.0527228 72.1481895,28.6167347 72.6306033,28.9778214 L75.3281954,31 L77.5883123,28.5863954 C77.9925968,28.1553011 78.1089686,27.5639165 77.8935539,27.0352023 C77.6781392,26.506488 77.1636982,26.1208509 76.5441826,26.0236818 C75.9246671,25.9265126 75.2942928,26.1325889 74.8907202,26.5642169 L74.8907137,26.5642169 Z" id="路径" fill="#576DFB"></path>
                <path d="M96,28.3019498 C95.3797564,27.3776692 94.2895718,26.8827752 93.184236,27.0237216 C91.5426778,27.2573995 90.4086452,28.8733247 90.0702973,30.4940386 C89.7319494,32.1147524 89.9830704,33.7919219 89.9881122,35.44746 C89.9948841,37.6711241 89.5257681,39.9497363 88.2852398,41.7965338 C87.0447115,43.6433312 84.9542851,44.9956745 82.7271096,44.9999891 C80.6599062,45.0039957 78.7718387,43.9071176 77,42.8439306" id="路径" stroke="#3F3D56"></path>
                <path d="M99.7333465,26.4256853 C99.9476239,25.8046859 99.8088554,25.1184 99.3693138,24.6253446 C98.9297721,24.1322893 98.2562342,23.9073714 97.6024152,24.0353155 C96.9485962,24.1632595 96.4138268,24.6246276 96.1995494,25.2456269 L95,28.7220286 L98.5337971,29.9020869 C99.5096283,30.2279533 100.569224,29.7139011 100.90047,28.7539193 C101.231717,27.7939375 100.709178,26.7515516 99.7333465,26.4256853 Z" id="路径" fill="#576DFB"></path>
                <path d="M94.7333426,33.425689 C94.9476216,32.8046901 94.8088544,32.1184038 94.3693131,31.6253475 C93.9297718,31.1322913 93.2562332,30.907372 92.6024129,31.0353147 C91.9485926,31.1632574 91.4138213,31.6246244 91.1995422,32.2456233 L90,35.7220226 L93.5338003,36.9020883 C94.5096324,37.2279522 95.5692272,36.7138986 95.9004716,35.7539174 C96.2317161,34.7939363 95.7091746,33.7515529 94.7333426,33.425689 Z" id="路径" fill="#576DFB"></path>
                <path d="M92.2262204,22.8078149 C91.8675564,22.2583916 91.258197,21.9526983 90.6278667,22.0059791 C89.9975364,22.05926 89.4420892,22.4634128 89.1709249,23.0660745 C88.8997606,23.6687362 88.9541151,24.3782605 89.313497,24.9271614 L91.3224103,28 L94.235135,25.8806549 C95.0394617,25.2954135 95.2417864,24.133103 94.68704,23.2845616 C94.1322936,22.4360203 93.0305471,22.2225735 92.2262204,22.8078149 Z" id="路径" fill="#576DFB"></path>
                <path d="M88.7286749,5.03611567 C89.793092,4.86174594 90.8608841,5.32776092 91.4866029,6.23975424 C92.3985524,7.61083359 91.9945502,9.55261326 91.06458,10.9105468 C90.1346099,12.2684803 88.7773763,13.2300507 87.5971318,14.3584225 C86.0118654,15.8740046 84.7000702,17.7783124 84.201875,19.9565527 C83.7036799,22.1347931 84.1151575,24.6020466 85.5747682,26.2483977 C86.929538,27.7764979 88.949287,28.4196053 90.8687524,29" id="路径" stroke="#3F3D56"></path>
                <path d="M86.6403626,0.970535458 C86.9448974,0.388030592 87.5258603,0.018316537 88.164408,0.000661009538 C88.8029557,-0.0169945179 89.4020777,0.320090777 89.7360906,0.884940117 C90.0701034,1.44978946 90.0882626,2.15658878 89.7837276,2.73909361 L88.0789169,6 L84.9355519,4.23144048 C84.3740438,3.91551801 84.0176563,3.31283096 84.0006372,2.65040573 C83.9836181,1.98798051 84.3085529,1.36645525 84.8530419,1.01995251 C85.3975309,0.673449781 86.0788532,0.654611585 86.6403613,0.970534091 L86.6403626,0.970535458 Z" id="路径" fill="#576DFB"></path>
                <path d="M85.6403626,9.97053546 C85.9448974,9.38803059 86.5258603,9.01831654 87.164408,9.00066101 C87.8029557,8.98300548 88.4020777,9.32009078 88.7360906,9.88494012 C89.0701034,10.4497895 89.0882626,11.1565888 88.7837276,11.7390936 L87.0789169,15 L83.9355519,13.2314405 C83.3740438,12.915518 83.0176563,12.312831 83.0006372,11.6504057 C82.9836181,10.9879805 83.3085529,10.3664552 83.8530419,10.0199525 C84.3975309,9.67344978 85.0788532,9.65461158 85.6403613,9.97053409 L85.6403626,9.97053546 Z" id="路径" fill="#576DFB"></path>
                <path d="M94.1757399,5.37374755 C94.740317,5.29183806 95.3055296,5.51856223 95.6582785,5.96843941 C96.0110274,6.4183166 96.0976649,7.02292736 95.8855265,7.55431844 C95.6733882,8.08570952 95.1947369,8.46306445 94.6300362,8.54411107 L91.4707483,9 L91.0164532,5.82963648 C90.8910027,4.95416509 91.4965354,4.14240109 92.3689484,4.01651084 C93.2413613,3.89062059 94.0502894,4.49827616 94.1757399,5.37374755 Z" id="路径" fill="#576DFB"></path>
                <rect id="矩形" fill="#FBBEBE" x="56" y="42" width="3" height="2"></rect>
                <rect id="矩形" fill="#000000" opacity="0.1" x="56" y="42" width="3" height="2"></rect>
                <circle id="椭圆形" fill="#2F2E41" cx="50" cy="14" r="4"></circle>
                <path d="M59,41.2394678 C59,41.2394678 57.3726607,40.9135255 57.0471928,41.0221729 C56.721725,41.1308204 58.1863303,42 58.1863303,42 L59,41.2394678 Z" id="路径" fill="#FBBEBE"></path>
                <path d="M59,41.2394678 C59,41.2394678 57.3726607,40.9135255 57.0471928,41.0221729 C56.721725,41.1308204 58.1863303,42 58.1863303,42 L59,41.2394678 Z" id="路径" fill="#000000" opacity="0.1"></path>
                <path d="M49.9216439,73 C49.9216439,73 53.0154482,73.4143223 53.5535011,73.4143223 C54.0915541,73.4143223 55.5711996,73.9667519 54.7641202,74.657289 C53.9570408,75.3478261 48.8455381,76.314578 48.1729719,75.9002558 C47.5004058,75.4859335 46.5588132,74.2429668 47.2313793,74.1048593 C47.9039455,73.9667519 49.9216439,73 49.9216439,73 Z" id="路径" fill="#3F3D56"></path>
                <polygon id="路径" fill="#FBBEBE" points="45.025641 77.7142857 44 79.7142857 45.2820513 80.4285714 47.7179487 81 49 79.1428571 48.4871795 77"></polygon>
                <path d="M52,65 C52,65 50.2068966,72.2368421 50.4827586,72.6315789 C50.7586207,73.0263158 51.3103448,74.0789474 50.7586207,74.4736842 C50.2068966,74.8684211 48,75 48,75 L48.6896552,71.1842105 L49.6551724,66.5789474 L52,65 Z" id="路径" fill="#2F2E41"></path>
                <path d="M46.9116226,50.5091797 L48.6321269,57.9417867 C48.6321269,57.9417867 48.8968199,61.595102 48.2350875,62.9808423 C47.573355,64.3665826 44,78.9798438 44,78.9798438 C44,78.9798438 47.7057015,79.1058202 48.4997804,78.727891 C49.2938593,78.3499618 50.6331277,69.6241883 50.6331277,69.6241883 C50.6331277,69.6241883 54.9847581,61.3431492 54.8524116,59.7054562 C54.7200651,58.0677631 55.5099751,49.7486603 54.3871145,49.1211064 C53.2642538,48.4935524 46.9116226,50.5091797 46.9116226,50.5091797 Z" id="路径" fill="#2F2E41"></path>
                <path d="M47.5056096,80.5547152 L49.0371166,78.9757928 C49.0371166,78.9757928 53.1211353,81.0810227 53.7592632,81.2125995 C54.3973911,81.3441764 55.8012725,82.3967913 54.3973911,82.7915219 C52.9935097,83.1862525 47.7608608,82.9230987 46.484605,82.7915219 C45.2083491,82.659945 42.6558375,82.5283681 43.0387142,81.738907 C43.421591,80.9494458 44.0597189,78.1863317 44.0597189,78.1863317 C44.0597189,78.1863317 44.4124479,77.6835949 44.6189601,78.3296939 C44.8254724,78.9757928 44.953098,79.8968309 45.4636003,79.8968309 C45.9741026,79.8968309 47.5056096,80.5547152 47.5056096,80.5547152 Z" id="路径" fill="#3F3D56"></path>
                <path d="M66.5925054,48.25 L70.4097362,48 L73,49.25 L72.7273407,50.75 L71.6367033,51 C71.6367033,51 68.6374505,49.875 66.8651648,50.25 C65.0928791,50.625 66.5925054,48.25 66.5925054,48.25 Z" id="路径" fill="#A0616A"></path>
                <path d="M70.9625614,48.4489796 C70.9625614,48.4489796 72.2643933,49.9222465 70.9625614,50.4713273 C70.9625614,50.4713273 71.1992581,50.8979592 72.146045,51.0204082 C73.0928319,51.1428571 74.3946638,52 74.7497089,52 C75.104754,52 76.6432826,51.755102 75.6964958,50.4081633 C74.7497089,49.0612245 70.9625614,46.122449 70.9625614,46.122449 C70.9625614,46.122449 69.8974261,45.6326531 69.5423811,46.6122449 C69.187336,47.5918367 69,47.8155939 69,47.8155939 C69,47.8155939 70.7258647,48.2040816 70.9625614,48.4489796 Z" id="路径" fill="#2F2E41"></path>
                <path d="M61,61.5676077 C61,61.5676077 62.173913,65.723228 62.173913,65.9676763 C62.173913,66.2121245 63.7391304,64.9898833 63.7391304,64.9898833 L64,62.789849 C64,62.789849 62.9565217,61.812056 62.9565217,61.2009354 C62.9565217,60.5898147 61,61.5676077 61,61.5676077 Z" id="路径" fill="#A0616A"></path>
                <path d="M62.5433071,64.5107873 C62.5433071,64.5107873 61.6430446,65.6406416 61,65.2640235 L61.3858268,69.5323619 C61.3858268,69.5323619 61.6430446,71.6665311 62.5433071,70.7877556 C63.4435696,69.90898 64.343832,65.5151022 64.343832,65.5151022 C64.343832,65.5151022 65.6299213,62.8787756 64.6010499,62.5021575 C64.0170445,62.2837821 63.4145676,62.1157542 62.8005249,62 C62.8005249,62 62.8005249,64.6363267 62.5433071,64.5107873 Z" id="路径" fill="#2F2E41"></path>
                <path d="M55,49.2597468 L58.683948,57.3118973 C58.683948,57.3118973 59.9119306,61.8574661 60.4031237,61.9873395 C60.8943167,62.1172129 62.7362907,61.2080991 62.9818873,61.0782257 C63.2274838,60.9483523 60.8943167,55.8832899 60.8943167,54.9741762 C60.8943167,54.0650624 58.0699566,49 58.0699566,49 L55,49.2597468 Z" id="路径" fill="#FF6584"></path>
                <path d="M55,49.2597468 L58.683948,57.3118973 C58.683948,57.3118973 59.9119306,61.8574661 60.4031237,61.9873395 C60.8943167,62.1172129 62.7362907,61.2080991 62.9818873,61.0782257 C63.2274838,60.9483523 60.8943167,55.8832899 60.8943167,54.9741762 C60.8943167,54.0650624 58.0699566,49 58.0699566,49 L55,49.2597468 Z" id="路径" fill="#000000" opacity="0.1"></path>
                <path d="M57.3576366,36.2949782 C57.3576366,36.2949782 57.4844924,38.9724528 56.9770691,40.7574359 C56.4696459,42.5424189 57.6113482,48.4073633 57.6113482,48.4073633 C57.6113482,48.4073633 59.5141852,48.5348621 60.0216084,48.4073633 C60.5290316,48.2798645 67.379245,48.1523657 67.7598124,48.4073633 C68.1403798,48.6623609 68.013524,53.1248185 67.7598124,52.9973197 C67.5061008,52.8698209 60.909599,51.4673342 57.738204,51.9773294 C54.5668089,52.4873246 54.1862415,51.7223318 54.0593857,51.4673342 C53.9325299,51.2123367 51.7759812,44.327402 51.7759812,44.327402 L51.0148464,41.0124335 L50,37.4424673 L50.634279,34 L57.3576366,36.2949782 Z" id="路径" fill="#FF6584"></path>
                <circle id="椭圆形" fill="#A0616A" cx="49.5" cy="15.5" r="3.5"></circle>
                <circle id="椭圆形" fill="#FBBEBE" cx="43.5" cy="24.5" r="3.5"></circle>
                <path d="M51,18.0924017 C51,18.0924017 53.25,19.6864629 52.875,20.6163319 C52.5,21.5462009 51.5,22.6089083 51.5,22.6089083 L51.375,24.070131 L53.25,24.7343231 L58,25 C58,25 57.75,20.4834934 56.25,19.2879476 C54.75,18.0924017 53,17.2953712 52.75,16.2326638 C52.5,15.1699563 51,18.0924017 51,18.0924017 Z" id="路径" fill="#A0616A"></path>
                <path d="M57.1052202,22.0014848 C56.188732,20.534997 53.61019,20.7131925 53.0757917,22.3123481 C52.9340181,22.7039633 52.9928846,23.1287119 53.2377588,23.4810138 C54.218062,24.9204345 54.9182786,26 54.9182786,26 L57.9992316,25.7600965 C57.9992316,25.7600965 58.0598101,23.5289369 57.1052202,22.0014848 Z" id="路径" fill="#A0616A"></path>
                <path d="M51.2479611,22 C51.2479611,22 47.7481782,24.1276963 48.0144593,25.5387904 C48.2807404,26.9498844 48.5470215,29.3872287 48.5470215,30.2851976 C48.5470215,31.1831666 49.4790053,34.0053547 50.8104107,34.5184798 C52.1418161,35.0316049 52.1418161,33.6205108 54.0057837,35.2881674 C55.8697513,36.955824 57.8668595,37.7255117 57.7337189,37.9820743 C57.6005784,38.2386368 58.2662811,35.6730113 57.2011567,34.6467611 C56.1360324,33.6205108 54.9377675,30.6700415 56.0028919,29.3872287 C57.0680162,28.1044159 58,24.7691027 58,24.7691027 C58,24.7691027 57.8668595,23.9994151 57.0680162,24.1276963 C56.2691729,24.2559776 51.3429729,23.7428525 51.0766918,23.1014461 C50.9184822,22.7319731 50.984318,22.3085779 51.2479611,22 Z" id="路径" fill="#2F2E41"></path>
                <path d="M51.0000038,23.7797569 C51.0000038,23.7797569 54.5062821,19.8725027 55.0173111,20.0032076 C55.5283401,20.1339126 57,21.6807075 57,21.6807075 L55.0173111,20.2646175 L51,24 L51.0000038,23.7797569 Z" id="路径" fill="#2F2E41"></path>
                <path d="M45.8174788,25 C45.8174788,25 46.2954615,30.1501631 46.9472145,30.6311184 C47.5989676,31.1120737 42,30.9847388 42,30.9847388 C42,30.9847388 43.2724929,27.0373579 42.5089972,26.5280184 C41.7455014,26.0186789 45.8174788,25 45.8174788,25 Z" id="路径" fill="#FBBEBE"></path>
                <path d="M47.5420561,28.7084755 C47.5420561,28.7084755 43.0934579,27.5517362 42.5700935,28.1943691 C42.046729,28.8370021 41,34.3636452 41,34.3636452 C41,34.3636452 41.5233645,38.0909162 42.4392523,40.7899744 C43.3551402,43.4890327 44.5327103,53 45.4485981,53 C46.364486,53 47.9345794,51.5862076 48.3271028,51.5862076 C48.7196262,51.5862076 51.0747664,50.4294683 52.5140187,50.6865215 C53.3407477,50.8462959 54.1949125,50.8021351 55,50.5579949 C55,50.5579949 54.3457944,45.1598783 52.7757009,43.7460859 C51.2056075,42.3322935 50.4205607,32.564273 50.4205607,32.564273 C50.4205607,32.564273 48.1962617,28.4514223 47.5420561,28.7084755 Z" id="路径" fill="#3F3D56"></path>
                <path d="M54,40.8092178 C54,40.8092178 55.421099,42.6706702 56.8352141,42.765168 L57.6244267,42.7390501 C57.6244267,42.7390501 56.3746244,45.8750277 56.9995256,45.9956422 C57.6244267,46.1162567 59.4991302,43.7039663 58.874229,42.3772066 C58.2493279,41.0504469 56.3746244,39 56.3746244,39 L54,40.8092178 Z" id="路径" fill="#FBBEBE"></path>
                <path d="M59.194589,41 C59.194589,41 57.4574747,42.8382979 58.1727571,43.6425532 C58.8880394,44.4468085 59.8076881,43.6425532 59.8076881,43.6425532 C59.8076881,43.6425532 60.5229705,42.493617 59.194589,41 Z" id="路径" fill="#FBBEBE"></path>
                <path d="M59.194589,41 C59.194589,41 57.4574747,42.8382979 58.1727571,43.6425532 C58.8880394,44.4468085 59.8076881,43.6425532 59.8076881,43.6425532 C59.8076881,43.6425532 60.5229705,42.493617 59.194589,41 Z" id="路径" fill="#000000" opacity="0.1"></path>
                <circle id="椭圆形" fill="#2F2E41" cx="51" cy="13" r="4"></circle>
                <circle id="椭圆形" fill="#2F2E41" cx="52.5" cy="10.5" r="2.5"></circle>
                <path d="M50.5727935,9.49998103 C50.5729304,8.22122961 51.6201245,7.14870128 53,7.01405432 C52.9051457,7.00479301 52.8098314,7.00010201 52.7144463,7.00000048 C51.7107166,6.99942728 50.7886746,7.50965604 50.3174882,8.32640097 C49.8463017,9.1431459 49.9029875,10.1329079 50.4648497,10.8994053 C51.0267118,11.6659027 52.0019125,12.0838494 53,11.9859077 C51.6201242,11.8512614 50.5729298,10.7787327 50.5727935,9.49998103 Z" id="路径" fill="#2F2E41"></path>
                <ellipse id="椭圆形" fill="#2F2E41" cx="50" cy="15.5" rx="3" ry="2.5"></ellipse>
                <path d="M43.8883032,22.2334477 C43.8452366,22.477156 43.7428344,22.7220745 43.8293375,22.9730362 C43.8934345,23.1589961 44.0494893,23.3064152 44.1432037,23.482539 C44.3318621,23.8370978 44.2068619,24.2909688 43.8822954,24.4298905 C43.699798,24.3185933 43.4855064,24.2802898 43.2785007,24.3219654 C43.0832745,24.3683188 42.9521284,24.5621247 42.9738091,24.7722344 C43.0170822,25.0720808 43.3479638,25.2641632 43.5162642,25.5316496 C43.6196672,25.732043 43.6892254,25.9499331 43.7218186,26.1755462 C43.8046214,26.5256967 43.9503546,26.8733618 43.9671966,27.2236473 C43.9840387,27.5739328 43.8226978,27.9441607 43.4936404,27.9943089 C43.216946,28.0364726 42.9194768,27.8383782 42.7193696,27.5978967 C42.5192623,27.3574152 42.3842405,27.0721743 42.2009286,26.8189987 C41.6052784,25.9963398 40.5872424,25.6129645 39.8978286,24.8664161 C39.0144468,23.9098257 38.8273399,22.4927991 39.1433969,21.3632896 C39.2761223,20.8889607 39.4957135,20.4355455 39.8688921,20.1461312 C40.2605147,19.8424113 40.7835178,19.7452768 41.2220953,19.5090856 C41.6911054,19.2565124 42.0508989,18.8524754 42.4657045,18.5226893 C42.8805101,18.1929033 43.3943841,17.9284761 43.9605114,18.0174106 C44.3553783,18.0794401 44.7299289,18.3064885 45.1218145,18.4135839 C45.5478116,18.5365309 46.001197,18.4970497 46.4023792,18.302071 L46.0382977,18.7147756 C46.3002801,18.824469 46.5824881,18.8696425 46.8634771,18.8468632 C46.7502977,19.0918638 46.5518545,19.2811841 46.3096174,19.3752605 C46.5055871,19.5372177 46.7519376,19.6156518 47,19.5950672 C46.7297412,19.9211733 46.4394637,20.2605176 46.0231103,20.3741367 C45.81917,20.4297905 45.5970475,20.4270987 45.3865253,20.4634386 C44.9377908,20.5408982 44.5599911,20.7911172 44.1936095,21.036681 C44.0012238,21.1656224 43.7592388,21.3118572 43.7606083,21.5795216 C43.7617565,21.80242 43.9323213,21.9843793 43.8883032,22.2334477 Z" id="路径" fill="#2F2E41"></path>
                <path d="M45.3113937,30.1828571 C45.3113937,30.1828571 44.2003716,34.3314286 46.175522,35.2114286 C48.1506724,36.0914286 52.22442,39.36 52.9651014,40.4914286 C53.7057828,41.6228571 54.5699111,42 54.5699111,42 C54.5699111,42 57.5326367,39.4857143 56.9154022,38.7314286 C56.2981677,37.9771429 53.8292297,35.7142857 53.8292297,35.7142857 C53.8292297,35.7142857 47.5334379,28.8 45.3113937,30.1828571 Z" id="路径" fill="#3F3D56"></path>
                <path d="M54.8687483,30.6065171 C54.8687483,30.6065171 50.0466928,29.2835106 48.585796,29.0632043 C47.1248991,28.8428981 43.3186004,29.2208164 44.1061105,29.8506804 C44.8936205,30.4805443 49.4874294,30.9844354 49.4874294,30.9844354 L55,33 L54.8687483,30.6065171 Z" id="路径" fill="#A0616A"></path>
                <path d="M54.731435,25.3802817 C54.731435,25.3802817 55.1186652,27.915493 55.1186652,28.8028169 C55.1186652,29.6901408 55.764049,30.4507042 55.247742,30.4507042 C54.731435,30.4507042 54.3442047,29.943662 54.3442047,30.4507042 C54.3442047,30.9577465 53.5697441,34 54.3442047,34 C55.1186652,34 57.0548166,33.4929577 57.4420469,33.4929577 C57.8292771,33.4929577 59.1200447,33.2394366 58.9909679,31.8450704 C58.8618912,30.4507042 58.3455842,28.9295775 58.6037377,28.6760563 C58.8618912,28.4225352 58.9909679,27.1549296 58.7328144,26.9014085 C58.4746609,26.6478873 57.8292771,25 57.8292771,25 L54.731435,25.3802817 Z" id="路径" fill="#2F2E41"></path>
                <g id="分组" opacity="0.3" transform="translate(81.000000, 50.000000)" fill="#576DFB">
                    <path d="M1.09139739,0.929821304 C0.590124783,0.869627069 0.134965974,1.22719174 0.0747717391,1.72846435 C0.0145775039,2.22973696 0.372142174,2.68489576 0.873414783,2.74509 L2.68868348,2.96307391 L2.90666609,1.14780391 C2.94560493,0.823537392 2.80859177,0.503129146 2.54723815,0.307273858 C2.28588453,0.111418571 1.93989627,0.0698713205 1.6396038,0.198282554 C1.33931134,0.326693787 1.13033623,0.605554784 1.09139739,0.929821304 Z" id="路径"></path>
                </g>
                <g id="分组" opacity="0.3" transform="translate(102.000000, 42.000000)" fill="#576DFB">
                    <path d="M1.3316256,0.53153375 C0.927059589,0.294594977 0.414708245,0.443831831 0.186804604,0.864995319 C-0.0410990364,1.28615881 0.101607796,1.82002106 0.5056752,2.05788125 L1.9709688,2.918245 L2.7969192,1.39189875 C2.94485517,1.11921243 2.94177903,0.785001103 2.78885102,0.515319555 C2.635923,0.245638007 2.35641189,0.0815196476 2.05574111,0.0848651386 C1.75507034,0.0882106296 1.47898849,0.258510938 1.3316256,0.53153375 Z" id="路径"></path>
                </g>
                <g id="分组" opacity="0.3" transform="translate(92.000000, 53.000000)" fill="#576DFB">
                    <path d="M1.09139739,0.929821304 C0.767130871,0.890882462 0.446722624,1.02789562 0.250867337,1.28924924 C0.0550120493,1.55060286 0.0134647988,1.89659112 0.141876032,2.19688359 C0.270287266,2.49717605 0.549148262,2.70615116 0.873414783,2.74509 L2.68868348,2.96307391 L2.90666609,1.14780391 C2.94560493,0.823537392 2.80859177,0.503129146 2.54723815,0.307273858 C2.28588453,0.111418571 1.93989627,0.0698713205 1.6396038,0.198282554 C1.33931134,0.326693787 1.13033623,0.605554784 1.09139739,0.929821304 Z" id="路径"></path>
                </g>
            </g>
        </g>
    </g>
</svg>