<?xml version="1.0" encoding="UTF-8"?>
<svg width="216px" height="252px" viewBox="0 0 216 252" version="1.1" xmlns="http://www.w3.org/2000/svg" xmlns:xlink="http://www.w3.org/1999/xlink">
    <!-- Generator: Sketch 52.2 (67145) - http://www.bohemiancoding.com/sketch -->
    <title>矩形 copy 43</title>
    <desc>Created with Sketch.</desc>
    <defs>
        <linearGradient x1="97.8616898%" y1="100%" x2="4.04803241%" y2="0%" id="linearGradient-1">
            <stop stop-color="#7E65FD" offset="0%"></stop>
            <stop stop-color="#3574FA" offset="100%"></stop>
        </linearGradient>
    </defs>
    <g id="Page-1" stroke="none" stroke-width="1" fill="none" fill-rule="evenodd">
        <g id="拍信云首页" transform="translate(-549.000000, -1275.000000)">
            <rect id="矩形-copy-43" fill="url(#linearGradient-1)" x="549" y="1275" width="216" height="252" rx="8"></rect>
            <g id="undraw_personal_data_29co-copy" transform="translate(608.000000, 1323.000000)">
                <path d="M92.2897248,30.0631933 C87.8910679,12.900844 72.6923241,0.512027686 54.8522869,0.0151233548 C45.4207937,-0.247575426 35.4962304,2.85616652 28.270417,13.7172937 C15.3534954,33.1327293 29.0641926,46.5493911 38.622928,52.924722 C43.2409563,56.0109908 47.402057,59.7219633 50.9857065,63.9501534 C57.4423218,71.5525307 69.8633755,80.9995539 84.65629,66.1975223 C95.3782131,55.4689888 95.2196646,41.4950129 92.2897248,30.0631933 Z" id="路径" fill="#F2F2F2"></path>
                <path d="M97,56.3159934 C97,64.6337846 76.1140835,79 49.3282732,79 C22.5424629,79 0,65.005654 0,56.6878618 C0,48.3700695 40.217268,35.305397 49.3282732,48.8786136 C58.4392784,62.4518303 97,47.9982021 97,56.3159934 Z" id="路径" fill="#3F3D56"></path>
                <path d="M97,56.3159934 C97,64.6337846 76.1140835,79 49.3282732,79 C22.5424629,79 0,65.005654 0,56.6878618 C0,48.3700695 40.217268,35.305397 49.3282732,48.8786136 C58.4392784,62.4518303 97,47.9982021 97,56.3159934 Z" id="路径" fill="#000000" opacity="0.1"></path>
                <path d="M97,57.2314034 C97,65.3878742 75.2858152,72 48.5,72 C21.7141848,72 0,65.3878751 0,57.2314034 C0,49.0749317 39.3889948,29.1528378 48.5,42.4628078 C57.6110052,55.7727779 97,49.0749337 97,57.2314034 Z" id="路径" fill="#3F3D56"></path>
                <ellipse id="椭圆形" fill="#000000" opacity="0.1" cx="67" cy="59.5" rx="14" ry="5.5"></ellipse>
                <ellipse id="椭圆形" fill="#000000" opacity="0.1" cx="10.5" cy="56.5" rx="7.5" ry="2.5"></ellipse>
                <path d="M2,44 C2,50.0800782 5.57812509,55 10,55" id="路径" fill="#2F2E41"></path>
                <path d="M10,55 C10,48.9199215 14.0253917,44 19,44" id="路径" fill="#576DFB"></path>
                <path d="M5,45 C5,50.5273438 7.23632825,55 10,55" id="路径" fill="#576DFB"></path>
                <path d="M10,55 C10,47.2617193 14.9199218,41 21,41" id="路径" fill="#2F2E41"></path>
                <path d="M9,54.5719541 C9,54.5719541 10.0749817,54.5393534 10.3989535,54.3121979 C10.7229253,54.0850425 12.0525459,53.8138047 12.1329156,54.1781136 C12.2132853,54.5424225 13.7484129,55.990017 12.5347639,55.9996579 C11.3211149,56.0092988 9.7147886,55.8135149 9.39143515,55.6195735 C9.0680817,55.4256321 9,54.5719541 9,54.5719541 Z" id="路径" fill="#A8A8A8"></path>
                <path d="M12.5566717,55.9110428 C11.3429379,55.9177911 9.73649945,55.7808208 9.41312341,55.6451419 C9.16685899,55.5418154 9.06872462,55.1710551 9.03589032,55 C9.0131499,55.0006736 9,55.000964 9,55.000964 C9,55.000964 9.06809184,55.5981808 9.39146338,55.7338603 C9.71483492,55.8695399 11.3212779,56.0065059 12.5350117,55.9997606 C12.8853679,55.9978148 13.0063874,55.9119548 12.9997424,55.7847881 C12.9510698,55.8616201 12.8174468,55.9095947 12.5566717,55.9110428 Z" id="路径" fill="#000000" opacity="0.2"></path>
                <ellipse id="椭圆形" fill="#000000" opacity="0.1" cx="37" cy="42.5" rx="10" ry="3.5"></ellipse>
                <path d="M26,26 C26,33.7382816 30.9199219,40 37,40" id="路径" fill="#2F2E41"></path>
                <path d="M37,40 C37,32.2617185 42.3671891,26 49,26" id="路径" fill="#576DFB"></path>
                <path d="M30,27 C30,34.1855473 33.1308596,40 37,40" id="路径" fill="#576DFB"></path>
                <path d="M37,40 C37,30.0507807 43.2617184,22 51,22" id="路径" fill="#2F2E41"></path>
                <path d="M35,39.8579271 C35,39.8579271 36.3437265,39.809026 36.7486919,39.4682964 C37.1536573,39.1275668 38.8156818,38.720706 38.9161443,39.2671695 C39.0166068,39.813633 40.9355157,41.9850275 39.4184552,41.999487 C37.9013946,42.0139465 35.8934804,41.7202671 35.4892942,41.4293583 C35.0851081,41.1384495 35,39.8579271 35,39.8579271 Z" id="路径" fill="#A8A8A8"></path>
                <path d="M39.4458387,41.82209 C37.928672,41.8355805 35.9206189,41.561645 35.5164036,41.2902862 C35.2085729,41.0836357 35.0859056,40.3421099 35.0448619,40 C35.0164374,40.001345 35,40.0019214 35,40.0019214 C35,40.0019214 35.085114,41.1963597 35.4893294,41.4677185 C35.8935447,41.7390772 37.9015969,42.0130117 39.4187645,41.9995213 C39.8567097,41.9956285 40.0079846,41.8239087 39.9996779,41.5695748 C39.9388372,41.7232427 39.7718084,41.8191935 39.4458387,41.82209 Z" id="路径" fill="#000000" opacity="0.2"></path>
                <path d="M65.4999942,5 L65.5000029,5 C67.9852827,5 70,7.01471538 70,9.49999275 L70,14 L61,14 L61,9.49999371 C61,7.01471635 63.0147173,5.00000097 65.4999971,5.00000097 L65.4999942,5 Z" id="路径" fill="#2F2E41"></path>
                <path d="M69,14.0769224 L68.9315922,14.5053837 L68.6818203,16.0769227 L68.6818203,18.4615378 L65.8181862,19.7692309 L63.1931821,20 L62.1590903,16.7338441 L62,16.2307704 C62,16.2307704 62.0461422,16.2007694 62.1264838,16.1492319 C62.1964744,16.1030753 62.2935172,16.0399984 62.4096601,15.9646145 C62.7612543,15.7361554 63.2830676,15.3930771 63.7499987,15.076924 C64.5454524,14.5384625 63.7499987,11.2307701 63.7499987,11.2307701 L66.3749968,11 C66.3749968,11 66.6136329,11.6153849 66.8522689,12.9230779 C67.0312461,13.9038473 68.149659,14.0623082 68.6977156,14.0799992 C68.7984561,14.0845051 68.8993799,14.0834778 69,14.0769224 Z" id="路径" fill="#FFB9B9"></path>
                <polygon id="路径" fill="#FFB9B9" points="61 50.233806 61 56 62.3333615 56 63 50"></polygon>
                <path d="M62.2256813,54.143199 L61.3355724,54 C61.3355724,54 60.9646931,56.8639692 60.5938137,57.5083628 C60.2229344,58.1527563 58.2201883,60.801928 59.3328254,60.945126 C60.4454625,61.0883241 61.928978,60.945126 62.0031541,60.5871295 C62.0773302,60.229133 62.6707367,58.0811568 62.7449128,58.2243548 C62.8190889,58.3675529 62.7449128,59.799538 62.7449128,59.799538 L63.0416151,59.799538 L63.0416151,58.0811568 C63.0416151,58.0811568 64.3026044,57.2219657 63.931725,56.7923707 C63.5608457,56.3627756 63.1899673,55.2887861 63.1899673,55.2887861 L63.2641433,54.2147975 L62.2256813,54.143199 Z" id="路径" fill="#2F2E41"></path>
                <polygon id="路径" fill="#FFB9B9" points="73 50.233806 73 56 71.6666385 56 71 50"></polygon>
                <path d="M71.7743178,54.143199 L72.6644276,54 C72.6644276,54 73.035307,56.8639692 73.4061863,57.5083628 C73.7770657,58.1527563 75.7798117,60.801928 74.6671746,60.945126 C73.5545375,61.0883241 72.071021,60.945126 71.9968459,60.5871295 C71.9226708,60.229133 71.3292633,58.0811568 71.2550872,58.2243548 C71.1809112,58.3675529 71.2550872,59.799538 71.2550872,59.799538 L70.958384,59.799538 L70.958384,58.0811568 C70.958384,58.0811568 69.6973957,57.2219657 70.068275,56.7923707 C70.4391544,56.3627756 70.8100328,55.2887861 70.8100328,55.2887861 L70.7358567,54.2147975 L71.7743178,54.143199 Z" id="路径" fill="#2F2E41"></path>
                <circle id="椭圆形" fill="#FFB9B9" cx="65" cy="10" r="3"></circle>
                <path d="M74,22.5113041 L72.2638895,29.5148662 L72.0555564,32 L70.8055569,29.5148662 C70.8055569,29.5148662 71.5000009,28.3852598 71.6388893,27.6321893 C71.7777778,26.8791187 72.4027789,22.8878418 72.4027789,22.8878418 L70.4500015,18.3355274 L70.3694436,18.1480135 L69.694444,18.1434905 L69,17.1644969 L69.4166662,15.9595832 L69.4166662,15.0559027 L69.148612,14.5716786 L69,14.3028321 L69.2083331,14.1522184 L70.3194442,14.0016037 C70.3650113,13.9976753 70.4108631,14.0009736 70.4555524,14.0113946 C70.7465271,14.0693778 71.4493049,14.4157931 71.98611,16.3361238 C72.6805558,18.8212566 74,22.5113041 74,22.5113041 Z" id="路径" fill="#FFB9B9"></path>
                <path d="M64,21.4565716 L64,25.9999265 L61.7294208,32.9663986 C61.7294208,32.9663986 61.1789775,35.8438556 59.5276448,35.9953002 C57.8763121,36.1467449 60.6285332,32.5877855 60.6285332,32.5877855 L62.4174792,25.0912538 L62.4174792,21.1536814 C62.4174792,21.1536814 61.9358407,19.1091724 61.7982292,18.2004978 C61.6957099,17.5220213 61.8993716,16.8018998 62.0094665,16.4800784 C62.0466162,16.3710383 62.0734513,16.3074334 62.0734513,16.3074334 L62.9679243,16.0045431 L63.0773308,16 L63.1055349,16.5754901 L63.1743406,17.9733293 L64,21.4565716 Z" id="路径" fill="#FFB9B9"></path>
                <path d="M70.3613455,24.0689658 C70.3613455,24.0689658 70.9179642,25.5862072 70.9974803,25.655173 C71.0769964,25.7241387 69.2481102,26 69.2481102,26 L65.7493701,26 L64,25.310345 L64.1590332,24 L70.3613455,24.0689658 Z" id="路径" fill="#FFB9B9"></path>
                <path d="M70.7764548,25.2401608 C70.7764548,25.2401608 70.6176514,26.9239975 71.0146589,27.5363019 C71.4116664,28.1486063 72.4438846,29.2966769 72.7614904,32.6643503 C73.0790962,36.0320236 73.4761027,48.737338 73.6349061,49.2731041 C73.7937095,49.8088702 74.2701178,50.497713 73.7937085,50.5742503 C73.3172993,50.6507876 69.5854332,51.4927069 69.5854332,50.5742503 C69.5854332,49.6557936 69.5854332,49.3496424 69.3472281,49.1965658 C69.109023,49.0434892 66.2505677,37.0270185 66.2505677,37.0270185 L63.6303265,49.5027171 C63.6303265,49.5027171 64.6625466,50.8804015 63.0745165,50.7273259 C61.4864865,50.5742503 58.7074368,50.3446354 59.0250427,49.5792554 C59.1893415,49.2075337 59.3221121,48.8235863 59.4220502,48.4311848 L61.0100793,34.6543382 C61.0100793,34.6543382 61.3276841,28.8374481 63.3921224,25.7376578 L63.5509248,25 C63.5509248,25 66.4887788,25.2401608 67.520999,25.5463121 C68.5532191,25.8524633 70.7764548,25.2401608 70.7764548,25.2401608 Z" id="路径" fill="#2F2E41"></path>
                <path d="M69.9909942,18.3061445 C69.9279604,19.1236726 69.5557455,23.9996729 69.6247797,24.5479341 C69.6247797,24.5479341 69.999999,24.9967152 68.8743419,24.7723242 C67.7486848,24.5479332 64.4467574,24.7723242 64.0715381,24.8471212 C63.6963187,24.9219182 63.2460562,25.2211052 63.2460562,24.6975281 C63.2460562,24.173951 63.3961443,22.6032234 63.1710131,22.3788286 C62.9458819,22.1544338 61.8202238,20.2097231 61.8952678,19.686146 C61.9492968,19.3099158 61.3451947,17.5836108 61,16.6404196 C61.0405179,16.5327126 61.069786,16.4698854 61.069786,16.4698854 L62.0453569,16.1706983 L62.1646828,16.1662107 C62.2307125,16.12133 62.3222636,16.0599968 62.4318338,15.9866966 L62.7957947,17.7414306 L62.9458819,18.3398047 C62.9458819,18.3398047 65.4223274,18.3398047 67.3734664,16.9186664 L68.3640415,14.1541767 C68.4590784,14.1585584 68.5542882,14.1575601 68.6492116,14.1511868 L69.8499128,14.0015928 C69.899154,13.997691 69.9487029,14.000967 69.9969955,14.0113174 L68.8743429,17.3674465 L69.9039418,18.1199013 L70,18.1902107 C70,18.1902107 69.9969946,18.2313484 69.9909942,18.3061445 Z" id="路径" fill="#FF6584"></path>
                <polygon id="路径" fill="#2F2E41" points="67.3918803 10 63.8108548 10 63 7 68 7"></polygon>
                <ellipse id="椭圆形" fill="#FFB9B9" transform="translate(62.456560, 10.525310) rotate(-16.160120) translate(-62.456560, -10.525310) " cx="62.4565597" cy="10.5253097" rx="1" ry="1"></ellipse>
                <ellipse id="椭圆形" fill="#FFB9B9" transform="translate(68.251119, 10.525317) rotate(-73.839880) translate(-68.251119, -10.525317) " cx="68.2511192" cy="10.5253173" rx="1" ry="1"></ellipse>
                <rect id="矩形" fill="#FFFFFF" x="43" y="35" width="16" height="20"></rect>
                <rect id="矩形" fill="#2F2E41" x="46" y="40" width="10" height="3" rx="1.5"></rect>
                <circle id="椭圆形" fill="#576DFB" cx="53.5" cy="40.5" r="1"></circle>
                <circle id="椭圆形" fill="#576DFB" cx="54.5" cy="40.5" r="1"></circle>
                <circle id="椭圆形" fill="#576DFB" cx="55.5" cy="40.5" r="1"></circle>
                <rect id="矩形" fill="#2F2E41" x="46" y="44" width="10" height="3" rx="1.5"></rect>
                <circle id="椭圆形" fill="#576DFB" cx="53.5" cy="44.5" r="1"></circle>
                <circle id="椭圆形" fill="#576DFB" cx="54.5" cy="44.5" r="1"></circle>
                <circle id="椭圆形" fill="#576DFB" cx="55.5" cy="44.5" r="1"></circle>
                <rect id="矩形" fill="#2F2E41" x="46" y="47" width="10" height="3" rx="1.5"></rect>
                <circle id="椭圆形" fill="#576DFB" cx="53.5" cy="47.5" r="1"></circle>
                <circle id="椭圆形" fill="#576DFB" cx="54.5" cy="47.5" r="1"></circle>
                <circle id="椭圆形" fill="#576DFB" cx="55.5" cy="47.5" r="1"></circle>
            </g>
        </g>
    </g>
</svg>