<?xml version="1.0" encoding="UTF-8"?>
<svg width="216px" height="252px" viewBox="0 0 216 252" version="1.1" xmlns="http://www.w3.org/2000/svg" xmlns:xlink="http://www.w3.org/1999/xlink">
    <!-- Generator: Sketch 52.2 (67145) - http://www.bohemiancoding.com/sketch -->
    <title>矩形 copy 42</title>
    <desc>Created with Sketch.</desc>
    <defs>
        <linearGradient x1="95.927882%" y1="97.9386713%" x2="6.36117624%" y2="2.46567919%" id="linearGradient-1">
            <stop stop-color="#8363FF" offset="0%"></stop>
            <stop stop-color="#8B63FF" offset="100%"></stop>
        </linearGradient>
    </defs>
    <g id="Page-1" stroke="none" stroke-width="1" fill="none" fill-rule="evenodd">
        <g id="拍信云首页" transform="translate(-316.000000, -1627.000000)">
            <rect id="矩形-copy-42" fill="url(#linearGradient-1)" x="316" y="1627" width="216" height="252" rx="8"></rect>
            <g id="undraw_late_at_night_23xk-copy" transform="translate(370.000000, 1670.000000)">
                <path d="M4.35058495,0 L96.6494151,0 C99.0521768,1.47869714e-16 101,1.95765975 101,4.37255544 L101,67 L0,67 L0,4.37255544 C-2.94253445e-16,1.95765975 1.94782323,4.43609141e-16 4.35058495,0 Z" id="路径" fill="#3F3D56"></path>
                <circle id="椭圆形" fill="#F2F2F2" cx="58" cy="13" r="5"></circle>
                <path d="M0,64 L101,64 L101,72.5739278 C101,74.4660952 99.3843344,76 97.3913098,76 L3.60869021,76 C1.6156661,76 6.46358587e-07,74.4660959 0,72.5739289 L0,64 Z" id="路径" fill="#3F3D56"></path>
                <ellipse id="椭圆形" fill="#000000" opacity="0.1" cx="7" cy="69" rx="6" ry="2"></ellipse>
                <ellipse id="椭圆形" fill="#000000" opacity="0.1" cx="35" cy="69" rx="8" ry="2"></ellipse>
                <path d="M44.9999998,25.907173 L44.9999998,20 L26.3333338,20 L26.3333338,25.907173 L20.5000006,25.907173 L20.5000006,32.8270037 L7,32.8270037 L7,60 L51,60 L51,25.907173 L44.9999998,25.907173 Z M20.3333337,57.2995779 L10.0000007,57.2995779 L10.0000007,55.2742614 L20.3333337,55.2742614 L20.3333337,57.2995779 Z M20.3333337,51.0548527 L10.0000007,51.0548527 L10.0000007,49.0295362 L20.3333337,49.0295362 L20.3333337,51.0548527 Z M20.3333337,44.8101264 L10.0000007,44.8101264 L10.0000007,42.7848098 L20.3333337,42.7848098 L20.3333337,44.8101264 Z M20.3333337,38.5654 L10.0000007,38.5654 L10.0000007,36.5400847 L20.3333337,36.5400847 L20.3333337,38.5654 Z M31.3333334,55.6118147 L25.3333332,55.6118147 L25.3333332,49.535865 L31.3333334,49.535865 L31.3333334,55.6118147 Z M31.3333334,45.8227841 L25.3333332,45.8227841 L25.3333332,39.7468356 L31.3333334,39.7468356 L31.3333334,45.8227841 Z M31.3333334,36.0337546 L25.3333332,36.0337546 L25.3333332,29.9578049 L31.3333334,29.9578049 L31.3333334,36.0337546 Z M46.6666695,55.6118147 L40.666667,55.6118147 L40.666667,49.535865 L46.6666695,49.535865 L46.6666695,55.6118147 Z M46.6666695,45.8227841 L40.666667,45.8227841 L40.666667,39.7468356 L46.6666695,39.7468356 L46.6666695,45.8227841 Z M46.6666695,36.0337546 L40.666667,36.0337546 L40.666667,29.9578049 L46.6666695,29.9578049 L46.6666695,36.0337546 Z" id="形状" fill="#FFC107" fill-rule="nonzero" opacity="0.3"></path>
                <path d="M57,25.907173 L57,60 L100,60 L100,32.8270037 L86.8068224,32.8270037 L86.8068224,25.907173 L81.1060631,25.907173 L81.1060631,20 L62.8636416,20 L62.8636416,25.907173 L57,25.907173 Z M86.9697013,55.2742614 L97.0681856,55.2742614 L97.0681856,57.2995779 L86.9697013,57.2995779 L86.9697013,55.2742614 Z M86.9697013,49.0295362 L97.0681856,49.0295362 L97.0681856,51.0548527 L86.9697013,51.0548527 L86.9697013,49.0295362 Z M86.9697013,42.7848098 L97.0681856,42.7848098 L97.0681856,44.8101264 L86.9697013,44.8101264 L86.9697013,42.7848098 Z M86.9697013,36.5400847 L97.0681856,36.5400847 L97.0681856,38.5654 L86.9697013,38.5654 L86.9697013,36.5400847 Z M76.2197015,49.535865 L82.0833373,49.535865 L82.0833373,55.6118147 L76.2197015,55.6118147 L76.2197015,49.535865 Z M76.2197015,39.7468356 L82.0833373,39.7468356 L82.0833373,45.8227841 L76.2197015,45.8227841 L76.2197015,39.7468356 Z M76.2197015,29.9578049 L82.0833373,29.9578049 L82.0833373,36.0337546 L76.2197015,36.0337546 L76.2197015,29.9578049 Z M61.2348521,49.535865 L67.0984879,49.535865 L67.0984879,55.6118147 L61.2348521,55.6118147 L61.2348521,49.535865 Z M61.2348521,39.7468356 L67.0984879,39.7468356 L67.0984879,45.8227841 L61.2348521,45.8227841 L61.2348521,39.7468356 Z M61.2348521,29.9578049 L67.0984879,29.9578049 L67.0984879,36.0337546 L61.2348521,36.0337546 L61.2348521,29.9578049 Z" id="形状" fill="#FFC107" fill-rule="nonzero" opacity="0.3"></path>
                <path d="M94.6351579,0 L4.35058495,0 C1.94782323,0 0,1.95765972 0,4.37255536 L0,67 L101,67 L101,4.37255536 C101,1.95765972 99.0521768,0 96.6494151,0 L94.6351579,0 Z M6.36484211,7.40703537 L42.5439468,7.40703537 L42.5439468,59.5929635 L6.36484211,59.5929635 L6.36484211,7.40703537 Z M94.6351579,59.5929635 L58.2885571,59.5929635 L58.2885571,7.40703537 L94.6351579,7.40703537 L94.6351579,59.5929635 Z" id="形状" fill="#3F3D56" fill-rule="nonzero"></path>
                <path d="M94.6351579,0 L4.35058495,0 C1.94782323,0 0,1.95765972 0,4.37255536 L0,67 L101,67 L101,4.37255536 C101,1.95765972 99.0521768,0 96.6494151,0 L94.6351579,0 Z M6.36484211,7.40703537 L42.5439468,7.40703537 L42.5439468,59.5929635 L6.36484211,59.5929635 L6.36484211,7.40703537 Z M94.6351579,59.5929635 L58.2885571,59.5929635 L58.2885571,7.40703537 L94.6351579,7.40703537 L94.6351579,59.5929635 Z" id="形状" fill="#000000" fill-rule="nonzero" opacity="0.1"></path>
                <path d="M100,65.856077 C100,71.4873908 92.1063455,69.7455738 82.4413625,69.7455738 C72.7763796,69.7455738 65,71.4873966 65,65.856077 C65,60.2247574 72.8925797,59 82.557558,59 C92.2225363,59 100,60.2247632 100,65.856077 Z" id="路径" fill="#000000" opacity="0.1"></path>
                <path d="M100,64.856077 C100,70.4873908 92.1063455,68.7455738 82.4413625,68.7455738 C72.7763796,68.7455738 65,70.4873966 65,64.856077 C65,59.2247574 72.8925797,58 82.557558,58 C92.2225363,58 100,59.2247632 100,64.856077 Z" id="路径" fill="#3F3D56"></path>
                <path d="M39,47 L38.4802923,51.8752267 C38.4802923,51.8752267 39.2179889,57.0491945 38.8548451,59.6144005 C38.4917012,62.1796065 37.9219811,65 37.9219811,65 L36.4419622,64.8439654 C36.4419622,64.8439654 36.4471273,62.3241095 36.1995071,61.4394051 C35.9518869,60.5547008 35.9230719,56.0924928 35.9230719,56.0924928 C35.9230719,56.0924928 35.0929573,53.6784528 35.2353877,52.9733547 C35.377818,52.2682566 35,48.7663343 35,48.7663343 L39,47 Z" id="路径" fill="#FFB9B9"></path>
                <path d="M30,47 L31.1904762,51.8461538 C31.1904762,51.8461538 31.1904762,57.1538462 31.9047619,59.6923077 C32.6190476,62.2307692 33.5714286,65 33.5714286,65 L35,64.6538462 C35,64.6538462 34.6428571,62.1153846 34.7619048,61.1923077 C34.8809524,60.2692308 34.2857143,55.7692308 34.2857143,55.7692308 C34.2857143,55.7692308 34.7619048,53.2307692 34.5238095,52.5384615 C34.2857143,51.8461538 34.1666667,48.2692308 34.1666667,48.2692308 L30,47 Z" id="路径" fill="#FFB9B9"></path>
                <path d="M35.8607381,68.4990447 C35.8128959,68.6261551 35.7286296,68.7385857 35.6171053,68.8241068 C35.3094881,69.0400431 34.5638167,69.0308543 33.962131,68.9366693 C33.9461189,68.9343721 33.9301388,68.9309206 33.9141255,68.9286211 C33.6498526,68.8966662 33.3934513,68.8224566 33.1561678,68.7092472 C32.7870272,68.4795278 33.1561678,67.9052293 33.4022616,67.9052293 C33.6483553,67.9052293 33.7714022,66.9863519 33.7714022,66.9863519 C33.7830832,66.6772546 33.8242618,66.3697449 33.8944491,66.0674744 C34.017496,65.4931759 33.4022616,64.9188775 33.4022616,64.6891581 C33.4022616,64.4594387 35.3710116,64 35.3710116,64 C35.3710116,64 35.7401522,65.6080356 35.8631991,65.9526147 C35.986246,66.2971937 35.986246,67.3309309 35.986246,67.3309309 C35.986246,67.3309309 36.0613046,68.0281361 35.8607381,68.4990447 Z" id="路径" fill="#2F2E41"></path>
                <path d="M36,68.4387148 C35.9496028,68.5811331 35.8608364,68.7071036 35.7433563,68.8029241 C35.4193111,69.0448654 34.633818,69.03457 34,68.9290424 C34.2255354,68.2250961 34.7077145,66.954904 35.2248906,67.0012332 C35.5981841,67.0346945 35.8470572,67.7579434 36,68.4387148 Z" id="路径" fill="#000000" opacity="0.1"></path>
                <path d="M34,67 L34.188,69 L34.437076,68.9851663 C34.437076,68.9851663 34.8,67.386395 35,67 L34,67 Z" id="路径" fill="#2F2E41"></path>
                <path d="M36.1392619,68.4990447 C36.1871041,68.6261551 36.2713704,68.7385857 36.3828947,68.8241068 C36.6905119,69.0400431 37.4361833,69.0308543 38.0378751,68.9366693 C38.0538872,68.9343721 38.0698673,68.9309206 38.0858806,68.9286211 C38.3501514,68.8966656 38.6065506,68.8224559 38.8438322,68.7092472 C39.2129728,68.4795278 38.8438322,67.9052293 38.5977384,67.9052293 C38.3516447,67.9052293 38.2285978,66.9863519 38.2285978,66.9863519 C38.2169168,66.6772546 38.1757382,66.3697449 38.1055509,66.0674744 C37.982504,65.4931759 38.5977384,64.9188775 38.5977384,64.6891581 C38.5977384,64.4594387 36.6289884,64 36.6289884,64 C36.6289884,64 36.2598478,65.6080356 36.1368009,65.9526147 C36.013754,66.2971937 36.013754,67.3309309 36.013754,67.3309309 C36.013754,67.3309309 35.9386954,68.0281361 36.1392619,68.4990447 Z" id="路径" fill="#2F2E41"></path>
                <path d="M36,68.4387148 C36.050397,68.5811331 36.1391632,68.7071036 36.2566429,68.8029241 C36.580687,69.0448654 37.3661776,69.03457 38,68.9290424 C37.7744653,68.2250961 37.2922878,66.954904 36.7751134,67.0012332 C36.4018146,67.0346945 36.1529488,67.7579434 36,68.4387148 Z" id="路径" fill="#000000" opacity="0.1"></path>
                <path d="M38,67 L37.812,69 L37.562924,68.9851663 C37.562924,68.9851663 37.2,67.386395 37,67 L38,67 Z" id="路径" fill="#2F2E41"></path>
                <circle id="椭圆形" fill="#A0616A" cx="34.5" cy="21.5" r="2.5"></circle>
                <path d="M33.1964361,22.5136135 C33.1964361,22.5136135 33.6715221,24.8914538 32.2462642,25.4859139 C30.8210064,26.0803739 28.6831195,26.43705 29.039434,28.6959983 C29.3957485,30.9549466 40.0851826,29.7660264 40.5602685,28.9337823 C41.0353545,28.1015382 40.916583,27.8637542 40.916583,27.8637542 C40.916583,27.8637542 41.8667549,26.318158 37.3534383,25.1292378 C37.3534383,25.1292378 35.334323,24.8914538 36.0469519,22.9891816 C36.7595808,21.0869093 33.1964361,22.5136135 33.1964361,22.5136135 Z" id="路径" fill="#FFB9B9"></path>
                <path d="M30.8816068,31 C30.8816068,31 31.5978303,38.2344535 30.7622362,39.0646366 C29.9266422,39.8948198 27.7779719,46.4176877 29.9266422,47.4850661 C32.0753126,48.5524444 40.0731411,50.450006 40.7893645,47.1292733 C41.2077908,45.09939 40.9997675,42.9912922 40.1925116,41.0807958 L39.1181765,36.3368919 L39.237547,31.2371952 L30.8816068,31 Z" id="路径" fill="#FFC107"></path>
                <path d="M29.170037,32 L29.7852464,36.3733556 C29.7852464,36.3733556 29.2930789,38.5600333 29.2930789,42.4730357 C29.2930789,46.386038 28.4317858,47.882186 29.6622045,47.9972743 C30.8926232,48.1123626 30.4004557,44.5446252 30.4004557,44.5446252 L32,37.6393269 C32,37.6393269 31.8769581,32.4603532 31.5078325,32.3452649 C31.1387069,32.2301766 29.170037,32 29.170037,32 Z" id="路径" fill="#FFB9B9"></path>
                <path d="M39,31.5761148 L39.1377086,36.5307016 L40.6525038,42.2918491 C40.6525038,42.2918491 39.8262519,46.3246524 41.2033384,45.9789835 C42.5804249,45.6333147 41.754173,42.1766262 41.754173,42.1766262 C41.754173,42.1766262 42.3050076,36.7611475 41.4787557,35.4936951 L41.341047,31 L39,31.5761148 Z" id="路径" fill="#FFB9B9"></path>
                <path d="M33.1086964,17.6093629 C32.9098517,17.7158049 32.7365219,17.863333 32.6004929,18.0419157 C32.516183,18.1873945 32.4515084,18.3431643 32.408119,18.5052507 C32.2354696,19.0246218 31.986174,19.5159317 31.6683032,19.9632745 C31.4440805,20.2786481 31.1817117,20.5799939 31.0655599,20.9479844 C30.9085961,21.4452726 31.0482463,21.9986497 31.327612,22.4403389 C31.6069777,22.8820281 32.0131683,23.2295927 32.4265806,23.5525759 C32.6503864,23.7274329 32.9075455,23.906216 33.1917099,23.881582 C33.3714381,23.8493538 33.5430072,23.7825152 33.6966627,23.6848666 C34.7230659,23.1541723 35.9800496,23.134664 37.0684925,23.5262956 C37.4965549,23.6803157 37.9060167,23.895138 38.35336,23.9801238 C38.5173739,24.0112836 38.7062952,24.0180257 38.8306996,23.9078552 C38.9227514,23.8071528 38.9750676,23.6770574 38.9780827,23.5413558 C39.0239939,23.1537778 38.9976371,22.7611617 38.9003198,22.3829824 C38.8294911,22.1083208 38.7217006,21.8435161 38.6610047,21.5664924 C38.5593882,21.1027046 38.5927416,20.6193977 38.5106065,20.1518523 C38.4177003,19.701514 38.257756,19.2672879 38.0359933,18.8633449 C37.7407183,18.286752 37.3807378,17.7205132 36.8503266,17.3427828 C36.2482745,16.9140283 35.736494,16.9934619 35.0544967,17.0318262 C34.7249233,17.0503668 34.4384447,17.0184997 34.113032,17.1194847 C33.7585517,17.2399027 33.4210508,17.4045233 33.1086964,17.6093629 Z" id="路径" fill="#2F2E41"></path>
                <path d="M31.7429681,29.3157895 C31.7429681,29.3157895 29.9589238,28.5263158 29.602115,28.7894737 C29.2453061,29.0526316 28.7695609,32.0789474 29.1263698,32.3421053 C29.4831787,32.6052632 29.602115,31.9473684 30.0778601,32.4736842 C30.5536053,33 30.5536053,33.1315789 31.1482867,32.8684211 C31.7429681,32.6052632 32.3376496,32.7368421 32.3376496,32.8684211 C32.3376496,33 39.5927632,32.6052632 39.7116995,32.4736842 C39.8306357,32.3421053 40.3063809,32.2105263 40.782126,32.2105263 C41.2578712,32.2105263 41.8525526,31.9473684 42.0904252,31.6842105 C42.3282978,31.4210526 42.0904252,31.5526316 42.4472341,31.5526316 C42.8040429,31.5526316 43.1608518,31.5526316 42.9229792,31.1578947 C42.6851067,30.7631579 41.9714889,28 41.6146801,28 C41.2578712,28 39.7116995,29.9736842 36.0246745,29.7105263 C32.3376496,29.4473684 31.7429681,29.3157895 31.7429681,29.3157895 Z" id="路径" fill="#FFC107"></path>
                <polygon id="路径" fill="#2F2E41" points="8.8615943 69 5.60374706 69 4 64 11 64.1012364"></polygon>
                <polygon id="路径" fill="#000000" opacity="0.1" points="8.8615943 69 5.60374706 69 4 64 11 64.1012364"></polygon>
                <path d="M9,48.8206185 C9.09683375,49.4774891 9.18206918,50.216377 9.231612,51 L10.9790538,48.3735414 L11,48.4084728 C10.7395769,47.8992207 10.3995376,47.4250667 9.98991475,47 L10.0123839,47.0325063 L9,48.8206185 Z" id="路径" fill="#FFC107"></path>
                <path d="M10,47.0471452 C9.74630838,46.5906983 9.42066661,46.2395879 9.05352885,46.02665 C9.03566321,46.0171299 9.01783207,46.0085174 9,46 C9.03133967,46.1973931 9.2101554,47.3578079 9.35533359,49 L10,47.0471452 Z" id="路径" fill="#FFC107"></path>
                <path d="M9.07543207,54.5243402 C9.05288088,54.6852832 9.02773686,54.8438365 9,55 L11.9811044,52.7637332 L11.9959825,52.8046005 C12.0039358,52.5343719 12.0000805,52.2661717 11.9844166,52 L9.08311813,54.5427881 L9.07543207,54.5243402 Z" id="路径" fill="#FFC107"></path>
                <path d="M10.0174289,53 L11.9858681,50.1546281 L12,50.1957497 C11.8772195,49.4390162 11.6782815,48.7019653 11.4073435,48 L10,50.7907311 C10.0337215,51.5567373 10.0395311,52.2931603 10.0174289,53 Z" id="路径" fill="#FFC107"></path>
                <path d="M9.96829423,51.184578 L6.4355786,48.0471158 L6.4436098,48 C6.25042098,48.5208212 6.10179615,49.0636209 6,49.6201282 L9.99722044,53 C10.0059894,52.3629477 9.9933776,51.7512371 9.96829423,51.184578 Z" id="路径" fill="#FFC107"></path>
                <path d="M8.98831709,53 C8.99351988,52.8800331 8.99741418,52.7609982 9,52.6428951 L5.08529748,50.0363939 L5.09272669,50 C5.05761714,50.1506585 5.02670824,50.3054426 5,50.4643521 L5.00717219,50.4278818 L8.98831709,53 Z" id="路径" fill="#FFC107"></path>
                <path d="M9,54 L11.9829275,51.4260388 L12,51.4664212 C11.9682866,50.9741775 11.8962887,50.4842576 11.7844971,50 L9.11849067,52.7126993 C9.09575329,53.155966 9.0562564,53.5850662 9,54 Z" id="路径" fill="#FFC107"></path>
                <path d="M5.25362257,53.5383369 L5.26423816,53.4871262 L8.68209427,57 C8.81680922,56.4401816 8.92296839,55.8713266 9,55.2964987 L5,52 C5.05534766,52.5188924 5.1400783,53.0328225 5.25362257,53.5383369 Z" id="路径" fill="#FFC107"></path>
                <path d="M9.41310857,46.1149598 L9.44234367,46.0963562 C8.57087151,45.864968 7.72905761,46.0589909 7,46.5852039 L10,49 C9.74119699,47.2915492 9.41778791,46.1315887 9.41310857,46.1149598 Z" id="路径" fill="#FFC107"></path>
                <path d="M11.69384,53.8668512 C11.8420962,53.436328 11.9356022,52.9886193 11.9721242,52.5344196 C11.9856726,52.3558904 11.9949645,52.1777505 12,52 L9.3417252,54.4005746 C9.33375451,54.4518861 9.32601676,54.5034476 9.31761074,54.5542578 C9.23787759,55.0416227 9.13185031,55.5242515 9,56 L11.682057,53.8240299 L11.69384,53.8668512 Z" id="路径" fill="#FFC107"></path>
                <path d="M9.7889423,48.0743522 L7.18337927,46.0374794 L7.19450272,46 C6.67890212,46.3946862 6.27095607,46.8831612 6,47.4302987 L10,50 C9.95445182,49.3074507 9.87689624,48.6547151 9.7889423,48.0743522 Z" id="路径" fill="#FFC107"></path>
                <path d="M9.79273585,55 L9.79542929,54.9977934 C9.901334,54.3597665 9.96962316,53.7169803 10,53.072228 L5.11578706,50 C5.07275194,50.2566939 5.0396958,50.5215191 5.01661863,50.7944759 C4.98723442,51.1851595 4.99683194,51.5774825 5.04529192,51.96657 L9.79273585,55 Z" id="路径" fill="#FFC107"></path>
                <path d="M15.9992899,57 L15.9940378,57.0427149 L14.2037159,57.9527935 C13.8589484,58.5871183 13.4553342,59.2854906 13,60 L15.803564,58.8299291 L15.7957774,58.8737582 C15.9393176,58.2633438 16.007829,57.6325537 15.9992899,57 Z" id="路径" fill="#FFC107"></path>
                <path d="M16,57.3382931 C15.9938778,56.8880994 15.8363437,56.4464288 15.5421291,56.0545825 C15.5272665,56.036002 15.5118823,56.0179748 15.496413,56 C15.4072659,56.1374112 14.8769106,56.9412624 14,58 L16,57.3382931 Z" id="路径" fill="#FFC107"></path>
                <path d="M10.3669695,62.5457756 C10.2448106,62.701682 10.1224874,62.8530901 10,63 L13.489922,62.8168874 L13.4727249,62.8717875 C13.6577635,62.5878016 13.8335219,62.2972058 14,62 L10.3598641,62.5712686 L10.3669695,62.5457756 Z" id="路径" fill="#FFC107"></path>
                <path d="M11,62 L14.2320351,61.2299354 L14.2198808,61.2749662 C14.5548683,60.5557761 14.8167323,59.7921342 15,59 L12.2547789,60.171766 C11.8421856,60.8276812 11.423926,61.4370925 11,62 Z" id="路径" fill="#FFC107"></path>
                <path d="M10,62 L13.2740566,61.7433725 L13.2602167,61.7681444 C13.532427,61.5234932 13.7795831,61.2668619 14,61 L10.8302535,61.4256074 C10.5549915,61.6292553 10.2782403,61.8207195 10,62 Z" id="路径" fill="#FFC107"></path>
                <path d="M6.25983069,65.367011 C6.27838114,65.3376966 6.29715639,65.3078403 6.31644891,65.2767712 C6.95354872,65.0303528 7.55957258,64.7056907 8.12143654,64.3097942 L7.73661612,61.8944202 C7.7506729,61.8277168 7.76383355,61.7607041 7.77609806,61.6933823 L8.1857415,64.2646323 C8.58944876,63.9783008 8.97614494,63.6672442 9.34374677,63.3331381 L8.16363441,58.9305487 C8.18431357,58.913273 8.20513265,58.8958244 8.22655387,58.8776967 L9.40515343,63.2745945 L9.40819165,63.2744762 C9.85128351,62.8667494 10.2727667,62.4346959 10.6708096,61.9801932 L9.47804087,57.654339 C9.49772564,57.6320072 9.51742417,57.6100847 9.53709517,57.5873895 L10.7297802,61.9129254 C10.817801,61.8119599 10.9041194,61.710918 10.9887353,61.6097995 L9.84251818,57.217927 C9.86174188,57.1935741 9.88095068,57.1691762 9.9000746,57.144479 L11.0471599,61.5396753 C11.3961812,61.1191238 11.7150176,60.7013815 12,60.3055368 L10.9488049,55.8676611 L10.9803352,55.8414374 C10.8663418,55.8990912 10.7515363,55.9632091 10.636381,56.0309384 C10.8145566,55.7088378 10.9654329,55.3714618 11.0873277,55.0225718 L8.64749572,57.0500089 C8.53168359,57.4595657 8.3896863,57.8607526 8.22243754,58.2509318 C8.183068,58.3085997 8.14366979,58.3662321 8.10541966,58.4258193 L8.11953264,58.478475 C8.1032359,58.5133815 8.08709286,58.5484856 8.07044401,58.5829141 L8.05140497,58.5119178 C8.02420092,58.555532 7.9982585,58.6010678 7.97162907,58.6455778 C8.22923993,58.1284054 8.43805401,57.5868765 8.59518881,57.0284663 L5.22274744,54 C5.30386754,54.3159099 5.39755915,54.6313584 5.4993997,54.9424075 C5.1703004,54.5802133 4.79540924,54.2654063 4.384839,54.0064784 L4.41129983,54.0297628 L4.13655263,55.8906213 C4.39616609,56.4533109 4.6699751,57.0923819 4.92894513,57.7806711 L5.52453124,55.0186658 C5.53731378,55.0570949 5.55036241,55.0953288 5.56338351,55.1336053 L4.96922533,57.8889026 C5.20911197,58.5351513 5.41382874,59.1651253 5.58337566,59.7788246 L6.47545821,57.3798756 C6.4889679,57.4088219 6.50243746,57.4377754 6.51587719,57.4662875 L5.61418221,59.8910993 C5.72498258,60.3009911 5.81951909,60.70205 5.89779175,61.0942763 L7.07016233,58.5773456 C7.08435903,58.6042627 7.09819102,58.6303562 7.11192551,58.656161 L5.92714858,61.1996976 L5.91594766,61.1844653 C5.94613257,61.3400372 5.97365317,61.4940369 5.99850945,61.6464644 L7.39201741,59.1680788 C7.40737557,59.1953058 7.42160478,59.2203762 7.43470502,59.2432899 L6.01705876,61.7645466 C6.0244232,61.8118775 6.03203996,61.8593516 6.03889975,61.9063665 C6.10531323,62.357045 6.14790096,62.8111188 6.16647398,63.2665731 L6.30496814,63.047779 C6.28587098,63.1254175 6.26743675,63.2018687 6.24966544,63.2771326 L6.17085526,63.4016566 C6.1727454,63.4714579 6.17276031,63.540032 6.17333377,63.6089659 C6.15306063,63.69961 6.13372568,63.7879701 6.11532891,63.874046 C6.11825588,63.7157018 6.11881558,63.5570167 6.11464075,63.3978418 L2,61.5931213 C3.4316606,63.88129 5.67104588,65.8737354 5.81415987,66 C5.87132403,65.8030669 5.9190524,65.6027472 5.959164,65.4000657 C5.98107037,65.3932028 6.00297674,65.3863516 6.02482692,65.3792401 C6.02013712,65.4041125 6.01498511,65.4286465 6.01005675,65.4533532 C5.99905195,65.456935 5.98799095,65.4611888 5.9769873,65.4647126 C5.98622697,65.4654131 5.99731549,65.4661491 6.00736834,65.4668721 C5.97886253,65.6085192 5.94800551,65.7484553 5.91219146,65.8847801 C5.9769311,65.7946905 6.07342351,65.6559755 6.18887239,65.4778777 C7.08210187,65.5233272 9.46249652,65.5215002 11.2809526,64.4047683 L8.14839859,64.3608216 C7.56183196,64.7758501 6.92742137,65.1138508 6.25983069,65.367011 Z M7.59554596,61.0088311 L7.6526631,60.9185829 L7.67072382,61.0320279 L7.61360668,61.1222761 L7.59554596,61.0088311 Z" id="形状" fill="#FFC107" fill-rule="nonzero"></path>
                <path d="M14.9678795,55.8479823 L15,55.849889 C14.5471836,55.2833756 13.8414234,55.0069893 13,55 L13.5188699,58 C14.43819,56.7680381 14.9604154,55.8610145 14.9678795,55.8479823 Z" id="路径" fill="#FFC107"></path>
                <path d="M9.19759472,62.1965648 C8.81561105,62.4577249 8.41582094,62.7023389 8,62.9293202 L11.5548695,62.9673206 L11.536263,63 C11.9355642,62.8095793 12.302568,62.5801542 12.6285078,62.3172052 C12.7559788,62.2134308 12.8798095,62.1076957 13,62 L9.3172241,62.113679 C9.27734633,62.1413957 9.23747118,62.1693842 9.19759472,62.1965648 Z" id="路径" fill="#FFC107"></path>
                <path d="M12,55.4792931 L12.968911,60 C13.3588947,59.3964227 13.7045905,58.8069156 14,58.2714655 L13.5883265,55.0245737 L13.617991,55 C13.0542279,55.0215099 12.5016509,55.1851983 12,55.4792931 Z" id="路径" fill="#FFC107"></path>
                <path d="M4,53.3915503 C3.71299522,53.157175 3.38558687,53.0225702 3.04839091,53.0003226 C3.03213058,52.9998391 3.01605528,52.9999869 3,53.0002002 C3.06006551,53.1289922 3.40878234,53.8880413 3.81411397,55 L4,53.3915503 Z" id="路径" fill="#FFC107"></path>
                <path d="M5.47207025,57.5051239 L1.04445642,56.041614 L1.0396155,56 C0.987704265,56.4936537 0.986808177,56.9911859 1.03694088,57.4850163 L6,59 C5.8338388,58.4693405 5.653058,57.9665628 5.47207025,57.5051239 Z" id="路径" fill="#FFC107"></path>
                <path d="M6,60 C5.96325715,59.8656379 5.9255007,59.73275 5.88673064,59.6013364 L1.00522537,58.0427363 L1,58 C1.01718387,58.1783898 1.040077,58.3599167 1.06867936,58.5445804 L1.06317766,58.5018514 L6,60 Z" id="路径" fill="#FFC107"></path>
                <path d="M7,62 C6.98086022,61.4885382 6.93102957,60.9786841 6.85077652,60.4731847 L2,59 C2.19587398,59.4162281 2.419447,59.8188729 2.66921621,60.2052279 L2.66579102,60.1589916 L7,62 Z" id="路径" fill="#FFC107"></path>
                <path d="M3.731865,53.0197287 L3.74920065,53 C3.01047207,53.0149727 2.41476886,53.3339378 2,53.8713967 L5,55 C4.31761229,53.8086239 3.74018277,53.0308698 3.731865,53.0197287 Z" id="路径" fill="#FFC107"></path>
                <path d="M4.05815581,55.25699 L0.663755615,54.0379226 L0.660744895,54 C0.291184475,54.5037786 0.0655266876,55.0669251 0,55.64894 L5,57 C4.69183179,56.3651769 4.36653071,55.7759318 4.05815581,55.25699 Z" id="路径" fill="#FFC107"></path>
                <path d="M6,60.9974934 C5.90657267,60.4408401 5.78269331,59.8895353 5.62890031,59.3459751 L1,58 C1.0372646,58.2240593 1.08449039,58.4524146 1.14167736,58.6850661 C1.2263615,59.0171525 1.34170178,59.3409573 1.48626454,59.6524555 L5.99853799,61 L6,60.9974934 Z" id="路径" fill="#FFC107"></path>
                <polygon id="路径" fill="#2F2E41" points="8.89034475 70 5.53423043 70 4 65 11 65"></polygon>
            </g>
        </g>
    </g>
</svg>