<?xml version="1.0" encoding="UTF-8"?>
<svg width="216px" height="252px" viewBox="0 0 216 252" version="1.1" xmlns="http://www.w3.org/2000/svg" xmlns:xlink="http://www.w3.org/1999/xlink">
    <!-- Generator: Sketch 52.2 (67145) - http://www.bohemiancoding.com/sketch -->
    <title>矩形 copy 47</title>
    <desc>Created with Sketch.</desc>
    <defs>
        <linearGradient x1="97.8616898%" y1="100%" x2="4.04803241%" y2="0%" id="linearGradient-1">
            <stop stop-color="#7E65FD" offset="0%"></stop>
            <stop stop-color="#3574FA" offset="100%"></stop>
        </linearGradient>
    </defs>
    <g id="Page-1" stroke="none" stroke-width="1" fill="none" fill-rule="evenodd">
        <g id="拍信云首页" transform="translate(-1013.000000, -1275.000000)">
            <rect id="矩形-copy-47" fill="url(#linearGradient-1)" x="1013" y="1275" width="216" height="252" rx="8"></rect>
            <g id="undraw_coffee_break_j3of-copy" transform="translate(1048.000000, 1312.000000)">
                <path d="M87.2181924,11.0003724 C76.7978927,10.9527553 67.4324772,15.4750004 61,22.6796272 C54.5675241,15.4749931 45.2021122,10.9527578 34.7818076,11.0003724 C15.2145959,11.0897858 -0.380014463,27.1114016 0.00705237146,46.7059636 C0.382451363,65.7100562 15.8808535,81 34.9447601,81 C35.6844003,81 36.41844,80.9772024 37.1468791,80.9316073 C53.0333826,79.9415732 68.9666174,79.9415732 84.8531209,80.9316073 C85.581336,80.9769732 86.3153757,80.9997707 87.0552399,81 C106.119151,81 121.617545,65.7100599 121.992948,46.7059758 C122.380014,27.1114089 106.78541,11.0897882 87.2181924,11.0003724 Z" id="路径" fill="#F2F2F2"></path>
                <path d="M80.702325,1 C79.6111274,1.06081378 78.6484897,1.72488376 78.2159916,2.71518247 C77.5942808,4.19791195 78.3947784,5.93959796 79.5964693,7.02081921 C80.7981602,8.10204047 82.341809,8.72005844 83.7443425,9.53240061 C85.6281782,10.6235098 87.3209584,12.138153 88.2635477,14.0824276 C89.206137,16.0267023 89.3063902,18.4350966 88.1984196,20.2925386 C87.1700334,22.0165626 85.3000878,23.0483839 83.5166446,24" id="路径" stroke="#3F3D56"></path>
                <ellipse id="椭圆形" fill="#57B894" cx="82" cy="1" rx="2" ry="1"></ellipse>
                <ellipse id="椭圆形" fill="#57B894" cx="84" cy="8" rx="2" ry="1"></ellipse>
                <ellipse id="椭圆形" fill="#57B894" cx="80" cy="9" rx="2" ry="1"></ellipse>
                <ellipse id="椭圆形" fill="#57B894" cx="86" cy="15" rx="2" ry="1"></ellipse>
                <ellipse id="椭圆形" fill="#57B894" cx="90" cy="15" rx="2" ry="1"></ellipse>
                <path d="M92.0898363,34.22853 C91.0526882,33.805862 89.8539682,33.9781582 88.9937438,34.6735424 C87.7296685,35.7260096 87.6601317,37.6314187 88.2685519,39.1223343 C88.8769722,40.6132498 90.0168743,41.8399518 90.9359756,43.1785185 C92.1704807,44.9764404 93.0314572,47.069106 92.9991189,49.2175578 C92.9667806,51.3660095 91.9398961,53.5607711 90.052052,54.7353374 C88.2998099,55.8255419 86.0912718,55.9296797 84,56" id="路径" stroke="#3F3D56"></path>
                <ellipse id="椭圆形" fill="#57B894" transform="translate(93.178445, 35.680417) rotate(-63.615410) translate(-93.178445, -35.680417) " cx="93.1784451" cy="35.6804166" rx="1.03690276" ry="2.14141135"></ellipse>
                <ellipse id="椭圆形" fill="#57B894" transform="translate(91.666375, 42.552081) rotate(-63.615410) translate(-91.666375, -42.552081) " cx="91.6663752" cy="42.5520811" rx="1.03690276" ry="2.14141135"></ellipse>
                <ellipse id="椭圆形" fill="#57B894" transform="translate(87.665100, 41.801627) rotate(-63.615410) translate(-87.665100, -41.801627) " cx="87.6651004" cy="41.8016271" rx="1.03690276" ry="2.14141135"></ellipse>
                <ellipse id="椭圆形" fill="#57B894" transform="translate(90.593226, 49.640369) rotate(-63.615410) translate(-90.593226, -49.640369) " cx="90.5932259" cy="49.640369" rx="1.03690276" ry="2.14141135"></ellipse>
                <ellipse id="椭圆形" fill="#57B894" transform="translate(94.433787, 51.535814) rotate(-63.615410) translate(-94.433787, -51.535814) " cx="94.4337875" cy="51.5358135" rx="1.03690276" ry="2.14141135"></ellipse>
                <path d="M36,44.8129561 C36.7521275,44.066175 37.8621822,43.8081644 38.867086,44.1465576 C40.3549213,44.6718571 41.1098857,46.392538 41.1215279,47.9688159 C41.1331702,49.5450938 40.5842078,51.0637784 40.2689124,52.6083145 C39.8454171,54.6828835 39.8556467,56.8977899 40.6666631,58.8539279 C41.4776796,60.8100658 43.1744689,62.4636417 45.2517563,62.8843902 C47.1798354,63.2749212 49.147302,62.6042334 51,61.9432568" id="路径" stroke="#3F3D56"></path>
                <ellipse id="椭圆形" fill="#57B894" transform="translate(35.564362, 45.880831) rotate(-48.059640) translate(-35.564362, -45.880831) " cx="35.5643621" cy="45.8808314" rx="2.13751302" ry="1.03880175"></ellipse>
                <ellipse id="椭圆形" fill="#57B894" transform="translate(39.520555, 51.711009) rotate(-48.059640) translate(-39.520555, -51.711009) " cx="39.5205546" cy="51.7110091" rx="2.13751302" ry="1.03880175"></ellipse>
                <ellipse id="椭圆形" fill="#57B894" transform="translate(42.960316, 49.543333) rotate(-48.059640) translate(-42.960316, -49.543333) " cx="42.9603157" cy="49.543333" rx="2.13751302" ry="1.03880175"></ellipse>
                <ellipse id="椭圆形" fill="#57B894" transform="translate(43.149279, 57.903775) rotate(-48.059640) translate(-43.149279, -57.903775) " cx="43.1492793" cy="57.9037753" rx="2.13751302" ry="1.03880175"></ellipse>
                <ellipse id="椭圆形" fill="#57B894" transform="translate(40.283935, 61.076431) rotate(-48.059640) translate(-40.283935, -61.076431) " cx="40.283935" cy="61.0764307" rx="2.13751302" ry="1.03880175"></ellipse>
                <path d="M85.9818685,30.2647685 L85.646722,32.7393287 L83.5749069,48.0087268 L80.1820051,73.0144212 L79.332561,79.2750462 C79.1987394,80.2634064 78.3600945,81.0002205 77.3692116,80.9999999 L54.7437728,80.9999999 C53.7546031,81.0002947 52.9167058,80.2662317 52.7804233,79.2799536 L51.9163546,73.0144212 L48.4661732,48.0087268 L46.3577968,32.728287 L46.0189941,30.2696759 C45.9398443,29.6982383 46.1104162,29.1202982 46.4866714,28.6850685 C46.8629266,28.2498389 47.4079857,27.9999798 47.9811248,28 L84.0185191,28 C84.5907508,28.0002523 85.1349594,28.2494218 85.5112141,28.6834403 C85.8874689,29.1174588 86.0590606,29.6939813 85.9818685,30.2647685 Z" id="路径" fill="#576DFB"></path>
                <rect id="矩形" fill="#2F2E41" x="48" y="22" width="36" height="6" rx="3"></rect>
                <path d="M84,25 L84,26.2872191 C83.9999842,27.2331563 83.096288,27.9999866 81.9815172,28 L50.0184828,28 C48.903712,27.9999866 48.0000158,27.2331563 48,26.2872191 L48,25.0031601 C59.9729447,25.9712109 72.0272915,25.9701527 84,25 Z" id="路径" fill="#000000" opacity="0.1"></path>
                <circle id="椭圆形" fill="#2F2E41" cx="56.5" cy="41.5" r="5.5"></circle>
                <circle id="椭圆形" fill="#2F2E41" cx="75.5" cy="41.5" r="5.5"></circle>
                <circle id="椭圆形" fill="#FFFFFF" cx="56.5" cy="41.5" r="1.5"></circle>
                <circle id="椭圆形" fill="#FFFFFF" cx="58.5" cy="38.5" r="1"></circle>
                <circle id="椭圆形" fill="#FFFFFF" cx="75.5" cy="41.5" r="1.5"></circle>
                <circle id="椭圆形" fill="#FFFFFF" cx="77.5" cy="38.5" r="1"></circle>
                <path d="M85.8693454,29.2881944 L85.869583,29.2881944 C85.8690175,29.2866891 85.8682887,29.2852659 85.8677159,29.283768 C85.8155509,29.1464529 85.7484638,29.0153649 85.6676774,28.892893 L85.667469,28.8925642 C85.6435755,28.856426 85.6183219,28.8214644 85.5921823,28.786996 C85.5834646,28.7754636 85.5744788,28.7641766 85.5655223,28.7528356 C85.4895441,28.6568948 85.4049929,28.568164 85.312929,28.4877558 C85.2923834,28.4697628 85.2716672,28.4520225 85.2503855,28.4348785 C85.2264847,28.4156869 85.2024426,28.3968314 85.1776497,28.3787402 C85.1466534,28.3560594 85.1146674,28.3347404 85.0823244,28.3138557 C85.05681,28.2974269 85.0312139,28.2812975 85.0048951,28.2660293 C84.9642663,28.242374 84.9227616,28.2201246 84.8803809,28.1992812 C84.8601498,28.1894186 84.8396396,28.180238 84.8190269,28.1710501 C84.7785232,28.1529443 84.7372935,28.1362333 84.6953378,28.1209173 C84.678429,28.1147254 84.6618711,28.1079409 84.6447392,28.1022053 C84.5866807,28.0827058 84.527425,28.0659024 84.466972,28.0517952 C84.4521692,28.0483502 84.4370238,28.0459063 84.4220942,28.0427938 C84.3726571,28.0324883 84.3225383,28.0240766 84.2717378,28.0175587 C84.2533567,28.0152007 84.2350645,28.0128047 84.2165201,28.0109619 C84.1514477,28.0044694 84.0857416,28.0000147 84.0187801,28.0000074 L84.0186315,28 L47.980372,28 C47.4079571,28.0019232 46.8641735,28.2522575 46.4883271,28.6868727 C46.1124807,29.1214879 45.9410881,29.6981575 46.0180565,30.2691508 L46.0752887,30.6839629 L46.357005,32.7282834 L46.3573463,32.728314 L48.4655991,48.0087219 L48.4654321,48.0087219 L51.2329949,68.0665364 L52.7800795,79.279674 C52.9161474,80.2658395 53.7537518,80.9999988 54.7428045,81 L55.8165472,81 C55.763421,80.8606155 55.7260256,80.7156618 55.7050651,80.5678684 L54.6629061,73.0144176 L80.1820254,73.0144176 L83.5750086,48.0087232 L51.2128527,48.0087232 L49.1383409,32.9728833 C61.291402,33.9650349 73.5073202,33.8868865 85.6468734,32.7393287 L85.982028,30.2647685 C86.0266367,29.9348844 85.9878808,29.5990028 85.8693454,29.2881944 Z" id="路径" fill="#000000" opacity="0.1"></path>
                <path d="M88.9976598,31.7330189 C73.711283,33.422327 58.288717,33.422327 43.0023402,31.7330189 C41.8964782,31.7330189 41,30.8253827 41,29.7057568 L41,27.0272621 C41,25.9076362 41.8964782,25 43.0023402,25 C58.2766039,26.9013753 73.7233961,26.9013753 88.9976598,25 C90.1035218,25 91,25.9076362 91,27.0272621 L91,29.7057568 C91,30.8253827 90.1035218,31.7330189 88.9976598,31.7330189 Z" id="路径" fill="#2F2E41"></path>
                <path d="M81.2891182,72 L50.4890504,72 C49.9178341,72.0000004 49.4313969,71.5897904 49.3418496,71.0325713 L46.0143704,50.3271414 C45.9610893,49.9955948 46.0574976,49.6576323 46.2781854,49.4023295 C46.4988732,49.1470267 46.8216975,48.9999997 47.1615726,49 L84.8384277,49 C85.1803942,48.9999999 85.5049859,49.1488347 85.7256887,49.4068353 C85.9463916,49.6648358 86.0407782,50.0057846 85.9836917,50.3388081 L82.434381,71.044238 C82.3397805,71.5961056 81.8558057,71.9999995 81.2891182,72 Z" id="路径" fill="#2F2E41"></path>
                <path d="M77.3240702,57.0901196 C77.6210588,57.1449783 77.8645878,57.3595561 77.9588159,57.6494054 C78.0530441,57.9392548 77.9828853,58.2579701 77.7759506,58.4801205 C75.8139979,60.5934895 71.0569204,65 65.5,65 C59.9430796,65 55.1860096,60.5934857 53.2240494,58.4801205 C53.0171147,58.2579701 52.9469559,57.9392548 53.0411841,57.6494054 C53.1354122,57.3595561 53.3789412,57.1449783 53.6759298,57.0901196 C61.493028,55.6366268 69.5069646,55.6366268 77.3240627,57.0901196 L77.3240702,57.0901196 Z" id="路径" fill="#576DFB"></path>
                <path d="M72.2933901,58.4942326 C72.6059536,58.5417004 72.863828,58.752668 72.9601756,59.0397312 C73.0565231,59.3267944 72.9749309,59.6410521 72.7492029,59.8523067 C71.3972079,61.1074245 68.8808998,63 66,63 C63.1191002,63 60.6027984,61.1074245 59.2507971,59.8523067 C59.0250691,59.6410521 58.9434769,59.3267944 59.0398244,59.0397312 C59.136172,58.752668 59.3940464,58.5417004 59.7066099,58.4942326 C63.873661,57.8352558 68.126339,57.8352558 72.2933901,58.4942326 Z" id="路径" fill="#FFFFFF"></path>
                <path d="M16,81 L101,81" id="路径" stroke="#3F3D56"></path>
                <path d="M23,70 L23,73.1355956 L24.9000002,75 C24.9000002,75 25.6999993,74.7457624 25.6999993,73.0508497 L26,70.5932243 L23,70 Z" id="路径" fill="#A0616A"></path>
                <path d="M23.6478057,73.3152071 C23.6478057,73.3152071 20.7351646,71.2282778 20.6412083,70.5326347 C20.5472519,69.8369916 16.4131781,66.6569095 17.0708689,68.644461 C17.7285598,70.6320125 19.7955973,71.5264098 19.7955973,71.5264098 C19.7955973,71.5264098 21.392853,76.0977781 22.8021947,75.998403 C24.2115365,75.8990278 24.2115426,74.0108475 23.6478057,73.3152071 Z" id="路径" fill="#A0616A"></path>
                <polygon id="路径" fill="#3F3D56" points="25.6249897 94 26 96 24 95.5555718 24 94"></polygon>
                <path d="M25.5641994,94.7230444 C25.5641994,94.7230444 23.7849166,93.6341623 23.7123998,94.1289048 C23.6398831,94.6236473 22.8701559,96.5120192 22.4852916,96.7107952 C22.1004273,96.9095711 21.6193495,99.0961018 22.4852916,98.9967138 C23.1559744,98.9197371 25.6158756,97.5907519 26.6911369,96.995322 C26.9659823,96.8422925 27.0769453,96.4939293 26.9437608,96.2022208 C26.8806968,96.0817212 26.8372006,95.9513493 26.8150058,95.8163006 C26.8150058,95.6175351 25.5641994,94.7230444 25.5641994,94.7230444 Z" id="路径" fill="#2F2E41"></path>
                <path d="M26.1369878,75.4876029 C26.1369878,75.4876029 19.3974097,78.6487606 20.0436755,81.0661163 C20.6899413,83.483472 23.0903341,93.7107448 23.0903341,93.7107448 C23.0903341,93.7107448 25.7677012,94.361569 25.9523463,93.7107448 C26.1369914,93.0599206 24.1982097,82.9256208 24.382856,82.5537191 C24.5675024,82.1818175 27.9834439,79.764463 27.9834439,79.764463 L35,76.7892561 L32.0456646,74 L26.1369878,75.4876029 Z" id="路径" fill="#2F2E41"></path>
                <polygon id="路径" fill="#3F3D56" points="21.692331 94 21 96.3000132 22.230777 97 23 95.1999211"></polygon>
                <path d="M26.1480931,60.6480348 C26.1480931,60.6480348 26.918475,61.7216074 26.3192893,62.2583931 C25.7201037,62.7951788 26.1480931,64.7633927 26.1480931,64.7633927 L26.918475,67 L30,66.3737522 L30,62.7057143 L29.8288038,60.9164282 C29.8288038,60.9164282 28.2880413,59.3955356 28.1168451,58.2324997 C27.9456488,57.0694638 26.1480931,60.6480348 26.1480931,60.6480348 Z" id="路径" fill="#A0616A"></path>
                <path d="M26.1480931,60.6480348 C26.1480931,60.6480348 26.918475,61.7216074 26.3192893,62.2583931 C25.7201037,62.7951788 26.1480931,64.7633927 26.1480931,64.7633927 L26.918475,67 L30,66.3737522 L30,62.7057143 L29.8288038,60.9164282 C29.8288038,60.9164282 28.2880413,59.3955356 28.1168451,58.2324997 C27.9456488,57.0694638 26.1480931,60.6480348 26.1480931,60.6480348 Z" id="路径" fill="#000000" opacity="0.1"></path>
                <path d="M31.4193981,75 C31.4193981,75 26.9837636,79.9715414 26.9837636,80.1627537 C26.9837636,80.353966 24.624384,84.2738356 24.624384,84.2738356 L20,94.694951 C20,94.694951 21.7931286,97.1807217 22.5481292,96.9895082 C23.3031298,96.7982946 28.6825169,85.7079382 28.6825169,85.7079382 C28.6825169,85.7079382 29.6262695,83.2221675 32.1743987,82.6485282 C34.7225279,82.0748889 36.7044085,80.0671507 35.7606608,77.7725935 C34.8169132,75.4780363 31.4193981,75 31.4193981,75 Z" id="路径" fill="#2F2E41"></path>
                <circle id="椭圆形" fill="#A0616A" cx="26" cy="59" r="3"></circle>
                <path d="M26.592586,63.5561694 C26.592586,63.5561694 26.9876473,65.6881518 27.3827099,65.873542 C27.7777724,66.0589322 28.0740655,66.7077967 28.9629562,65.7808469 C29.851847,64.8538971 30.6419682,63 30.6419682,63 L33.7037044,66.5224114 L34,76.2553762 C34,76.2553762 30.5432104,75.4211227 29.4567896,76.2553762 C28.3703689,77.0896297 26,76.9969358 26,76.9969358 L26.4938269,75.1430374 L26.0987656,71.9914113 L26.1975313,69.1178693 L26.2962956,67.0785808 L26.592586,63.5561694 Z" id="路径" fill="#F2F2F2"></path>
                <path d="M26.8593164,62 C26.8593164,62 25.5714283,62.6255178 25.4761899,62.9917464 C25.3809516,63.3579749 23.6666648,64.0904332 23.6666648,64.0904332 C23.6666648,64.0904332 23,64.7313316 23,65.0975625 C23,65.4637935 25.2857132,69.6754258 25.2857132,69.6754258 C25.2857132,69.6754258 25.7619038,72.5137002 25.5714283,73.0630436 C25.3809528,73.612387 25.9523805,75.7182032 25.9523805,75.7182032 L24.8095226,77 L25.8571421,77 C25.8571421,77 27,76.4506566 27,76.1759843 C27,75.901312 26.8095233,73.9786107 26.7142862,73.1545962 C26.6190491,72.3305817 26.6190478,69.4007487 26.8095233,68.3936193 C26.9999987,67.3864899 26.9047616,64.7313292 26.9047616,64.0904283 C26.9047616,63.4495275 26.8593164,62 26.8593164,62 Z" id="路径" fill="#3F3D56"></path>
                <path d="M29.5058815,61 C29.5058815,61 29.9172709,61.0926934 31.1057224,61.4574699 C32.294174,61.8222463 34.1225752,62.3693978 34.7625139,63.09894 C35.211689,63.6384697 35.6095569,64.2185244 35.9509715,64.8316018 L35.5852927,71.3974773 C35.5852927,71.3974773 36.3166515,72.7653687 36.2252291,73.4949108 C36.1338067,74.2244529 35.4024503,74.3156446 35.9509691,75.8659206 C36.4994879,77.4161966 37.5965255,78.7840879 36.5909055,78.9664737 C35.5852855,79.1488596 32.934114,78.5105104 31.7456564,78.8752808 C30.5571988,79.2400513 29.1859012,77.5073907 29.1859012,77.5073907 C29.1859012,77.5073907 31.0142976,77.6897753 30.7400376,76.9602332 C30.4657776,76.2306911 27.4489249,68.0233466 28.0888637,66.1994955 C28.7288025,64.3756444 29.5058815,61 29.5058815,61 Z" id="路径" fill="#3F3D56"></path>
                <path d="M23.6191241,65 L23.1040944,65.3415628 C23.1040944,65.3415628 21.6620158,69.6110886 22.0740338,70.038041 C22.4860518,70.4649933 25.7822502,71.4042887 25.9882666,70.806555 C26.1942831,70.2088212 23.6191241,65 23.6191241,65 Z" id="路径" fill="#3F3D56"></path>
                <path d="M37.6363644,68 C37.6363644,68 39,72.0865892 39,73.2270326 C39,74.367476 38.8181814,81.0200635 38.8181814,81.0200635 C38.8181814,81.0200635 38.7272734,83.8711721 36.818182,82.7307286 C34.9090907,81.5902852 36.818182,80.8299892 36.818182,80.8299892 C36.818182,80.8299892 36.7272728,73.3220697 35.9999997,72.2766635 C35.2727266,71.2312572 35,69.7106651 35,69.7106651 L37.6363644,68 Z" id="路径" fill="#A0616A"></path>
                <path d="M22.4170898,96.4103637 C22.4170898,96.4103637 20.959801,95.6345193 20.6683427,96.2164033 C20.3768844,96.7982872 18.8224441,99.9986496 19.0167496,100.386572 C19.2110552,100.774494 20.279733,102.326185 21.5427163,101.938262 C22.8056996,101.550338 22.9028472,99.5137453 22.9028472,99.5137453 L23,97.1862094 L22.4170898,96.4103637 Z" id="路径" fill="#2F2E41"></path>
                <path d="M25.3918443,57.4448101 C25.5941177,57.5326927 25.8340721,57.5852021 25.9611812,57.7549604 C26.0553634,57.8807473 26.0647257,58.044209 26.133446,58.1833355 C26.2891383,58.46927 26.6589345,58.594095 26.9777426,58.4683284 C27.0152692,58.2996053 27.1215507,58.1506231 27.2746447,58.0521399 C27.4333874,57.9557688 27.6416846,57.9663237 27.7880441,58.0781551 C27.977181,58.2445935 27.9102409,58.534828 27.9984921,58.761856 C28.0813428,58.9215719 28.1953343,59.0658483 28.3347699,59.1874749 C28.5356166,59.4013717 28.6956249,59.6522336 28.9374959,59.8262431 C29.179367,60.0002526 29.5461626,60.0756657 29.7864598,59.8998057 C29.9885159,59.7519307 30.030396,59.4791154 29.9813321,59.245451 C29.9322682,59.0117866 29.8105783,58.796612 29.7419498,58.5671832 C29.5189518,57.8216873 29.8744733,57.0257808 29.7644739,56.2590834 C29.6235319,55.2766745 28.7188973,54.5006737 27.7091661,54.1638977 C27.2889816,54.0059612 26.8289611,53.9609733 26.3822498,54.0341315 C25.9204767,54.1293033 25.5259912,54.4006603 25.0837296,54.5558558 C24.6107813,54.7218196 24.0964935,54.7507993 23.6015581,54.8478237 C23.1066227,54.9448482 22.597298,55.1324423 22.3100877,55.5169351 C22.1097648,55.7851093 22.0409105,56.1181555 21.874894,56.4056016 C21.6837883,56.7337002 21.3742461,56.9896741 21,57.1290895 L21.5231914,57.1015648 C21.435492,57.3171243 21.2924468,57.5098285 21.1063278,57.6631452 C21.3516667,57.7093291 21.6066989,57.6782127 21.8306109,57.5747758 C21.8224262,57.7754022 21.7246851,57.9639646 21.5605744,58.0957314 C21.9631706,58.0845374 22.3877226,58.0674101 22.727906,57.8683546 C22.8945368,57.7708545 23.0304217,57.6350557 23.1872242,57.5245368 C23.5214538,57.2889629 23.9361123,57.177145 24.3403331,57.0700641 C24.552588,57.0138371 24.8080711,56.9356511 25.0000286,57.061653 C25.1598823,57.1665894 25.1851209,57.3549924 25.3918443,57.4448101 Z" id="路径" fill="#2F2E41"></path>
                <path d="M34.7592595,63 L36.1481477,64.0869418 L38,68.2535468 C38,68.2535468 35.4074078,70.246272 34.7592595,69.9745363 C34.1111111,69.7028005 33,64.9021466 33,64.9021466 L34.7592595,63 Z" id="路径" fill="#3F3D56"></path>
                <path d="M20.9986398,67.1709266 L20.9735038,67.3576863 L20.8181186,68.5100927 L20.5636461,70.3973143 L20.4999383,70.8698149 C20.4899005,70.9444075 20.4270029,71.0000155 20.3526872,71 L18.6557817,71 C18.5815938,71.0000228 18.5187512,70.9446215 18.5085307,70.8701851 L18.4437252,70.3973143 L18.1849627,68.5100927 L18.0268336,67.3568524 L18.0014246,67.1712967 C17.9954883,67.1281695 18.008281,67.0845514 18.0364999,67.0517038 C18.0647188,67.0188563 18.105598,66.9999988 18.1485833,67 L20.8513913,67 C20.8943086,67.0000191 20.935124,67.0188246 20.9633426,67.0515809 C20.9915613,67.0843373 21.00443,67.1278485 20.9986398,67.1709266 Z" id="路径" fill="#576DFB"></path>
                <rect id="矩形" fill="#2F2E41" x="18" y="67" width="3" height="1" rx="0.5"></rect>
                <path d="M20.87986,67.8416265 C19.9626775,68.0527912 19.0373236,68.0527912 18.1201411,67.8416265 C18.0882778,67.8416271 18.0577194,67.8149292 18.0351886,67.7674062 C18.0126577,67.7198832 18,67.6554279 18,67.5882199 L18,67.2534089 C18,67.113455 18.053789,67 18.1201411,67 C19.0365968,67.2376721 19.9634043,67.2376721 20.87986,67 C20.9462116,67.0000012 21,67.1134559 21,67.2534089 L21,67.5882199 C21,67.7281725 20.9462115,67.8416265 20.87986,67.8416265 Z" id="路径" fill="#2F2E41"></path>
                <path d="M20.6466901,71 L18.3366801,71 C18.2938387,71.0000006 18.2573555,70.9643306 18.2506389,70.9158768 L18.0010775,69.1154031 C17.997082,69.086573 18.004313,69.0571852 18.0208647,69.0349852 C18.0374164,69.0127852 18.0616281,69.0000002 18.0871187,69 L20.912889,69 C20.9385354,69.0000024 20.9628779,69.0129457 20.9794291,69.0353803 C20.9959802,69.057815 21.0030583,69.0874615 20.9987768,69.1164188 L20.7325779,70.9168909 C20.7254831,70.9648761 20.6891889,70.999996 20.6466901,71 Z" id="路径" fill="#2F2E41"></path>
            </g>
        </g>
    </g>
</svg>