<?xml version="1.0" encoding="UTF-8"?>
<svg width="216px" height="252px" viewBox="0 0 216 252" version="1.1" xmlns="http://www.w3.org/2000/svg" xmlns:xlink="http://www.w3.org/1999/xlink">
    <!-- Generator: Sketch 52.2 (67145) - http://www.bohemiancoding.com/sketch -->
    <title>矩形 copy 45</title>
    <desc>Created with Sketch.</desc>
    <defs>
        <linearGradient x1="97.8616898%" y1="100%" x2="4.04803241%" y2="0%" id="linearGradient-1">
            <stop stop-color="#7E65FD" offset="0%"></stop>
            <stop stop-color="#3574FA" offset="100%"></stop>
        </linearGradient>
    </defs>
    <g id="Page-1" stroke="none" stroke-width="1" fill="none" fill-rule="evenodd">
        <g id="拍信云首页" transform="translate(-780.000000, -1275.000000)">
            <rect id="矩形-copy-45" fill="url(#linearGradient-1)" x="780" y="1275" width="216" height="252" rx="8"></rect>
            <g id="undraw_profile_data_mk6k-copy" transform="translate(830.000000, 1312.000000)">
                <ellipse id="椭圆形" fill="#F2F2F2" cx="47.5" cy="43" rx="43.5" ry="43"></ellipse>
                <path d="M22.9613267,16.089859 L22,23.5484617 C23.1799666,25.7641365 24.4297818,28.282993 25.621713,31 L27.8855895,19.7532111 L28,19.8533654 C26.34484,18.2465472 24.6037507,16.9385431 22.8450733,16 L22.9613267,16.089859 Z" id="路径" fill="#576DFB"></path>
                <path d="M22.0981907,23 L23,15.6251757 C21.0842669,14.5675903 19.148952,13.9897615 17.287983,14.0001373 C17.1911617,14.0006821 17.0955082,14.0040562 17,14.0077532 C17.3737777,14.5855876 19.5451624,17.9919729 22.0981907,23 Z" id="路径" fill="#576DFB"></path>
                <path d="M36.896754,33.7522561 L37,33.8833884 C36.6572352,32.9022747 36.2794284,31.9411453 35.8665796,31 L30.0496945,43.2652712 L30,43.2071146 C30.1471891,43.810568 30.2828084,44.4081965 30.406858,45 L36.896754,33.7522561 Z" id="路径" fill="#576DFB"></path>
                <path d="M32.8974027,26.1723517 L33,26.2859717 C31.6404724,24.009992 30.0109287,21.8999717 28.1454185,20 L26,30.8964174 C27.0275879,33.3221548 27.9130977,35.6900156 28.6565296,38 L32.8974027,26.1723517 Z" id="路径" fill="#576DFB"></path>
                <path d="M9.07840282,25 C8.93688201,26.9020357 8.98704412,28.8135668 9.22812497,30.7054733 L28,36 C27.3199241,33.9789238 26.5879887,32.0664911 25.8597371,30.3128801 L9.10105205,25.1593564 L9.07840282,25 Z" id="路径" fill="#576DFB"></path>
                <path d="M9.330903,33.0466933 L9.30445526,32.8861052 L29,38 C28.8399939,37.4971774 28.6761799,37.0000296 28.5085579,36.5085568 L9.02532641,31.160629 L9,31 C9.08736658,31.6710176 9.19766758,32.3532487 9.330903,33.0466933 Z" id="路径" fill="#576DFB"></path>
                <path d="M35.8967862,30.8266064 L36,30.9514387 C35.2687997,29.2472685 34.4202169,27.5930316 33.4600337,26 L29,38.3346244 C29.5051379,39.9223814 29.9418903,41.4775066 30.3102575,43 L35.8967862,30.8266064 Z" id="路径" fill="#576DFB"></path>
                <path d="M31.7303785,52.5056181 C31.9183096,55.9443804 31.6748702,59.1210374 31,62 C32.4304748,59.8946127 38.0012828,51.1094193 38,42 L31.7303785,52.5056181 Z" id="路径" fill="#576DFB"></path>
                <path d="M12,41 C12.816596,42.5799818 13.7406251,44.1047242 14.7658778,45.5639813 L14.7472626,45.3864852 L32,52 C31.8680541,50.0345484 31.6155813,48.0785985 31.2439415,46.1426855 L12,41 Z" id="路径" fill="#576DFB"></path>
                <path d="M22,23 C19.3845228,17.6320448 17.1992547,14.1419661 17.1677802,14.091973 L17.2281661,14 C14.5550348,14.1480796 12.4366774,15.6691618 11,18.1687346 L22,23 Z" id="路径" fill="#576DFB"></path>
                <path d="M31,45.2336183 C31.03297,45.4150008 31.0669405,45.5969715 31.0979208,45.7772064 C31.3978992,47.5049752 31.607401,49.2484869 31.7254959,51 L37.9128031,40.4898627 L38,40.6190873 C37.9868133,38.9992824 37.7767842,37.3877456 37.3749299,35.8229734 C37.2143739,35.2088904 37.0404742,34.6012326 36.8532306,34 L31,45.2336183 Z" id="路径" fill="#576DFB"></path>
                <path d="M26,30 C24.8870727,27.4038311 23.721717,24.9977257 22.621779,22.8807606 L11.0450426,18.1565101 L11.0304558,18 C9.93645931,19.8206612 9.24140788,22.167544 9,24.8796387 L26,30 Z" id="路径" fill="#576DFB"></path>
                <path d="M30.9373379,51.6687714 L14,45 C20.0773567,53.8898636 29.407573,61.5167978 30.0037249,62 C30.8882669,58.7004935 31.1317343,55.196088 30.9373379,51.6687714 Z" id="路径" fill="#576DFB"></path>
                <path d="M29.994194,46 L30,45.989336 C29.5483863,43.6660681 28.9716786,41.3687546 28.2723828,39.1073778 L9,34 C9.18037466,34.9351807 9.40237803,35.8872158 9.6660101,36.8561052 C10.0549427,38.2387503 10.5694701,39.5831197 11.2031975,40.8725057 L29.994194,46 Z" id="路径" fill="#576DFB"></path>
                <path d="M56.6571784,46.1376831 L51.1075452,51.1958712 C50.5581858,53.578261 49.8649402,56.2316448 49,59 L57.9790232,51.8616218 L58,52.0059753 C57.7987742,49.7983348 57.3396545,47.7648681 56.6281585,46 L56.6571784,46.1376831 Z" id="路径" fill="#576DFB"></path>
                <path d="M51,51 L56,46.008769 C55.2437179,44.0014783 54.1903128,42.3435671 52.8435077,41.1761289 C52.7734346,41.115394 52.7025333,41.0575294 52.6315462,41 C52.5599577,41.6717537 52.1148962,45.611535 51,51 Z" id="路径" fill="#576DFB"></path>
                <path d="M54.9825634,68.5539657 L54.9736953,68.7059794 C55.354282,67.8092501 55.6963836,66.907257 56,66 L43.854929,71.5538376 L43.8560002,71.4842335 C43.5753796,72.0001529 43.2900462,72.5054084 43,73 L54.9825634,68.5539657 Z" id="路径" fill="#576DFB"></path>
                <path d="M57.5275451,60.6271851 L57.5329569,60.7769252 C57.988273,58.2070205 58.111262,55.59653 57.899354,53 L48.7068224,59.9589567 C47.8800844,62.437715 46.9778103,64.7847294 46,67 L57.5275451,60.6271851 Z" id="路径" fill="#576DFB"></path>
                <path d="M38.4918972,44 C37.1810253,45.4013586 36.0111188,46.9353956 35,48.5787414 L46.0458981,65 C46.8020841,62.9684268 47.4498297,60.988299 48,59.135317 L38.4085255,44.1399538 L38.4918972,44 Z" id="路径" fill="#576DFB"></path>
                <path d="M34,50.7965426 L34.0809624,50.6552778 L45.4296706,67 C45.6261453,66.509176 45.8162551,66.0203646 46,65.5335657 L34.954583,49.1405935 L35.0363982,49 C34.6810082,49.5757361 34.3355422,50.1745836 34,50.7965426 Z" id="路径" fill="#576DFB"></path>
                <path d="M55.7662835,66.1638933 L55.7640244,66.3220734 C56.2949036,64.5779481 56.7078333,62.7998852 57,61 L45.9634453,67.6488941 C45.3389162,69.1659781 44.6844344,70.6163467 44,72 L55.7662835,66.1638933 Z" id="路径" fill="#576DFB"></path>
                <path d="M38.8879436,79.0484512 C36.7652296,81.8680802 34.4614129,84.194576 32,86 C34.5704002,85.3047534 44.9685773,82.1380455 51,75 L38.8879436,79.0484512 Z" id="路径" fill="#576DFB"></path>
                <path d="M30.8273473,58 C30.435167,59.7310514 30.1587655,61.4865855 30,63.2548054 L30.0989419,63.1060456 L38.8413656,79 C39.9926473,77.399138 41.0474192,75.7302743 42,74.0023978 L30.8273473,58 Z" id="路径" fill="#576DFB"></path>
                <path d="M50.3275088,51 C51.4951935,45.4525813 51.8967552,41.5380435 51.902385,41.4818576 L52,41.4536019 C49.9425046,39.8636095 47.5020901,39.6200119 45,40.5177212 L50.3275088,51 Z" id="路径" fill="#576DFB"></path>
                <path d="M43.1038876,73.9159569 C43.0144269,74.0828431 42.9253893,74.2508859 42.835059,74.4154939 C41.9715379,75.9955182 41.0251174,77.5259521 40,79 L51.7023349,74.888766 L51.6898787,75.0513962 C52.7152094,73.7541134 53.5768002,72.3282769 54.254069,70.8079474 C54.5175641,70.2093477 54.7662078,69.6066986 55,69 L43.1038876,73.9159569 Z" id="路径" fill="#576DFB"></path>
                <path d="M48.9499761,59 C49.7908687,56.2493279 50.4652071,53.6143655 51,51.2483026 L45.0409055,40.1322337 L45.1327693,40 C43.0733028,40.7298 40.9793266,42.128048 39,44.103305 L48.9499761,59 Z" id="路径" fill="#576DFB"></path>
                <path d="M39,78.7470153 L30.2333322,63 C29.2687277,73.5818385 31.5969969,85.2571384 31.7483673,86 C34.5138948,84.053516 36.9175508,81.5470766 39,78.7470153 Z" id="路径" fill="#576DFB"></path>
                <path d="M41.9790867,74 L41.9901598,73.9954012 C43.1056575,71.8820796 44.1103928,69.7080951 45,67.4828939 L33.6446802,51 C33.1945942,51.8497557 32.765385,52.739679 32.3570526,53.6697701 C31.7839528,55.0052826 31.3297202,56.3921264 31,57.8130655 L41.9790867,74 Z" id="路径" fill="#576DFB"></path>
                <path d="M11.1306714,47.0493124 L12.5250493,54.185143 C14.2448144,55.8845977 16.1182911,57.8428722 18,60 L16.622834,49.0063668 L16.7549784,49.0656701 C14.7956288,48.0625058 12.8499008,47.3588237 11,47 L11.1306714,47.0493124 Z" id="路径" fill="#576DFB"></path>
                <path d="M12,53 L10.7134519,46.2431926 C8.73680712,45.8663397 6.87812197,45.9177229 5.25022345,46.4656647 C5.16552995,46.4941763 5.08265636,46.5248422 5,46.555752 C5.49028015,46.9564947 8.35239638,49.3281399 12,53 Z" id="路径" fill="#576DFB"></path>
                <path d="M29.882138,59.3328735 L30,59.4281651 C29.4591604,58.5893821 28.895988,57.7799937 28.310483,57 L27.0553708,70.4440536 L27,70.402937 C27.2821577,70.9374802 27.5535381,71.4698345 27.8141413,72 L29.882138,59.3328735 Z" id="路径" fill="#576DFB"></path>
                <path d="M23.8584904,53.4387763 L24,53.5158933 C21.8672726,51.7598208 19.5175735,50.243965 17,49 L18.4781179,60.0369753 C20.3259727,62.0366387 22.0111151,64.0243136 23.5335451,66 L23.8584904,53.4387763 Z" id="路径" fill="#576DFB"></path>
                <path d="M0,60.1704592 C0.463800897,62.1782598 1.11819041,64.1313578 1.95319967,66 L22,65.1409434 C20.6944854,63.2868787 19.3726243,61.5622164 18.1046595,60 L0.0726274284,60.327069 L0,60.1704592 Z" id="路径" fill="#576DFB"></path>
                <path d="M3.95127435,67 L3.8761807,66.8843105 L24,66.0150743 C23.6922643,65.6714828 23.3827208,65.3331248 23.0713694,65 L3.07405274,65.6400554 L3,65.5240643 C3.2920153,66.0130612 3.60910676,66.5050398 3.95127435,67 Z" id="路径" fill="#576DFB"></path>
                <path d="M27.8721167,56.8318001 L28,56.9188951 C26.8523234,55.5273963 25.6157898,54.2181242 24.2988249,53 L24,65.984085 C24.9138738,67.3331259 25.7577825,68.6717642 26.5317261,70 L27.8721167,56.8318001 Z" id="路径" fill="#576DFB"></path>
                <path d="M31,78.40943 C32.2073495,81.7341222 32.927735,84.942654 33.1504324,88 C33.8748567,85.4558105 36.520593,74.9706622 33.7925163,66 L31,78.40943 Z" id="路径" fill="#576DFB"></path>
                <path d="M8,73.862157 C9.24803689,75.0377015 10.5788879,76.1337077 11.9836099,77.1428105 L11.911399,76.9900787 L30,78 C29.2693768,76.2878083 28.4296173,74.6181439 27.4852446,73 L8,73.862157 Z" id="路径" fill="#576DFB"></path>
                <path d="M12,54 C7.90177329,49.7494082 4.77122535,47.1445269 4.7262134,47.1072709 L4.75712478,47 C2.23111153,48.0160725 0.643538752,50.1567413 0,53.0051311 L12,54 Z" id="路径" fill="#576DFB"></path>
                <path d="M28,72.6965703 C28.0965942,72.8600872 28.1944645,73.0238395 28.2885262,73.1869064 C29.1934434,74.7490807 30.0060398,76.3558234 30.7227073,78 L33.8624473,65.8897272 L34,65.9854901 C33.4408292,64.4336993 32.6720629,62.9539117 31.7120655,61.5814764 C31.3322453,61.0438021 30.9401902,60.5166433 30.5359,60 L28,72.6965703 Z" id="路径" fill="#576DFB"></path>
                <path d="M18,59.7068311 C16.1574859,57.6238884 14.32466,55.7332431 12.6423119,54.0919803 L0.358837906,53.1411806 L0.296854788,53 C-0.163640901,55.0179982 -0.088581774,57.4066514 0.523447884,60 L18,59.7068311 Z" id="路径" fill="#576DFB"></path>
                <path d="M29.7571237,78.0683516 L12,77 C20.3279178,83.450238 31.3001711,87.7303711 32,88 C31.8289186,84.6495073 31.0000424,81.3029438 29.7571237,78.0683516 Z" id="路径" fill="#576DFB"></path>
                <path d="M27.9977525,73.0739363 L28,73.0619042 C26.8354968,70.9745549 25.5585966,68.9509893 24.1748477,67 L4,68.0950356 C4.46738305,68.9356907 4.98017274,69.7795642 5.53836907,70.6266561 C6.34719282,71.8315361 7.2650291,72.9606617 8.28047102,74 L27.9977525,73.0739363 Z" id="路径" fill="#576DFB"></path>
                <path d="M14,90 C14,90 42.0854701,78.75 76,90" id="路径" fill="#2F2E41"></path>
                <path d="M34.0202592,81.5800707 C34.0437764,81.8503186 34.0836143,82.119395 34.1396196,82.386266 C34.1396196,82.386266 36.7571219,83.8775968 36.9665216,82.2108158 C37.1026302,81.124776 36.794812,80.634389 36.5623813,80.4247301 L36.5587126,80.4213845 C36.4190361,80.2976509 36.3403157,80.1342671 36.338321,79.9639631 L36.338321,78 L34.0349197,78.6140771 L34.1396196,80.2808593 C33.9846652,80.6273744 33.982569,81.1449506 34.0202592,81.5800707 Z" id="路径" fill="#FFB9B9"></path>
                <path d="M34,81.4112038 C34.0236772,81.7135912 34.0637859,82.0146679 34.1201719,82.3132769 C34.1201719,82.3132769 36.7554706,83.9819662 36.966294,82.116961 C37.1033279,80.9017625 36.793417,80.3530556 36.5594059,80.1184627 C36.3729023,79.987292 36.1237189,79.9631073 35.9121754,80.0556453 C35.4905271,79.88092 35.0267115,80.1724534 34.643011,80.5493769 C34.3829947,80.8046373 34.166179,81.0952352 34,81.4112038 Z" id="路径" fill="#000000" opacity="0.05"></path>
                <path d="M35.3078941,81.0510012 C35.3078941,81.0510012 36.3205993,80.5123013 36.5047346,82.9364502 C36.6888698,85.360599 36.7809279,85.0912497 36.7809279,85.0912497 C36.7809279,85.0912497 37.7015751,87.2460493 35.7682227,86.9766999 C33.8348703,86.7073506 32.9142181,86.5277832 33.0062763,85.4503834 C33.0617675,84.800999 33.2175982,83.8580703 33.3326469,83.2113607 C33.4422768,82.570789 33.7437301,81.9761476 34.1990758,81.5022581 C34.5350045,81.1574114 34.939635,80.8913865 35.3078941,81.0510012 Z" id="路径" fill="#2F2E41"></path>
                <path d="M47.5292324,83.413618 L48.5723175,83.9362293 C48.5723175,83.9362293 51.8310613,84.4559108 50.7974635,82.5282211 C50.4983515,81.9522098 50.2700096,81.33948 50.1177904,80.7043947 C49.9000705,79.8198786 49.7790247,78.9126863 49.7569457,78 L47,78.399546 C47.8990332,79.6432017 47.7851563,81.6608255 47.6460008,82.7174864 C47.5896908,83.1433894 47.5292324,83.413618 47.5292324,83.413618 Z" id="路径" fill="#FFB9B9"></path>
                <path d="M47,83.4662146 L48.2021376,83.9419493 C48.2021376,83.9419493 51.9577839,84.415017 50.7665802,82.660235 C50.4218587,82.1358901 50.1586985,81.5781202 49.9832686,81 C49.253691,81.1152019 48.6985973,81.976942 48.6985973,81.976942 C48.1102291,83.6529517 47.5809606,83.234107 47.1345735,82.8325238 C47.0696772,83.2202247 47,83.4662146 47,83.4662146 Z" id="路径" fill="#000000" opacity="0.05"></path>
                <path d="M49.0597214,82.1771595 C49.0597214,82.1771595 49.9155844,80.4503644 50.8648964,81.1796363 C51.8142084,81.9089083 51.3431921,82.9508044 54.4179875,83.9710941 C57.4927829,84.9913838 55.4607418,87.1564317 53.5794072,86.9910342 C51.6980726,86.8256366 47.6869339,86.0459459 47.6869339,86.0459459 C47.6869339,86.0459459 46.6441796,82.8606083 47.1281526,82.7885748 C47.6121256,82.7165412 48.2800166,85.0668683 49.0597214,82.1771595 Z" id="路径" fill="#2F2E41"></path>
                <path d="M53.282534,86.6180696 C54.5860344,86.7218752 55.9566932,85.8760566 55.8603661,85 C56.4832743,85.9893235 54.9064856,87.1099207 53.4174284,86.991332 C51.4096682,86.8314401 47.1289855,86.0776728 47.1289855,86.0776728 C47.1289855,86.0776728 47.0766174,85.9327226 47,85.7054533 C47.1246394,85.7273544 51.3047988,86.4605766 53.282534,86.6180696 Z" id="路径" fill="#FFFFFF" opacity="0.3"></path>
                <path d="M33.0110553,85 C33.117224,86.0088294 34.0359518,86.2208846 35.7685334,86.5223339 C36.6496417,86.6756356 36.9372295,86.199913 36.9901404,85.636943 C37.0477375,86.3579923 36.8795984,87.1642052 35.7685334,86.9708918 C33.834959,86.634473 32.9142085,86.4101947 33.006277,85.0645223 C33.0077167,85.0435845 33.0094932,85.0214157 33.0110553,85 Z" id="路径" fill="#FFFFFF" opacity="0.3"></path>
                <path d="M28.3786664,47.5325168 L28.0123317,52.5248834 C28.0123317,52.5248834 27.7192624,57.5838161 29.9905423,57.9832048 C32.2618221,58.3825935 29.9905423,51.5264104 29.9905423,51.5264104 L29.9905423,47 L28.3786664,47.5325168 Z" id="路径" fill="#FBBEBE"></path>
                <path d="M30.4612319,30 L30.1897039,30.5627051 C30.1897039,30.5627051 30.2575845,34.5016112 30.1897039,34.814221 C30.1218233,35.1268308 29.2393742,37.5652038 29.2393742,37.8152926 C29.2393742,38.0653815 28.5605669,45.3179716 28.4248057,45.7556284 C28.2890445,46.1932852 27.6781177,47.5687765 28.2211639,47.7563432 C28.76421,47.9439099 29.7824203,47.193642 30.1897039,47.7563432 C30.5969874,48.3190444 30.9363918,47.7563432 30.9363918,47.5687765 C30.9363918,47.3812099 31.072153,43.8174358 31.8867215,42.817079 C32.70129,41.8167223 33.4479779,39.5659186 33.5837391,39.1282618 C33.7195003,38.6906049 33.9231435,32.3758507 33.9910241,32.2508063 C34.0589047,32.1257618 33.7195003,30.4376581 33.7195003,30.4376581 L30.4612319,30 Z" id="路径" fill="#3F3D56"></path>
                <path d="M34.6727595,37 C34.6727595,37 33.9158587,39.9752911 33.411259,40.545028 C32.9066593,41.1147649 30.3836556,45.3561364 31.1405499,50.9901976 C31.8974443,56.6242587 33.2220367,63.9675319 33.2220367,63.9675319 C33.2220367,63.9675319 33.4112629,66.562998 33.1589617,67.2593428 C32.9066606,67.9556876 34.2943137,79.0338993 34.2943137,79.0338993 C34.2943137,79.0338993 36.2496401,80.5531969 37.321917,78.6540743 C37.321917,78.6540743 37.0696159,74.5393107 37.321917,74.1594857 C37.5742182,73.7796606 37.321917,66.942823 37.321917,66.942823 C37.321917,66.942823 37.5111419,49.914029 38.5203426,50.6103739 C39.5295433,51.3067187 42.620223,63.1445779 42.620223,63.1445779 C42.620223,63.1445779 43.9447998,67.7024718 43.8817235,68.0822955 C43.8186472,68.4621192 45.0170689,73.2099303 45.0170689,73.2099303 C45.0170689,73.2099303 46.1524195,79.7935573 46.5939455,79.9201613 C47.0354716,80.0467652 49.7476989,80.1100731 50,79.4137283 L49.2430992,73.4631461 C49.2430992,73.4631461 48.4861983,66.6896111 48.1077472,65.7400505 C47.7292962,64.7904899 47.0985465,51.3067239 45.2693687,47.3185695 C45.2693687,47.3185695 44.5755429,40.9248596 44.0709432,39.975299 C44.0709432,39.975299 43.774923,38.6707634 44.1402062,37.4529447 C44.1402141,37.4529368 35.366588,37.5064316 34.6727595,37 Z" id="路径" fill="#2F2E41"></path>
                <ellipse id="椭圆形" fill="#2F2E41" cx="38.5" cy="18" rx="5.5" ry="7"></ellipse>
                <path d="M49,26.5496618 L48.1832538,28.3994808 L38.5079512,31.3724053 C38.5079512,31.3724053 31.7855007,33.420419 31.0944075,30.1171633 C30.4033144,26.8139076 33.7331257,26.4835901 33.7331257,26.4835901 C33.7331257,26.4835901 34.9896589,25.5586792 36.5603248,24.6337697 C37.0855547,24.3239247 37.2595852,23.8224906 37.2583273,23.2919903 C37.257031,23.1342232 37.2429482,22.9768595 37.2162316,22.8216079 C37.1859309,22.6421772 37.1439478,22.4651464 37.0905785,22.2917649 C36.9575747,21.8638578 36.7797305,21.4528307 36.5603248,21.0662613 C36.5603248,21.0662613 40.7068836,19.3485707 40.6440571,20.2734816 C40.6175063,20.6066486 40.6516227,20.9420835 40.744578,21.2618105 C40.8303739,21.5417857 40.9460884,21.8106263 41.0895034,22.0631785 C41.1598605,22.19068 41.238394,22.3228179 41.3257237,22.462876 C41.4388146,22.644554 41.5676046,22.8381245 41.7121094,23.0482101 C42.5288556,24.2373805 45.2304017,24.2373805 45.2304017,24.2373805 C47.3665128,23.9731265 49,26.5496618 49,26.5496618 Z" id="路径" fill="#FBBEBE"></path>
                <path d="M59.3487408,36 C59.3487408,36 63.9729891,39.4988989 64.8721483,39.4328754 C65.7713075,39.3668518 71.0378127,39.036775 69.8175258,40.2910956 C68.5972388,41.5454162 63.0738299,40.7532127 63.0738299,40.7532127 L58,37.4523708 L59.3487408,36 Z" id="路径" fill="#FBBEBE"></path>
                <path d="M41,21.028478 C40.1086591,21.8814418 38.7545811,22.2068677 37.5069041,21.8679745 C37.379757,21.5191955 37.2097442,21.184175 37,20.8690896 C37,20.8690896 40.9639655,19.4690322 40.9039055,20.2229097 C40.8785239,20.4944679 40.9111379,20.7678746 41,21.028478 Z" id="路径" fill="#000000" opacity="0.1"></path>
                <circle id="椭圆形" fill="#FBBEBE" cx="37.5" cy="18.5" r="3.5"></circle>
                <path d="M33.1588762,29.0645336 C33.1588762,29.0645336 49.2227174,25.5465738 49.2874908,26.0491398 C49.3522643,26.5517059 50,27.5568367 50,27.5568367 L46.2431338,31.7030037 C46.2431338,31.7030037 46.6965492,33.7132653 45.7897197,34.1530108 C44.8828902,34.5927563 44.753342,37.922253 43.911286,37.9850736 C43.0692299,38.0478942 33.2236497,37.922253 33.1588762,37.4196869 C33.0941028,36.9171209 33.4179713,36.6030179 33.1588762,36.4773767 C32.8997811,36.3517355 32.5111405,36.3517355 32.835009,35.7235283 C33.1588776,35.095321 33.1588762,32.4568522 33.1588762,32.4568522 L30.1145165,31.0748004 C30.1145165,31.0748004 29.6970208,29.9042149 30.4563436,29.7042489 C31.2156663,29.5042829 33.1588762,29.0645336 33.1588762,29.0645336 Z" id="路径" fill="#3F3D56"></path>
                <path d="M49.546523,27 L50.1065006,27 C50.1065006,27 51.786432,28.1612899 52.2219691,29.1935476 C52.6575063,30.2258054 54.2129998,31.5806447 54.5863174,31.9677409 C54.9596349,32.354837 60.0616501,36.0322587 59.9994357,36.5483869 C59.9372212,37.0645151 58.506163,37.580646 58.4439434,38.1612903 C58.3817238,38.7419346 59.0661406,39 58.6306035,39 C58.1950663,39 55.5196176,37.3870966 54.5241029,36.8064524 C53.5285882,36.2258081 51.4753379,34.5483874 51.2264596,34.0967738 C50.9775812,33.6451603 49.2976485,32.8709666 49.110991,32.5483865 C48.9243335,32.2258063 46,30.7419403 46,30.7419403 L49.546523,27 Z" id="路径" fill="#3F3D56"></path>
                <circle id="椭圆形" fill="#2F2E41" cx="33" cy="14" r="2"></circle>
                <circle id="椭圆形" fill="#2F2E41" cx="42" cy="11" r="2"></circle>
                <ellipse id="椭圆形" fill="#2F2E41" cx="39" cy="15.5" rx="4" ry="2.5"></ellipse>
                <path d="M40.7700669,22 C39.0932582,22.577314 37.7680782,22.6457996 37,22.6142327 C37.026002,22.7399678 37.0397088,22.867413 37.0409717,22.9951849 C37.130255,22.9983953 37.226265,23 37.328388,23 C38.176578,23 39.4436625,22.8710546 41,22.3237027 L40.7700669,22 Z" id="路径" fill="#2F2E41"></path>
                <rect id="矩形" fill="#3F3D56" x="66" y="41" width="56" height="33" rx="16.5"></rect>
                <rect id="矩形" fill="#576DFB" opacity="0.3" x="72" y="64" width="44" height="2"></rect>
                <rect id="矩形" fill="#576DFB" opacity="0.3" x="72" y="60" width="44" height="2"></rect>
                <rect id="矩形" fill="#576DFB" opacity="0.3" x="108" y="54" width="8" height="2"></rect>
                <rect id="矩形" fill="#576DFB" opacity="0.3" x="87" y="50" width="29" height="2"></rect>
                <rect id="矩形" fill="#576DFB" opacity="0.3" x="72" y="68" width="22" height="2"></rect>
                <rect id="矩形" fill="#576DFB" x="72" y="45" width="11" height="11" rx="5.5"></rect>
            </g>
        </g>
    </g>
</svg>