<?xml version="1.0" encoding="UTF-8"?>
<svg width="216px" height="252px" viewBox="0 0 216 252" version="1.1" xmlns="http://www.w3.org/2000/svg" xmlns:xlink="http://www.w3.org/1999/xlink">
    <!-- Generator: Sketch 52.2 (67145) - http://www.bohemiancoding.com/sketch -->
    <title>矩形 copy 48</title>
    <desc>Created with Sketch.</desc>
    <g id="Page-1" stroke="none" stroke-width="1" fill="none" fill-rule="evenodd">
        <g id="拍信云首页" transform="translate(-1477.000000, -1275.000000)">
            <rect id="矩形-copy-48" fill="#0EC1C7" x="1477" y="1275" width="216" height="252" rx="8"></rect>
            <g id="undraw_add_notes_8cfw-copy" transform="translate(1517.000000, 1317.000000)">
                <path d="M115,1 L90.3646774,1 C88.5451075,11.2507254 88.5451075,21.7492746 90.3646774,32 C97.5780644,30.7145597 105.960719,30.9395117 115,32 C113.166195,21.4401078 113.082337,11.0955269 115,1 Z" id="路径" fill="#000000" opacity="0.1"></path>
                <path d="M6.96181271,94 C7.42155645,93.1370755 6.90051354,92.0799538 6.30437916,91.3094296 C5.70824479,90.5389054 4.98491464,89.7433234 5.00023943,88.7582427 C5.02322662,87.3487471 6.48674418,86.5171447 7.65602575,85.7701121 C8.5242599,85.2162445 9.32475862,84.5585337 10.0405633,83.8109133 C10.3400758,83.5230318 10.5879889,83.1838143 10.7730883,82.8086053 C11.01522,82.257336 11.0090901,81.6308935 10.9937653,81.0263765 C10.941661,79.0154962 10.8440932,77.006704 10.7010618,75" id="路径" stroke="#3F3D56" stroke-width="4"></path>
                <path d="M13,74.9128198 C12.96916,74.2303965 12.5924312,73.6109364 12.0009529,73.2700736 L11.5528089,74.1571566 L11.567081,73.0829434 C10.734078,72.8352702 9.83664793,73.1548617 9.34715714,73.8734996 C8.85766635,74.5921374 8.88836067,75.5450298 9.42308401,76.2306174 C9.95780735,76.9162051 10.8739415,77.1772749 11.6892752,76.8764117 C12.5046089,76.5755486 13.0321768,75.7817437 12.9942912,74.9128198 L13,74.9128198 Z" id="路径" fill="#57B894"></path>
                <path d="M8.77715786,89.9168936 C8.34374896,90.7569073 7.38137638,91.1787628 6.46992063,90.9282699 C5.55846487,90.677777 4.94686668,89.8233513 5.00364639,88.8798296 C5.0604261,87.9363079 5.77007579,87.161389 6.70499389,87.0220025 C7.639912,86.8826161 8.54474965,87.4168319 8.87429418,88.3027567 L7.62152138,89.3212342 L9,89.0026922 C8.99949166,89.3208123 8.92309633,89.6342212 8.77715786,89.9168936 Z" id="路径" fill="#57B894"></path>
                <path d="M8.11721235,85.9944014 C7.09723316,86.07139 6.18861025,85.346153 6.02545673,84.3248213 C5.86230321,83.3034897 6.49887519,82.3257036 7.49091946,82.073844 L7.47966026,82.8981006 L7.92721338,82.0026647 C8.45181963,81.9752109 8.96554506,82.160787 9.35427729,82.5181715 C9.74300952,82.875556 9.97456121,83.3751571 9.99749842,83.9059999 C10.009061,84.1365479 9.98047829,84.3673576 9.91305443,84.5878979 C9.66867247,85.3936574 8.94962432,85.9568159 8.11721235,85.9944014 Z" id="路径" fill="#57B894"></path>
                <path d="M13.0814984,81.998641 C12.2345816,82.0296503 11.4593308,81.5275476 11.144121,80.7438698 C10.8289112,79.960192 11.0416383,79.0637427 11.6757331,78.5036132 C12.309828,77.9434838 13.2287069,77.8403257 13.972042,78.2458178 L13.6163982,79.2172376 L14.3477625,78.5172439 C14.7396943,78.8748249 14.9733068,79.3726262 14.9973862,79.9015171 C15.0069918,80.086766 14.9900919,80.2724342 14.9471945,80.4529407 C14.7414066,81.325297 13.9800459,81.9560724 13.0814984,81.998641 Z" id="路径" fill="#57B894"></path>
                <path d="M12.7696561,75.4115212 C12.3002761,75.4654075 11.8439344,75.6165885 11.3731057,75.6465253 C10.902277,75.6764621 10.3850897,75.5597085 10.0866568,75.1825045 C9.92729936,74.9774373 9.84617195,74.7199806 9.7114425,74.4984481 C9.5827677,74.2912525 9.40661858,74.120047 9.19860138,74 C8.8639196,74.7228442 8.95748538,75.5796023 9.43964908,76.2072127 C9.92181278,76.8348231 10.7081528,77.1233981 11.465448,76.9506504 C12.2227431,76.7779027 12.8183993,76.1740786 13,75.395056 C12.9232187,75.3980497 12.8464374,75.404037 12.7696561,75.4115212 Z" id="路径" fill="#000000" opacity="0.1"></path>
                <path d="M13.1249194,81.9972959 C12.4136017,82.0347381 11.7357367,81.6812636 11.3403193,81.0667113 C10.944902,80.4521591 10.8902313,79.6671365 11.1963889,79 C11.3573251,79.1127315 11.495669,79.256761 11.6037639,79.4241174 C11.7482231,79.6504132 11.8363432,79.9111779 12.0053605,80.11949 C12.3217262,80.5046425 12.8605591,80.630529 13.3502758,80.6065506 C13.8399925,80.5825722 14.3123741,80.4402007 14.7948679,80.3937426 C14.8627637,80.3937426 14.9306596,80.3832521 15,80.3802548 C14.7914898,81.2920977 14.027174,81.9512321 13.1249194,81.9972959 Z" id="路径" fill="#000000" opacity="0.1"></path>
                <path d="M8.14261546,85.9972752 C7.43219852,86.0347266 6.75436682,85.6840674 6.35390872,85.0719327 C5.95345062,84.459798 5.88822993,83.6746376 6.18180009,83 C6.35142242,83.1153476 6.4995047,83.2618263 6.61883175,83.4322993 C6.77761992,83.6658926 6.87668043,83.9343732 7.05586341,84.1497645 C7.40111841,84.5502101 7.98091375,84.6912762 8.50243819,84.6776247 C9.02396263,84.6639731 9.49741359,84.5365586 10,84.4971207 C9.74773187,85.3557546 9.00407594,85.9563834 8.14261546,85.9972752 Z" id="路径" fill="#000000" opacity="0.1"></path>
                <path d="M9,89.7396031 C8.52836455,90.8132167 7.29153248,91.2941291 6.23745822,90.813751 C5.18338397,90.3333728 4.71122398,89.0736136 5.18285936,88 C5.35560209,88.1145513 5.5104727,88.2548798 5.64228856,88.4162893 C5.84217009,88.6639358 5.97343558,88.9434878 6.20315017,89.1759413 C6.63125465,89.604385 7.3218901,89.7836629 7.93794289,89.7973366 C8.29275478,89.7988021 8.64735684,89.7795259 9,89.7396031 Z" id="路径" fill="#000000" opacity="0.1"></path>
                <path d="M3,94.3712534 C3,94.3712534 4.88138011,93.7754672 5.44851094,93.4487457 C6.01564176,93.1220242 8.33510497,92.7321549 8.48113267,93.2565566 C8.62716036,93.7809583 11.3082968,95.8648373 9.18580121,95.873074 C7.0633056,95.8813107 4.25142341,96.1544938 3.68429258,95.873074 C3.11716176,95.5916542 3,94.3712534 3,94.3712534 Z" id="路径" fill="#656380"></path>
                <path d="M9.22954463,95.6166812 C7.10317073,95.6334344 4.29010215,95.9517447 3.72408895,95.6166812 C3.29235516,95.3586823 3.12068149,94.4288812 3.06289036,94 L3,94 C3,94 3.11898175,95.4960583 3.67989573,95.842849 C4.24080971,96.1896397 7.06067725,95.8562516 9.18705115,95.842849 C9.80065705,95.842849 10.0114247,95.6233825 9.99952655,95.3033969 C9.9196388,95.4927077 9.68677451,95.6133306 9.22954463,95.6166812 Z" id="路径" fill="#000000" opacity="0.2"></path>
                <path d="M129.731364,94 C128.971608,92.5925849 129.833947,90.8677801 130.824516,89.612648 C131.815084,88.3575159 133.025245,87.0478825 132.999599,85.4449041 C132.962733,83.14463 130.523178,81.7885103 128.572495,80.5686437 C127.126541,79.6643266 125.792755,78.5919475 124.599001,77.3739076 C124.118142,76.8930141 123.658121,76.3624283 123.37762,75.7388696 C122.973699,74.8395987 122.984919,73.8152955 123.010565,72.8326697 C123.094982,69.5508385 123.255268,66.273282 123.491423,63" id="路径" stroke="#3F3D56" stroke-width="4"></path>
                <path d="M120.002256,63.3387088 C120.056616,62.1478569 120.715021,61.067102 121.748336,60.4725632 L122.53063,62.0214082 L122.507161,60.1440203 C123.967351,59.7120867 125.539277,60.2737634 126.395027,61.5332227 C127.250777,62.7926819 127.193959,64.4608831 126.254499,65.6592066 C125.315039,66.8575301 123.708539,67.3109657 122.281122,66.7806948 C120.853704,66.2504238 119.932955,64.8581414 120.003821,63.3371443 L120.002256,63.3387088 Z" id="路径" fill="#57B894"></path>
                <path d="M125.383718,87.100365 C126.14102,88.5720959 127.826358,89.3125274 129.42347,88.8751782 C131.020583,88.437829 132.092833,86.9422666 131.993652,85.2903174 C131.894471,83.6383682 130.650975,82.2816612 129.012993,82.0382927 C127.375011,81.7949242 125.790354,82.7314291 125.214573,84.2830936 L127.407195,86.06267 L125.000009,85.5039112 C124.998763,86.0590189 125.130322,86.6063816 125.383718,87.100365 Z" id="路径" fill="#57B894"></path>
                <path d="M127.35049,79.9953044 C129.121536,80.077303 130.672172,78.8128913 130.954969,77.0561594 C131.237766,75.2994275 130.162765,73.6091969 128.456112,73.1271916 L128.474825,74.5703092 L127.685763,73.0051058 L127.676407,73.0051058 C126.425968,72.9373661 125.235293,73.547558 124.556662,74.6038992 C123.87803,75.6602403 123.815576,77.000638 124.393023,78.11594 C124.97047,79.2312419 126.099211,79.9503081 127.35049,80 L127.35049,79.9953044 Z" id="路径" fill="#57B894"></path>
                <path d="M119.331943,73.9961436 C120.81796,74.0656419 122.18593,73.1903236 122.74397,71.8129016 C123.302009,70.4354796 122.928462,68.8562427 121.812257,67.8739272 C120.696053,66.8916116 119.080533,66.72037 117.782785,67.4468117 L118.40934,69.1412518 L117.135866,67.9208794 C116.09412,68.8751048 115.728363,70.3610774 116.20838,71.6890052 C116.688397,73.016933 117.920184,73.9267605 119.331943,73.9961436 Z" id="路径" fill="#57B894"></path>
                <path d="M120.400339,63.3196213 C121.218423,63.4072993 122.012772,63.6549512 122.832438,63.7041739 C123.652105,63.7533966 124.552472,63.5626585 125.069907,62.9350687 C125.349986,62.601277 125.489234,62.1798074 125.725007,61.8152515 C125.949233,61.4770281 126.255054,61.1971668 126.61588,61 C127.238329,62.1906789 127.095766,63.6239411 126.250175,64.676634 C125.404584,65.7293268 124.008731,66.2112682 122.669504,65.9129201 C121.330277,65.614572 120.289624,64.5898345 120,63.2842424 C120.134501,63.2965481 120.26742,63.3073156 120.400339,63.3196213 Z" id="路径" fill="#000000" opacity="0.1"></path>
                <path d="M119.285496,73.9959977 C120.531068,74.0547252 121.716339,73.463874 122.406849,72.4400208 C123.097359,71.4161675 123.191555,70.1098883 122.65491,69 C122.373294,69.186868 122.131283,69.4260279 121.942393,69.7041234 C121.690637,70.0788232 121.53705,70.5128505 121.240959,70.8578866 C120.689946,71.4964376 119.746257,71.705645 118.891236,71.668175 C118.036216,71.630705 117.212862,71.3902726 116.357842,71.3122102 C116.239089,71.3028427 116.120336,71.2950364 116,71.2919139 C116.356698,72.8175048 117.699447,73.9226366 119.285496,73.9959977 Z" id="路径" fill="#000000" opacity="0.1"></path>
                <path d="M127.254067,79.9961179 C128.495712,80.0536691 129.678544,79.4681789 130.378539,78.4495343 C131.078535,77.4308898 131.195428,76.1249994 130.687315,75 C130.392204,75.1921208 130.135617,75.4368971 129.930592,75.7218907 C129.652221,76.110601 129.479439,76.5580145 129.153072,76.9181666 C128.549934,77.5845272 127.535638,77.81934 126.620532,77.7971279 C125.734222,77.7780891 124.88151,77.5623152 124,77.4956791 C124.443999,78.9266043 125.746017,79.9270809 127.254067,79.9961179 Z" id="路径" fill="#000000" opacity="0.1"></path>
                <path d="M126,86.9997039 C126.898343,88.7395622 129.011025,89.4771764 130.80852,88.6785329 C132.606016,87.8798895 133.45964,85.8243187 132.751391,84 C132.446021,84.198693 132.172071,84.4413168 131.938509,84.7199289 C131.585874,85.1456403 131.354095,85.6288803 130.94517,86.0250056 C130.188578,86.7630149 128.966771,87.0670945 127.879065,87.0950369 C127.251373,87.0997095 126.623943,87.0678773 126,86.9997039 Z" id="路径" fill="#000000" opacity="0.1"></path>
                <path d="M134,93.0184997 C134,93.0184997 131.314353,92.3415529 130.50029,91.7764366 C129.686227,91.2113202 126.36759,90.5373556 126.166737,91.4424364 C125.965884,92.3475172 122.129898,95.9484566 125.162472,95.9723137 C128.195047,95.9961709 132.209062,96.1065102 133.017038,95.6234028 C133.825015,95.1402955 134,93.0184997 134,93.0184997 Z" id="路径" fill="#656380"></path>
                <path d="M125.108985,95.6588956 C128.143196,95.6829037 132.159377,95.7924406 132.96779,95.3077773 C133.576763,94.9371525 133.827965,93.6122062 133.910176,93 L134,93 C134,93 133.829487,95.1367197 133.021075,95.621383 C132.212662,96.1060462 128.196482,95.9965093 125.162271,95.9725012 C124.286871,95.9725012 123.983907,95.6588956 124.000653,95.2042424 C124.122448,95.4818359 124.455861,95.6528936 125.108985,95.6588956 Z" id="路径" fill="#000000" opacity="0.2"></path>
                <path d="M38.6353226,2 L14,2 C15.9192451,12.0955269 15.8338047,22.4401078 14,33 C23.0392805,31.9395117 31.4235178,31.7145597 38.6353226,33 C40.4548925,22.7492746 40.4548925,12.2507254 38.6353226,2 Z" id="路径" fill="#000000" opacity="0.1"></path>
                <path d="M62.5756718,15.0258773 C60.176217,15.1949317 57.9251496,16.8572992 57.7609763,19.0127419 C57.6709968,20.185165 58.165095,21.3810678 57.9646143,22.5378377 C57.70099,24.0687185 56.2865745,25.198878 54.8074369,25.9674491 C53.3282993,26.7360201 51.6928814,27.3151878 50.4631608,28.3733426 C49.2334402,29.4314975 48.5136038,31.1909147 49.3818276,32.5699598 C49.7149098,33.0990372 50.2405798,33.5091505 50.6667988,33.9787458 C51.8254829,35.2670024 52.2169728,37.0686833 51.6707812,38.5979988 C51.1735257,39.9833051 49.9611696,41.204253 50.0921925,42.6756518 C50.2184796,44.0844379 51.606059,45.2271199 53.1088755,45.6732355 C54.6116919,46.1193511 56.2186952,46.0144748 57.773605,45.9033372 C59.5684604,45.7765465 61.581161,45.5448794 62.6246081,44.2550575 C63.7454061,42.8697512 63.2449934,40.873971 63.8417,39.2366485 C65.0319558,35.9745261 69.955574,35.1809099 71.9224955,32.2615922 C72.8696487,30.8528061 73.0133003,29.1168686 72.999093,27.4451091 C72.9580496,22.1512042 70.0944898,14.4983652 62.5756718,15.0258773 Z" id="路径" fill="#3F3D56"></path>
                <path d="M61.6825662,26.4594595 C61.6825662,26.4594595 62.4672298,29.0540541 59.7993736,30.5135135 C57.1315175,31.972973 61.9964316,35.5405405 61.9964316,35.5405405 L65.7628167,37 L70,35.0540541 L69.2153364,28.4054054 C69.2153364,28.4054054 65.605884,29.7027027 65.605884,25 L61.6825662,26.4594595 Z" id="路径" fill="#A0616A"></path>
                <path d="M61.6825662,26.4594595 C61.6825662,26.4594595 62.4672298,29.0540541 59.7993736,30.5135135 C57.1315175,31.972973 61.9964316,35.5405405 61.9964316,35.5405405 L65.7628167,37 L70,35.0540541 L69.2153364,28.4054054 C69.2153364,28.4054054 65.605884,29.7027027 65.605884,25 L61.6825662,26.4594595 Z" id="路径" fill="#000000" opacity="0.1"></path>
                <path d="M68.4035368,84.0853659 C68.4035368,84.0853659 67.7215596,89.8902439 68.1307459,90.5731707 C68.5399323,91.2560976 70.4494687,90.9146341 70.4494687,90.9146341 C70.4494687,90.9146341 70.858655,85.1097561 70.9950505,84.4268293 C71.1314459,83.7439024 68.4035368,84.0853659 68.4035368,84.0853659 Z" id="路径" fill="#A0616A"></path>
                <path d="M70.652908,89.1116653 C70.652908,89.1116653 68.3943348,88.7244881 68.3943348,89.392035 C68.3943348,89.392035 67.4603968,89.8926953 67.4603968,89.392035 C67.4603968,88.8913748 66.604287,94.6489674 67.2269123,95.4834011 C67.8495376,96.3178348 70.2279663,95.4032955 70.8070078,95.8171746 C71.2739767,96.1509481 74.776244,96.0675047 74.9319004,95.233071 C75.0875567,94.3986373 75.0875567,93.7310903 73.6866498,92.8966566 C72.2857429,92.0622229 70.652908,89.1116653 70.652908,89.1116653 Z" id="路径" fill="#3F3D56"></path>
                <path d="M70.652908,89.1116653 C70.652908,89.1116653 68.3943348,88.7244881 68.3943348,89.392035 C68.3943348,89.392035 67.4603968,89.8926953 67.4603968,89.392035 C67.4603968,88.8913748 66.604287,94.6489674 67.2269123,95.4834011 C67.8495376,96.3178348 70.2279663,95.4032955 70.8070078,95.8171746 C71.2739767,96.1509481 74.776244,96.0675047 74.9319004,95.233071 C75.0875567,94.3986373 75.0875567,93.7310903 73.6866498,92.8966566 C72.2857429,92.0622229 70.652908,89.1116653 70.652908,89.1116653 Z" id="路径" fill="#000000" opacity="0.1"></path>
                <path d="M62,83.2058824 C62,83.2058824 63.12,87.8382353 62.64,90 L66,89.0735294 C66,89.0735294 63.92,83.6691176 64.08,83.2058824 C64.24,82.7426471 62,83.2058824 62,83.2058824 Z" id="路径" fill="#A0616A"></path>
                <path d="M63.8785067,89.5115808 C63.8785067,89.5115808 65.7819378,88.360524 66.3676089,89.5115808 C66.95328,90.6626376 68.7102934,95.2668648 67.6853689,95.7601749 C66.6604445,96.253485 63.4392533,96.0890483 63.2928356,94.2802447 C63.1464178,92.4714412 63,89.8404542 63,89.8404542 C63,89.8404542 63.7320889,90.1693276 63.8785067,89.5115808 Z" id="路径" fill="#3F3D56"></path>
                <path d="M58.1510938,49 C58.1510938,49 55.0868248,55.1578947 58.9574803,64.9473684 C58.9574803,64.9473684 60.8928081,70.6315789 59.9251442,73.9473684 C58.9574803,77.2631579 62.0217493,85 62.0217493,85 L65.7311276,84.3684211 C65.7311276,84.3684211 64.2796318,73.9473684 64.7634637,72.8421053 C65.2472957,71.7368421 64.924741,59.8947368 64.924741,59.8947368 C64.924741,59.8947368 69.2792285,67.9473684 68.6341193,74.4210526 C67.98901,80.8947368 67.8277327,84.5263158 67.8277327,84.5263158 L72.0209429,84.3684211 C72.3361287,82.1900933 72.7667828,80.029282 73.3111614,77.8947368 C74.117548,74.8947368 74.60138,60.6842105 72.5047749,56.4210526 L72.0209429,51.2105263 L58.1510938,49 Z" id="路径" fill="#3F3D56"></path>
                <circle id="椭圆形" fill="#A0616A" cx="63" cy="24" r="4"></circle>
                <ellipse id="椭圆形" fill="#3F3D56" transform="translate(62.991202, 22.166927) rotate(-7.300000) translate(-62.991202, -22.166927) " cx="62.9912017" cy="22.166927" rx="4.43160518" ry="2.38006579"></ellipse>
                <path d="M66.9761813,22 C66.762791,23.136208 65.0362693,24.1947 62.8086038,24.4682604 C60.3740142,24.7682442 58.2595102,24.0128446 58.0234876,22.7771601 C57.9973648,22.9083082 57.9929999,23.0426056 58.0105548,23.175066 C58.1722142,24.4511629 60.3287496,25.2392032 62.8086038,24.9345564 C65.2884579,24.6299097 67.1604729,23.3460412 66.989114,22.0683901 C66.9858809,22.0450753 66.9810311,22.0295321 66.9761813,22 Z" id="路径" fill="#000000" opacity="0.1"></path>
                <path d="M58.180006,31.4731239 C57.67079,31.254341 57.085666,31.5932078 56.7440801,32.0422886 C56.4024942,32.4913693 56.2063986,33.0457291 55.8695569,33.4980999 C55.490017,34.0047551 54.9539169,34.3534918 54.4541894,34.7334833 C53.8016277,35.2309116 53.1991947,35.7958326 52.6561192,36.4195924 C52.3683014,36.7485893 52.0883908,37.1071959 51.7072695,37.3276238 C51.1015871,37.6812955 50.3361816,37.6187861 49.6972895,37.3276238 C49.0583973,37.0364616 48.5222972,36.565996 47.9988485,36.0922405 C46.4427349,34.6808438 44.9077069,33.2370957 43.3937645,31.7609962 C42.3168201,30.7147861 40.7654508,30.188391 39.3010594,30.0206026 C38.9436593,29.979478 38.5403982,29.977833 38.2747203,30.2295156 C38.0996119,30.4120051 38.0012249,30.659282 38.0011353,30.9171192 C37.9679255,31.7741561 38.6684929,32.4880794 39.4244098,32.8351711 C40.1803268,33.1822628 41.0184774,33.2875419 41.7791386,33.6165388 C42.5016977,33.9327487 43.1347314,34.435526 43.6183256,35.077285 C44.1496814,35.7813384 44.7933178,36.357083 45.299371,37.0792312 C45.5302578,37.4082281 45.7342605,37.7553198 45.9556587,38.0908967 C46.4928485,38.8708946 47.0781488,39.6137963 47.7078679,40.3149157 C48.4400636,41.1620828 49.3351452,42.0799841 50.4263224,41.9944449 C50.8817702,41.9599003 51.3024269,41.7476973 51.7120137,41.5387842 C52.9913794,40.8807904 54.281815,40.2227966 55.4030391,39.3098302 C56.0593269,38.7752102 56.6523579,38.158341 57.340274,37.6648457 C57.9981431,37.1960251 58.7493158,36.8423534 59.2822531,36.2221942 C59.8971406,35.4937191 60.1362374,34.5013385 59.9243081,33.5573193 C59.6872774,32.6175811 59.0421707,31.8467693 58.180006,31.4731239 Z" id="路径" fill="#A0616A"></path>
                <path d="M71.8194709,29.4731239 C72.3285405,29.254341 72.9134963,29.5932078 73.254984,30.0422886 C73.5964717,30.4913693 73.792511,31.0457291 74.1292558,31.4980999 C74.5086866,32.0047551 75.0446326,32.3534918 75.5442165,32.7334833 C76.1965906,33.2309116 76.7988504,33.7958326 77.3417698,34.4195924 C77.6295048,34.7485893 77.909335,35.1071959 78.2903468,35.3276238 C78.8958551,35.6812955 79.6610405,35.6187861 80.299749,35.3276238 C80.9384575,35.0364616 81.4744035,34.565996 81.9977018,34.0922405 C83.557584,32.6753605 85.0942787,31.2316124 86.6077859,29.7609962 C87.6844208,28.7147861 89.2353441,28.188391 90.6993146,28.0206026 C91.0566119,27.979478 91.4597572,27.977833 91.7253587,28.2295156 C91.9004168,28.4120051 91.9987754,28.659282 91.9988651,28.9171192 C92.0320653,29.7741561 91.3316993,30.4880794 90.5759996,30.8351711 C89.8202999,31.1822628 88.9823903,31.2875419 88.2219477,31.6165388 C87.4995963,31.9327487 86.8667446,32.435526 86.3832894,33.077285 C85.8520863,33.7813384 85.2086349,34.357083 84.7027272,35.0792312 C84.4719068,35.4082281 84.2679627,35.7553198 84.0466281,36.0908967 C83.5075561,36.8710923 82.920308,37.6139985 82.2885988,38.3149157 C81.5566135,39.1620828 80.6617892,40.0799841 79.5709257,39.9944449 C79.1156088,39.9599003 78.695073,39.7476973 78.2856039,39.5387842 C77.006606,38.8807904 75.7165413,38.2227966 74.5956395,37.3098302 C73.9395404,36.7752102 73.3466798,36.158341 72.6589615,35.6648457 C72.0012814,35.1960251 71.2503247,34.8423534 70.7175406,34.2221942 C70.1028298,33.4937191 69.8638018,32.5013385 70.0756702,31.5573193 C70.3126327,30.6175811 70.957554,29.8467693 71.8194709,29.4731239 Z" id="路径" fill="#A0616A"></path>
                <path d="M65.9448589,34.1601445 C65.0644997,33.5750331 64.1543183,33.0366158 63.2180427,32.5470979 C61.9348351,31.9018792 60.4912266,29.8049186 60.4912266,29.8049186 C60.4912266,29.8049186 56,30.6114419 56,31.7405745 C56,32.8697072 57.9248114,36.9023238 58.5664152,37.2249331 C59.208019,37.5475424 60.1704247,37.5475424 60.0100237,38.1927611 C59.8496228,38.8379797 60.4912266,40.128417 60.4912266,40.128417 C60.4912266,40.128417 61.7744342,42.064073 60.9724294,42.5479869 C60.1704247,43.0319009 56.6416038,48.8388688 57.1228066,49.6453921 C57.6040095,50.4519154 62.0952361,51.2584387 64.3408494,53.1940947 C66.5864627,55.1297506 72.8420997,53.03279 72.8420997,52.548876 C72.8420997,52.0649621 72.2004959,51.0971341 72.2004959,51.0971341 C72.2004959,51.0971341 72.0400949,43.0319009 72.8420997,40.4510263 C73.6441044,37.8701517 73.0025006,34.1601445 72.6816987,33.6762305 C72.6816987,33.6762305 74.6065101,30.2888326 73.8045054,29.3210046 C73.0025006,28.3531766 69.1528779,27.8692626 68.832076,28.0305673 L68.5289182,29.7871751 C68.3156813,31.0138055 67.9430324,32.2069265 67.4205476,33.3358777 C67.2601466,33.6859088 67.1205978,33.9988398 67.0676655,34.1569184 C66.9072646,34.6440585 65.9448589,34.1601445 65.9448589,34.1601445 Z" id="路径" fill="#576DFB"></path>
                <path d="M89.3646774,31 C96.5780644,29.7145597 104.960719,29.9395117 114,31 C112.166195,20.4401078 112.082337,10.0955269 114,0 L89.3646774,0 C87.5451075,10.2507254 87.5451075,20.7492746 89.3646774,31 Z" id="路径" fill="#F2F2F2"></path>
                <rect id="矩形" fill="#576DFB" x="93" y="5" width="15" height="2"></rect>
                <rect id="矩形" fill="#576DFB" x="93" y="10" width="15" height="2"></rect>
                <path d="M39.6353226,32 C32.4235178,30.7145597 24.0392805,30.9395117 15,32 C16.8338047,21.4401078 16.9192451,11.0955269 15,1 L39.6353226,1 C41.4548925,11.2507254 41.4548925,21.7492746 39.6353226,32 Z" id="路径" fill="#F2F2F2"></path>
                <rect id="矩形" fill="#576DFB" x="20" y="6" width="15" height="2"></rect>
                <rect id="矩形" fill="#3F3D56" x="15" y="95.8413223" width="104" height="1"></rect>
                <rect id="矩形" fill="#3F3D56" x="122" y="95.8413223" width="13" height="1"></rect>
                <rect id="矩形" fill="#3F3D56" x="0" y="95.8413223" width="13" height="1"></rect>
                <path d="M34.9966189,51.9123484 C34.9657501,51.2298569 34.5886692,50.6103349 33.9966382,50.269438 L33.5480754,51.1566097 L33.5609323,50.0822891 C33.3470179,50.0186119 33.1238773,49.9915632 32.9009451,50.0022865 C31.7992509,50.0569232 30.9497924,50.9932676 31.0023096,52.0951216 C31.0548268,53.1969757 31.9894891,54.0482755 33.091385,53.9978725 C34.1932809,53.9474695 35.0463307,53.0143962 34.9980474,51.9123484 L34.9966189,51.9123484 Z" id="路径" fill="#F2F2F2"></path>
                <path d="M34.7696561,52.4115212 C34.3002761,52.4654075 33.8439344,52.6165885 33.3731057,52.6465253 C32.902277,52.6764621 32.3850897,52.5597085 32.0866568,52.1825045 C31.9272994,51.9774373 31.846172,51.7199806 31.7114425,51.4984481 C31.5827677,51.2912525 31.4066186,51.120047 31.1986014,51 C30.8639196,51.7228442 30.9574854,52.5796023 31.4396491,53.2072127 C31.9218128,53.8348231 32.7081528,54.1233981 33.465448,53.9506504 C34.2227431,53.7779027 34.8183993,53.1740786 35,52.395056 C34.9232187,52.3980497 34.8464374,52.404037 34.7696561,52.4115212 Z" id="路径" fill="#000000" opacity="0.03"></path>
                <path d="M89.7924543,73.160901 C89.1637996,72.8922403 88.4414216,72.9633295 87.8772282,73.3493785 L88.4799317,74.1404124 L87.5187482,73.6592239 C87.3686833,73.823829 87.2474874,74.0125782 87.1602681,74.2175168 C86.7282551,75.2321156 87.1996239,76.4048336 88.2137406,76.8384504 C89.2278573,77.2720673 90.401654,76.8027904 90.837085,75.7896531 C91.272516,74.7765159 90.8051034,73.6022162 89.7924543,73.1651846 L89.7924543,73.160901 Z" id="路径" fill="#F2F2F2"></path>
                <path d="M90.0068526,74.2415855 C89.8350324,74.7263355 89.7631804,75.2426652 89.5694922,75.7195203 C89.375804,76.1963753 89.0227917,76.6479664 88.5276373,76.7663907 C88.2605351,76.8295503 87.9809368,76.7900756 87.7091486,76.8200764 C87.4541459,76.8508172 87.2105747,76.9446412 87,77.0932417 C87.228745,77.3995062 87.5330833,77.6396353 87.8825308,77.7895763 C88.9034185,78.2748024 90.1219036,77.8953784 90.6957483,76.9135685 C91.2695929,75.9317587 91.0104522,74.6698087 90.0974486,74 C90.0646466,74.0836865 90.0349686,74.164215 90.0068526,74.2415855 Z" id="路径" fill="#000000" opacity="0.03"></path>
                <path d="M81.9775873,4.25415513 C81.3810287,3.9209437 80.6553351,3.91502682 80.0534056,4.23846648 L80.571949,5.08707968 L79.6648552,4.51658341 C79.0177514,5.09591357 78.8195061,6.02621484 79.1743463,6.81838407 C79.5291865,7.6105533 80.3558628,8.08320385 81.2197525,7.98784109 C82.0836422,7.89247833 82.7869366,7.2509379 82.9598806,6.40050779 C83.1328247,5.55007769 82.7358187,4.68548482 81.9775873,4.26128633 L81.9775873,4.25415513 Z" id="路径" fill="#F2F2F2"></path>
                <path d="M82.2019578,5.2306324 C81.9885955,5.71331307 81.8651502,6.24212021 81.6304517,6.71326926 C81.3957533,7.1844183 81.0086532,7.61767774 80.516396,7.68686746 C80.2512172,7.72310969 79.9829904,7.6522726 79.7162876,7.65391997 C79.4654863,7.65779926 79.2194479,7.72853157 79,7.85984176 C79.1911247,8.20446711 79.4628874,8.48856761 79.7879163,8.6835289 C80.7277719,9.27863285 81.9314276,9.01295045 82.5801984,8.06718966 C83.2289692,7.12142888 83.1145371,5.79927012 82.314735,5 C82.2751105,5.08236871 82.2370101,5.15155843 82.2019578,5.2306324 Z" id="路径" fill="#000000" opacity="0.03"></path>
            </g>
        </g>
    </g>
</svg>