<?xml version="1.0" encoding="UTF-8"?>
<svg width="216px" height="252px" viewBox="0 0 216 252" version="1.1" xmlns="http://www.w3.org/2000/svg" xmlns:xlink="http://www.w3.org/1999/xlink">
    <!-- Generator: Sketch 52.2 (67145) - http://www.bohemiancoding.com/sketch -->
    <title>矩形 copy 44</title>
    <desc>Created with Sketch.</desc>
    <defs>
        <linearGradient x1="95.927882%" y1="97.9386713%" x2="6.36117624%" y2="2.46567919%" id="linearGradient-1">
            <stop stop-color="#8363FF" offset="0%"></stop>
            <stop stop-color="#8B63FF" offset="100%"></stop>
        </linearGradient>
        <linearGradient x1="50.0138009%" y1="99.9956479%" x2="50.0138009%" y2="-0.000296357378%" id="linearGradient-2">
            <stop stop-color="#808080" stop-opacity="0.25" offset="0%"></stop>
            <stop stop-color="#808080" stop-opacity="0.12" offset="54%"></stop>
            <stop stop-color="#808080" stop-opacity="0.1" offset="100%"></stop>
        </linearGradient>
    </defs>
    <g id="Page-1" stroke="none" stroke-width="1" fill="none" fill-rule="evenodd">
        <g id="拍信云首页" transform="translate(-549.000000, -1627.000000)">
            <rect id="矩形-copy-44" fill="url(#linearGradient-1)" x="549" y="1627" width="216" height="252" rx="8"></rect>
            <g id="undraw_envelope_n8lc-copy" transform="translate(592.000000, 1664.000000)">
                <ellipse id="椭圆形" fill="#FFC107" opacity="0.1" cx="51.5" cy="78.5" rx="36.5" ry="3.5"></ellipse>
                <path d="M19,78 C19,78 17.324209,68.6304112 11.1042962,63.9872794 C8.49447898,62.0387536 6.58485664,59.3890149 5.75085831,56.3713638 C5.35836874,54.9415325 5.10691242,53.4775984 5,52" id="路径" stroke="#535461" stroke-width="2"></path>
                <path d="M1.19965738,48.9342426 C1.67406289,49.9479622 4.84427776,52 4.84427776,52 C4.84427776,52 5.2427784,48.1665086 4.76481484,47.1514943 C4.28685128,46.13648 3.10439553,45.7131258 2.11763205,46.205097 C1.13086858,46.6970682 0.721693818,47.9192283 1.19965738,48.9342426 Z" id="路径" fill="#FFC107"></path>
                <path d="M1.01476516,56.5064238 C2.01332893,57.0468428 6,56.9989121 6,56.9989121 C6,56.9989121 4.2013212,53.8139152 3.20654944,53.2734963 C2.21177768,52.7330773 0.911116769,53.0182651 0.306922486,53.9109749 C-0.297271797,54.8036847 0.017465392,55.9660049 1.01476516,56.5064238 Z" id="路径" fill="#FFC107"></path>
                <path d="M5.1897835,65.9998961 C6.41391257,66.0163764 10,64.0666345 10,64.0666345 C10,64.0666345 6.48295239,62.0180111 5.25749563,62.0002631 C4.03203887,61.9825151 3.02432308,62.8648431 3.00042468,63.9690207 C2.97652628,65.0731983 3.96432674,65.9796127 5.1897835,65.9998961 Z" id="路径" fill="#FFC107"></path>
                <path d="M10.8312998,71.9792844 C12.049521,72.184118 16,70.8024458 16,70.8024458 C16,70.8024458 12.8778039,68.2350293 11.6609273,68.0340125 C10.4440506,67.8329957 9.26751248,68.5429157 9.03892792,69.6370575 C8.81034336,70.7311994 9.61173393,71.7757232 10.8312998,71.9792844 Z" id="路径" fill="#FFC107"></path>
                <path d="M9.87917792,55.6610392 C9.50067823,56.6910237 6.51473622,59 6.51473622,59 C6.51473622,59 5.72409242,55.3378329 6.10259211,54.3078484 C6.4810918,53.2778639 7.63341308,52.7458938 8.67518843,53.1194047 C9.71696377,53.4929156 10.2576776,54.6323123 9.87917792,55.6610392 Z" id="路径" fill="#FFC107"></path>
                <path d="M15.5545316,62.9637394 C14.8282965,63.773337 11,65 11,65 C11,65 11.3890545,61.5361372 12.1101022,60.7277079 C12.8655183,59.9142319 14.188684,59.7615473 15.1473212,60.3772327 C15.6009769,60.6588592 15.9030955,61.0986623 15.9804588,61.5900563 C16.0578221,62.0814502 15.9033692,62.5795854 15.5545316,62.9637394 Z" id="路径" fill="#FFC107"></path>
                <path d="M20.7761186,70.0204235 C20.2735015,71.0301834 17.0781251,73 17.0781251,73 C17.0781251,73 16.7974581,69.1166099 17.3000752,68.10685 C17.8026923,67.0970901 18.9876003,66.7073123 19.9482096,67.2357358 C20.9088189,67.7641594 21.2775614,69.0106636 20.7761186,70.0204235 Z" id="路径" fill="#FFC107"></path>
                <path d="M1.19965738,48.9342426 C1.67406289,49.9479622 4.84427776,52 4.84427776,52 C4.84427776,52 5.2427784,48.1665086 4.76481484,47.1514943 C4.28685128,46.13648 3.10439553,45.7131258 2.11763205,46.205097 C1.13086858,46.6970682 0.721693818,47.9192283 1.19965738,48.9342426 Z" id="路径" fill="#000000" opacity="0.25"></path>
                <path d="M1.01476516,56.5064238 C2.01332893,57.0468428 6,56.9989121 6,56.9989121 C6,56.9989121 4.2013212,53.8139152 3.20654944,53.2734963 C2.21177768,52.7330773 0.911116769,53.0182651 0.306922486,53.9109749 C-0.297271797,54.8036847 0.017465392,55.9660049 1.01476516,56.5064238 Z" id="路径" fill="#000000" opacity="0.25"></path>
                <path d="M5.1897835,65.9998961 C6.41391257,66.0163764 10,64.0666345 10,64.0666345 C10,64.0666345 6.48295239,62.0180111 5.25749563,62.0002631 C4.03203887,61.9825151 3.02432308,62.8648431 3.00042468,63.9690207 C2.97652628,65.0731983 3.96432674,65.9796127 5.1897835,65.9998961 Z" id="路径" fill="#000000" opacity="0.25"></path>
                <path d="M10.8312998,71.9792844 C12.049521,72.184118 16,70.8024458 16,70.8024458 C16,70.8024458 12.8778039,68.2350293 11.6609273,68.0340125 C10.4440506,67.8329957 9.26751248,68.5429157 9.03892792,69.6370575 C8.81034336,70.7311994 9.61173393,71.7757232 10.8312998,71.9792844 Z" id="路径" fill="#000000" opacity="0.25"></path>
                <path d="M9.87917792,55.6610392 C9.50067823,56.6910237 6.51473622,59 6.51473622,59 C6.51473622,59 5.72409242,55.3378329 6.10259211,54.3078484 C6.4810918,53.2778639 7.63341308,52.7458938 8.67518843,53.1194047 C9.71696377,53.4929156 10.2576776,54.6323123 9.87917792,55.6610392 Z" id="路径" fill="#000000" opacity="0.25"></path>
                <path d="M15.5545316,62.9637394 C14.8282965,63.773337 11,65 11,65 C11,65 11.3890545,61.5361372 12.1101022,60.7277079 C12.8655183,59.9142319 14.188684,59.7615473 15.1473212,60.3772327 C15.6009769,60.6588592 15.9030955,61.0986623 15.9804588,61.5900563 C16.0578221,62.0814502 15.9033692,62.5795854 15.5545316,62.9637394 Z" id="路径" fill="#000000" opacity="0.25"></path>
                <path d="M20.7761186,70.0204235 C20.2735015,71.0301834 17.0781251,73 17.0781251,73 C17.0781251,73 16.7974581,69.1166099 17.3000752,68.10685 C17.8026923,67.0970901 18.9876003,66.7073123 19.9482096,67.2357358 C20.9088189,67.7641594 21.2775614,69.0106636 20.7761186,70.0204235 Z" id="路径" fill="#000000" opacity="0.25"></path>
                <path d="M18.0880095,78 C18.0880095,78 20.7891852,68.8186711 16.8940815,62.2371834 C15.2598495,59.4761317 14.6290691,56.3389217 15.2143008,53.2708021 C15.4952556,51.8120301 15.9274413,50.3817988 16.5048472,49" id="路径" stroke="#535461" stroke-width="2"></path>
                <path d="M15.0013006,44.9689957 C15.0396175,46.0186736 17.1482419,49 17.1482419,49 C17.1482419,49 19.0377419,45.8883688 18.999425,44.8374844 C18.9611082,43.7866 18.0355166,42.9649556 16.9315122,43.0011514 C15.8275078,43.0373472 14.9617864,43.9181114 15.0013006,44.9689957 Z" id="路径" fill="#FFC107"></path>
                <path d="M11.4011218,51.4101001 C12.1094671,52.3916227 16,54 16,54 C16,54 15.7853499,49.9116973 15.0770046,48.9288001 C14.3338991,47.9413176 12.9738811,47.7070551 11.9565289,48.3912997 C11.4746444,48.7014172 11.1408018,49.2034055 11.0353806,49.7764002 C10.9299595,50.3493948 11.0625115,50.9414806 11.4011218,51.4101001 Z" id="路径" fill="#FFC107"></path>
                <path d="M12.1789472,61.7975682 C13.197103,62.2581364 17,61.7887354 17,61.7887354 C17,61.7887354 14.8992943,58.6442531 13.8811385,58.1836849 C12.8629827,57.7231167 11.6577195,58.1584483 11.1875211,59.1565564 C10.7173226,60.1546645 11.1620064,61.3369999 12.1789472,61.7975682 Z" id="路径" fill="#FFC107"></path>
                <path d="M13.9378848,69.2867388 C14.9226163,69.8505005 19,70 19,70 C19,70 17.3721521,66.883334 16.3887146,66.3207136 C15.4056114,65.755923 14.0950524,65.9549457 13.3827602,66.7772008 C13.0565845,67.1686118 12.9310139,67.6625429 13.0364766,68.1393056 C13.1419394,68.6160683 13.4688111,69.0321545 13.9378848,69.2867388 Z" id="路径" fill="#FFC107"></path>
                <path d="M19.4418902,53.3152592 C18.6735633,54.0949329 15,55 15,55 C15,55 15.7791316,51.3809732 16.546258,50.6012995 C17.3334901,49.8210626 18.5682917,49.7972847 19.3830652,50.5466727 C19.76482,50.8944589 19.9883839,51.3916169 19.9995601,51.9176253 C20.0107364,52.4436336 19.8085047,52.9504673 19.4418902,53.3152592 Z" id="路径" fill="#FFC107"></path>
                <path d="M21.9203008,62.6500827 C20.9146102,63.1668942 17,62.9584428 17,62.9584428 C17,62.9584428 18.9181466,59.7514981 19.9238371,59.238387 C20.9295277,58.7252758 22.1925458,59.0669388 22.7432515,60.0092871 C23.2939573,60.9516355 22.9309639,62.1332712 21.9203008,62.6500827 Z" id="路径" fill="#FFC107"></path>
                <path d="M24.1567932,71.810737 C23.1901452,72.5448834 19,73 19,73 C19,73 20.4118677,69.1978803 21.3785157,68.4637339 C22.3530465,67.7310786 23.7199666,67.8815394 24.5164451,68.8091348 C24.8835527,69.2466387 25.0534925,69.8196589 24.9851905,70.3896975 C24.9168885,70.9597361 24.6165597,71.4749225 24.1567932,71.810737 Z" id="路径" fill="#FFC107"></path>
                <path d="M121.564194,24.5870829 C121.640303,24.3806255 121.06949,23.2362975 121.06949,23.1796476 C121.06949,23.1229978 120.47965,22.4847422 120.47965,22.1284773 C120.47965,21.7722124 119.69827,21.0030327 119.69827,21.0030327 C119.69827,21.0030327 118.65178,20.5712346 118.537617,19.6333641 C118.423454,18.6954936 117.283097,18.6753514 117.28056,18.6753514 C117.28056,18.6753514 117.28056,18.5897471 117.288171,18.4600818 C117.288171,18.1680201 117.279291,17.6468411 117.14737,17.3623327 C117.011606,17.1033742 116.778856,16.9076418 116.49918,16.8172348 C116.49918,16.8172348 116.385018,16.0858217 116.156692,15.860481 C115.897331,15.5916158 115.79614,15.2089506 115.889045,14.8483362 C116.003207,14.4920713 115.736828,13.5894496 115.183773,13.4635609 C114.630719,13.3376723 114.004093,13.1261793 114.004093,13.1261793 C114.004093,13.1261793 113.941938,13.1375093 113.851876,13.1500982 L113.775768,13.1261793 C113.643255,13.1504202 113.509406,13.1668147 113.37493,13.1752759 C113.258249,13.1793832 113.143946,13.1418678 113.052738,13.0695294 C112.861199,12.863072 111.318735,12.4690405 111.033329,12.4690405 C110.747922,12.4690405 109.928488,12.0913746 109.928488,12.0913746 L109.111592,11.4720023 C108.881998,11.298276 108.457059,10.5907817 108.394904,10.4913297 L108.387293,10.4774819 C108.31712,10.3176225 108.259445,10.152641 108.214781,9.9839984 C108.493245,9.69507235 108.731313,9.37030916 108.922589,9.01843238 C108.942885,8.98192467 108.960643,8.94415807 108.978402,8.90765036 C109.021431,8.90691851 109.064138,8.90013699 109.105249,8.88750818 C109.121739,8.88750818 109.138229,8.87491931 109.15472,8.86862488 C109.347844,8.76770028 109.493197,8.59540925 109.559363,8.38898909 C109.573316,8.34870472 109.586001,8.30716146 109.596148,8.26310043 C109.596148,8.24925267 109.596148,8.23414604 109.605028,8.22029828 C109.613907,8.20645053 109.617712,8.16364839 109.622786,8.13469399 C109.62786,8.1057396 109.629129,8.10196294 109.631666,8.0868563 C109.634203,8.07174967 109.640545,8.03020641 109.64435,8.00125202 C109.648156,7.97229762 109.64435,7.96977985 109.64435,7.95467321 C109.64435,7.9181655 109.65323,7.88291668 109.658304,7.84766785 C109.671153,7.71453835 109.691053,7.58217221 109.717922,7.45111858 C109.717922,7.45111858 109.717922,7.45111858 109.717922,7.45111858 C109.832084,6.94756394 110.140323,6.51198918 110.359769,6.04116559 C110.391481,5.9744446 110.420656,5.90520584 110.447294,5.83596708 C110.473932,5.76672832 110.50057,5.68490069 110.522134,5.60810861 L110.541161,5.53761096 C110.555114,5.48221995 110.567799,5.42557005 110.579215,5.36892015 C110.579215,5.34374242 110.589363,5.31856469 110.593168,5.29338696 C110.605853,5.21533599 110.617269,5.13728502 110.623612,5.05797517 C110.664581,4.60837339 110.599884,4.15546899 110.434609,3.73488536 C110.291272,3.38239711 110.079437,3.06515769 109.934831,2.71266945 C109.715385,2.17890153 109.658304,1.57967151 109.390656,1.06604578 C108.942885,0.212520675 107.887515,-0.214241879 107.019879,0.106774202 C106.605088,0.259099479 106.24611,0.556196715 105.826246,0.689638693 C105.263043,0.867141703 104.661787,0.733699724 104.079558,0.653130982 C103.497329,0.57256224 102.852944,0.566267807 102.384877,0.943933785 C101.845776,1.37824966 101.697365,2.19526706 101.191244,2.67238507 C100.979409,2.87254804 100.714298,3.00095448 100.489778,3.1860108 C100.332189,3.31140162 100.210942,3.47604167 100.138411,3.66312882 C100.138411,3.67697657 100.129532,3.68956544 100.125726,3.70341319 C100.121921,3.71726095 100.116847,3.73488536 100.113042,3.75125088 C100.109236,3.76761641 100.105431,3.78901748 100.102894,3.80790078 C100.100357,3.82678408 100.102894,3.8343374 100.102894,3.84692626 C100.100352,3.88044917 100.100352,3.91411428 100.102894,3.94763719 C100.106539,3.9794004 100.112045,4.01092594 100.119384,4.04205369 C100.119384,4.05086589 100.119384,4.0596781 100.119384,4.0684903 C100.119384,4.07730251 100.134606,4.12010465 100.143485,4.14654127 C100.14294,4.15156228 100.14294,4.1566269 100.143485,4.16164791 C100.153633,4.1906023 100.165049,4.21829781 100.176465,4.2472522 L100.195492,4.29005434 L100.210714,4.32530317 C100.285056,4.46379955 100.344168,4.60983136 100.387032,4.76087793 C100.410698,4.8564482 100.404954,4.95686477 100.370542,5.04916296 C100.318881,5.15362561 100.246884,5.24689928 100.158707,5.32360024 C99.779907,5.71471211 99.487432,6.17990718 99.2999502,6.68949219 C99.2783862,6.74740097 99.2568221,6.80530975 99.237795,6.86573631 L99.264433,6.87203074 C99.3187698,6.88851619 99.3743321,6.90072327 99.430603,6.90853845 C99.4623148,6.90853845 99.4940266,6.91609177 99.5270069,6.91860955 C99.6571658,6.92542543 99.7876632,6.91526769 99.9151598,6.88839627 C99.9468716,6.88210184 99.9798519,6.87454852 100.011564,6.86573631 C100.142168,6.82993076 100.269472,6.78318404 100.392106,6.7259999 C100.392106,6.7637665 100.392106,6.80279198 100.392106,6.84055858 C100.392106,6.87832518 100.392106,6.88336072 100.392106,6.90476179 C100.394826,8.5977058 101.361999,10.1435304 102.88973,10.8966912 C102.88973,10.9369755 102.901146,10.9785188 102.90622,11.0225798 C102.911294,11.0666409 102.915099,11.0905597 102.918905,11.1245496 L102.868166,11.0754531 C102.868166,11.0754531 102.524409,10.9067623 102.200949,11.3939514 C101.877488,11.8811405 101.268621,12.1077401 101.268621,12.1077401 C101.268621,12.1077401 97.8031517,12.6515791 97.669962,13.1022605 L96.05139,13.1954181 C96.05139,13.1954181 95.4793085,13.2709513 95.4171533,14.4543047 C95.3549981,15.6376581 95.0556384,15.749699 95.0556384,15.749699 C95.0556384,15.749699 94.3896899,16.9129102 94.4467712,17.5121402 C94.5038525,18.1113702 93.9393819,18.413503 93.9393819,18.413503 L93.8632734,19.4822977 C93.8632734,19.4822977 93.2290368,19.3891401 93.0628668,20.1205532 C92.8966968,20.8519663 92.5871893,21.1906068 92.5871893,21.1906068 C92.5871893,21.1906068 91.5394303,22.054203 91.482349,22.7856161 L90.8354276,23.1796476 C90.8354276,23.1796476 89.3310182,22.842266 88.9885304,22.2417771 L88.8832471,22.143584 C88.8798228,22.1388319 88.8768502,22.1337747 88.8743678,22.1284773 C88.8740952,22.1309879 88.8740952,22.1335202 88.8743678,22.1360307 C88.6485795,21.9245377 88.1716335,21.4839274 88.2401311,21.5846383 C88.2845821,21.6789889 88.2953197,21.7855532 88.2705745,21.8867711 L88.1589488,21.7608825 L87.8595891,21.4310542 C87.8595891,21.4310542 85.4279257,19.1650583 83.9996247,18.991332 C83.9805976,18.9548242 83.8892675,18.5985593 83.6457207,18.8213823 C83.2367688,19.192412 83.0026727,19.7161798 83.0000227,20.2660702 C82.9973728,20.8159606 83.2264102,21.3419266 83.6317674,21.7168214 L85.9086771,23.8279742 L85.9670269,23.8707764 L86.4566576,24.5002197 C86.3742068,24.696606 86.3044408,24.8866979 86.2473595,25.0604242 C86.2473595,25.0604242 86.2473595,25.0717542 86.2410171,25.0767897 C86.2296009,25.1145563 86.2169161,25.1498052 86.2054999,25.185054 L86.1940836,25.2228206 C86.1839358,25.2580694 86.1725196,25.2933182 86.1623718,25.3260493 C86.152224,25.3587803 86.1509555,25.3675925 86.1446131,25.3877347 C86.1382708,25.4078769 86.1446131,25.4116536 86.1344654,25.4229836 C86.0811895,25.6118165 86.0456722,25.7565885 86.0279136,25.8371572 L85.9010663,25.7981318 L86.0279136,25.851005 C86.0279136,25.8572994 86.0279136,25.8648527 86.0279136,25.8711472 L86.0203028,25.9101727 L86.1370023,25.9605281 C86.8042193,26.2488132 90.1339618,27.6977916 90.3052057,27.9180968 C90.4954767,28.1610619 91.7512653,28.8748506 92.8941598,28.2743617 C94.0370543,27.6738728 94.2894805,26.7536267 94.2894805,26.7536267 C94.2894805,26.7536267 95.3930523,25.2341506 95.4311065,25.0088099 C95.4691607,24.7834692 96.3266487,24.5203619 96.3266487,24.5203619 C96.3266487,24.5203619 96.4027571,27.0381351 95.9651338,27.9546045 C95.5275105,28.8710739 94.7080767,32.9473487 94.7080767,32.9473487 C94.7614926,32.936738 94.8161098,32.9333502 94.8704413,32.9372776 C94.8399979,33.0845673 94.8222393,33.1726894 94.8222393,33.1726894 C94.8889257,33.1607003 94.9572402,33.1607003 95.0239266,33.1726894 C94.9630398,33.6359597 94.6129412,35.786138 94.6129412,35.786138 C94.6129412,35.786138 94.4987786,36.7617751 94.3085076,37.0991567 C94.1182366,37.4365383 94.0992095,39.2014973 94.0992095,39.2014973 L93.7947759,40.4767494 C93.8294971,40.5520634 93.8680231,40.6255918 93.910207,40.6970546 C93.910207,40.6970546 94.2374731,41.4171377 94.786722,41.8212403 C94.761597,42.0217864 94.7099924,42.2181798 94.6332368,42.4053637 C94.514074,42.689974 94.4620103,42.9978428 94.48102,43.3054676 C94.48102,43.3054676 94.1575593,44.7506694 94.1956135,45.1635842 C94.2336677,45.576499 93.9863154,46.5899027 93.9863154,46.5899027 L93.6324113,49.8453834 C93.6324113,49.8453834 93.4040861,52.6791371 93.5182487,53.4495757 C93.6324113,54.2200143 93.4408718,55.2686669 93.4408718,55.2686669 C93.4408718,55.2686669 93.669197,57.5019317 93.6121157,57.7461557 C93.5550344,57.9903797 93.2696279,59.0402911 93.4408718,59.6231556 C93.6121157,60.2060201 93.5182487,61.7997705 93.5182487,61.7997705 C93.5182487,61.7997705 93.6324113,63.9008522 93.7643325,64.5768743 C93.8962538,65.2528964 93.7262783,66.1164926 93.7262783,66.1164926 C93.7262783,66.1164926 93.599431,67.5604355 93.5360073,67.5604355 C93.4725837,67.5604355 92.9842214,68.5549559 93.9926577,69.5318519 C95.001094,70.5087479 94.3731997,70.3564227 94.3731997,70.3564227 C94.3731997,70.3564227 93.5740615,69.9623912 93.6679286,70.7693375 C93.7592586,71.5372583 93.8848375,71.3370953 93.8962538,71.3156942 L93.7059828,71.9325487 L93.8328301,71.951432 L93.7224729,72.0773206 C93.6083076,72.220559 93.4809066,72.3528977 93.3419309,72.472611 C93.1123372,72.6413018 93.0882362,73.01645 93.0882362,73.01645 C93.0882362,73.01645 91.6802308,74.537185 90.3660924,75.3063647 C89.6747745,75.7117262 89.078592,76.0541434 88.818555,76.3373929 C88.5838874,76.5891702 88.6219416,76.7981453 89.1090354,76.9580239 C90.1377672,77.2954056 91.9453418,77.4615786 93.240453,77.0335571 C94.0124429,76.7775052 94.706669,76.3318988 95.2585941,75.7381628 C95.2585941,75.7381628 96.0780279,75.325248 96.8784346,75.4750555 C97.6788413,75.624863 99.2771177,74.5938349 99.2771177,74.5938349 L99.2479428,74.326951 L99.1629551,73.560289 C99.0542483,73.4296839 99.0059099,73.2597223 99.0297654,73.0919832 C99.0392284,72.8650496 99.0165987,72.6379196 98.9625363,72.41722 C98.9498516,72.3429457 98.9346299,72.2686714 98.9206767,72.1994326 L99.0665511,72.172996 C99.0665511,72.172996 98.8775486,71.2149833 99.2200364,71.0274092 C99.5625242,70.8398351 99.4661202,68.3837474 99.4661202,68.3837474 C99.4661202,68.3837474 99.0297654,67.8210251 98.8001717,67.7278675 C98.570578,67.6347098 98.7811446,66.4689809 98.8204673,66.3191734 C98.85979,66.1693659 99.1629551,63.2600789 99.1629551,63.2600789 C99.1629551,63.2600789 99.0487925,62.3410917 99.2010093,61.9470602 C99.3532261,61.5530287 99.0183491,60.0423648 99.0183491,60.0423648 C99.0183491,60.0423648 98.9041865,59.8547907 99.1147531,59.62945 C99.3253197,59.4041093 99.2416004,57.3961852 99.2416004,57.3961852 C99.2416004,57.3961852 99.2238418,56.3827815 99.2238418,56.1196742 C99.2238418,55.8565669 99.452167,54.8998131 99.6614651,54.5813148 C99.8707632,54.2628165 99.7375735,53.2670372 99.7375735,53.2670372 L99.7489898,53.1927629 C99.7489898,53.1638085 99.7591376,53.1285597 99.7667484,53.0857575 L99.7832386,52.9863055 C99.8760813,52.4334567 100.001881,51.8865594 100.159975,51.348494 C100.41367,50.560431 100.692734,49.1718791 100.692734,49.1718791 L102.468597,44.5895319 L102.488892,44.5353998 C102.488892,44.5353998 103.307058,46.0372515 103.307058,47.4308389 C103.307058,47.4308389 103.516356,49.1013815 103.459274,49.5520629 C103.402193,50.0027443 103.627981,52.1113793 103.627981,52.1113793 C103.627981,52.1113793 103.875334,55.1515904 103.875334,55.2837735 C103.875334,55.4159566 104.179767,57.7612623 104.371307,58.1175272 C104.562846,58.4737921 104.179767,59.562729 104.065605,59.6747699 C103.951442,59.7868108 104.103659,62.5462902 104.103659,62.5462902 C104.103659,62.5462902 103.818252,64.7229052 103.761171,65.1735866 C103.70409,65.624268 103.475764,67.3514604 103.666035,68.0262236 C103.856306,68.7009868 103.780198,68.7954033 103.780198,68.7954033 C103.780198,68.7954033 104.466442,69.4903087 104.065605,69.5507352 C103.770809,69.6145052 103.51809,69.8014467 103.372286,70.0635992 C103.226482,70.3257516 103.201781,70.6376025 103.304521,70.919145 C103.541644,71.6071597 103.821672,72.2798655 104.142981,72.9333635 C104.142981,72.9333635 104.260949,72.9069269 104.457563,72.8679014 L104.457563,73.0907243 L104.480395,74.2086156 C104.480395,74.2086156 104.607243,75.2786692 104.537477,75.5228932 C104.481664,75.7016551 104.410629,76.5425914 104.36877,76.9819428 C104.354816,77.1418214 104.347206,77.2488267 104.347206,77.2488267 C104.347206,77.2488267 104.347206,78.2433472 106.460482,77.9437321 C108.573759,77.6441171 108.954301,76.8182875 108.954301,76.8182875 C108.954301,76.8182875 108.954301,76.779262 108.969523,76.7150588 C109.001234,76.524967 109.069732,76.1221232 109.125545,75.8980414 C109.201653,75.5971675 108.516678,74.2463822 108.516678,74.2463822 C108.516678,74.2463822 108.402515,73.327395 108.210975,73.1209376 C108.13249,73.0018768 108.080588,72.8675241 108.058759,72.7269061 C108.041,72.6513729 108.025778,72.5720631 108.013094,72.495271 C108.06043,72.5012685 108.107425,72.5096721 108.153894,72.5204487 C108.153894,72.5204487 108.039732,71.8633099 108.478623,71.6568525 C108.917515,71.4503951 108.802084,71.0198559 108.745003,70.8310229 C108.687921,70.6421899 108.916247,69.5922785 108.916247,69.5922785 C108.853864,69.3799174 108.912096,69.1506793 109.068463,68.9930485 C109.336111,68.7286823 109.544141,66.8907079 109.544141,66.8907079 L109.582195,59.7968819 C109.582195,59.7968819 109.716653,58.5379953 109.564437,58.0344407 C109.41222,57.5308861 109.258734,56.5527312 109.468033,56.2896239 C109.677331,56.0265166 109.48706,54.8079144 109.48706,54.8079144 C109.48706,54.8079144 109.48706,52.2360091 109.773735,51.5990124 C110.06041,50.9620158 109.964006,46.9260254 109.964006,46.9260254 L110.038846,44.2823636 C110.038846,44.2823636 110.661666,43.6982402 110.514523,40.6529935 C111.177935,40.6114503 111.926334,40.5875314 112.036691,40.6781713 C112.245989,40.848121 113.598182,41.7104583 114.39732,41.1666193 C114.568564,41.0910861 115.348675,40.4352062 115.348675,40.4352062 L115.013798,34.8079831 C115.223096,35.1214459 115.349943,35.330421 115.349943,35.330421 C115.349943,34.542358 117.59641,31.989336 117.59641,31.989336 C117.59641,31.989336 119.690659,29.3066487 120.14731,28.9868915 C120.60396,28.6671343 121.499502,26.9789674 121.499502,26.9789674 C121.631796,26.6569559 121.784749,26.3436903 121.957421,26.0410969 C122.17433,25.6949031 121.488086,24.7935403 121.564194,24.5870829 Z M116.650129,26.5559815 C116.079316,26.6126314 114.874266,27.9080257 114.860313,28.1925341 C114.851433,28.3410827 114.724586,28.5399868 114.606618,28.6960887 C114.597739,28.5827889 114.587591,28.4669713 114.578712,28.3498949 C114.444253,26.6919412 114.298379,24.6714283 114.36434,24.475042 C114.479771,24.1376603 114.440448,22.6181842 114.440448,22.6181842 L114.460744,22.5892298 C114.841286,23.7662888 116.037456,25.1548407 116.037456,25.1548407 C116.037456,25.1548407 116.246754,25.7553296 116.494106,25.7742129 C116.741459,25.7930962 116.650129,26.5559815 116.650129,26.5559815 Z" id="形状" fill="url(#linearGradient-2)" fill-rule="nonzero"></path>
                <path d="M86,26.5585404 C86,26.5585404 86.7607789,23.0185019 89.2100139,23 L91,26.2662097 L89.8066759,26.9964197 C89.8066759,26.9964197 87.2141864,27.069194 86,26.5585404 Z" id="路径" fill="#65617D"></path>
                <path d="M91,26.2654455 L89.8066759,26.9963127 C89.8066759,26.9963127 87.9819193,27.0481648 86.6773296,26.7629784 C86.4446996,26.7140181 86.2178874,26.6453917 86,26.5580393 C86,26.5580393 86,26.5382862 86.0139082,26.501249 C86.0139082,26.501249 86.0139082,26.492607 86.0139082,26.4876687 C86.1262292,26.0429982 86.2811745,25.6076663 86.4770515,25.1864288 C86.5535466,25.0271688 86.6383866,24.8629706 86.7301808,24.6987724 C87.0890125,24.0814859 87.5924896,23.4864218 88.2823366,23.1888897 C88.5373718,23.077778 88.8150599,23.0135305 89.0987483,23 L89.1710709,23 L89.2072323,23 L89.2461752,23.0728398 L89.8511822,24.1765481 L91,26.2654455 Z" id="路径" fill="#000000" opacity="0.1"></path>
                <path d="M109.701116,41.3922317 C109.701116,41.3922317 112.04094,41.1682121 112.245833,41.3365433 C112.450725,41.5048744 113.779998,42.3655147 114.566685,41.8225519 C115.353372,41.2795891 114.828493,39.3887117 114.828493,39.3140385 C114.828493,39.2393653 114.753871,36.5612552 114.753871,36.5612552 L113.349977,34.6703778 L111.591947,31.3569126 L108,31 L108.093593,36.2625624 L108.074621,38.9583916 L109.701116,41.3922317 Z" id="路径" fill="#65617D"></path>
                <path d="M109.701116,41.3922317 C109.701116,41.3922317 112.04094,41.1682121 112.245833,41.3365433 C112.450725,41.5048744 113.779998,42.3655147 114.566685,41.8225519 C115.353372,41.2795891 114.828493,39.3887117 114.828493,39.3140385 C114.828493,39.2393653 114.753871,36.5612552 114.753871,36.5612552 L113.349977,34.6703778 L111.591947,31.3569126 L108,31 L108.093593,36.2625624 L108.074621,38.9583916 L109.701116,41.3922317 Z" id="路径" fill="#000000" opacity="0.1"></path>
                <path d="M89,22.5849133 C89,22.5849133 88.8244773,24.9618116 87.4914538,25 C87.4914538,25 87.1131313,24.7471665 86.6043527,24.3257773 C85.4326203,23.3526317 83.5742147,21.4814004 84.0877371,19.7405364 C84.8242208,17.2477561 88.4034601,21.8474823 88.4034601,21.8474823 L88.6774178,22.189861 L89,22.5849133 Z" id="路径" fill="#FBBEBE"></path>
                <path d="M89,22.4217432 C89,22.4217432 88.7900709,24.9592315 87.1957447,25 C87.1957447,25 86.7432624,24.7300843 86.1347518,24.2802249 L86,24.1073102 C86.2706553,24.247171 86.5688446,24.3268117 86.8737589,24.3406748 C87.3647489,24.3600616 87.8165955,24.0762534 88.0085106,23.6279288 C88.1762414,23.301691 88.3235645,22.965536 88.4496454,22.6213683 C88.5272748,22.420839 88.5824518,22.2124674 88.6141844,22 L89,22.4217432 Z" id="路径" fill="#000000" opacity="0.1"></path>
                <path d="M88.1411476,27 L87.7891591,26.5626628 L86.6038064,25.0869851 L86,24.3343895 C86.2651872,24.4685497 86.5578256,24.544591 86.8570155,24.5570827 C87.2507418,24.5664734 87.6917709,24.4229302 87.9700227,23.878271 C88.1342439,23.5663578 88.2787353,23.2451459 88.4027043,22.9163974 C88.5974805,22.3797874 88.594698,22.1114823 88.5251351,22.013551 C88.4555721,21.9156197 88.9619904,22.3730797 89.2054607,22.5957729 L89.2138083,22.6038221 L89.3278915,22.7071195 L89.3696293,22.787611 L89.9664794,23.9372981 C89.9664794,23.9372981 89.9664794,23.9533964 89.9664794,23.985593 C90.0249123,24.3545124 90.2266448,26.6713263 88.1411476,27 Z" id="路径" fill="#E7EFFD"></path>
                <path d="M99,75.1504321 C99,75.1504321 97.4905628,76.2384473 96.7364513,76.0860717 C95.9823399,75.9336961 95.2087989,76.3640903 95.2087989,76.3640903 C94.6887863,76.9890501 94.0332348,77.458594 93.3034835,77.7287875 C92.0891334,78.183241 90.3768997,78.0041329 89.4066339,77.6485898 C88.9476096,77.4801747 88.9099647,77.263641 89.1309765,76.9949787 C89.3738465,76.6955741 89.9397336,76.3360212 90.5881966,75.9083002 C91.8280481,75.0983037 93.1565471,73.5023698 93.1565471,73.5023698 C93.1565471,73.5023698 93.1747624,73.1013815 93.3909167,72.9302931 C93.5239618,72.8041631 93.645934,72.6645389 93.7552218,72.5132651 C93.9483034,72.2619791 94.1292416,72 94.1292416,72 L98.5689057,72.1416826 C98.5689057,72.1416826 98.6441954,72.4932157 98.7036986,72.8527686 C98.754362,73.0859136 98.7752071,73.325702 98.7656304,73.5651914 C98.7426092,73.7409927 98.7865488,73.919456 98.8870654,74.0584071 L98.9672125,74.8603839 L99,75.1504321 Z" id="路径" fill="#65617D"></path>
                <path d="M108.993867,75.9126155 C108.934688,76.13551 108.85937,76.534705 108.831126,76.7223393 L108.813641,76.8256011 C108.813641,76.8256011 108.410151,77.6453992 106.208438,77.9438511 C104.006725,78.2423029 104,77.2537599 104,77.2537599 C104,77.2537599 104.00807,77.1479795 104.021519,76.9880496 C104.060524,76.5523351 104.139877,75.7174255 104.199055,75.5398656 C104.277063,75.2980818 104.138532,74.2352406 104.138532,74.2352406 L104.115667,73.1258057 L104.098183,72.3551199 L107.760531,72 C107.78309,72.2564236 107.822619,72.5112898 107.878888,72.76313 C107.901301,72.9029924 107.955912,73.036623 108.038939,73.1547694 C108.237995,73.3600337 108.356352,74.2730193 108.356352,74.2730193 C108.356352,74.2730193 109.07322,75.6141637 108.993867,75.9126155 Z" id="路径" fill="#65617D"></path>
                <path d="M98.8643363,72.1341645 C98.8643363,72.1341645 98.9401124,72.4306795 99,72.733959 C98.517233,72.8162616 96.4077243,73.1533641 95.8809582,72.9177306 C95.2833048,72.6505289 94,72.5005803 94,72.5005803 L94.0207773,72.4329343 C94.2151063,72.2209769 94.3972134,72 94.3972134,72 L98.8643363,72.1341645 Z" id="路径" fill="#000000" opacity="0.1"></path>
                <path d="M108,72.6778523 C107.018841,72.5469799 104.871667,72.8635347 104.018486,73 L104,72.3154362 L107.872023,72 C107.896812,72.227816 107.939554,72.454202 108,72.6778523 Z" id="路径" fill="#000000" opacity="0.1"></path>
                <path d="M110.500385,44.3639245 L110.42525,47.0081126 C110.42525,47.0081126 110.519487,51.0403093 110.236776,51.6779059 C109.954065,52.3155026 109.954065,54.884903 109.954065,54.884903 C109.954065,54.884903 110.142539,56.1030549 109.934963,56.3654456 C109.727387,56.6278362 109.87893,57.6026112 110.0292,58.1096463 C110.17947,58.6166815 110.048302,59.8728609 110.048302,59.8728609 L110.010098,66.9612118 C110.010098,66.9612118 109.803795,68.7979465 109.538913,69.0616048 C109.384222,69.2200627 109.326853,69.4489597 109.388643,69.6611738 C109.388643,69.6611738 109.163238,70.7107365 109.219271,70.899607 C109.275304,71.0884776 109.388643,71.5181899 108.955662,71.7235391 C108.522681,71.9288883 108.634747,72.5867664 108.634747,72.5867664 C107.599413,72.3421219 104.660238,73 104.660238,73 C104.342649,72.3483319 104.065778,71.6777702 103.831207,70.992141 C103.728783,70.7113797 103.752815,70.4003096 103.89716,70.138437 C104.041505,69.8765643 104.292176,69.689266 104.585103,69.6244137 C104.979879,69.5673723 104.302392,68.8740018 104.302392,68.8740018 C104.302392,68.8740018 104.377527,68.7802003 104.189053,68.1058436 C104.000579,67.4314869 104.225983,65.6974268 104.28329,65.2537711 C104.340596,64.8101154 104.622033,62.6285968 104.622033,62.6285968 C104.622033,62.6285968 104.471764,59.8728609 104.585103,59.7600456 C104.698442,59.6472303 105.074116,58.55964 104.886916,58.2034478 C104.699715,57.8472557 104.395355,55.5034859 104.395355,55.3716567 C104.395355,55.2398276 104.152122,52.2026873 104.152122,52.2026873 C104.152122,52.2026873 103.925444,50.0832805 103.98275,49.6332869 C104.040056,49.1832932 103.831207,47.5151477 103.831207,47.5151477 C103.831207,46.1208011 103.021278,44.6263151 103.021278,44.6263151 L103.000902,44.6808214 L101.254971,49.2593485 C101.254971,49.2593485 100.97226,50.6460895 100.727753,51.4332615 C100.573132,51.9685683 100.450242,52.5124556 100.359719,53.0621118 L100.343164,53.1622512 C100.343164,53.2040816 100.330429,53.2395741 100.326609,53.267461 L100.315148,53.3435163 C100.315148,53.3435163 100.442495,54.3373051 100.238739,54.6567372 C100.034984,54.9761693 99.8057585,55.9319305 99.8057585,56.1943212 C99.8057585,56.4567119 99.8248606,57.4695145 99.8248606,57.4695145 C99.8248606,57.4695145 99.8999955,59.476106 99.6975133,59.7017366 C99.4950311,59.9273672 99.6020028,60.1137026 99.6020028,60.1137026 C99.6020028,60.1137026 99.9407466,61.634808 99.7904768,62.0264926 C99.640207,62.4181772 99.7535461,63.3384459 99.7535461,63.3384459 C99.7535461,63.3384459 99.451733,66.2462923 99.4148023,66.3958677 C99.3778716,66.545443 99.169022,67.7090886 99.3957002,67.8028901 C99.6223784,67.8966916 100.054086,68.458233 100.054086,68.458233 C100.054086,68.458233 100.149596,70.9160857 99.8095789,71.1024211 C99.4695616,71.2887565 99.6580356,72.2432501 99.6580356,72.2432501 C99.6580356,72.2432501 96.9277095,72.7680314 96.3062547,72.4676131 C95.6847998,72.1671948 94.3463797,71.9986057 94.3463797,71.9986057 L94.5335803,71.382558 C94.522119,71.404107 94.3973186,71.6043859 94.3081755,70.8362277 C94.215212,70.0300418 95.0060387,70.422994 95.0060387,70.422994 C95.0060387,70.422994 95.6274936,70.573837 94.6239968,69.599062 C93.6205001,68.624287 94.1146076,67.6292306 94.1719139,67.6292306 C94.2292202,67.6292306 94.3616614,66.1867157 94.3616614,66.1867157 C94.3616614,66.1867157 94.5310333,65.3234884 94.3985921,64.6478641 C94.2661509,63.9722398 94.1540853,61.8718469 94.1540853,61.8718469 C94.1540853,61.8718469 94.2483223,60.278489 94.0789504,59.6979338 C93.9095785,59.1173786 94.191016,58.0652808 94.2483223,57.8219039 C94.3056286,57.5785271 94.072583,55.3526429 94.072583,55.3526429 C94.072583,55.3526429 94.261057,54.3030802 94.1477179,53.534922 C94.0343788,52.7667638 94.261057,49.9337052 94.261057,49.9337052 L94.5998008,46.6709342 C94.5998008,46.6709342 94.8443077,45.656864 94.8073769,45.244898 C94.7704462,44.8329319 95.0913614,43.3891494 95.0913614,43.3891494 C95.0721338,43.0816872 95.1235238,42.7739051 95.2416312,42.4891621 C95.4301052,42.1088858 95.5052402,40.8767905 95.5052402,40.8767905 L97.3148453,36.7507922 L98.2062764,33.1128153 L110.168008,33 C110.168008,33 110.21258,33.3156294 110.285168,33.8873114 C110.357756,34.4589935 110.459634,35.3082773 110.572973,36.3565724 C110.677398,37.3085309 110.79201,38.4278109 110.902802,39.6738497 C111.264469,43.6515401 110.500385,44.3639245 110.500385,44.3639245 Z" id="路径" fill="#3F3D56"></path>
                <path d="M109,12.0505347 L106.372,15 C106.372,15 103,13.5807748 103.3552,13.0963459 C103.492,12.9083774 103.4752,12.3154567 103.3912,11.6619823 C103.2712,10.6275249 103,9.43789876 103,9.43789876 C103,9.43789876 108.8932,8.42867195 108.4,9.47448323 C108.2188,9.85294328 108.25,10.3020492 108.3628,10.7145707 C108.505567,11.1929804 108.720724,11.6440826 109,12.0505347 Z" id="路径" fill="#FBBEBE"></path>
                <path d="M107.967122,9.45642602 C107.766758,9.81979302 107.67122,9.85855217 107.79595,10.2546222 C106.944073,11.0867326 105.859986,11.999995 104.511844,11.999995 C103.790369,12.0010006 103.078526,11.8488184 102.432573,11.5554761 C102.299882,10.5622729 102,9.42008932 102,9.42008932 C102,9.42008932 108.516463,8.45111064 107.967122,9.45642602 Z" id="路径" fill="#000000" opacity="0.1"></path>
                <path d="M109,7.55356984 C108.958616,10.0212922 106.956069,12 104.5,12 C102.043931,12 100.041384,10.0212922 100,7.55356984 C100,7.53173997 100,7.50991011 100,7.48936435 C100.017644,4.99229131 102.046379,2.98238655 104.531308,3.0001164 C107.016236,3.01784626 109.016366,5.0564968 108.998722,7.55356984 L109,7.55356984 Z" id="路径" fill="#FBBEBE"></path>
                <path d="M110,36.9163521 C109.435278,36.9163521 107.553275,36.9417767 105.449503,36.9821569 L105.424054,36.9821569 L104.729664,36.9971126 L104.707851,36.9971126 C102.213864,37.0464662 99.7550203,36.445249 98.7697863,36.558912 C96.6732858,36.8011936 99.5235569,34.1660077 99.5235569,34.1660077 C101.086581,34.6347891 102.694417,34.8360833 104.301881,34.7642338 L104.907806,34.7253491 C106.812835,34.5922438 108.728769,34.3709002 109.729757,34 C109.796409,34.6849688 109.892145,35.6795197 110,36.9163521 Z" id="路径" fill="#000000" opacity="0.1"></path>
                <path d="M110,36.9163103 C109.435278,36.9163103 107.553275,36.9417476 105.449503,36.982148 L105.424054,36.982148 L104.729664,36.9971111 L104.707851,36.9971111 C102.213864,37.0464894 99.7550203,36.4449724 98.7697863,36.558692 C96.6732858,36.8025907 99.5235569,34.1645942 99.5235569,34.1645942 C101.086581,34.6336094 102.694417,34.835004 104.301881,34.7631187 L104.907806,34.7242146 C106.812835,34.5910429 108.728769,34.3695888 109.729757,34 C109.796409,34.6853105 109.892145,35.6758684 110,36.9163103 Z" id="路径" fill="#5F5D7E"></path>
                <path d="M103.290118,12.6779699 L99.7393712,14.3002549 L97,35 C97,35 98.6201424,34.2837988 99.5476153,34.7362035 C100.475088,35.1886082 103.330557,34.7744348 103.330557,34.7744348 C103.330557,34.7744348 105.417697,34.6610151 105.724245,34.8878546 C106.030794,35.1146941 109.658504,33.9397163 109.658504,33.9397163 C109.658504,33.9397163 110.310735,32.5073138 109.812431,32.283023 C109.314126,32.0587323 109.971575,29.8349402 109.971575,29.8349402 L109.658504,14.9030363 L109.040189,12.9799978 L107.380913,12 L105.685111,13.3189827 L104.87504,13.4324025 L103.290118,12.6779699 Z" id="路径" fill="#000000" opacity="0.1"></path>
                <path d="M103.288856,12.6792066 L99.7388216,14.3001274 L97,35 C97,35 98.6198173,34.2838384 99.5471041,34.7362181 C100.474391,35.1885977 103.329286,34.773173 103.329286,34.773173 C103.329286,34.773173 105.416008,34.6610339 105.722495,34.8865865 C106.028982,35.1121392 109.658573,33.943598 109.658573,33.943598 C109.658573,33.943598 110.310673,32.5112749 109.812468,32.2869965 C109.314264,32.0627182 109.968972,29.8326777 109.968972,29.8326777 L109.655964,14.9028755 L109.037773,12.9812178 L107.37883,12 L105.683369,13.3201839 L104.87346,13.4335974 L103.288856,12.6792066 Z" id="路径" fill="#E7EFFD"></path>
                <path d="M103.690854,14.3074004 C103.690854,14.3074004 104.687372,15.486401 104.669577,15.7305503 C104.651782,15.9746996 104.612379,16.5540797 104.612379,16.5540797 L103.859906,18.0721063 C103.859906,18.0721063 103.446809,19.9620493 103.446809,20.3554712 C103.446809,20.7488931 102.788395,24.1505376 102.788395,24.1505376 L101.996518,29.3915244 L101,36.2605946 L102.016855,38 L103.219287,36.9879823 L104.818292,24.7476281 L105.156397,22.3339658 C105.156397,22.3339658 105.513567,17.9924099 105.513567,17.543327 C105.513567,17.0942441 105.307654,15.9152435 105.307654,15.9152435 C105.307654,15.9152435 105.551699,14.7919039 106.567284,14.5237192 C107.582868,14.2555345 106.492291,14.4667932 106.492291,14.4667932 L105.90887,14 L105.400442,14.2049336 C105.400442,14.2049336 103.992097,13.7836812 103.690854,14.3074004 Z" id="路径" fill="#000000" opacity="0.1"></path>
                <path d="M103.687742,13.2999209 C103.687742,13.2999209 104.68532,14.4793567 104.666258,14.7223306 C104.647196,14.9653045 104.609072,15.546164 104.609072,15.546164 L103.85803,17.0647509 C103.85803,17.0647509 103.443749,18.9553915 103.443749,19.3489586 C103.443749,19.7425257 102.785474,23.1454258 102.785474,23.1454258 L101.996307,28.3870815 L101,35.2586871 L102.01664,37 L103.220088,35.9876088 L104.817484,23.7440021 L105.156787,21.3307145 C105.156787,21.3307145 105.513882,16.987556 105.513882,16.5383074 C105.513882,16.0890588 105.308012,14.909623 105.308012,14.909623 C105.308012,14.909623 105.552006,13.7858687 106.567375,13.5239125 C107.582745,13.2619562 106.492398,13.468231 106.492398,13.468231 L105.909101,13 L105.400781,13.2062747 C105.400781,13.2062747 103.988922,12.7747429 103.687742,13.2999209 Z" id="路径" fill="#FFC107"></path>
                <path d="M102.769497,12 C102.769497,12 102.614818,12.1025346 102.577123,12.7845622 C102.539428,13.4665899 102,15 102,15 C102,15 104.000433,13.7730415 105,13.9089862 L102.769497,12 Z" id="路径" fill="#000000" opacity="0.1"></path>
                <path d="M102.769497,12 C102.769497,12 102.614818,12.1014214 102.577123,12.7837111 C102.539428,13.4660008 102,15 102,15 C102,15 104.000433,13.7725701 105,13.9097196 L102.769497,12 Z" id="路径" fill="#E7EFFD"></path>
                <path d="M108.419718,11 L105,13.9111399 C105,13.9111399 107.876056,15.5689862 108.250704,15.9735389 C108.625352,16.3780917 109,12.0100152 109,12.0100152 L108.419718,11 Z" id="路径" fill="#000000" opacity="0.1"></path>
                <path d="M108.415699,11 L105,13.9117107 C105,13.9117107 107.873636,15.569104 108.250968,15.9735462 C108.6283,16.3779884 109,12.0111055 109,12.0111055 L108.415699,11 Z" id="路径" fill="#E7EFFD"></path>
                <path d="M102.942247,12.0283433 C102.942247,12.0283433 102.604899,11.8585779 102.286575,12.350004 C102.05214,12.6703388 101.733784,12.9187168 101.367113,13.0673585 C101.367113,13.0673585 97.9517858,13.6149477 97.8160858,14.0680808 L96.2206601,14.1625368 C96.2206601,14.1625368 95.6575687,14.2378462 95.6017668,15.4274804 C95.545965,16.6171145 95.2453959,16.7307169 95.2453959,16.7307169 C95.2453959,16.7307169 94.5884559,17.9012046 94.645526,18.5049567 C94.7025961,19.1087088 94.1382364,19.4124995 94.1382364,19.4124995 L96.4831825,25.5495822 C96.4831825,25.5495822 96.5592759,28.0794694 96.1268116,29.0048822 C95.6943472,29.9302951 94.889025,34.0276402 94.889025,34.0276402 C94.889025,34.0276402 95.2263726,33.9523307 95.2073492,34.1782591 C95.1883258,34.4041875 94.8065904,36.8791882 94.8065904,36.8791882 C94.8065904,36.8791882 94.6937185,37.860764 94.5060214,38.2015712 C94.3183242,38.5423784 94.2993009,40.3153418 94.2993009,40.3153418 L94,41.5994319 C94,41.5994319 94.7127419,43.2051827 95.800878,42.9779779 C96.8890141,42.7507731 98.8585659,38.4657925 98.8585659,38.4657925 L100.116644,33.8387283 L101.091908,29.2691036 L101.373454,26.1724807 L101.823674,19.3180436 L102.480614,14.7854353 C102.480614,14.7854353 103.206038,12.3461747 102.942247,12.0283433 Z" id="路径" fill="#000000" opacity="0.1"></path>
                <path d="M102.943375,11.0284307 C102.943375,11.0284307 102.605196,10.8586646 102.287283,11.3488164 C102.053586,11.6695813 101.735508,11.9180643 101.369007,12.066174 C101.369007,12.066174 97.9593529,12.6137654 97.8225614,13.0669006 L96.2291942,13.1613569 C96.2291942,13.1613569 95.6680959,13.2379431 95.6110995,14.4275824 C95.554103,15.6172216 95.2551883,15.7295481 95.2551883,15.7295481 C95.2551883,15.7295481 94.5990959,16.9013172 94.6560924,17.5050719 C94.7130888,18.1088266 94.1494573,18.4113422 94.1494573,18.4113422 L96.4926444,24.5484511 C96.4926444,24.5484511 96.5673731,27.0783492 96.1367333,28.003766 C95.7060935,28.9291828 94.8992772,33.027822 94.8992772,33.027822 C94.8992772,33.027822 95.2361895,32.9512357 95.2184573,33.1784415 C95.2007251,33.4056473 94.8055497,35.8781057 94.8055497,35.8781057 C94.8055497,35.8781057 94.6928234,36.8609622 94.5053685,37.2004944 C94.3179135,37.5400267 94.3001813,39.3155505 94.3001813,39.3155505 L94,40.5996461 C94,40.5996461 94.7118222,42.2041274 95.7985544,41.978198 C96.8852866,41.7522687 98.8560969,37.4647169 98.8560969,37.4647169 L100.111285,32.8389093 L101.085291,28.2692649 L101.366474,25.1713524 L101.816112,18.3168858 L102.472205,13.7855346 C102.472205,13.7855346 103.205559,11.3488164 102.943375,11.0284307 Z" id="路径" fill="#65617D"></path>
                <path d="M91,26.2857274 L89.8358209,26.9964146 C89.8358209,26.9964146 88.0556309,27.0468349 86.7829037,26.7695229 L86.1356852,26.5150201 L86,26.4645997 L86.1356852,26.5018147 C86.807327,26.678286 87.3324288,26.6746846 87.743555,26.5522351 C89.3907734,26.0612367 89.2089552,23.6542643 89.1451832,23.1104446 C89.1451832,23.0552223 89.1343284,23.0204082 89.1316147,23.0072029 C89.1313231,23.0048089 89.1313231,23.002394 89.1316147,23 L89.1411126,23.0144058 C89.1638453,23.0472046 89.18924,23.0784995 89.2170963,23.1080436 C89.2401628,23.1308529 89.2645862,23.1548626 89.2903664,23.1776718 L89.8724559,24.2064874 C89.8724559,24.2064874 89.8724559,24.2208932 89.8724559,24.2497049 L91,26.2857274 Z" id="路径" fill="#000000" opacity="0.1"></path>
                <path d="M94.4905172,19 L93.9538793,19.1462764 L93.8775862,20.1912853 C93.8775862,20.1912853 93.2465517,20.0995526 93.074569,20.8111007 C92.9025862,21.5226488 92.5961207,21.8573492 92.5961207,21.8573492 C92.5961207,21.8573492 91.5435345,22.7002982 91.4866379,23.4155652 L90.8400862,23.8010904 C90.8400862,23.8010904 89.3284483,23.4701089 88.9844828,22.8837635 C88.9844828,22.8837635 89.6737069,27.6154346 86,26.4600986 C86,26.4600986 90.1133621,28.1831855 90.3047414,28.4224343 C90.4961207,28.661683 91.7581897,29.3571159 92.9064655,28.7707705 C94.0547414,28.1844251 94.3030172,27.2832135 94.3030172,27.2832135 C94.3030172,27.2832135 95.4125,25.7956564 95.45,25.5774814 C95.4875,25.3593064 96.3551724,25.1002235 96.3551724,25.1002235 L98,21.2858793 L94.4905172,19 Z" id="路径" fill="#65617D"></path>
                <path d="M108.359545,13.4215831 L108.877145,11 C108.877145,11 109.108798,11.7885954 109.341657,11.972105 L110.109008,12.5784308 C110.109008,12.5784308 110.876359,12.9442101 111.144208,12.9442101 C111.412057,12.9442101 112.857476,13.3298283 113.036041,13.5319369 C113.214607,13.7340454 113.928871,13.5864938 113.928871,13.5864938 C113.928871,13.5864938 114.517656,13.7886023 115.035256,13.9163151 C115.552856,14.0440279 115.802607,14.9256181 115.695226,15.280238 C115.606674,15.6330233 115.701038,16.0078106 115.944977,16.2721819 C116.159738,16.4928895 116.267119,17.208329 116.267119,17.208329 C116.528545,17.2970374 116.745339,17.4881962 116.870383,17.7402589 C117.048948,18.1432362 116.991035,19.0235864 116.991035,19.0235864 L114.336677,22.8760486 C114.336677,22.8760486 114.371666,24.3639645 114.265492,24.6925459 C114.159318,25.0211273 114.639515,30.6355299 114.639515,30.6355299 L115.193311,40.2834245 C115.193311,40.2834245 114.460949,40.9257082 114.300481,40.9988641 C114.140013,41.0720199 113.979545,37.5878169 113.979545,37.4588642 C113.979545,37.3299115 109.856844,31.111663 109.856844,31.111663 C109.856844,31.111663 109.303049,30.1953548 109.303049,29.9957261 C109.303049,29.7960974 108.785449,27.9411623 108.785449,27.9411623 L108,24.3639645 L108.359545,13.4215831 Z" id="路径" fill="#000000" opacity="0.1"></path>
                <path d="M116.999151,18.8147883 C116.999151,18.9388326 116.999151,19.0256636 116.999151,19.0256636 L114.34204,22.8710356 C114.34204,22.8710356 114.378274,24.3595667 114.271989,24.6870435 C114.209185,24.8793121 114.345664,26.8540967 114.47248,28.4765956 C114.561856,29.646333 114.6464,30.6324849 114.6464,30.6324849 L114.881917,34.7259454 L115.199562,40.2831282 C115.199562,40.2831282 114.467649,40.9256775 114.307015,40.9988636 C114.14638,41.0720497 113.985746,37.586406 113.985746,37.4574 C113.985746,37.328394 109.857562,31.1088148 109.857562,31.1088148 C109.857562,31.1088148 109.303192,30.1896469 109.303192,29.9924165 C109.303192,29.7951861 108.785055,27.9370031 108.785055,27.9370031 L108,24.3583262 L108.356294,13.4213439 L108.648577,11 C108.648577,11 109.095454,11.7901619 109.327348,11.972507 L110.095494,12.577843 C110.095494,12.577843 110.863641,12.9499758 111.131767,12.9499758 C111.399894,12.9499758 112.848019,13.334513 113.026771,13.5367051 C113.205522,13.7388972 113.919318,13.5912846 113.919318,13.5912846 C113.919318,13.5912846 114.508714,13.7934767 115.02685,13.9212423 C115.544987,14.0490079 115.796205,14.9309626 115.688712,15.2857291 C115.599591,15.6386604 115.694113,16.0138402 115.938722,16.2780832 C116.152499,16.4976416 116.259991,17.2133769 116.259991,17.2133769 C116.521641,17.3028925 116.738537,17.4944679 116.86388,17.7467672 C116.991904,18.0134624 117.003982,18.5232843 116.999151,18.8147883 Z" id="路径" fill="#65617D"></path>
                <path d="M94,69 C94.0935349,69 98.0745336,69.1572187 97.9989369,69.8273968 C97.9233402,70.4975749 94,69 94,69 Z" id="路径" fill="#000000" opacity="0.1"></path>
                <path d="M95,70 C95,70 97.5599141,70.4769235 96.8874151,70.9131683 C96.2149161,71.3494131 95,70 95,70 Z" id="路径" fill="#000000" opacity="0.1"></path>
                <path d="M105,68 C105,68 109.620885,68.2633554 108.929488,68.5978168 C108.23809,68.9322782 106.599024,68.986705 106.526948,68.9998727 C106.454872,69.0130405 105,68 105,68 Z" id="路径" fill="#000000" opacity="0.1"></path>
                <path d="M105,70 C105,70 106.939236,70.4169853 106.998734,70.8981222 C107.058233,71.3792591 105,70 105,70 Z" id="路径" fill="#000000" opacity="0.1"></path>
                <path d="M106,59 C106,59 107.888412,59.5914286 108,60 L106,59 Z" id="路径" fill="#000000" opacity="0.1"></path>
                <path d="M97.5272018,61 C97.5272018,61 96.3658749,61.2872082 97.490475,61.863784 C98.6150751,62.4403598 97.5272018,61 97.5272018,61 Z" id="路径" fill="#000000" opacity="0.1"></path>
                <path d="M103,42.2259952 C103.113154,42.2259952 104.941726,41.555407 105.577652,41.8478439 C106.032768,42.0383161 106.51389,42.1402201 107,42.1491044 L103,42.2259952 Z" id="路径" fill="#000000" opacity="0.1"></path>
                <path d="M103,44.0736926 L102.977077,44.2678288 L101.007163,49.0380349 C101.007163,49.0380349 100.689112,50.4828315 100.41404,51.3029583 C100.24009,51.8606756 100.101839,52.4273326 100,53 L101.749284,43 L103,44.0736926 Z" id="路径" fill="#000000" opacity="0.1"></path>
                <polygon id="路径" fill="#3F3D56" points="105 36.9868248 104.381877 37 104.36246 37 104 35.0355731 104.539374 35"></polygon>
                <path d="M114,34.6023063 L113.566364,34.940108 L112.122087,36.0807519 C112.122087,36.0807519 108.209963,38.0805383 107.132337,36.1809665 C106.182804,34.5077218 110.617876,33.3130296 111.686101,33.0529223 C111.830646,33.0180161 111.912907,33 111.912907,33 L114,34.6023063 Z" id="路径" fill="#FBBEBE"></path>
                <path d="M96,16 C96,16 96.7979176,16.3748858 96.9805439,16.8872296 C97.1631702,17.3995735 96,16 96,16 Z" id="路径" fill="#000000" opacity="0.1"></path>
                <path d="M94,22 C94,22 92.5521329,23.387356 93.1407589,23.9235438 C93.7293849,24.4597316 94,22 94,22 Z" id="路径" fill="#000000" opacity="0.1"></path>
                <path d="M115,17 C115,17 114.031625,17.1037296 114,18 L115,17 Z" id="路径" fill="#000000" opacity="0.1"></path>
                <path d="M105,32 C105.101538,31.8753815 107.457692,27.6495549 108,28.0234103 L105,32 Z" id="路径" fill="#000000" opacity="0.1"></path>
                <path d="M108.999995,7.61293744 C109.001087,8.36742307 108.817976,9.11035873 108.467126,9.77495269 L108.433901,9.76844843 C108.148938,9.70730841 108.000706,9.36908701 107.782191,9.15834906 C107.507339,8.89172159 107.096111,8.83311409 106.7599,9.01265369 C106.422842,9.21875581 106.228961,9.60090527 106.258977,10 C106.114579,9.38339638 106.160582,8.72906806 106.020017,8.11116358 C105.879452,7.4932591 105.456479,6.86885037 104.876328,6.85844356 C104.620756,6.85844356 104.335792,6.95080402 104.154335,6.76087969 C104.045717,6.64640476 104.026549,6.46558639 103.94221,6.32509443 C103.528182,5.64344823 102.26693,5.98817388 101.751951,6.33810294 C101.236972,6.68803201 100.64021,7.24869902 100,7.54789487 C100.017644,5.018266 102.046378,2.98215691 104.531305,3.00011792 C107.016232,3.01807893 109.016361,5.08330858 108.998717,7.61293744 L108.999995,7.61293744 Z" id="路径" fill="#000000" opacity="0.1"></path>
                <path d="M104.940211,6.46567623 C105.019752,6.59959006 105.04088,6.77355288 105.14652,6.88368761 C105.321757,7.06766268 105.606363,6.97254632 105.848713,6.97755244 C106.412954,6.98756469 106.824327,7.58829961 106.961037,8.18277687 C107.097748,8.77725413 107.053006,9.40677427 107.193445,10 C107.163909,9.61565138 107.35314,9.24762938 107.681873,9.05008791 C108.008865,8.87735537 108.408815,8.93374083 108.67613,9.19025939 C108.888652,9.39300743 109.032819,9.71840551 109.309968,9.77722747 C109.587117,9.83604943 109.854323,9.56822178 109.954992,9.27661504 C110.05566,8.98500829 110.048203,8.65961021 110.114073,8.35423663 C110.238355,7.7772808 110.611201,7.30295052 110.819995,6.75352838 C111.066269,6.08545679 111.059632,5.34945721 110.801353,4.68599903 C110.6634,4.33807339 110.458334,4.02519062 110.317895,3.67851651 C110.106616,3.1503704 110.051932,2.55213854 109.793425,2.05152611 C109.360924,1.20924569 108.341811,0.788731251 107.502907,1.10536861 C107.103962,1.25555234 106.757215,1.54841062 106.350813,1.67982138 C105.8077,1.85628726 105.22606,1.72362497 104.664305,1.64477851 C104.10255,1.56593205 103.479897,1.55842287 103.027511,1.9301276 C102.506769,2.35940276 102.365087,3.16538877 101.875416,3.63596446 C101.670351,3.83370637 101.415572,3.96011101 101.199322,4.13657689 C100.983071,4.31304277 100.795405,4.59088267 100.826476,4.88749554 C100.858789,5.27046405 101.231635,5.61838969 101.093682,5.97382452 C101.044029,6.07690153 100.974781,6.16917056 100.889859,6.24540676 C100.480423,6.67758762 100.175858,7.19931972 100,7.76977162 C100.983071,8.08015132 102.048168,6.98756469 102.818717,6.47068235 C103.312117,6.14152968 104.537537,5.80862241 104.940211,6.46567623 Z" id="路径" fill="#7C5C5C"></path>
                <path d="M114,34.6517702 L113.453873,35 C112.972866,34.3731863 111,33.1195589 111,33.1195589 L111.085841,33.054556 C111.267884,33.0185723 111.371485,33 111.371485,33 L114,34.6517702 Z" id="路径" fill="#000000" opacity="0.1"></path>
                <path d="M115,33.7038359 C115,33.7038359 114.825992,34.1215668 114.648059,34.4810686 C114.470126,34.8405703 114.273877,35.1696917 114.264719,34.9025971 C114.245094,34.3785346 112,32.6177354 112,32.6177354 L112.304841,32.331653 L112.656782,32 L115,33.7038359 Z" id="路径" fill="#E7EFFD"></path>
                <path d="M114.769049,31.069869 L115,35 C114.455191,34.1484716 112.960521,31.9666534 112,32.0369194 L114.32728,29.3441842 C114.424213,29.2357365 114.513645,29.1207393 114.594947,29 C114.68259,30.1230647 114.769049,31.069869 114.769049,31.069869 Z" id="路径" fill="#000000" opacity="0.1"></path>
                <path d="M115,33.3741081 C115,33.3741081 114.806311,33.7104995 114.608252,34 C113.856796,33.2793068 112.824272,32.4281346 112,32.2670744 L112.391748,32 L115,33.3741081 Z" id="路径" fill="#000000" opacity="0.1"></path>
                <path d="M116.664583,19 L117.341659,19.5199468 C117.341659,19.5199468 118.468425,19.5387855 118.581482,20.468159 C118.69454,21.3975325 119.724762,21.824542 119.724762,21.824542 C119.724762,21.824542 120.494571,22.5856235 120.494571,22.9385343 C120.494571,23.291445 121.077644,23.9231678 121.077644,23.9796838 C121.077644,24.0361998 121.641662,25.1690307 121.565443,25.3724882 C121.489225,25.5759456 122.167571,26.4688978 121.96051,26.8029699 C121.790725,27.1031558 121.640111,27.4135538 121.50955,27.7323434 C121.50955,27.7323434 120.626683,29.4052157 120.175723,29.7204492 C119.724762,30.0356826 117.656696,32.6931885 117.656696,32.6931885 C117.656696,32.6931885 115.440003,35.2200798 115.440003,36 C115.440003,36 113.280474,32.4332151 112,32.5261525 L114.499972,29.6827719 C114.499972,29.6827719 114.931878,29.219341 114.950933,28.940529 C114.969988,28.6617169 116.153918,27.3794326 116.717936,27.3241726 C116.717936,27.3241726 116.810668,26.5618351 116.566769,26.5429965 C116.322869,26.5241578 116.115808,25.9301123 116.115808,25.9301123 C116.115808,25.9301123 114.464404,23.9985225 114.442808,22.7714982 C114.421213,21.544474 116.664583,19 116.664583,19 Z" id="路径" fill="#65617D"></path>
                <path d="M117,20 C117,20 115.774362,21.4673274 116.036858,21.9388542 C116.299353,22.4103809 117,20 117,20 Z" id="路径" fill="#000000" opacity="0.1"></path>
                <path d="M118,25.2072829 C118,25.2072829 120.720629,24.2745098 121,25.2072829 L118,25.2072829 Z" id="路径" fill="#000000" opacity="0.1"></path>
                <path d="M99,74.2619966 C99,74.2619966 97.4905628,75.3074145 96.7364513,75.1610046 C95.9823399,75.0145948 95.2087989,75.4281384 95.2087989,75.4281384 C94.6887863,76.0286302 94.0332348,76.4797908 93.3034835,76.7394058 C92.0891334,77.1760669 90.3768997,77.0039711 89.4066339,76.662348 C88.9476096,76.5005266 88.9099647,76.2924704 89.1309765,76.0343267 C90.1862467,76.2565101 92.5433003,76.6995926 93.1784055,76.377234 C94.0041635,75.9585532 95.1905836,75.0467022 95.1905836,75.0467022 C95.1905836,75.0467022 96.7364513,74.8193816 96.9513913,74.8193816 C97.1043994,74.8193816 98.2981056,74.2979569 98.9720699,74 L99,74.2619966 Z" id="路径" fill="#000000" opacity="0.1"></path>
                <path d="M109,77 L108.981904,77.080821 C108.981904,77.080821 108.56431,77.7224609 106.285635,77.9560533 C104.00696,78.1896458 104,77.4159325 104,77.4159325 C104,77.4159325 104.008352,77.3331402 104.022272,77.2079662 C104.746102,77.4021338 106.32461,77.6189706 109,77 Z" id="路径" fill="#000000" opacity="0.1"></path>
                <path d="M97.2323169,20 C97.2323169,20 97.2323169,24.5268912 96.8693217,24.9738094 C96.5063266,25.4207275 97.2323169,20 97.2323169,20 Z" id="路径" fill="#000000" opacity="0.1"></path>
                <path d="M114,21 L114.950083,23 C114.950083,23 115.328787,21.0364842 114,21 Z" id="路径" fill="#000000" opacity="0.1"></path>
                <g id="分组" opacity="0.1" transform="translate(100.000000, 4.000000)" fill="#000000">
                    <path d="M1.19655556,1.22 C1.32855556,0.849333333 0.981444444,0.486666667 0.936222222,0.0893333333 C0.890241267,0.201416081 0.870502081,0.324203745 0.878777778,0.446666667 C0.902,0.745333333 1.10366667,1.024 1.15744444,1.30133333 C1.17260108,1.27549954 1.18568662,1.24828756 1.19655556,1.22 Z" id="路径"></path>
                    <path d="M7.19766667,5.468 C7.06811111,4.84666667 7.106,4.188 6.974,3.56533333 C6.842,2.94266667 6.435,2.292 5.88133333,2.28133333 C5.63688889,2.28133333 5.36311111,2.37733333 5.19077778,2.18266667 C5.08566667,2.06533333 5.06855556,1.87866667 4.98666667,1.736 C4.59066667,1.036 3.38555556,1.39066667 2.89177778,1.74933333 C2.15844444,2.28266667 1.13666667,3.40666667 0.188222222,3.15333333 C0.143,3.272 0.101444444,3.39333333 0.066,3.51733333 C1.03277778,3.848 2.08022222,2.684 2.838,2.13333333 C3.32688889,1.776 4.53688889,1.42133333 4.93288889,2.12133333 C5.01111111,2.264 5.03188889,2.44933333 5.13577778,2.56666667 C5.30811111,2.76266667 5.588,2.66133333 5.82633333,2.66666667 C6.38122222,2.67733333 6.78577778,3.31733333 6.92022222,3.95066667 C7.05466667,4.584 7.01066667,5.25466667 7.14877778,5.88666667 C7.1398679,5.74496771 7.15647663,5.6027366 7.19766667,5.468 Z" id="路径"></path>
                    <path d="M9.91588889,4.72933333 C9.81811111,5.04133333 9.56022222,5.32933333 9.28155556,5.26266667 C9.00288889,5.196 8.86722222,4.85333333 8.65944444,4.636 C8.3951006,4.36583778 8.00344918,4.306556 7.68166667,4.488 C7.37466718,4.68761049 7.19084816,5.05295236 7.20133333,5.44266667 C7.2745619,5.20181899 7.42636807,4.99872534 7.62788889,4.872 C7.94946097,4.68797736 8.34278241,4.74804827 8.60566667,5.02133333 C8.81466667,5.23733333 8.95644444,5.584 9.229,5.64666667 C9.50155556,5.70933333 9.76433333,5.424 9.86333333,5.11333333 C9.91482519,4.92885309 9.94801533,4.73887589 9.96233333,4.54666667 C9.9504459,4.6085757 9.93493261,4.66958971 9.91588889,4.72933333 Z" id="路径"></path>
                    <path d="M10.7665556,2.04133333 C10.5636667,2.62666667 10.1945556,3.13066667 10.0723333,3.74666667 C10.0478889,3.87066667 10.0332222,3.99733333 10.0197778,4.12533333 C10.142,3.512 10.5086667,3.00933333 10.7127778,2.42533333 C10.8028758,2.16261613 10.8592248,1.8875645 10.8802222,1.608 C10.8523972,1.75536278 10.8144,1.90021998 10.7665556,2.04133333 Z" id="路径"></path>
                </g>
                <circle id="椭圆形" fill="#E6E8EC" cx="84" cy="19" r="1"></circle>
                <ellipse id="椭圆形" fill="#FFC107" opacity="0.1" cx="100" cy="77" rx="11" ry="1"></ellipse>
                <path d="M59.9987579,4.71076148 L27,25.9588824 L48.5348094,64.5075774 C48.7382394,64.8720095 49.085966,65.1353904 49.4938189,65.2339661 L69.0058755,69.9579972 C69.6948349,70.1233924 70.40664,69.7889416 70.7144265,69.1552125 L80.3928508,49.1983101 L91,35.1251559 L65.8285258,5.56865154 C64.3793889,3.86788745 61.8827693,3.50049287 59.9987579,4.71076148 Z" id="路径" fill="#DCDFED"></path>
                <path d="M91,35.1247158 L90.9066246,35.2499459 L84.6933754,43.4938401 L84.5810726,43.6428638 L80.3930599,49.1993212 L72.1154574,66.2694293 L71.8832808,66.7465558 L70.7148265,69.1547297 C70.406827,69.7895188 69.6935419,70.1241522 69.0037855,69.9574543 L49.4921136,65.2312722 C49.0841326,65.1329871 48.7363096,64.8695478 48.533123,64.5049379 L46.6567823,61.1525295 L46.3198738,60.5489206 L32.7766562,36.2968691 L32.6605678,36.0902395 L27,25.9591284 L27.6839117,25.5183186 L32.8687697,22.1809378 L32.9886435,22.1032952 L43.9072555,15.0728801 L44.5962145,14.6295658 L59.9968454,4.71259806 C61.8809207,3.50004857 64.3795686,3.86702575 65.8290221,5.5691716 L77.3116719,19.056448 L77.8164038,19.6575523 L86.1507886,29.4430284 L86.1962145,29.4968773 L90.3867508,34.4159137 L90.9141956,35.0358025 L91,35.1247158 Z" id="路径" fill="#000000" opacity="0.1"></path>
                <path d="M86,28.9095602 L84.9782139,35.9423716 L84.6701568,38.0647736 L84.4939431,42.5858667 L84.4799981,42.9387631 L83.5634332,66.5614743 C83.5455656,67.0051408 83.3299682,67.4181024 82.9748027,67.6889547 C82.6196372,67.959807 82.1614934,68.0606462 81.7239647,67.964269 L71.8433186,65.779074 L71.7368297,65.7552127 L46.3962813,60.1528249 L45.9310264,60.0498444 L32,56.967966 L32.3194666,35.7288755 L32.3296084,35.0193151 L32.4259555,28.590572 L32.5324444,21.4949676 L43.5020659,14.4445741 L44.1942436,14 C54.3690018,15.0335721 67.9006949,17.0215972 77.067612,18.4394622 L77.5747018,19.0422746 L85.9416847,28.8555582 L86,28.9095602 Z" id="路径" fill="#000000" opacity="0.1"></path>
                <path d="M87,20.7971913 L85.803114,29.1327458 L84.7058635,36.766093 L84.39939,38.8954483 L84.2240822,43.4421144 L83.2983558,67.5533374 C83.2805801,67.9995135 83.066091,68.414811 82.7127514,68.6871953 C82.3594117,68.9595797 81.9036232,69.0609893 81.4683437,68.9640669 L71.5325506,66.7425153 L46.3222729,61.1084382 L32,57.9055645 L32.327914,35.8327635 L32.4237657,29.3676569 L32.5360132,21.8050356 L32.6507831,14.0264477 C35.0193309,13.914044 38.9164622,14.1678995 43.5690568,14.6364587 C53.9866312,15.6834549 68.1878282,17.8014435 77.4728382,19.2601656 C83.1583618,20.1530803 87,20.7971913 87,20.7971913 Z" id="路径" fill="#FFC107"></path>
                <path d="M90.4744364,34.0019458 L85.1341545,36.6284108 L57.8793873,50.0331381 L32.7622488,29.2152673 L27.6847487,25 L27,25.4459796 L32.6674958,35.6959081 L32.3390185,57.8390478 L46.6858936,61.052128 L48.5607407,64.4438534 C48.7641759,64.8127394 49.1124246,65.0792683 49.5209049,65.1787061 L69.056457,69.9577828 C69.7458399,70.124441 70.4577551,69.786198 70.765802,69.1456438 L71.9356864,66.7092269 L81.8885467,68.9378579 C82.3245739,69.0350891 82.7811454,68.9333564 83.135092,68.660104 C83.4890386,68.3868517 83.7038961,67.9702307 83.7217024,67.5226329 L84.6490189,43.3345754 L90.9823128,34.8457595 L91,34.6316386 L90.4744364,34.0019458 Z" id="路径" fill="#000000" opacity="0.1"></path>
                <path d="M27.2439315,26 L25.0025759,64.2487013 C24.9597376,64.979918 25.4554481,65.6341463 26.172908,65.7932809 L85.6976794,78.9654256 C86.1199301,79.0575703 86.5615417,78.9635132 86.9091019,78.7074094 C87.2566622,78.4513056 87.476308,78.0581076 87.5116312,77.6287943 L91,35.1685142 L57.9704898,51.3120643 L27.2439315,26 Z" id="路径" fill="#DCDFED"></path>
                <path d="M25.1242302,65.3365339 L56.1926223,46.3279452 C57.1424145,45.7567456 58.3690188,45.9471423 59.0973907,46.7788308 L86.9048646,78.9407568 C87.0059,79.0559832 87.0551548,78.9733208 86.9048646,78.9407568 L25.1242302,65.3365339 C24.9474182,65.2977077 24.9701512,65.4279635 25.1242302,65.3365339 Z" id="路径" fill="#000000" opacity="0.1"></path>
                <path d="M25.1595983,64.8812253 L55.6016278,46.3465833 C56.5951489,45.7417725 57.8763143,45.9449305 58.6375781,46.8280026 L85.9198685,78.4517037 C86.0124939,78.5596392 86.0261747,78.715213 85.9538284,78.8378856 C85.8814821,78.9605583 85.7393523,79.0227865 85.6010187,78.9923552 L25.2583793,65.4874103 C25.1268899,65.4587542 25.0261475,65.3519914 25.0043446,65.2181941 C24.9825416,65.0843968 25.0441105,64.9507654 25.1595983,64.8812253 Z" id="路径" fill="#E3E5F1"></path>
            </g>
        </g>
    </g>
</svg>