<?xml version="1.0" encoding="UTF-8"?>
<svg width="216px" height="252px" viewBox="0 0 216 252" version="1.1" xmlns="http://www.w3.org/2000/svg" xmlns:xlink="http://www.w3.org/1999/xlink">
    <!-- Generator: Sketch 52.2 (67145) - http://www.bohemiancoding.com/sketch -->
    <title>矩形 copy 9</title>
    <desc>Created with Sketch.</desc>
    <defs>
        <linearGradient x1="97.8616898%" y1="100%" x2="4.04803241%" y2="0%" id="linearGradient-1">
            <stop stop-color="#7E65FD" offset="0%"></stop>
            <stop stop-color="#3574FA" offset="100%"></stop>
        </linearGradient>
    </defs>
    <g id="Page-1" stroke="none" stroke-width="1" fill="none" fill-rule="evenodd">
        <g id="拍信云首页" transform="translate(-316.000000, -1275.000000)">
            <rect id="矩形-copy-9" fill="url(#linearGradient-1)" x="316" y="1275" width="216" height="252" rx="8"></rect>
            <g id="undraw_fashion_blogging_w9ol-copy" transform="translate(357.000000, 1317.000000)">
                <circle id="椭圆形" fill="#F2F2F2" cx="38.5" cy="38.5" r="38.5"></circle>
                <ellipse id="椭圆形" fill="#3F3D56" cx="67" cy="76.5" rx="62" ry="3.5"></ellipse>
                <ellipse id="椭圆形" fill="#000000" opacity="0.2" cx="67.5" cy="75.5" rx="55.5" ry="2.5"></ellipse>
                <rect id="矩形" fill="#3F3D56" x="16" y="18" width="101" height="6"></rect>
                <path d="M16,73.3689724 C15.9999997,74.0667644 16.2745144,74.7359768 16.7631539,75.2293902 C17.2517934,75.7228037 17.9145309,76.0000003 18.6055715,76 L114.394428,76 C115.085469,76.0000003 115.748207,75.7228037 116.236846,75.2293902 C116.725486,74.7359768 117,74.0667644 117,73.3689724 L117,21 L16,21 L16,73.3689724 Z" id="路径" fill="#3F3D56"></path>
                <path d="M114.394428,14 L18.6055715,14 C17.9145309,13.9999997 17.2517934,14.2663605 16.7631539,14.7404859 C16.2745144,15.2146114 15.9999997,15.8576637 16,16.5281783 L16,21 L117,21 L117,16.5281783 C117,15.8576637 116.725486,15.2146114 116.236846,14.7404859 C115.748207,14.2663605 115.085469,13.9999997 114.394428,14 Z" id="路径" fill="#3F3D56"></path>
                <path d="M114.394428,14 L18.6055715,14 C17.9145309,13.9999997 17.2517934,14.2663605 16.7631539,14.7404859 C16.2745144,15.2146114 15.9999997,15.8576637 16,16.5281783 L16,21 L117,21 L117,16.5281783 C117,15.8576637 116.725486,15.2146114 116.236846,14.7404859 C115.748207,14.2663605 115.085469,13.9999997 114.394428,14 Z" id="路径" fill="#576DFB" opacity="0.2"></path>
                <circle id="椭圆形" fill="#3F3D56" cx="21.5" cy="17.5" r="1.5"></circle>
                <circle id="椭圆形" fill="#3F3D56" cx="26.5" cy="17.5" r="1.5"></circle>
                <circle id="椭圆形" fill="#3F3D56" cx="30.5" cy="17.5" r="1.5"></circle>
                <rect id="矩形" fill="#576DFB" opacity="0.2" x="20" y="26" width="41" height="47" rx="5.33505"></rect>
                <circle id="椭圆形" fill="#3C354C" cx="38" cy="32" r="5"></circle>
                <circle id="椭圆形" fill="#3C354C" cx="38" cy="37" r="5"></circle>
                <path d="M36.3574747,33 C36.3574747,33 36.13872,36.1752579 35.1543252,36.6288667 C34.1699304,37.0824755 38.216887,44 38.216887,44 L39.8575459,41.8453619 L38.5450179,37.9896968 C38.5450179,37.9896968 39.5294127,34.81444 39.9669208,34.5876356 C40.404429,34.3608312 36.3574747,33 36.3574747,33 Z" id="路径" fill="#FFC1C7"></path>
                <path d="M36.3574747,33 C36.3574747,33 36.13872,36.1752579 35.1543252,36.6288667 C34.1699304,37.0824755 38.216887,44 38.216887,44 L39.8575459,41.8453619 L38.5450179,37.9896968 C38.5450179,37.9896968 39.5294127,34.81444 39.9669208,34.5876356 C40.404429,34.3608312 36.3574747,33 36.3574747,33 Z" id="路径" fill="#000000" opacity="0.1"></path>
                <path d="M49.9046901,49 C49.9046901,49 54.8805128,51.4651334 53.8627309,54.2518052 C52.8449489,57.0384769 50.6963028,51.143594 50.6963028,51.143594 L49,49.9646172 L49.9046901,49 Z" id="路径" fill="#FFC1C7"></path>
                <path d="M50.1690496,57 C50.1690496,57 51.8251989,60.7868549 50.4613126,60.99155 C49.0974262,61.1962451 49,57.6140853 49,57.6140853 L50.1690496,57 Z" id="路径" fill="#FFC1C7"></path>
                <path d="M40.9311507,45 C41.0483969,45 41.9863651,45.345069 41.9863651,45.345069 C41.9863651,45.345069 45.5037467,51.6713284 46.9106995,52.9365791 C48.3176524,54.2018297 50.3108362,57.3074424 49.9590964,57.5374933 C49.6073566,57.7675443 47.0279457,59.377859 46.7934534,58.9177719 C46.558961,58.4576848 45.6209928,56.7323372 45.0347619,56.3872682 C44.448531,56.0421991 41.5173816,52.2464447 40.6966596,51.9013769 C39.8759376,51.5563091 38,46.0352096 38,46.0352096 L40.9311507,45 Z" id="路径" fill="#576DFB"></path>
                <path d="M40.9311507,45 C41.0483969,45 41.9863651,45.345069 41.9863651,45.345069 C41.9863651,45.345069 45.5037467,51.6713284 46.9106995,52.9365791 C48.3176524,54.2018297 50.3108362,57.3074424 49.9590964,57.5374933 C49.6073566,57.7675443 47.0279457,59.377859 46.7934534,58.9177719 C46.558961,58.4576848 45.6209928,56.7323372 45.0347619,56.3872682 C44.448531,56.0421991 41.5173816,52.2464447 40.6966596,51.9013769 C39.8759376,51.5563091 38,46.0352096 38,46.0352096 L40.9311507,45 Z" id="路径" fill="#000000" opacity="0.1"></path>
                <circle id="椭圆形" fill="#FFC1C7" cx="38.5" cy="32.5" r="3.5"></circle>
                <path d="M42,45.4375062 C42,45.4375062 40.2362886,47.5470678 40.0158244,47.6580974 C39.9331542,47.7002887 39.3819913,47.9456597 38.7272194,48.2365562 C37.6414205,48.7184285 36.2679375,49.3235403 36.2679375,49.3235403 C36.2679375,49.3235403 35.3860818,49.8786887 34.9451546,49.8786887 C34.5042273,49.8786887 32.0791234,51.1000128 32.0791234,51.1000128 C32.0791234,51.1000128 30.3154108,52.4323701 29.2130921,52.4323701 C28.1107734,52.4323701 29.10286,53.098547 27.6698438,52.9875174 C26.2368276,52.8764877 27.4493796,48.7683954 28.1107722,48.213247 C28.7721649,47.6580986 28.8824005,45.4375086 28.7721637,44.7713281 C28.6619269,44.1051477 29.323323,41.6625006 30.2051799,38.5536731 C31.0870368,35.4448457 32.960979,36.6661769 32.960979,36.6661769 C32.960979,36.6661769 34.0632989,36 34.1735299,36 C34.2837608,36 35.3860818,37.8874963 35.6065461,38.9977978 C35.7432291,39.6861816 36.6427298,41.0995825 37.3063147,42.0744215 C37.7130771,42.672873 38.0316501,43.10589 38.0316501,43.10589 C38.0316501,43.10589 38.0316501,42.8982655 38.026132,42.6118079 C38.017319,42.1166139 37.9908704,41.389372 37.9214179,41.1073594 C37.8111858,40.6632406 37.7009537,38.3316197 37.7009537,38.3316197 C37.7009537,38.3316197 37.7009537,38.22059 38.0316501,38.22059 C38.3623464,38.22059 41.0079122,42.3286835 41.0079122,42.3286835 L41.2283764,44.5492747 L41.605361,44.9833977 L42,45.4375062 Z" id="路径" fill="#576DFB"></path>
                <path d="M43,45.1058111 C43,45.1058111 41.1705618,47.287076 40.9418817,47.4018796 C40.8561307,47.4455049 40.284428,47.699216 39.6052552,48 C36.3099718,47.1607885 32.5378991,45.2780158 32.5378991,45.2780158 C32.5378991,45.2780158 31.4516705,41.4321025 32.3663896,39.7100505 C33.2811087,37.9879986 35.9109297,39.9396576 35.9109297,39.9396576 C35.9109297,39.9396576 36.9125485,40.7168719 38.1314049,41.6284112 C38.3738186,41.809803 38.6242166,41.9969331 38.8780471,42.1840608 C40.2044018,43.1633256 41.595909,44.1494944 42.1653193,44.4169886 C42.2693729,44.4652038 42.413442,44.5398284 42.5906604,44.6362601 L43,45.1058111 Z" id="路径" fill="#000000" opacity="0.1"></path>
                <path d="M31.0045029,45.6657948 C31.0045029,45.6657948 39.3335895,48.3007258 41.4721391,48.5298505 C43.6106888,48.7589753 47.4375665,53.1123408 47.7752326,52.9977784 C48.1128988,52.883216 50.4765567,50.0191603 49.9137823,49.5609107 C49.3510078,49.1026612 42.6427133,44.9784217 41.4383729,44.4056098 C40.2340325,43.8327979 35.281601,39.9376832 35.281601,39.9376832 C35.281601,39.9376832 32.6928311,37.9901252 31.7923857,39.7085584 C30.8919404,41.4269916 31.0045029,45.6657948 31.0045029,45.6657948 Z" id="路径" fill="#576DFB"></path>
                <path d="M35.2164679,57.8048478 C35.2164679,57.8048478 33.8515258,56.8112125 32.9415639,57.0320159 C32.0316021,57.2528193 30.8941495,57.9152472 31.007901,59.3504987 C31.0742867,60.2022919 31.1881988,61.0499656 31.3491359,61.8897884 L31.4628813,61.8897884 L31.8041174,59.9025178 C31.8041174,59.9025178 32.8278246,60.344134 33.0553154,61.1169612 C33.2828062,61.8897884 36.126437,63.435444 36.8089081,62.8834237 C37.4913792,62.3314034 36.126437,61.6689803 36.126437,61.6689803 L35.2164679,57.8048478 Z" id="路径" fill="#F2F2F2"></path>
                <path d="M35.2164679,57.8048478 C35.2164679,57.8048478 33.8515258,56.8112125 32.9415639,57.0320159 C32.0316021,57.2528193 30.8941495,57.9152472 31.007901,59.3504987 C31.0742867,60.2022919 31.1881988,61.0499656 31.3491359,61.8897884 L31.4628813,61.8897884 L31.8041174,59.9025178 C31.8041174,59.9025178 32.8278246,60.344134 33.0553154,61.1169612 C33.2828062,61.8897884 36.126437,63.435444 36.8089081,62.8834237 C37.4913792,62.3314034 36.126437,61.6689803 36.126437,61.6689803 L35.2164679,57.8048478 Z" id="路径" fill="#000000" opacity="0.1"></path>
                <path d="M37.8654479,59 C37.8654479,59 47.429807,57.8333344 46.9849492,55.9666666 C46.5400913,54.0999989 43.2036929,52 43.2036929,52 L37.6430208,53.1666669 L34,57.3025167 L35.4187519,58.0666667 L37.8654479,59 Z" id="路径" fill="#3C354C"></path>
                <path d="M37.8654479,59 C37.8654479,59 47.429807,57.8333344 46.9849492,55.9666666 C46.5400913,54.0999989 43.2036929,52 43.2036929,52 L37.6430208,53.1666669 L34,57.3025167 L35.4187519,58.0666667 L37.8654479,59 Z" id="路径" fill="#000000" opacity="0.1"></path>
                <path d="M33.2573479,60 C33.2573479,60 31.3600559,63.3097412 30.8020293,63.4238691 C30.2440028,63.537997 29.5743694,64.2227767 30.3556071,65.7064493 C30.8240014,66.5925312 31.1267863,67.5601295 31.2484503,68.559674 L31.4716615,68.559674 L31.3600559,66.505352 C31.3600559,66.505352 32.8109269,68.9020614 32.9225325,69.8150932 C33.034138,70.7281251 37.1635375,71.6411569 37.8331708,70.3857389 C38.5028042,69.1303209 36.9403276,68.2172878 36.9403276,68.2172878 C36.9403276,68.2172878 34.5966134,65.5923153 34.93143,63.7662565 C35.2662467,61.9401977 35.6010622,61.4836763 35.6010622,61.4836763 L33.2573479,60 Z" id="路径" fill="#F2F2F2"></path>
                <path d="M27.1249072,52.5666772 C27.1249072,52.5666772 26.1221802,59.2277097 29.7988444,58.9939903 C33.4755086,58.7602708 41.1630834,53.9690014 41.1630834,53.9690014 L43.5027802,51.2812158 C43.5027802,51.2812158 45.1739915,48.8271521 42.3886389,48.12599 C39.6032863,47.4248279 35.0353093,49.8788966 35.0353093,49.8788966 L28.1276283,53.0341223 L27.1249072,52.5666772 Z" id="路径" fill="#3C354C"></path>
                <path d="M43.5319143,50 L44,50.5711682 C44,50.5711682 36.861702,61.8803095 36.1595747,61.9945434 C35.4574474,62.1087773 33,60.3952715 33,60.0525698 C33,59.7098681 33.9361701,57.7678945 34.1702117,57.5394267 C34.4042533,57.310959 36.7446805,52.05621 37.2127662,51.7135059 C37.6808519,51.3708018 43.5319143,50 43.5319143,50 Z" id="路径" fill="#3C354C"></path>
                <ellipse id="椭圆形" fill="#3C354C" cx="38.5" cy="30.5" rx="3.5" ry="2.5"></ellipse>
                <rect id="矩形" fill="#576DFB" opacity="0.2" x="73" y="33" width="34" height="3" rx="1.5"></rect>
                <rect id="矩形" fill="#576DFB" opacity="0.2" x="65" y="42" width="50" height="2" rx="1"></rect>
                <rect id="矩形" fill="#576DFB" opacity="0.2" x="65" y="48" width="50" height="2" rx="1"></rect>
                <rect id="矩形" fill="#576DFB" opacity="0.2" x="65" y="53" width="50" height="2" rx="1"></rect>
                <rect id="矩形" fill="#576DFB" opacity="0.2" x="65" y="58" width="50" height="2" rx="1"></rect>
                <rect id="矩形" fill="#576DFB" x="104" y="67" width="11" height="3" rx="1.5"></rect>
                <path d="M126.478049,60.9112874 C126.826606,60.3445503 127.006707,59.7015143 126.999809,59.0483891 C126.999809,57.3648103 125.880603,56 124.5,56 C123.119397,56 122.000191,57.3648103 122.000191,59.0483891 C121.993295,59.701514 122.173396,60.3445494 122.521951,60.9112874 C121.82627,62.0686877 121.82627,63.4796996 122.521951,64.6370999 C121.826272,65.7944986 121.826272,67.2055075 122.521951,68.3629062 C121.826272,69.5203049 121.826272,70.9313139 122.521951,72.0887126 C122.173396,72.6554506 121.993295,73.2984859 122.000191,73.9516109 C122.000191,75.6351897 123.11939,77 124.5,77 C125.880609,77 126.999809,75.6351897 126.999809,73.9516109 C127.006707,73.2984856 126.826606,72.6554497 126.478049,72.0887126 C127.173728,70.9313139 127.173728,69.5203049 126.478049,68.3629062 C127.173728,67.2055075 127.173728,65.7944986 126.478049,64.6370999 C127.17373,63.4796996 127.17373,62.0686877 126.478049,60.9112874 Z" id="路径" fill="#3F3D56"></path>
                <ellipse id="椭圆形" fill="#3F3D56" cx="124.5" cy="56" rx="2.5" ry="3"></ellipse>
                <ellipse id="椭圆形" fill="#3F3D56" cx="124.5" cy="52" rx="2.5" ry="3"></ellipse>
                <path d="M133.64581,26.7277435 C133.959538,26.3299728 134.245289,25.911087 134.501021,25.4740796 L128.467019,24.4871866 L134.992955,24.5355191 C136.258196,21.7940652 136.334171,18.6547641 135.203017,15.855793 L126.447693,20.3788193 L134.52214,14.4680792 C132.46026,10.9198189 128.581595,8.81492575 124.469797,9.01282436 C120.358,9.21072297 116.701238,11.6782922 114.992561,15.4080274 C113.283885,19.1377627 113.809265,23.5054399 116.35419,26.7277435 C115.86516,27.3468228 115.444566,28.0165955 115.099697,28.7254549 L122.932262,32.7778689 L114.580565,29.9864951 C113.389209,33.493697 114.056307,37.3628163 116.35419,40.2733871 C112.807237,44.7641685 113.321849,51.21561 117.536259,55.0924043 C121.750669,58.9691986 128.249331,58.9691986 132.463741,55.0924043 C136.678151,51.21561 137.192763,44.7641685 133.64581,40.2733871 C136.784502,36.2991219 136.784502,30.7020087 133.64581,26.7277435 Z" id="路径" fill="#576DFB"></path>
                <path d="M114.000171,33.1636276 C113.996373,35.6546406 114.825848,38.0739702 116.35419,40.0295952 C112.807237,44.5821378 113.321849,51.1223052 117.536259,55.0524165 C121.750669,58.9825278 128.249331,58.9825278 132.463741,55.0524165 C136.678151,51.1223052 137.192763,44.5821378 133.64581,40.0295952 C135.120117,38.1400686 114.000171,31.9172392 114.000171,33.1636276 Z" id="路径" fill="#000000" opacity="0.1"></path>
            </g>
        </g>
    </g>
</svg>