<?xml version="1.0" encoding="UTF-8"?>
<svg width="48px" height="48px" viewBox="0 0 48 48" version="1.1" xmlns="http://www.w3.org/2000/svg" xmlns:xlink="http://www.w3.org/1999/xlink">
    <!-- Generator: Sketch 52.2 (67145) - http://www.bohemiancoding.com/sketch -->
    <title>拍信云首页 copy 6</title>
    <desc>Created with Sketch.</desc>
    <g id="Page-1" stroke="none" stroke-width="1" fill="none" fill-rule="evenodd">
        <g id="拍信云首页" transform="translate(-141.000000, -1227.000000)">
            <g id="营销工具-关联列表-copy" transform="translate(151.000000, 1237.000000)">
                <rect id="矩形" fill="#000000" opacity="0" x="0" y="0" width="29" height="29"></rect>
                <path d="M24.643333,2 L16.356667,2 C15.396034,2 14.5708787,2.5769594 14.203948,3.40162552 C14.1980958,3.41477809 14.1909269,3.42705382 14.185221,3.44035253 C14.1805393,3.45175143 14.1771743,3.46373488 14.1724926,3.47513377 C14.0587015,3.75523704 14.0001318,4.05465401 14,4.35694051 L14,12.6429134 C14,13.9429718 15.0582178,15 16.356667,15 L24.643333,15 C25.5902134,15 26.4045422,14.4389698 26.7792271,13.6333019 C26.9242927,13.323273 26.9996478,12.9852794 27,12.6430595 L27,4.35708665 C27,3.05702819 25.9417822,2 24.643333,2 Z M25.3947511,12.6429134 C25.3947511,12.8504317 25.3107725,13.038075 25.1747096,13.1738388 C25.0339381,13.3148392 24.842688,13.3939462 24.643333,13.3936328 L16.3565207,13.3936328 C15.9443819,13.3936328 15.6049563,13.0576577 15.6049563,12.6429134 L15.6049563,5.67716624 L15.6078824,5.67716624 L15.6078824,4.35708665 L15.6049563,4.35708665 L15.6049563,4.35694051 C15.6049563,4.14956833 15.6890812,3.96207114 15.8249977,3.82616125 C15.9609143,3.69025136 16.1487688,3.60636719 16.3563744,3.60636719 L24.6431867,3.60636719 C25.0553255,3.60636719 25.3947511,3.94234228 25.3947511,4.35708665 L25.3947511,11.3228338 L25.391825,11.3228338 L25.391825,12.6429134 L25.3947511,12.6429134 Z" id="形状" fill="#8563FF" fill-rule="nonzero"></path>
                <path d="M21.4110097,6 L5.58899029,6 C4.15898591,6 3,7.15914244 3,8.58915692 L3,24.4112881 C3,25.8411542 4.15898591,27 5.58899029,27 L21.4110097,27 C22.8410141,27 24,25.8410059 24,24.4112881 L24,8.58915692 C24,7.15914244 22.8408657,6 21.4110097,6 Z M22.4455378,23.2831491 C22.4455378,24.5011832 21.458182,25.4885459 20.2398599,25.4885459 L6.76014015,25.4885459 C5.54196629,25.4885459 4.55446223,24.5008865 4.55446223,23.2831491 L4.55446223,9.80303747 C4.55446223,8.58485501 5.54196629,7.59719563 6.76014015,7.59719563 L20.2398599,7.59719563 C21.458182,7.59719563 22.4455378,8.58470667 22.4455378,9.80303747 L22.4455378,23.2831491 Z" id="形状" fill="#8563FF" fill-rule="nonzero"></path>
                <path d="M12.7499537,18.8583386 L6.75002781,18.8583386 C6.30004079,18.8583386 6,18.5656607 6,18.125992 C6,17.6867578 6.29989247,17.3936454 6.75002781,17.3936454 L12.749657,17.3936454 C13.1994957,17.3936454 13.4999815,17.6863234 13.4999815,18.125992 C13.4999815,18.5656607 13.1999407,18.8583386 12.7499537,18.8583386 Z M6.00014831,13.7323466 C6.00014831,13.2931124 6.29989247,13 6.75017612,13 L11.249898,13 C11.6997367,13 11.9999258,13.292678 11.9999258,13.7323466 C11.9999258,14.1720153 11.7001817,14.4649829 11.249898,14.4649829 L6.75002781,14.4649829 C6.29989247,14.4648381 6.00014831,14.1718705 6.00014831,13.7323466 Z M17.2496756,23 L6.75017612,23 C6.3001891,23 6.00014831,22.7070324 6.00014831,22.2676534 C6.00014831,21.8282743 6.3001891,21.5353067 6.75017612,21.5353067 L17.2496756,21.5353067 C17.6995143,21.5353067 18,21.8279847 18,22.2676534 C17.9998517,22.7070324 17.6998109,23 17.2496756,23 Z" id="形状" fill="#8563FF" fill-rule="nonzero"></path>
            </g>
        </g>
    </g>
</svg>