<?xml version="1.0" encoding="UTF-8"?>
<svg width="48px" height="48px" viewBox="0 0 48 48" version="1.1" xmlns="http://www.w3.org/2000/svg" xmlns:xlink="http://www.w3.org/1999/xlink">
    <!-- Generator: Sketch 52.2 (67145) - http://www.bohemiancoding.com/sketch -->
    <title>拍信云首页 copy 7</title>
    <desc>Created with Sketch.</desc>
    <g id="Page-1" stroke="none" stroke-width="1" fill="none" fill-rule="evenodd">
        <g id="拍信云首页" transform="translate(-197.000000, -1227.000000)" fill="#F25E3A" fill-rule="nonzero">
            <g id="zidingyi-copy" transform="translate(208.000000, 1238.000000)">
                <path d="M19.5533078,12.2716009 L25.3986203,6.79791667 C26.5657392,5.64747539 26.5657392,3.78227607 25.3986203,2.6318348 L23.9399435,1.1940424 C22.7937808,0.0646142466 20.943218,0.0414287328 19.7683012,1.14177632 L14.0589262,6.48527047 L8.51344747,0.645723684 L8.46813497,0.599159357 C8.10333358,0.236347403 7.60721022,0.0313024774 7.0889828,0.029163715 C6.57075538,0.0270249526 6.07290745,0.227967686 5.70503657,0.587755848 L1.54207114,4.69111842 C0.799754655,5.42825131 0.784820757,6.61300775 1.50832779,7.36809211 L6.97185838,13.1211623 L1.80623338,17.9581506 C1.3838938,18.3538097 1.08801045,18.8624581 0.954936835,19.4216009 L0.0814660904,23.0963816 C-0.0787603411,23.7716293 0.137078653,24.479938 0.648261486,24.9564075 C1.15944432,25.432877 1.88897354,25.6057385 2.56401263,25.4103436 L6.15816157,24.3669225 C6.61260353,24.234573 7.02885072,23.9981692 7.37292221,23.6770102 L12.46624,18.9074927 L18.6007813,25.3675804 L18.6460938,25.4141447 C19.0108951,25.7769567 19.5070185,25.9820016 20.0252459,25.9841404 C20.5434733,25.9862791 21.0413213,25.7853364 21.4091922,25.4255482 L25.5721576,21.3221857 C26.3144741,20.5850528 26.329408,19.4002963 25.6059009,18.645212 L19.5533078,12.2716009 Z M7.27362035,21.1492325 L4.55872673,18.4732091 C4.47354069,18.3912291 4.37346057,18.3257866 4.26371343,18.2802997 L17.7485206,5.65281433 L20.5887467,8.45237573 C20.6311669,8.4941886 20.6841922,8.51414474 20.7323969,8.54645468 L7.27362035,21.1492325 Z M21.095861,2.51779971 C21.5128443,2.12771913 22.1692171,2.13614877 22.575748,2.53680556 L24.0344249,3.97459795 C24.448986,4.38322368 24.448986,5.04462719 24.015143,5.47130848 L22.0734541,7.28921784 C22.0348903,7.22744883 22.0059674,7.16187865 21.951014,7.10771199 L19.1454953,4.34236111 L21.095861,2.51779971 Z M6.34230386,9.67825292 C6.58332779,9.67445175 6.82435173,9.58417398 7.00849402,9.40266813 L8.45463763,7.97722953 C8.69815547,7.73719824 8.79326002,7.38734501 8.7041263,7.05945617 C8.61499259,6.73156733 8.35516215,6.47545699 8.02251061,6.38759944 C7.68985906,6.29974189 7.33492408,6.39348479 7.09140625,6.63351608 L5.64526263,8.05895468 C5.48513559,8.22106196 5.38964077,8.43462023 5.37627992,8.66048977 L2.91687168,6.06999269 C2.90144614,6.05478801 2.90144614,6.03958333 2.90626662,6.03578216 L7.06923205,1.9314693 C7.07308843,1.92766813 7.08947806,1.92766813 7.10683178,1.9438231 L12.6619515,7.7938231 L8.3707613,11.8126096 L6.34230386,9.67825292 Z M2.01929854,23.5876827 C2.00268452,23.5926444 1.98464711,23.5884175 1.97207619,23.5766166 C1.95950527,23.5648157 1.95434271,23.5472638 1.95856051,23.5306652 L2.83203125,19.8558845 C2.86191822,19.7323465 2.92072806,19.6192617 2.99207114,19.5147295 C3.03954943,19.6271277 3.10862484,19.7294187 3.19549535,19.8159722 L5.85543551,22.4378289 C5.77987825,22.4827726 5.69890648,22.5182094 5.61441157,22.5433114 L2.01929854,23.5876827 Z M20.0459608,24.0827851 C20.0421044,24.0865863 20.0257148,24.0865863 20.008361,24.0704313 L16.2242852,20.0858553 C16.3835155,20.0472518 16.5297471,19.9683035 16.6484874,19.8568348 L18.094631,18.4313962 C18.3381488,18.1913649 18.4332534,17.8415117 18.3441197,17.5136228 C18.254986,17.185734 17.9951555,16.9296236 17.662504,16.8417661 C17.3298524,16.7539085 16.9749174,16.8476514 16.7313996,17.0876827 L15.285256,18.5131213 C15.1862251,18.6133784 15.1111304,18.7341473 15.0654422,18.8666301 L13.8632148,17.5998904 L18.1544049,13.5811038 L24.197357,19.945212 C24.2118185,19.9604167 24.2118185,19.9756213 24.2079621,19.9794225 L20.0459608,24.0827851 Z" id="形状"></path>
            </g>
        </g>
    </g>
</svg>