<?xml version="1.0" encoding="UTF-8"?>
<svg width="48px" height="48px" viewBox="0 0 48 48" version="1.1" xmlns="http://www.w3.org/2000/svg" xmlns:xlink="http://www.w3.org/1999/xlink">
    <!-- Generator: Sketch 52.2 (67145) - http://www.bohemiancoding.com/sketch -->
    <title>拍信云首页</title>
    <desc>Created with Sketch.</desc>
    <g id="Page-1" stroke="none" stroke-width="1" fill="none" fill-rule="evenodd">
        <g id="拍信云首页" transform="translate(-82.000000, -1227.000000)" fill="#3574FA">
            <g id="peiwangyindao-copy" transform="translate(92.000000, 1239.000000)">
                <path d="M5.78457447,18.6770468 L12.5332447,18.6770468 C13.0010768,18.6769295 13.4014762,19.0078886 13.482879,19.4619883 C13.5783245,20.0055556 14.0333777,20.2621345 14.4768617,20.2431287 C14.902992,20.2621345 15.3406915,20.0236111 15.4612035,19.5152047 C15.5807513,19.0105994 15.9712101,18.6770468 16.3896277,18.6770468 L23.1382979,18.6770468 C24.735664,18.6770468 26.0305851,17.4006656 26.0305851,15.8261696 L26.0305851,2.85087719 C26.0305851,1.2763812 24.735664,-2.84217094e-14 23.1382979,-2.84217094e-14 L16.3896277,-2.84217094e-14 C15.6530585,-2.84217094e-14 14.9965093,0.295540936 14.4913231,0.764035088 C13.9602659,0.274249729 13.2605201,0.0012114472 12.5332447,-2.75776802e-14 L5.78457447,-2.75776802e-14 C4.18720834,-2.84217094e-14 2.89228723,1.2763812 2.89228723,2.85087719 L2.89228723,15.8261696 C2.89228723,17.4006656 4.18720834,18.6770468 5.78457447,18.6770468 Z M16.3896277,1.9005848 L23.1382979,1.9005848 C23.6707532,1.9005848 24.1023936,2.32604519 24.1023936,2.85087719 L24.1023936,15.8261696 C24.1023936,16.3510016 23.6707532,16.776462 23.1382979,16.776462 L16.3896277,16.776462 C16.0521941,16.776462 15.7272939,16.8372807 15.4255319,16.9494152 L15.4255319,3.04758772 C15.4255319,2.39473684 15.879621,1.9005848 16.3896277,1.9005848 Z M4.82047872,2.85087719 C4.82047872,2.32604519 5.25211909,1.9005848 5.78457447,1.9005848 L12.5332447,1.9005848 C13.0657001,1.9005848 13.4973404,2.32604519 13.4973404,2.85087719 L13.4973404,16.9399123 C13.1876838,16.8321177 12.8616451,16.7771633 12.5332447,16.7774123 L5.78457447,16.7774123 C5.25211909,16.7774123 4.82047872,16.3519519 4.82047872,15.8271199 L4.82047872,2.85087719 Z" id="形状" fill-rule="nonzero"></path>
                <path d="M27.8980386,4.75146199 C27.3655832,4.75146199 26.9339428,5.17692239 26.9339428,5.70175439 L26.9339428,19.005848 C26.9339428,19.53068 26.5023025,19.9561404 25.9698471,19.9561404 L19.2211769,19.9561404 C18.1877037,19.9564144 17.2327448,20.4996731 16.715492,21.3815789 L12.1466423,21.3815789 C11.6293895,20.4996731 10.6744306,19.9564144 9.64095745,19.9561404 L2.89228723,19.9561404 C2.35983186,19.9561404 1.92819149,19.53068 1.92819149,19.005848 L1.92819149,5.70175439 C1.92819149,5.17692239 1.49655112,4.75146199 0.964095745,4.75146199 C0.431640368,4.75146199 0,5.17692239 0,5.70175439 L0,19.005848 C0,20.580344 1.2949211,21.8567251 2.89228723,21.8567251 L9.64095745,21.8567251 C10.0834774,21.8567251 10.4662234,22.1532164 10.5751662,22.5684942 C10.6847697,22.9887015 11.0692,23.2823792 11.509375,23.2821637 L17.3537234,23.2821637 C17.7933511,23.2821637 18.1780253,22.9885234 18.2879322,22.5684942 C18.3981864,22.149384 18.781917,21.8567196 19.2211769,21.8567251 L25.9698471,21.8567251 C27.5672132,21.8567251 28.8621343,20.580344 28.8621343,19.005848 L28.8621343,5.70175439 C28.8621343,5.17692239 28.4304939,4.75146199 27.8980386,4.75146199 Z" id="路径"></path>
                <path d="M7.23071809,6.17690058 L10.6397606,6.17690058 C11.172216,6.17690058 11.6038564,5.75144019 11.6038564,5.22660819 C11.6038564,4.70177619 11.172216,4.27631579 10.6397606,4.27631579 L7.23071809,4.27631579 C6.69826271,4.27631579 6.26662234,4.70177619 6.26662234,5.22660819 C6.26662234,5.75144019 6.69826271,6.17690058 7.23071809,6.17690058 Z M7.23071809,9.97807018 L10.6397606,9.97807018 C11.172216,9.97807018 11.6038564,9.55260978 11.6038564,9.02777778 C11.6038564,8.50294578 11.172216,8.07748538 10.6397606,8.07748538 L7.23071809,8.07748538 C6.69826271,8.07748538 6.26662234,8.50294578 6.26662234,9.02777778 C6.26662234,9.55260978 6.69826271,9.97807018 7.23071809,9.97807018 Z" id="形状" fill-rule="nonzero"></path>
            </g>
        </g>
    </g>
</svg>