<?xml version="1.0" encoding="UTF-8"?>
<svg width="29px" height="29px" viewBox="0 0 29 29" version="1.1" xmlns="http://www.w3.org/2000/svg" xmlns:xlink="http://www.w3.org/1999/xlink">
    <!-- Generator: Sketch 52.2 (67145) - http://www.bohemiancoding.com/sketch -->
    <title>拍信云首页 copy 10</title>
    <desc>Created with Sketch.</desc>
    <g id="Page-1" stroke="none" stroke-width="1" fill="none" fill-rule="evenodd" opacity="0.200000003">
        <g id="拍信云首页" transform="translate(-88.000000, -1401.000000)" fill="#000000" fill-rule="nonzero">
            <g id="icon_set_up-copy" transform="translate(93.000000, 1407.000000)">
                <path d="M9.6132457,12.3848333 C7.84185291,12.3848333 6.40536305,10.9668 6.40536305,9.21816666 C6.40536305,7.4689 7.84185291,6.05149999 9.6132457,6.05149999 C11.3846385,6.05149999 12.8211283,7.4689 12.8211283,9.21816666 C12.8211283,10.9668 11.3846385,12.3848333 9.6132457,12.3848333 Z M16.6590392,9.62476667 C16.6667381,9.4905 16.6705875,9.35433332 16.6705875,9.21816666 C16.6705875,8.95659999 16.6558313,8.69883334 16.6276019,8.4455 L18.7069514,7.02113332 C18.992453,6.82543333 19.0874063,6.41693334 18.9109728,6.11483333 L16.9843185,2.82086667 C16.8098096,2.52256666 16.406258,2.39399999 16.0873945,2.54219999 L13.7982494,3.60746666 C13.3792999,3.30283333 12.9250637,3.04253334 12.4425982,2.83353333 L12.2328027,0.486399995 C12.2039317,0.145033319 11.8934087,0 11.5399,0 L7.68659138,0 C7.33757374,0 7.02320125,0.139966661 6.99368873,0.486399995 L6.78389319,2.90383334 C6.2674241,3.1274 5.78367539,3.37503334 5.34098758,3.70816666 L2.91262041,2.56056666 C2.59824792,2.41426666 2.19277155,2.52763334 2.01569644,2.82973333 L0.0890420999,6.11926666 C-0.085466697,6.4182 0.00371243023,6.82479999 0.293705015,7.02366666 L2.58413323,8.5918 C2.56552751,8.79826666 2.55590387,9.00726667 2.55590387,9.2188 C2.55590387,9.35496666 2.55975332,9.48986666 2.56745224,9.62476667 L0.519539966,11.0282333 C0.234038402,11.2233 0.139085088,11.6318 0.315518634,11.9339 L2.24217295,15.2278667 C2.41668177,15.5261667 2.82023339,15.6547333 3.13909693,15.5065333 L5.11515265,14.5869333 C5.61750707,14.9973333 6.17888653,15.3406 6.78389319,15.6021667 L6.99368873,18.2317667 C7.02255966,18.5737667 7.3330827,19 7.68659138,19 L11.5399,19 C11.8889176,19 12.2032901,18.5782 12.2328027,18.2317667 L12.4425982,15.6724667 C13.0476049,15.4109 13.6083427,15.0328 14.1106972,14.6224 L16.0873945,15.5242667 C16.401767,15.6705667 16.8072433,15.5388333 16.9843185,15.2367333 L18.9109728,11.9383333 C19.0854816,11.6400333 18.9956609,11.2283667 18.7063099,11.0301333 L16.6590392,9.62476667 Z" id="形状"></path>
            </g>
        </g>
    </g>
</svg>