<?xml version="1.0" encoding="UTF-8"?>
<svg width="29px" height="29px" viewBox="0 0 29 29" version="1.1" xmlns="http://www.w3.org/2000/svg" xmlns:xlink="http://www.w3.org/1999/xlink">
    <!-- Generator: Sketch 52.2 (67145) - http://www.bohemiancoding.com/sketch -->
    <title>拍信云首页 copy 11</title>
    <desc>Created with Sketch.</desc>
    <g id="Page-1" stroke="none" stroke-width="1" fill="none" fill-rule="evenodd" opacity="0.200000003">
        <g id="拍信云首页" transform="translate(-88.000000, -1453.000000)" fill="#000000" fill-rule="nonzero">
            <g id="icon_update-copy" transform="translate(95.000000, 1460.000000)">
                <path d="M1.71428571,2.85714286 L3.14285714,1.14285714 L12.8571429,1.14285714 L14.2857143,2.85714286 L1.71428571,2.85714286 Z M10.2857143,10.8571429 L10.2857143,13.1428571 L5.71428571,13.1428571 L5.71428571,10.8571429 L2.28571429,10.8571429 L7.60742857,5.31085714 C7.824,5.08457143 8.17714286,5.08514286 8.39257143,5.30971429 L13.7142857,10.8571429 L10.2857143,10.8571429 Z M15.6822857,2.952 L14.032,0.476571429 C13.8571429,0.214285714 13.4605714,0 13.1474286,0 L2.85257143,0 C2.54571429,0 2.14342857,0.213714286 1.968,0.476571429 L0.317714286,2.952 C0.142857143,3.21428571 0,3.68514286 0,4.00114286 L0,14.8622857 C0,15.4914286 0.509714286,16 1.13771429,16 L14.8622857,16 C15.4857143,16 16,15.4908571 16,14.8622857 L16,4.00114286 C16,3.67942857 15.8577143,3.21485714 15.6822857,2.952 Z" id="形状"></path>
            </g>
        </g>
    </g>
</svg>