<?xml version="1.0" encoding="utf-8"?>
<!-- Generator: Adobe Illustrator 21.0.0, SVG Export Plug-In . SVG Version: 6.00 Build 0)  -->
<svg version="1.1" id="图层_1" xmlns="http://www.w3.org/2000/svg" xmlns:xlink="http://www.w3.org/1999/xlink" x="0px" y="0px"
	 viewBox="0 0 926.6 2031.1" style="enable-background:new 0 0 926.6 2031.1;" xml:space="preserve">
<style type="text/css">
	.st0{fill:#151530;}
	.st1{fill:#262740;}
	.st2{fill:#2C2C68;}
	.st3{fill:#E9B9A4;}
	.st4{fill:#E4AE95;}
	.st5{fill:#F4D3C2;}
	.st6{fill:#F0F1F5;}
	.st7{fill:#A54844;}
	.st8{fill:#1D225D;}
	.st9{fill:#132688;}
	.st10{fill:#2148CD;}
	.st11{fill:#3A74FF;}
	.st12{fill:#3165FC;}
	.st13{fill:#DC9F8F;}
	.st14{fill:#564E5C;}
	.st15{fill:#FEFAF5;}
	.st16{fill:#242768;}
	.st17{fill:#DEA99F;}
	.st18{fill:#B5B6D1;}
	.st19{fill:#1C3194;}
	.st20{fill:#13237A;}
	.st21{fill:#162668;}
	.st22{fill:#4772D6;}
	.st23{fill:#32354C;}
</style>
<g>
	<path class="st0" d="M685.2,1978.9c0,0-5,48.8,0,51.4s49.2-0.5,91.4-8.3c64.7-12,78.5,4.9,115.4-3.1c25.1-5.4,32.6-14.4,34.4-21.1
		c1.2-4.7-2.4-8.5-7.1-9.6c-24.5-5.6-84.4-6-126.5-25.6C752.8,1944,685.2,1978.9,685.2,1978.9z"/>
	<path class="st0" d="M17.4,1893c0,0-20.5,28.7-17.1,33c3.4,4.3,112.6,74,124.8,78.3c10.6,3.7,64.6,21.2,86.5,6.8
		c6.4-4.2,6.7-13.4,0.7-18.1c-5.8-4.5-10.1-4.9-29.8-9.5c-16.8-3.9-23.6-10.4-28.8-14.4c-11.4-8.5-24.6-20.6-25.6-34.5
		C126.6,1913.9,17.4,1893,17.4,1893z"/>
	<path class="st1" d="M399.9,663.7c0,0-69.8-10.1-96.9,9.2c-27.4,19.5-146.7,124.7-145.8,305.5c0,0,1.8,80,163.3,71.4
		C482,1041.1,399.9,663.7,399.9,663.7z"/>
	<path class="st2" d="M505.9,1097.3c-5.1,76.9-45.2,405.7-361.4,855.9c-1.5,2.2-4.4,3.1-6.9,2.3c-23.6-8-136.8-47.5-136.8-65.9
		c0-20.5,260.9-340.7,304.8-841.8c0-0.4,54.5-178.8,54.5-178.8c1-3.6,5-5.4,8.4-3.9c29.5,13.5,158.6,65.6,333.7,31.8
		c4.2-0.8,12.1-3.7,11.3,0.5l-10.2,37.8c-0.2,1.2-0.1,2.3,0.3,3.4c10.1,24.8,128.5,331.1,112.6,1029.6c-0.1,2.8-2.1,5.2-4.8,5.8
		c-17.4,3.5-79.8,15.4-134.6,16.3c-3.3,0-6-2.5-6.1-5.8c-3.1-68-35-710.9-153.6-890.2C513.8,1089.5,506.3,1091.5,505.9,1097.3z"/>
	<path class="st3" d="M651,184.1c0,0-29.8,76.3-36.6,119.2c0,0,16,46.9,43.2,56.9c52.3,19.3,70.8-17.7,70.8-17.7s10.5-70,20.9-86.8
		C759.7,238.9,651,184.1,651,184.1z"/>
	<path class="st4" d="M686.7,144.8c-3.7-7.4-14.7-25-36.3-21.1c-2.2,0.4-4.2,1.3-5.9,2.7c-6,4.8-18.9,18.2-7.5,40.7
		c5.6,10.9,9.9,14.9,30.5,30.5c17.9,13.6,20.2-34.1,20.5-46.7C688.1,148.8,687.7,146.7,686.7,144.8z"/>
	<path class="st5" d="M834.5,1013.4c0,0,9.6,24,25.6,50.4c14.6,24.1,25.5,36.8,29.5,32.3c3.8-4.4,7.7-12.4-2.7-35.3
		c-0.7-1.6,0.6-3.3,2.3-3.1c4.4,0.7,12.7,9,13.9,27.1c0,0,0,12.2-6.7,21.5c-4,5.6-5.7,15.4,1.1,14.8c6.8-0.6,32.2-21.4,23.9-71.3
		c-5.8-34.9-16.4-54.1-25-68.6C887.9,966.8,834.5,1013.4,834.5,1013.4z"/>
	<path class="st6" d="M821.4,1005c-0.6,0.4-0.9,1.2-0.7,1.9c1.4,3.9,5.7,15.6,8.1,17c2.6,1.6,68.1-31.4,78.7-36.8
		c0.8-0.4,1.1-1.4,0.7-2.2c-2.5-4.7-10.6-19.3-13.4-20.7C891.6,962.6,830.4,999.5,821.4,1005z"/>
	<path class="st5" d="M304.3,273.9c-0.4-0.1-0.5-0.5-0.4-0.9c1.8-4.2,11.7-27.4,11.4-40.2c-0.3-13.8,1.6-76.5,14.1-95.8
		c0.6-1,1.4-2.5,2.5-3c2-0.9,5-0.5,4.7,6.5c-0.2,5.7,0.8,6.6,2,5.9c0.5-0.3,1.7-1.2,2.3-3.7c1.3-5.6,3.4-15.6,7-16.3
		c5.1-0.9,6,4.9,5.6,14.5c-0.3,7.9,5.2,8.3,6.8-4.2c1.7-13.4,7.7-21.2,12.7-15.9c5.1,5.4-0.8,27.2,2.2,29.4
		c2.9,2.2,4.3-4.9,5.4-10.4c0.6-2.9,2.2-7.7,5-8.7c3.2-1.1,5.9,3.6,6.7,9.8c1.6,13.6,1,33.2-5.7,55c-3.8,12.2,3.3,8.5,7.8,2.8
		c8.2-10.4,11.1-16.9,17.9-14.9c6.7,2,1.7,29.5-15.4,49.7s-28.1,49.4-25,57.6C374.5,298.9,311.6,276.5,304.3,273.9z"/>
	<path class="st6" d="M302.3,269.8c-0.9-0.2-1.8,0.1-2.4,0.9c-2.7,3.5-10.4,13.9-10.9,18.2c-0.6,4.8,69.3,20.6,82.2,23.5
		c1.1-0.2,2.1-17.4,2.1-21.7C373.3,286.7,312.6,272.2,302.3,269.8z"/>
	<path class="st7" d="M672.8,141.2c0,0-18.1-2.9-19,18.6c-0.6,15.1,13.7,22,13.7,22L672.8,141.2z"/>
	<path class="st8" d="M720.1,872.1l-10.2,38.7c0,0-208.4,42.1-353.7-33.4l5.2-41.3C361.4,836,475.8,899.2,720.1,872.1z"/>
	<path class="st6" d="M608.1,352.8c0,0,22,117.5,71.1,114.6c49.2-2.9,40.3-93.4,40.3-93.4l-39.9-11.5L608.1,352.8z"/>
	<path class="st9" d="M669.5,368.2l10.1-5.7l9.6,6.5l17.4,17.6L687.5,408c-0.4,0.4-0.5,1.1-0.4,1.6l10,36l-15,21.8l-28.1-28.6
		l16.2-30.1c0.3-0.6,0.2-1.3-0.3-1.8L647.6,381L669.5,368.2z"/>
	<path class="st6" d="M614.4,303.2l-18.1,21.5c0,0,9.4,64.7,34.8,84.2l48.5-46.4C679.6,362.5,647.6,362.5,614.4,303.2z"/>
	<path class="st6" d="M679.6,362.5c0,0,25.5,7.2,48.8-20.1l-0.4,20.5c0,0,0.4,35-9.2,49.2C718.8,412.1,696.2,375.1,679.6,362.5z"/>
	<path class="st10" d="M802,461.9c0,0,16.4,109.3,15.2,235.3c-0.5,53.3,67.8,227.3,67.8,227.3l19.9,43.2c0.5,1.2,0.1,2.6-1.1,3.2
		c-11.8,6.3-71.9,38.6-86.7,46.4c-16.4,8.6-102-228.8-96.9-237.4C725.3,771.3,802,461.9,802,461.9z"/>
	<path class="st11" d="M727.9,363.5c0-0.3,0.3-0.5,0.6-0.4c6.3,1.5,66,17.9,75,110.6c9.5,97.9-36.3,239.9-63.4,325.4
		c-11.6,36.4-19.9,73-19.9,73s-73.8,16.5-174.9,11.7s-176-38.2-183.9-38.2c-7.8,0,35.6-232.4,62.5-276c0.3-0.4-0.2-0.9-0.6-0.7
		c-12.5,6.1-96.4,46.3-154.7,62.4c-56.7,15.6-68.9-8.3-70.7-13.3c-0.1-0.5-0.3-1-0.4-1.6c-1.6-11.3-20.7-164.3,89.1-329.3
		c0.6-0.9,1.7-1.4,2.8-1.1l83,21.1c1.1,0.3,1.8,1.4,1.6,2.5c-2.6,12.1-16.4,76-26.4,111.7c-11,39.4,33.3-92.5,248.4-96.6
		c0.2,0,0.5,0.2,0.5,0.4c1,6.2,14.2,81,82.1,123.9c2.5,1.6,5.6,1.6,8.1,0.2C696.7,443.3,721.6,422.9,727.9,363.5z"/>
	<path class="st12" d="M347.5,421.3c0,0-37.7,142.9-75.5,184.9c-28.6,31.7,128.4-30,112.5-215L347.5,421.3z"/>
	<path class="st12" d="M424.8,568.2c0,0,72.9-48.6,78.6-42.9c5.7,5.7-22.4,144.3-137.7,272.4C365.7,797.7,399.3,599.7,424.8,568.2z"
		/>
	<path class="st4" d="M636.9,222.8c0,0,11.2,0.1,13.3,4.8s37.3,81.5,88,62.4c0,0,5.4-22.2,6.9-24.6c1.6-2.4-77.6-72.6-77.6-72.6
		l-16.7-9.6L636.9,222.8z"/>
	<path class="st5" d="M669.1,162.1c-1.1,6.2-11.1,64.2,28,95.3c5.1,4.1,14.4,10,23.8,12.2c13.8,3.3,39.6,9.5,73.5-26.3
		c31.6-33.3,27.3-88.4,26.7-94.9c0-0.5-0.1-1-0.1-1.4c-0.4-7.1-3.7-58.8-14.7-66.2c-11.8-7.9-119.7-51-136.8,79.9
		C669.3,161.2,669.2,161.6,669.1,162.1z"/>
	<circle class="st13" cx="723.7" cy="189" r="17.6"/>
	<circle class="st14" cx="738.6" cy="150.5" r="7.4"/>
	<circle class="st14" cx="811.9" cy="171.4" r="7.4"/>
	<path class="st15" d="M749.8,203.7c0.1-1.4,0.6-2.6,1.6-3.6c1.9-1.8,5.8-3.9,11.6-0.1c8.1,5.4,7.8,7.7,25.7,8.2
		c1,0,1.9,0.3,2.7,0.8c1.7,1.1,3.3,4.4,0,8.4c-6.9,8.6-19.9,7.8-27.2,5.5C757.4,220.9,749.5,212.3,749.8,203.7z"/>
	<path class="st16" d="M505.4,1095.5c0,0,14.9-100.3,0-139.1c0,0,122.4,118.2,91.5,372.5C596.9,1328.9,528.1,1059.3,505.4,1095.5z"
		/>
	<path class="st17" d="M757.9,141.5c0,0,19.3,12.4,22.9,19.8c-0.1,0.1-0.1,0.2-0.2,0.4c0,0-11.8,27.3-9,30.4
		c2.8,3.1,10.4,7.6,17.3,4.2c5.2-2.6,1.2-22.7-1.1-32.5c2.7-1.2,8.7-3.5,16.6-3.3C815.3,160.7,757.9,141.5,757.9,141.5z"/>
	<path class="st18" d="M733.3,120.6c0,0,29.4,36.9,88.2,43.4c0,0,8.9,1.9,6.8-16.7c-2.1-18.6-95.1-47.1-95.1-47.1l-47.4,32
		l-12.9,5.2c0,0-2.1,10.9,1.6,17.6c2.4,4.5,8.3,5.8,13.7,3.1c6.6-3.3,10-10.1,11.7-15.5c1.3-4.3,4.9-7.5,9.3-8.5
		C714.2,132.8,722.2,129.4,733.3,120.6z"/>
	<path class="st19" d="M660.1,67.7c0,0-3,53.1-2.5,55.5c1,4.2,4,0,13.9,15.1c1.4,2.2-0.2,10.4,4.5,12.2c15,5.7,12.1-10,15.9-15.7
		c4.3-6.4,37.7-27,37.7-27l3.9-1.7c0,0,42,40.8,97.8,41.1c1.7,0,3-1.5,2.8-3.1l-3.4-27.5L660.1,67.7z"/>
	<path class="st20" d="M658.4,0c24.8,1.7,193.8,14,218.8,26.6c1.3,0.7,1.7,2.4,0.8,3.6c-7.9,10.7-44.5,60.4-45.9,67.4
		c-1.6,7.9-1.6,18.9-1.6,18.9S683.1,79.5,659.4,81.1c0,0-4-22.1-4.1-78.3C655.3,1.2,656.7-0.1,658.4,0z"/>
	<path class="st21" d="M657.9,67.7c0,0,102.8,7.3,174.3,30l-1.6,18.9c0,0-111.7-31.1-171.1-35.5C659.4,81.1,658.4,75.6,657.9,67.7z"
		/>
	<circle class="st22" cx="801.8" cy="95.3" r="12.4"/>
	<path class="st12" d="M704,645c0,0-107.4,146.5-239.1,228.9c0,0-9.8-2.1-31.9-6.7S704,645,704,645z"/>
	<path class="st16" d="M422.6,903.2c0,0-58.8,33.8-87.9,49.4l6.8-22.6l58.3-34C399.7,896,411.2,899.9,422.6,903.2z"/>
	<path class="st23" d="M750,372.5c0,0-4.5,97-91.4,203.4C603.3,643.7,341,839.3,311.9,860.9c-1.7,1.2-2.8,3-3.2,5l-18.9,88.6
		c-0.3,1.3,1.1,2.4,2.3,1.8C319,942.7,535.9,835,704,645C885.5,439.9,750,372.5,750,372.5z"/>
	<path class="st13" d="M818,190.3c-9.8,0-17.8,8-17.8,17.8c0,6.2,3.2,11.7,8.1,14.9c5.4-10.7,8.7-22.1,10.6-32.6
		C818.6,190.3,818.3,190.3,818,190.3z"/>
</g>
</svg>
