<?xml version="1.0" encoding="utf-8"?>
<!-- Generator: Adobe Illustrator 21.0.0, SVG Export Plug-In . SVG Version: 6.00 Build 0)  -->
<svg version="1.1" id="图层_1" xmlns="http://www.w3.org/2000/svg" xmlns:xlink="http://www.w3.org/1999/xlink" x="0px" y="0px"
	 viewBox="0 0 22 22" style="enable-background:new 0 0 22 22;" xml:space="preserve">
<style type="text/css">
	.st0{opacity:0.4;}
</style>
<title>销售名片 copy 3</title>
<desc>Created with Sketch.</desc>
<g id="页面-1">
	<g id="销售名片" transform="translate(-19.000000, -608.000000)">
		<g id="地址" transform="translate(21.000000, 611.000000)" class="st0">
			<path id="形状" d="M9,17c-0.5,0-6-6.4-6-9.8C3,3.8,5.7,1,9,1s6,2.8,6,6.2C15,10.6,9.5,17,9,17L9,17z M9,1.8
				c-2.9,0-5.2,2.4-5.2,5.4c0,3,5.1,9,5.2,9c0.1,0,5.2-6,5.2-9C14.2,4.2,11.9,1.8,9,1.8z M9,9.4c-1.2,0-2.1-1-2.1-2.2
				C6.9,6,7.8,5,9,5c1.2,0,2.1,1,2.1,2.2C11.1,8.4,10.2,9.4,9,9.4z M9,5.8c-0.7,0-1.4,0.6-1.4,1.4C7.6,8,8.3,8.6,9,8.6
				c0.7,0,1.4-0.6,1.4-1.4C10.4,6.4,9.7,5.8,9,5.8z"/>
		</g>
	</g>
</g>
</svg>
