<?xml version="1.0" encoding="utf-8"?>
<!-- Generator: Adobe Illustrator 21.0.0, SVG Export Plug-In . SVG Version: 6.00 Build 0)  -->
<svg version="1.1" id="图层_1" xmlns="http://www.w3.org/2000/svg" xmlns:xlink="http://www.w3.org/1999/xlink" x="0px" y="0px"
	 viewBox="0 0 16 14" style="enable-background:new 0 0 16 14;" xml:space="preserve">
<style type="text/css">
	.st0{fill:#63A7FF;}
</style>
<title>公司信息</title>
<desc>Created with Sketch.</desc>
<g id="页面-1">
	<g id="销售名片" transform="translate(-103.000000, -278.000000)">
		<g id="公司信息" transform="translate(103.000000, 277.000000)">
			<path id="形状" class="st0" d="M0.5,14.5v-1h1v-10c0-1.1,0.9-2,2-2h5c1.1,0,2,0.9,2,2v3h2c1.1,0,2,0.9,2,2v5h1v1H0.5z M9.5,3.5
				c0-0.6-0.4-1-1-1h-5c-0.6,0-1,0.4-1,1v10h7V3.5z M13.5,8.5c0-0.6-0.4-1-1-1h-2v6h3V8.5z M3.5,8.5h4v1h-4V8.5z M3.5,6.5h4v1h-4
				V6.5z M3.5,4.5h4v1h-4V4.5z"/>
		</g>
	</g>
</g>
</svg>
