<?xml version="1.0" encoding="utf-8"?>
<!-- Generator: Adobe Illustrator 21.0.0, SVG Export Plug-In . SVG Version: 6.00 Build 0)  -->
<svg version="1.1" id="图层_1" xmlns="http://www.w3.org/2000/svg" xmlns:xlink="http://www.w3.org/1999/xlink" x="0px" y="0px"
	 viewBox="0 0 22 22" style="enable-background:new 0 0 22 22;" xml:space="preserve">
<style type="text/css">
	.st0{opacity:0.5;}
	.st1{fill:#4E4E4E;}
</style>
<title>销售名片 copy 4</title>
<desc>Created with Sketch.</desc>
<g id="页面-1">
	<g id="销售名片" transform="translate(-19.000000, -655.000000)">
		<g id="公司名称" transform="translate(22.000000, 658.000000)" class="st0">
			<path id="形状" class="st1" d="M2,13.3h8V2.7H2V13.3z M2,2h8c0.4,0,0.7,0.3,0.7,0.7V14H1.3V2.7C1.3,2.3,1.6,2,2,2z"/>
			<path id="形状_1_" class="st1" d="M10.7,5.5v7.8h2.7V6.2L10.7,5.5z M10,4.7l3.5,0.9C13.8,5.6,14,5.9,14,6.2V14h-4V4.7z"/>
			<path id="形状_2_" class="st1" d="M0.7,13.3h14V14h-14V13.3z M4,6.7h4v0.7H4V6.7z M4,8.7h4v0.7H4V8.7z"/>
		</g>
	</g>
</g>
</svg>
