<?xml version="1.0" encoding="utf-8"?>
<!-- Generator: Adobe Illustrator 21.0.0, SVG Export Plug-In . SVG Version: 6.00 Build 0)  -->
<svg version="1.1" id="图层_1" xmlns="http://www.w3.org/2000/svg" xmlns:xlink="http://www.w3.org/1999/xlink" x="0px" y="0px"
	 viewBox="0 0 200 200" style="enable-background:new 0 0 200 200;" xml:space="preserve">
<style type="text/css">
	.st0{opacity:0.6;}
</style>
<path class="st0" d="M115.6,49.5c-0.6,3.2-1.2,6.3-1.1,9.4c0.1,3.9,3.4,7.1,7.4,7l31.1-0.3c4.6,0,9,1.9,12.2,5.2
	c3.1,3.4,4.7,7.9,4.2,12.4l-6.2,64.6c-0.8,8.3-7.9,14.7-16.3,14.6H44.6c-9,0.1-16.3-7.1-16.4-16.1V91.9c0-8.9,7.3-16.1,16.4-16.1
	h5.5c7.8,0,16.3-1.5,19.2-5c5.2-6.2,9.3-14.1,12.1-23.5c0.7-2.4,1.2-4.9,1.8-7.3l0.8-3.5c0.6-2.9,1.3-6.1,3.3-9
	c2.4-3.2,5.9-5.4,9.9-6.1c3.1-0.5,6.3-0.1,9.2,1.2c4.5,2,7.8,6.1,9.3,11.5c0.6,2.1,0.9,4.4,1,6.8c0.1,2.7-0.4,5.2-0.9,7.5
	L115.6,49.5L115.6,49.5z M44.6,84.6c-4.1,0-7.4,3.2-7.4,7.3v54.4c0,4,3.3,7.3,7.4,7.3h102.3c3.8,0,7-2.8,7.4-6.6l6.2-64.6
	c0.3-4-2.7-7.6-6.7-8c-0.2,0-0.4,0-0.7,0L122,74.8c-8.8,0.1-16.1-6.7-16.5-15.5c-0.2-4.1,0.6-7.8,1.3-11.4l0.2-1
	c0.4-2.1,0.8-3.9,0.7-5.7c0-1.6-0.2-3.1-0.6-4.7c-0.5-1.7-1.6-4.6-4.4-5.8c-1.3-0.6-2.7-0.8-4-0.5c-1.6,0.2-3,1.1-4,2.3
	c-1,1.4-1.4,3.5-1.9,5.8L92,41.8c-0.5,2.7-1.2,5.3-1.9,8c-3.2,10.6-7.8,19.5-13.8,26.7c-6.2,7.4-19.9,8.2-25.5,8.2L44.6,84.6
	L44.6,84.6z M56.5,157.8c-2.5,0-4.5-2-4.5-4.4V84.8c0-2.4,2-4.4,4.5-4.4s4.5,2,4.5,4.4v68.6C60.9,155.9,58.9,157.8,56.5,157.8
	L56.5,157.8z"/>
</svg>
