<?xml version="1.0" encoding="utf-8"?>
<!-- Generator: Adobe Illustrator 21.0.0, SVG Export Plug-In . SVG Version: 6.00 Build 0)  -->
<svg version="1.1" id="图层_1" xmlns="http://www.w3.org/2000/svg" xmlns:xlink="http://www.w3.org/1999/xlink" x="0px" y="0px"
	 viewBox="0 0 22 22" style="enable-background:new 0 0 22 22;" xml:space="preserve">
<style type="text/css">
	.st0{opacity:0.4;}
</style>
<title>销售名片 copy</title>
<desc>Created with Sketch.</desc>
<g id="页面-1">
	<g id="销售名片" transform="translate(-19.000000, -516.000000)">
		<g id="手机号" transform="translate(20.000000, 518.000000)" class="st0">
			<path id="路径" d="M11.7,15H9.3C9.1,15,9,14.7,9,14.5S9.1,14,9.3,14h2.4c0.1,0,0.3,0.3,0.3,0.5S11.9,15,11.7,15z"/>
			<path id="形状" d="M14.2,17H6.8c-1,0-1.8-0.8-1.8-1.8V3.7C5.1,2.8,5.9,2,6.8,2h7.3c1,0,1.8,0.7,1.8,1.7v11.5
				C15.9,16.2,15.1,17,14.2,17z M6.8,2.7c-0.6,0-1,0.5-1,1v11.5c0,0.6,0.5,1,1,1h7.3c0.6,0,1-0.5,1-1V3.7c0-0.6-0.5-1-1-1H6.8z"/>
		</g>
	</g>
</g>
</svg>
