<?xml version="1.0" encoding="utf-8"?>
<!-- Generator: Adobe Illustrator 21.0.0, SVG Export Plug-In . SVG Version: 6.00 Build 0)  -->
<svg version="1.1" id="图层_1" xmlns="http://www.w3.org/2000/svg" xmlns:xlink="http://www.w3.org/1999/xlink" x="0px" y="0px"
	 viewBox="0 0 200 200" style="enable-background:new 0 0 200 200;" xml:space="preserve">
<style type="text/css">
	.st0{opacity:0.6;}
</style>
<path class="st0" d="M105.7,150.6c0,6.7,7.8,10.3,12.9,5.9l60.4-52.2l0,0c1.3-1.1,2.1-2.8,2.1-4.4l0,0c0-1.6-0.7-3.2-1.9-4.2
	l-63.9-55.2c-2.4-2.1-6-1.8-8.2,0.6c-0.9,1-1.4,2.4-1.4,3.8v24.4c-48.9,7.9-83.3,43.8-86.7,89.9c0.2,2.1,2,3.6,4,3.5
	c0.6-0.1,1.2-0.3,1.8-0.6l0,0c6.9-4.9,14-9.5,21.4-13.4c13.9-7.6,35.3-13.8,59.4-16.2V150.6z M117.2,142.4v-22.5l-6.2,0.4
	c-25.2,1.9-58.7,9.2-77.6,22.8c9.2-33.9,38.6-58.3,78.7-63l5.1-0.7V57.5l49.1,42.4L117.2,142.4L117.2,142.4z"/>
</svg>
