<?xml version="1.0" encoding="utf-8"?>
<!-- Generator: Adobe Illustrator 21.0.0, SVG Export Plug-In . SVG Version: 6.00 Build 0)  -->
<svg version="1.1" id="图层_1" xmlns="http://www.w3.org/2000/svg" xmlns:xlink="http://www.w3.org/1999/xlink" x="0px" y="0px"
	 viewBox="0 0 22 22" style="enable-background:new 0 0 22 22;" xml:space="preserve">
<style type="text/css">
	.st0{opacity:0.4;}
</style>
<title>销售名片 copy 6</title>
<desc>Created with Sketch.</desc>
<g id="页面-1">
	<g id="销售名片" transform="translate(-19.000000, -754.000000)">
		<g id="标签" transform="translate(22.000000, 757.000000)" class="st0">
			<path id="形状" d="M13.4,2H9C8.8,2,8.7,2.1,8.6,2.2L2.2,8.6c-0.2,0.2-0.2,0.6,0,0.9l4.4,4.4C6.7,13.9,6.8,14,7,14
				c0.2,0,0.3-0.1,0.4-0.2l6.4-6.4C13.9,7.3,14,7.2,14,7V2.6C14,2.3,13.7,2,13.4,2z M13.2,6.9L7,13.1L2.9,9l6.2-6.2h4.1V6.9z
				 M9.5,6.5c0.3,0.3,0.7,0.5,1.1,0.5c0.4,0,0.8-0.2,1.2-0.5c0.3-0.3,0.5-0.7,0.5-1.2c0-0.4-0.2-0.8-0.5-1.1
				c-0.3-0.3-0.7-0.5-1.2-0.5c-0.4,0-0.8,0.2-1.1,0.5C9.2,4.5,9.1,4.9,9.1,5.3C9.1,5.7,9.2,6.2,9.5,6.5z M10.1,4.7
				c0.2-0.2,0.4-0.2,0.6-0.2c0.2,0,0.4,0.1,0.6,0.2c0.2,0.2,0.2,0.4,0.2,0.6c0,0.2-0.1,0.4-0.2,0.6c-0.2,0.2-0.4,0.2-0.6,0.2
				s-0.4-0.1-0.6-0.2C9.9,5.7,9.9,5.5,9.9,5.3C9.9,5.1,9.9,4.9,10.1,4.7z"/>
		</g>
	</g>
</g>
</svg>
