<?xml version="1.0" encoding="utf-8"?>
<!-- Generator: Adobe Illustrator 21.0.0, SVG Export Plug-In . SVG Version: 6.00 Build 0)  -->
<svg version="1.1" id="图层_1" xmlns="http://www.w3.org/2000/svg" xmlns:xlink="http://www.w3.org/1999/xlink" x="0px" y="0px"
	 viewBox="0 0 22 22" style="enable-background:new 0 0 22 22;" xml:space="preserve">
<style type="text/css">
	.st0{opacity:0.4;}
</style>
<title>销售名片 copy 5</title>
<desc>Created with Sketch.</desc>
<g id="页面-1">
	<g id="销售名片" transform="translate(-19.000000, -703.000000)">
		<g id="网络" transform="translate(22.000000, 706.000000)" class="st0">
			<path id="形状" d="M8,1.7c0.8,0,1.7,0.2,2.4,0.5c0.7,0.3,1.4,0.8,2,1.3c0.6,0.6,1,1.2,1.3,2c0.3,0.8,0.5,1.6,0.5,2.4
				s-0.2,1.7-0.5,2.4c-0.3,0.7-0.8,1.4-1.3,2c-0.6,0.6-1.2,1-2,1.3c-0.8,0.3-1.6,0.5-2.4,0.5s-1.7-0.2-2.4-0.5
				c-0.7-0.3-1.4-0.8-2-1.3c-0.6-0.6-1-1.2-1.3-2C1.9,9.7,1.8,8.8,1.8,8s0.2-1.7,0.5-2.4c0.3-0.7,0.8-1.4,1.3-2c0.6-0.6,1.2-1,2-1.3
				C6.3,1.9,7.2,1.7,8,1.7z M8,1.1C4.2,1.1,1.1,4.2,1.1,8s3.1,6.9,6.9,6.9s6.9-3.1,6.9-6.9S11.8,1.1,8,1.1z M6.3,12.4
				c-0.2-0.5-0.3-1.1-0.4-1.7c0.7-0.1,1.4-0.1,2-0.1c0.7,0,1.4,0,2,0.1c-0.1,0.6-0.2,1.1-0.4,1.7C9.5,13,9.3,13.6,9,14.2
				c-0.1,0.2-0.2,0.4-0.3,0.6c0.3,0,0.5-0.1,0.8-0.1c0.6-1.2,1-2.5,1.2-3.9c0.5,0.1,1.1,0.2,1.6,0.4c0.5,0.2,1.1,0.3,1.5,0.5
				c0.1-0.2,0.2-0.4,0.3-0.5c-1-0.4-2.2-0.8-3.4-1c0.1-0.7,0.1-1.4,0.1-2.1c0-0.8-0.1-1.6-0.2-2.3c1.2-0.2,2.4-0.5,3.4-1
				c-0.1-0.2-0.2-0.4-0.3-0.5c-0.5,0.2-1,0.4-1.5,0.5c-0.5,0.2-1.1,0.3-1.6,0.4c-0.3-1.4-0.7-2.8-1.3-3.9C9.1,1.2,8.8,1.2,8.6,1.1
				C8.7,1.4,8.9,1.7,9,2c0.3,0.6,0.5,1.2,0.7,1.8C9.8,4.3,9.9,4.8,10,5.2C9.3,5.3,8.7,5.4,8,5.4s-1.3,0-2-0.1c0.1-0.5,0.2-1,0.3-1.4
				C6.5,3.2,6.7,2.6,7,2c0.1-0.3,0.3-0.6,0.4-0.8c-0.3,0-0.5,0.1-0.8,0.1c-0.6,1.2-1,2.5-1.3,3.9C4.8,5.1,4.3,4.9,3.7,4.8
				c-0.5-0.1-1-0.3-1.5-0.5C2.1,4.4,2,4.6,1.9,4.8c1,0.4,2.2,0.8,3.4,1C5.2,6.5,5.1,7.3,5.1,8.1c0,0.7,0,1.4,0.1,2.1
				c-1.2,0.2-2.3,0.5-3.4,1c0.1,0.2,0.2,0.4,0.3,0.5c0.5-0.2,1-0.4,1.5-0.5c0.5-0.1,1.1-0.3,1.6-0.4c0.2,1.4,0.6,2.8,1.2,3.9
				c0.2,0.1,0.5,0.1,0.8,0.1c-0.1-0.2-0.2-0.4-0.3-0.6C6.7,13.6,6.5,13,6.3,12.4z M5.8,8.1c0-0.8,0.1-1.5,0.2-2.2C6.6,6,7.3,6,8,6
				s1.4,0,2.1-0.1c0.1,0.7,0.1,1.5,0.1,2.2c0,0.7,0,1.3-0.1,2C9.4,10,8.7,9.9,8,9.9s-1.4,0-2.1,0.1C5.8,9.4,5.8,8.8,5.8,8.1z
				 M14.9,7.7H1.1v0.6h13.8V7.7z"/>
		</g>
	</g>
</g>
</svg>
