<?xml version="1.0" encoding="utf-8"?>
<!-- Generator: Adobe Illustrator 21.0.0, SVG Export Plug-In . SVG Version: 6.00 Build 0)  -->
<svg version="1.1" id="图层_1" xmlns="http://www.w3.org/2000/svg" xmlns:xlink="http://www.w3.org/1999/xlink" x="0px" y="0px"
	 viewBox="0 0 22 22" style="enable-background:new 0 0 22 22;" xml:space="preserve">
<style type="text/css">
	.st0{opacity:0.4;}
</style>
<title>销售名片</title>
<desc>Created with Sketch.</desc>
<g id="页面-1">
	<g id="销售名片" transform="translate(-19.000000, -467.000000)">
		<g id="微信" transform="translate(22.000000, 471.000000)" class="st0">
			<path id="形状" d="M7.8,5.4c0.4,0,0.7-0.3,0.7-0.7C8.5,4.3,8.2,4,7.8,4C7.4,4,6.9,4.3,6.9,4.7C6.9,5.2,7.4,5.4,7.8,5.4z
				 M4.7,4.7C4.7,4.3,4.4,4,4,4C3.6,4,3.1,4.3,3.1,4.7S3.6,5.4,4,5.4C4.4,5.4,4.7,5.1,4.7,4.7z M16,9.8c0-1.1-0.5-2.1-1.3-2.9
				c-0.8-0.8-2-1.3-3.1-1.4c0,0,0,0,0-0.1c-0.5-2.3-3-4.1-5.8-4.1C2.6,1.4,0,3.6,0,6.4c0,1.4,0.7,2.8,2.1,3.8l-0.5,1.4
				c0,0.1,0,0.2,0.1,0.3s0.2,0.1,0.3,0L3.9,11l0.2,0h0c0.6,0.1,1.1,0.2,1.7,0.2c0.1,0,0.5,0,0.7-0.1C7.1,12.9,9,14,11.1,14
				c0.5,0,1.1-0.1,1.6-0.3l1.4,0.8c0,0,0.1,0,0.1,0c0.1,0,0.1,0,0.2-0.1c0.1-0.1,0.1-0.2,0.1-0.3L14.1,13C15.3,12.1,16,10.9,16,9.8z
				 M13.5,12.6c-0.1,0.1-0.1,0.2-0.1,0.3l0.2,0.7l-0.8-0.5c0,0-0.1,0-0.1,0c0,0,0,0-0.1,0c-0.5,0.1-1,0.3-1.5,0.3
				c-2.3,0-4.1-1.6-4.1-3.5s1.9-3.5,4.1-3.5c2.2,0,4.1,1.6,4.1,3.5C15.2,10.7,14.6,11.7,13.5,12.6z M2.8,10c0-0.1,0-0.2-0.1-0.3
				c-1.3-0.9-2-2-2-3.3c0-2.3,2.2-4.2,5-4.2c2.4,0,4.6,1.5,5,3.4C8.2,5.6,6.1,7.4,6.1,9.7c0,0.3,0,0.6,0.1,0.9c0,0,0,0,0,0
				c-0.2,0-0.3,0-0.5,0c-0.5,0-1-0.1-1.5-0.2L4,10.3c-0.1,0-0.1,0-0.2,0L2.5,11L2.8,10z M9.6,8C9.3,8,9,8.3,9,8.6
				c0,0.3,0.3,0.6,0.6,0.6c0.4,0,0.7-0.3,0.7-0.6C10.3,8.3,10,8,9.6,8z M12.6,8C12.3,8,12,8.3,12,8.6c0,0.3,0.3,0.6,0.6,0.6
				c0.4,0,0.7-0.3,0.7-0.6C13.3,8.3,13,8,12.6,8z"/>
		</g>
	</g>
</g>
</svg>
