<?xml version="1.0" encoding="UTF-8"?>
<svg width="23px" height="23px" viewBox="0 0 23 23" version="1.1" xmlns="http://www.w3.org/2000/svg" xmlns:xlink="http://www.w3.org/1999/xlink">
    <!-- Generator: Sketch 52.2 (67145) - http://www.bohemiancoding.com/sketch -->
    <title>首页 copy 4</title>
    <desc>Created with Sketch.</desc>
    <g id="页面-1" stroke="none" stroke-width="1" fill="none" fill-rule="evenodd">
        <g id="首页" transform="translate(-251.000000, -861.000000)" fill="#000000" fill-rule="nonzero">
            <g id="分组-4" transform="translate(251.000000, 861.000000)">
                <g id="wode-copy" transform="translate(4.000000, 4.000000)">
                    <path d="M7,1.18962295 C8.28838482,1.18962295 9.33282708,2.24795743 9.33282708,3.55347917 C9.33282708,4.85900091 8.28838482,5.91733539 7,5.91733539 C5.71161518,5.91733539 4.66717292,4.85900091 4.66717292,3.55347917 C4.66717292,2.24795743 5.71161518,1.18962295 7,1.18962295 Z M7,0.00769483676 C5.06742278,0.00769483676 3.50075939,1.59519655 3.50075939,3.55347915 C3.50075939,5.51176175 5.06742277,7.09926346 6.99999999,7.09926347 C8.93257721,7.09926348 10.4992406,5.51176177 10.4992406,3.55347917 C10.4992406,2.6130787 10.1305717,1.71119458 9.47433677,1.04623102 C8.81810186,0.381267471 7.92805631,0.00769483676 7,0.00769483676 Z M11.6656542,9.26613169 C12.3098466,9.26613169 12.8320677,9.79529893 12.8320677,10.4480598 L12.8320677,12.811916 L1.16793231,12.811916 L1.16793231,10.4480598 C1.16793231,9.79529893 1.69015344,9.26613169 2.33434585,9.26613169 L11.6656542,9.26613169 Z M11.6656542,8.08420359 L2.33434585,8.08420359 C1.04596103,8.08420359 0.00151877534,9.14253806 0.00151876611,10.4480598 L0.00151876611,13.2058921 C0.00151876611,13.641066 0.349666189,13.9938441 0.7791278,13.9938441 L13.2208722,13.9938441 C13.6503338,13.9938441 13.9984812,13.641066 13.9984812,13.2058921 L13.9984812,10.4480598 C13.9984812,9.14253806 12.954039,8.08420359 11.6656542,8.08420359 Z" id="形状"></path>
                </g>
            </g>
        </g>
    </g>
</svg>