<?xml version="1.0" encoding="UTF-8"?>
<svg width="23px" height="23px" viewBox="0 0 23 23" version="1.1" xmlns="http://www.w3.org/2000/svg" xmlns:xlink="http://www.w3.org/1999/xlink">
    <!-- Generator: Sketch 52.2 (67145) - http://www.bohemiancoding.com/sketch -->
    <title>首页 copy 5</title>
    <desc>Created with Sketch.</desc>
    <g id="页面-1" stroke="none" stroke-width="1" fill="none" fill-rule="evenodd">
        <g id="首页" transform="translate(-326.000000, -861.000000)" fill="#000000" fill-rule="nonzero">
            <g id="分组-5" transform="translate(326.000000, 861.000000)">
                <g id="xiangji-3-copy" transform="translate(5.000000, 5.000000)">
                    <path d="M11.7894737,3.07142858 C12.3998937,3.07142858 12.8947368,3.55112348 12.8947368,4.14285714 L12.8947368,9.85714286 C12.8947368,10.4488765 12.3998937,10.9285714 11.7894737,10.9285714 L2.21052631,10.9285714 C1.60010632,10.9285714 1.10526316,10.4488765 1.10526316,9.85714286 L1.10526316,4.14285714 C1.10526317,3.55112348 1.60010633,3.07142858 2.21052631,3.07142858 L11.7894737,3.07142858 Z M11.7894737,2 L2.21052631,2 C0.989686342,2.00000001 8.74299567e-09,2.95938982 0,4.14285714 L0,9.85714286 C8.74299612e-09,11.0406102 0.989686342,12 2.21052631,12 L11.7894737,12 C13.0103137,12 14,11.0406102 14,9.85714286 L14,4.14285714 C14,2.95938982 13.0103137,2.00000001 11.7894737,2 Z" id="形状"></path>
                    <path d="M7.00004534,5.76001618 C7.59178436,5.76001618 8.07148362,6.24354623 8.07148362,6.84001079 C8.07148362,7.43647534 7.59178436,7.92000539 7.00004534,7.92000539 C6.40830631,7.92000539 5.92860705,7.43647534 5.92860705,6.84001079 C5.92860705,6.24354623 6.40830631,5.76001618 7.00004534,5.76001618 Z M7.00004534,4.68002157 C5.81656728,4.68002157 4.85716876,5.64708168 4.85716876,6.84001079 C4.85716876,8.03293989 5.81656728,9 7.00004534,9 C8.18352339,9 9.14292191,8.03293989 9.14292191,6.84001079 C9.14292191,5.64708168 8.18352339,4.68002157 7.00004534,4.68002157 Z M6.45361181,1.08003955 C6.63526548,1.07871696 6.78896364,1.21505145 6.81075791,1.39683797 L6.8571869,1.80003596 L3.21429673,1.80003596 L3.26429718,1.39683797 C3.28609145,1.21505145 3.4397896,1.07871696 3.62144327,1.08003955 L6.45718328,1.08003955 L6.45361181,1.08003955 Z M6.45718328,4.49447454e-05 L3.61787182,4.49447454e-05 C2.89366875,-0.00567787691 2.27979335,0.53575262 2.18928744,1.26003866 L2,2.88003057 L8.07148362,2.88003057 L7.87148181,1.26003866 C7.78097591,0.535752614 7.1671005,-0.00567788479 6.44289742,4.49447454e-05 L6.45718328,4.49447454e-05 Z M11.4643715,0.360043157 L10.3929332,0.360043157 C10.0970991,0.360093627 9.85730477,0.601843869 9.85730477,0.900040453 C9.85730477,1.19823704 10.0970991,1.43998728 10.3929332,1.44003775 L11.4643715,1.44003775 C11.7602056,1.43998728 12,1.19823704 12,0.900040453 C12,0.601843869 11.7602056,0.360093627 11.4643715,0.360043157 Z" id="形状"></path>
                </g>
            </g>
        </g>
    </g>
</svg>