<?xml version="1.0" encoding="UTF-8"?>
<svg width="23px" height="23px" viewBox="0 0 23 23" version="1.1" xmlns="http://www.w3.org/2000/svg" xmlns:xlink="http://www.w3.org/1999/xlink">
    <!-- Generator: Sketch 52.2 (67145) - http://www.bohemiancoding.com/sketch -->
    <title>首页</title>
    <desc>Created with Sketch.</desc>
    <g id="页面-1" stroke="none" stroke-width="1" fill="none" fill-rule="evenodd">
        <g id="首页" transform="translate(-26.000000, -861.000000)" fill="#000000" fill-rule="nonzero">
            <g id="分组" transform="translate(26.000000, 861.000000)">
                <g id="shouye-copy" transform="translate(4.000000, 3.000000)">
                    <path d="M7.99142551,9.59812719 C8.65268197,9.59812719 9.18873624,10.1347566 9.18873624,10.7967226 C9.18873624,11.4586886 8.65268197,11.995318 7.99142551,11.995318 C7.33016905,11.995318 6.79411478,11.4586886 6.79411478,10.7967226 C6.79411478,10.1347566 7.33016905,9.59812719 7.99142551,9.59812719 Z M7.99142551,8.39953179 C6.66891259,8.39953179 5.59680405,9.47279067 5.59680405,10.7967226 C5.59680405,12.1206545 6.66891259,13.1939134 7.99142551,13.1939134 C9.31393842,13.1939134 10.386047,12.1206545 10.386047,10.7967226 C10.386047,9.47279067 9.31393842,8.39953179 7.99142551,8.39953179 Z" id="形状"></path>
                    <path d="M7.99142551,1.34779555 L14.181522,6.86133437 L12.9003995,6.86133437 L12.9003995,14.332579 C12.904908,14.5789008 12.7113229,14.7833611 12.4653766,14.7920406 L3.5254565,14.7920406 C3.275733,14.7854996 3.07798345,14.5786207 3.08245153,14.3285837 L3.08245153,6.86133437 L1.80132905,6.86133437 L7.99142551,1.34779555 Z M7.99142551,0.00936403433 C7.80815467,0.00972429202 7.63058983,0.0732083457 7.48855501,0.189153339 L0.304690641,6.58166211 C0.0433815714,6.80805511 -0.0514148149,7.17230946 0.0663297011,7.49756211 C0.184074217,7.82281477 0.489973382,8.04170212 0.835498392,8.04794381 L1.8851408,8.04794381 L1.8851408,14.3285837 C1.88195516,14.7669001 2.05311221,15.1884735 2.36084716,15.5002864 C2.66858211,15.8120993 3.08760341,15.9885249 3.5254565,15.990636 L12.4653766,15.990636 C12.9014775,15.9874686 13.3184586,15.8109988 13.6245831,15.5000503 C13.9307075,15.1891017 14.1008973,14.7691476 14.0977102,14.332579 L14.0977102,8.05992977 L15.1752899,8.05992977 C15.5208149,8.05368808 15.8267141,7.83480072 15.9444586,7.50954807 C16.0622031,7.18429542 15.9674067,6.82004106 15.7060976,6.59364807 L8.52223326,0.201139296 C8.3745253,0.074645543 8.18578494,0.00645563399 7.99142551,0.00936403433 Z" id="形状"></path>
                </g>
            </g>
        </g>
    </g>
</svg>