<?xml version="1.0" encoding="UTF-8"?>
<svg width="23px" height="23px" viewBox="0 0 23 23" version="1.1" xmlns="http://www.w3.org/2000/svg" xmlns:xlink="http://www.w3.org/1999/xlink">
    <!-- Generator: Sketch 52.2 (67145) - http://www.bohemiancoding.com/sketch -->
    <title>首页 copy 2</title>
    <desc>Created with Sketch.</desc>
    <g id="页面-1" stroke="none" stroke-width="1" fill="none" fill-rule="evenodd">
        <g id="首页" transform="translate(-99.000000, -861.000000)" fill="#000000" fill-rule="nonzero">
            <g id="分组-2" transform="translate(99.000000, 861.000000)">
                <g id="fenlei-copy" transform="translate(4.000000, 4.000000)">
                    <path d="M5.13595321,1.19587524 C5.24045057,1.19587523 5.340668,1.23738665 5.4145588,1.31127744 C5.4884496,1.38516824 5.52996102,1.48538566 5.52996102,1.58988303 L5.52996102,5.13595321 C5.52996102,5.24045058 5.4884496,5.34066801 5.4145588,5.4145588 C5.34066801,5.4884496 5.24045058,5.52996102 5.13595321,5.52996102 L1.58988303,5.52996102 C1.48538566,5.52996102 1.38516824,5.4884496 1.31127744,5.4145588 C1.23738665,5.340668 1.19587523,5.24045057 1.19587524,5.13595321 L1.19587524,1.58988303 C1.19587524,1.37227853 1.37227853,1.19587524 1.58988303,1.19587524 L5.13595321,1.19587524 Z M5.13595321,0.0138518397 L1.58988303,0.0138518397 C0.719465039,0.0138518397 0.0138518397,0.719465039 0.0138518397,1.58988303 L0.0138518397,5.13595321 C0.0138518397,6.0063712 0.719465039,6.7119844 1.58988303,6.7119844 L5.13595321,6.7119844 C5.55394267,6.7119844 5.95481237,6.54593873 6.25037555,6.25037555 C6.54593873,5.95481237 6.7119844,5.55394267 6.7119844,5.13595321 L6.7119844,1.58988303 C6.7119844,1.17189357 6.54593873,0.77102387 6.25037555,0.475460688 C5.95481237,0.179897506 5.55394267,0.0138518397 5.13595321,0.0138518397 Z M13.410117,1.19587524 C13.6277215,1.19587524 13.8041248,1.37227853 13.8041248,1.58988303 L13.8041248,5.13595321 C13.8041248,5.24045057 13.7626134,5.340668 13.6887226,5.4145588 C13.6148318,5.4884496 13.5146143,5.52996102 13.410117,5.52996102 L9.86404679,5.52996102 C9.75954942,5.52996102 9.65933199,5.4884496 9.5854412,5.4145588 C9.5115504,5.34066801 9.47003898,5.24045058 9.47003898,5.13595321 L9.47003898,1.58988303 C9.47003898,1.48538566 9.5115504,1.38516824 9.5854412,1.31127744 C9.659332,1.23738665 9.75954943,1.19587523 9.86404679,1.19587524 L13.410117,1.19587524 Z M13.410117,0.0138518397 L9.86404679,0.0138518397 C8.9936288,0.0138518397 8.2880156,0.719465039 8.2880156,1.58988303 L8.2880156,5.13595321 C8.2880156,6.0063712 8.9936288,6.7119844 9.86404679,6.7119844 L13.410117,6.7119844 C13.8281064,6.7119844 14.2289761,6.54593873 14.5245393,6.25037555 C14.8201025,5.95481237 14.9861482,5.55394267 14.9861482,5.13595321 L14.9861482,1.58988303 C14.9861482,0.719465039 14.280535,0.0138518397 13.410117,0.0138518397 Z M5.13595321,9.47003898 C5.24045058,9.47003898 5.34066801,9.5115504 5.4145588,9.5854412 C5.4884496,9.65933199 5.52996102,9.75954942 5.52996102,9.86404679 L5.52996102,13.410117 C5.52996102,13.5146143 5.4884496,13.6148318 5.4145588,13.6887226 C5.340668,13.7626134 5.24045057,13.8041248 5.13595321,13.8041248 L1.58988303,13.8041248 C1.48538567,13.8041248 1.38516824,13.7626133 1.31127745,13.6887226 C1.23738665,13.6148318 1.19587524,13.5146143 1.19587524,13.410117 L1.19587524,9.86404679 C1.19587523,9.75954943 1.23738665,9.659332 1.31127744,9.5854412 C1.38516824,9.5115504 1.48538566,9.47003898 1.58988303,9.47003898 L5.13595321,9.47003898 Z M5.13595321,8.2880156 L1.58988303,8.2880156 C0.719465039,8.2880156 0.0138518397,8.9936288 0.0138518397,9.86404679 L0.0138518397,13.410117 C0.0138518397,14.280535 0.719465039,14.9861482 1.58988303,14.9861482 L5.13595321,14.9861482 C6.0063712,14.9861482 6.7119844,14.280535 6.7119844,13.410117 L6.7119844,9.86404679 C6.7119844,9.44605733 6.54593873,9.04518763 6.25037555,8.74962445 C5.95481237,8.45406127 5.55394267,8.2880156 5.13595321,8.2880156 Z M13.410117,9.47003898 C13.5146143,9.47003898 13.6148318,9.5115504 13.6887226,9.5854412 C13.7626134,9.659332 13.8041248,9.75954943 13.8041248,9.86404679 L13.8041248,13.410117 C13.8041248,13.5146143 13.7626133,13.6148318 13.6887226,13.6887226 C13.6148318,13.7626133 13.5146143,13.8041248 13.410117,13.8041248 L9.86404679,13.8041248 C9.75954943,13.8041248 9.659332,13.7626134 9.5854412,13.6887226 C9.5115504,13.6148318 9.47003898,13.5146143 9.47003898,13.410117 L9.47003898,9.86404679 C9.47003898,9.75954942 9.5115504,9.65933199 9.5854412,9.5854412 C9.65933199,9.5115504 9.75954942,9.47003898 9.86404679,9.47003898 L13.410117,9.47003898 Z M13.410117,8.2880156 L9.86404679,8.2880156 C8.9936288,8.2880156 8.2880156,8.9936288 8.2880156,9.86404679 L8.2880156,13.410117 C8.2880156,14.280535 8.9936288,14.9861482 9.86404679,14.9861482 L13.410117,14.9861482 C14.280535,14.9861482 14.9861482,14.280535 14.9861482,13.410117 L14.9861482,9.86404679 C14.9861482,8.9936288 14.280535,8.2880156 13.410117,8.2880156 Z" id="形状"></path>
                </g>
            </g>
        </g>
    </g>
</svg>