<?xml version="1.0" encoding="UTF-8"?>
<svg width="23px" height="23px" viewBox="0 0 23 23" version="1.1" xmlns="http://www.w3.org/2000/svg" xmlns:xlink="http://www.w3.org/1999/xlink">
    <!-- Generator: Sketch 52.2 (67145) - http://www.bohemiancoding.com/sketch -->
    <title>首页 copy 3</title>
    <desc>Created with Sketch.</desc>
    <g id="页面-1" stroke="none" stroke-width="1" fill="none" fill-rule="evenodd">
        <g id="首页" transform="translate(-176.000000, -861.000000)" fill="#000000" fill-rule="nonzero">
            <g id="分组-3" transform="translate(176.000000, 861.000000)">
                <g id="zixun-copy" transform="translate(5.000000, 4.000000)">
                    <path d="M10.5555691,1.19587524 C11.2275178,1.19587524 11.7722398,1.72508513 11.7722398,2.37789862 L11.7722398,10.786025 C11.7728631,10.8907535 11.7305431,10.9914139 11.6546283,11.0657706 L8.9536193,13.6898625 C8.87708308,13.7636154 8.77347214,13.8047303 8.6656739,13.8041248 L2.4444309,13.8041248 C1.77248222,13.8041248 1.22776018,13.2749149 1.22776017,12.6221014 L1.22776017,2.37789862 C1.22776018,1.72508513 1.77248222,1.19587524 2.4444309,1.19587524 L10.5555691,1.19587524 Z M10.5555691,0.0138518397 L2.4444309,0.0138518397 C1.10053353,0.0138518491 0.0110894627,1.07227164 0.0110894531,2.37789862 L0.0110894531,12.6221014 C0.0110894627,13.9277284 1.10053353,14.9861482 2.4444309,14.9861482 L8.6656739,14.9861482 C9.09604488,14.9864769 9.50891253,14.8206469 9.81339995,14.525159 L12.514409,11.9010671 C12.8185581,11.6052506 12.989249,11.2041403 12.9889105,10.786025 L12.9889105,2.37789862 C12.9889105,1.07227164 11.8994665,0.0138518491 10.5555691,0.0138518397 Z" id="形状"></path>
                    <path d="M8.730563,14.9861482 L7.51389227,14.9861482 L7.51389227,12.6221014 C7.51389227,10.9900676 8.87569737,9.66704289 10.5555691,9.66704289 L12.9889105,9.66704289 L12.9889105,10.8490663 L10.5555691,10.8490663 C9.54857135,10.8512331 8.73279335,11.6437801 8.730563,12.6221014 L8.730563,14.9861482 Z M9.13611991,4.34793762 L3.45832317,4.34793762 C3.12234883,4.34793761 2.84998782,4.08333266 2.84998782,3.75692592 C2.84998782,3.43051918 3.12234883,3.16591423 3.45832317,3.16591422 L9.13611991,3.16591422 C9.47209425,3.16591423 9.74445525,3.43051918 9.74445525,3.75692592 C9.74445525,4.08333266 9.47209425,4.34793761 9.13611991,4.34793762 Z M9.13611991,7.5 L3.45832317,7.5 C3.12234882,7.5 2.8499878,7.23539505 2.8499878,6.9089883 C2.8499878,6.58258155 3.12234882,6.3179766 3.45832317,6.3179766 L9.13611991,6.3179766 C9.47209425,6.3179766 9.74445527,6.58258155 9.74445527,6.9089883 C9.74445527,7.23539505 9.47209425,7.5 9.13611991,7.5 Z M5.89166463,10.6520624 L3.45832317,10.6520624 C3.12234882,10.6520624 2.8499878,10.3874574 2.8499878,10.0610507 C2.8499878,9.73464393 3.12234882,9.47003898 3.45832317,9.47003898 L5.89166463,9.47003898 C6.22763898,9.47003898 6.5,9.73464393 6.5,10.0610507 C6.5,10.3874574 6.22763898,10.6520624 5.89166463,10.6520624 Z" id="形状"></path>
                </g>
            </g>
        </g>
    </g>
</svg>